<?xml version="1.0" encoding="UTF-8" standalone="no"?>
<!DOCTYPE svg PUBLIC "-//W3C//DTD SVG 1.1//EN"
 "http://www.w3.org/Graphics/SVG/1.1/DTD/svg11.dtd">
<!-- Generated by graphviz version 2.40.1 (20161225.0304)
 -->
<!-- Title: RenderData::filterPointsForTriangle Pages: 1 -->
<!--zoomable 154 -->
<svg id="main" version="1.1" xmlns="http://www.w3.org/2000/svg" xmlns:xlink="http://www.w3.org/1999/xlink" xml:space="preserve" onload="init(evt)">
<style type="text/css"><![CDATA[
.edge:hover path { stroke: red; }
.edge:hover polygon { stroke: red; fill: red; }
]]></style>
<script type="text/javascript"><![CDATA[
var edges = document.getElementsByTagName('g');
if (edges && edges.length) {
  for (var i=0;i<edges.length;i++) {
    if (edges[i].id.substr(0,4)=='edge') {
      edges[i].setAttribute('class','edge');
    }
  }
}
]]></script>
        <defs>
                <circle id="rim" cx="0" cy="0" r="7"/>
                <circle id="rim2" cx="0" cy="0" r="3.5"/>
                <g id="zoomPlus">
                        <use xlink:href="#rim" fill="#404040">
                                <set attributeName="fill" to="#808080" begin="zoomplus.mouseover" end="zoomplus.mouseout"/>
                        </use>
                        <path d="M-4,0h8M0,-4v8" fill="none" stroke="white" stroke-width="1.5" pointer-events="none"/>
                </g>
                <g id="zoomMin">
                        <use xlink:href="#rim" fill="#404040">
                                <set attributeName="fill" to="#808080" begin="zoomminus.mouseover" end="zoomminus.mouseout"/>
                        </use>
                        <path d="M-4,0h8" fill="none" stroke="white" stroke-width="1.5" pointer-events="none"/>
                </g>
                <g id="dirArrow">
                        <path fill="none" stroke="white" stroke-width="1.5" d="M0,-3.0v7 M-2.5,-0.5L0,-3.0L2.5,-0.5"/>
                </g>
               <g id="resetDef">
                       <use xlink:href="#rim2" fill="#404040">
                               <set attributeName="fill" to="#808080" begin="reset.mouseover" end="reset.mouseout"/>
                       </use>
               </g>
        </defs>

<script type="text/javascript">
var viewWidth = 1403;
var viewHeight = 154;
var sectionId = 'dynsection-3';
</script>
<script xlink:href="../../svgpan.js"/>
<svg id="graph" class="graph">
<g id="viewport">
<title>RenderData::filterPointsForTriangle</title>
<!-- Node16 -->
<g id="node1" class="node">
<title>Node16</title>
<polygon fill="#bfbfbf" stroke="#000000" points="0,-44 0,-74 122,-74 122,-44 0,-44"/>
<text text-anchor="start" x="8" y="-62" font-family="Helvetica,sans-Serif" font-size="10.00" fill="#000000">RenderData::filterPoints</text>
<text text-anchor="middle" x="61" y="-51" font-family="Helvetica,sans-Serif" font-size="10.00" fill="#000000">ForTriangle</text>
</g>
<!-- Node17 -->
<g id="node2" class="node">
<title>Node17</title>
<g id="a_node2"><a xlink:href="../../da/dce/class_render_data.html#adee024bdbedaae2cfd38bb2038b4aa48" target="_top" xlink:title="RenderData::generateIcosahedron\lAtDepthZero">
<polygon fill="none" stroke="#000000" points="158,-66 158,-96 324,-96 324,-66 158,-66"/>
<text text-anchor="start" x="166" y="-84" font-family="Helvetica,sans-Serif" font-size="10.00" fill="#000000">RenderData::generateIcosahedron</text>
<text text-anchor="middle" x="241" y="-73" font-family="Helvetica,sans-Serif" font-size="10.00" fill="#000000">AtDepthZero</text>
</a>
</g>
</g>
<!-- Node16&#45;&gt;Node17 -->
<g id="edge1" class="edge">
<title>Node16&#45;&gt;Node17</title>
<path fill="none" stroke="#191970" d="M132.3335,-67.7185C140.7586,-68.7483 149.412,-69.8059 157.9806,-70.8532"/>
<polygon fill="#191970" stroke="#191970" points="132.5417,-64.218 122.191,-66.4789 131.6924,-71.1663 132.5417,-64.218"/>
</g>
<!-- Node26 -->
<g id="node11" class="node">
<title>Node26</title>
<g id="a_node11"><a xlink:href="../../da/dce/class_render_data.html#ac1bbf9770f040e452f676358ee699767" target="_top" xlink:title="RenderData::calculateNext\lSubdivision">
<polygon fill="none" stroke="#000000" points="360,-22 360,-52 495,-52 495,-22 360,-22"/>
<text text-anchor="start" x="368" y="-40" font-family="Helvetica,sans-Serif" font-size="10.00" fill="#000000">RenderData::calculateNext</text>
<text text-anchor="middle" x="427.5" y="-29" font-family="Helvetica,sans-Serif" font-size="10.00" fill="#000000">Subdivision</text>
</a>
</g>
</g>
<!-- Node16&#45;&gt;Node26 -->
<g id="edge17" class="edge">
<title>Node16&#45;&gt;Node26</title>
<path fill="none" stroke="#191970" d="M132.6256,-54.7005C198.4077,-50.7518 295.1921,-44.9421 359.7275,-41.0682"/>
<polygon fill="#191970" stroke="#191970" points="132.1161,-51.2247 122.3439,-55.3177 132.5356,-58.2121 132.1161,-51.2247"/>
</g>
<!-- Node18 -->
<g id="node3" class="node">
<title>Node18</title>
<g id="a_node3"><a xlink:href="../../da/dce/class_render_data.html#a8d5f7285d29dc9ca0f93fcf2b5826283" target="_top" xlink:title="RenderData::setSphereDepth">
<polygon fill="none" stroke="#000000" points="531,-49.5 531,-68.5 677,-68.5 677,-49.5 531,-49.5"/>
<text text-anchor="middle" x="604" y="-56.5" font-family="Helvetica,sans-Serif" font-size="10.00" fill="#000000">RenderData::setSphereDepth</text>
</a>
</g>
</g>
<!-- Node17&#45;&gt;Node18 -->
<g id="edge2" class="edge">
<title>Node17&#45;&gt;Node18</title>
<path fill="none" stroke="#191970" d="M334.3256,-75.3439C395.5017,-71.6363 474.3318,-66.8587 530.9407,-63.4278"/>
<polygon fill="#191970" stroke="#191970" points="334.0495,-71.8541 324.2795,-75.9528 334.473,-78.8413 334.0495,-71.8541"/>
</g>
<!-- Node17&#45;&gt;Node26 -->
<g id="edge15" class="edge">
<title>Node17&#45;&gt;Node26</title>
<path fill="none" stroke="#191970" d="M314.6543,-63.6231C330.9068,-59.7888 347.9909,-55.7582 363.8094,-52.0262"/>
<polygon fill="#191970" stroke="#191970" points="313.5902,-60.278 304.6611,-65.9808 315.1976,-67.091 313.5902,-60.278"/>
</g>
<!-- Node19 -->
<g id="node4" class="node">
<title>Node19</title>
<g id="a_node4"><a xlink:href="../../d9/dc6/class_main_window.html#a7bdf36376a7474c5218923ed66baa937" target="_top" xlink:title="MainWindow::changeTriangle\lDepth">
<polygon fill="none" stroke="#000000" points="1075.5,-115 1075.5,-145 1220.5,-145 1220.5,-115 1075.5,-115"/>
<text text-anchor="start" x="1083.5" y="-133" font-family="Helvetica,sans-Serif" font-size="10.00" fill="#000000">MainWindow::changeTriangle</text>
<text text-anchor="middle" x="1148" y="-122" font-family="Helvetica,sans-Serif" font-size="10.00" fill="#000000">Depth</text>
</a>
</g>
</g>
<!-- Node18&#45;&gt;Node19 -->
<g id="edge3" class="edge">
<title>Node18&#45;&gt;Node19</title>
<path fill="none" stroke="#191970" d="M665.2321,-70.2671C680.7868,-72.9659 697.4877,-75.7225 713,-78 840.1755,-96.6717 989.0153,-113.3528 1075.4919,-122.5343"/>
<polygon fill="#191970" stroke="#191970" points="665.6542,-66.7878 655.1999,-68.5077 664.4449,-73.6826 665.6542,-66.7878"/>
</g>
<!-- Node21 -->
<g id="node6" class="node">
<title>Node21</title>
<g id="a_node6"><a xlink:href="../../da/dce/class_render_data.html#ac161f29f7d6ae6fd3912e8af7bdccdfd" target="_top" xlink:title="RenderData::loadPointsFromFile">
<polygon fill="none" stroke="#000000" points="877,-11.5 877,-30.5 1036,-30.5 1036,-11.5 877,-11.5"/>
<text text-anchor="middle" x="956.5" y="-18.5" font-family="Helvetica,sans-Serif" font-size="10.00" fill="#000000">RenderData::loadPointsFromFile</text>
</a>
</g>
</g>
<!-- Node18&#45;&gt;Node21 -->
<g id="edge5" class="edge">
<title>Node18&#45;&gt;Node21</title>
<path fill="none" stroke="#191970" d="M662.6073,-47.734C678.8791,-44.8927 696.5858,-42.0663 713,-40 767.4817,-33.1417 829.1533,-28.3601 876.7992,-25.3091"/>
<polygon fill="#191970" stroke="#191970" points="661.9183,-44.3015 652.6856,-49.4983 663.1439,-51.1934 661.9183,-44.3015"/>
</g>
<!-- Node23 -->
<g id="node8" class="node">
<title>Node23</title>
<g id="a_node8"><a xlink:href="../../da/dce/class_render_data.html#a16b04b2437ea3fa034381a138cbf2f83" target="_top" xlink:title="Sets initial sphere depth to 3. ">
<polygon fill="none" stroke="#000000" points="713,-49.5 713,-68.5 841,-68.5 841,-49.5 713,-49.5"/>
<text text-anchor="middle" x="777" y="-56.5" font-family="Helvetica,sans-Serif" font-size="10.00" fill="#000000">RenderData::RenderData</text>
</a>
</g>
</g>
<!-- Node18&#45;&gt;Node23 -->
<g id="edge8" class="edge">
<title>Node18&#45;&gt;Node23</title>
<path fill="none" stroke="#191970" d="M687.2156,-59C695.853,-59 704.5342,-59 712.9139,-59"/>
<polygon fill="#191970" stroke="#191970" points="687.1169,-55.5001 677.1168,-59 687.1168,-62.5001 687.1169,-55.5001"/>
</g>
<!-- Node20 -->
<g id="node5" class="node">
<title>Node20</title>
<g id="a_node5"><a xlink:href="../../d9/dc6/class_main_window.html#a8b244be8b7b7db1b08de2a2acb9409db" target="_top" xlink:title="MainWindow::MainWindow">
<polygon fill="none" stroke="#000000" points="1260,-57.5 1260,-76.5 1395,-76.5 1395,-57.5 1260,-57.5"/>
<text text-anchor="middle" x="1327.5" y="-64.5" font-family="Helvetica,sans-Serif" font-size="10.00" fill="#000000">MainWindow::MainWindow</text>
</a>
</g>
</g>
<!-- Node19&#45;&gt;Node20 -->
<g id="edge4" class="edge">
<title>Node19&#45;&gt;Node20</title>
<path fill="none" stroke="#191970" d="M1200.835,-111.4562C1233.4352,-100.0144 1273.9048,-85.8106 1300.1974,-76.5825"/>
<polygon fill="#191970" stroke="#191970" points="1199.2713,-108.2957 1190.9947,-114.9099 1201.5896,-114.9007 1199.2713,-108.2957"/>
</g>
<!-- Node22 -->
<g id="node7" class="node">
<title>Node22</title>
<g id="a_node7"><a xlink:href="../../d9/dc6/class_main_window.html#a288b768c3c21a9171bdc56fe845ece8b" target="_top" xlink:title="MainWindow::openFile">
<polygon fill="none" stroke="#000000" points="1090,-.5 1090,-19.5 1206,-19.5 1206,-.5 1090,-.5"/>
<text text-anchor="middle" x="1148" y="-7.5" font-family="Helvetica,sans-Serif" font-size="10.00" fill="#000000">MainWindow::openFile</text>
</a>
</g>
</g>
<!-- Node21&#45;&gt;Node22 -->
<g id="edge6" class="edge">
<title>Node21&#45;&gt;Node22</title>
<path fill="none" stroke="#191970" d="M1046.2307,-15.8458C1061.0061,-14.997 1075.9735,-14.1373 1089.7179,-13.3478"/>
<polygon fill="#191970" stroke="#191970" points="1045.8324,-12.3628 1036.0496,-16.4306 1046.2339,-19.3513 1045.8324,-12.3628"/>
</g>
<!-- Node22&#45;&gt;Node20 -->
<g id="edge7" class="edge">
<title>Node22&#45;&gt;Node20</title>
<path fill="none" stroke="#191970" d="M1199.5411,-22.0929C1207.7628,-24.2492 1216.1445,-26.5836 1224,-29 1251.6262,-37.4981 1282.6714,-49.1919 1303.4907,-57.3549"/>
<polygon fill="#191970" stroke="#191970" points="1200.1935,-18.6471 1189.6379,-19.5574 1198.4573,-25.4284 1200.1935,-18.6471"/>
</g>
<!-- Node24 -->
<g id="node9" class="node">
<title>Node24</title>
<g id="a_node9"><a xlink:href="../../da/dce/class_render_data.html#a1fffc72f3dd17ab052d4fb2f025ef5a0" target="_top" xlink:title="RenderData::getInstance">
<polygon fill="none" stroke="#000000" points="893.5,-49.5 893.5,-68.5 1019.5,-68.5 1019.5,-49.5 893.5,-49.5"/>
<text text-anchor="middle" x="956.5" y="-56.5" font-family="Helvetica,sans-Serif" font-size="10.00" fill="#000000">RenderData::getInstance</text>
</a>
</g>
</g>
<!-- Node23&#45;&gt;Node24 -->
<g id="edge9" class="edge">
<title>Node23&#45;&gt;Node24</title>
<path fill="none" stroke="#191970" d="M851.147,-59C865.1782,-59 879.7342,-59 893.3861,-59"/>
<polygon fill="#191970" stroke="#191970" points="851.0434,-55.5001 841.0434,-59 851.0434,-62.5001 851.0434,-55.5001"/>
</g>
<!-- Node24&#45;&gt;Node19 -->
<g id="edge11" class="edge">
<title>Node24&#45;&gt;Node19</title>
<path fill="none" stroke="#191970" d="M991.9156,-72.1306C1024.5535,-84.2313 1072.9749,-102.1839 1107.2156,-114.8789"/>
<polygon fill="#191970" stroke="#191970" points="992.9196,-68.7701 982.3265,-68.5754 990.4861,-75.3335 992.9196,-68.7701"/>
</g>
<!-- Node24&#45;&gt;Node20 -->
<g id="edge10" class="edge">
<title>Node24&#45;&gt;Node20</title>
<path fill="none" stroke="#191970" d="M1029.7832,-64.8422C1043.7894,-65.7416 1058.3409,-66.5275 1072,-67 1135.726,-69.2043 1208.446,-68.9331 1259.9661,-68.2714"/>
<polygon fill="#191970" stroke="#191970" points="1029.9122,-61.3431 1019.7015,-64.17 1029.4464,-68.3276 1029.9122,-61.3431"/>
</g>
<!-- Node24&#45;&gt;Node22 -->
<g id="edge12" class="edge">
<title>Node24&#45;&gt;Node22</title>
<path fill="none" stroke="#191970" d="M1008.5229,-47.0564C1017.703,-44.8095 1027.1507,-42.407 1036,-40 1052.1437,-35.609 1055.8793,-33.4748 1072,-29 1083.6635,-25.7625 1096.4029,-22.4796 1108.0605,-19.5742"/>
<polygon fill="#191970" stroke="#191970" points="1007.6068,-43.677 998.7076,-49.4264 1009.2498,-50.4815 1007.6068,-43.677"/>
</g>
<!-- Node25 -->
<g id="node10" class="node">
<title>Node25</title>
<g id="a_node10"><a xlink:href="../../d9/dc6/class_main_window.html#a1cfcf14a3dbba8db45a2444a0fbe5a9f" target="_top" xlink:title="MainWindow::changeColorMap">
<polygon fill="none" stroke="#000000" points="1072,-38.5 1072,-57.5 1224,-57.5 1224,-38.5 1072,-38.5"/>
<text text-anchor="middle" x="1148" y="-45.5" font-family="Helvetica,sans-Serif" font-size="10.00" fill="#000000">MainWindow::changeColorMap</text>
</a>
</g>
</g>
<!-- Node24&#45;&gt;Node25 -->
<g id="edge13" class="edge">
<title>Node24&#45;&gt;Node25</title>
<path fill="none" stroke="#191970" d="M1030.0571,-54.7748C1043.7445,-53.9886 1058.0722,-53.1656 1071.8359,-52.375"/>
<polygon fill="#191970" stroke="#191970" points="1029.5178,-51.2999 1019.735,-55.3677 1029.9193,-58.2884 1029.5178,-51.2999"/>
</g>
<!-- Node25&#45;&gt;Node20 -->
<g id="edge14" class="edge">
<title>Node25&#45;&gt;Node20</title>
<path fill="none" stroke="#191970" d="M1234.1793,-57.122C1242.7781,-58.0322 1251.4207,-58.947 1259.7906,-59.833"/>
<polygon fill="#191970" stroke="#191970" points="1234.4371,-53.6299 1224.1242,-56.0577 1233.7002,-60.591 1234.4371,-53.6299"/>
</g>
<!-- Node26&#45;&gt;Node18 -->
<g id="edge16" class="edge">
<title>Node26&#45;&gt;Node18</title>
<path fill="none" stroke="#191970" d="M505.1783,-46.6823C513.7179,-47.7467 522.3914,-48.8278 530.8728,-49.885"/>
<polygon fill="#191970" stroke="#191970" points="505.5909,-43.2067 495.2347,-45.4429 504.725,-50.153 505.5909,-43.2067"/>
</g>
</g>
</svg>
        <g id="navigator" transform="translate(0 0)" fill="#404254">
                <rect fill="#f2f5e9" fill-opacity="0.5" stroke="#606060" stroke-width=".5" x="0" y="0" width="60" height="60"/>
                <use id="zoomplus" xlink:href="#zoomPlus" x="17" y="9" onmousedown="handleZoom(evt,'in')"/>
                <use id="zoomminus" xlink:href="#zoomMin" x="42" y="9" onmousedown="handleZoom(evt,'out')"/>
                <use id="reset" xlink:href="#resetDef" x="30" y="36" onmousedown="handleReset()"/>
                <g id="arrowUp" xlink:href="#dirArrow" transform="translate(30 24)" onmousedown="handlePan(0,-1)">
                  <use xlink:href="#rim" fill="#404040">
                        <set attributeName="fill" to="#808080" begin="arrowUp.mouseover" end="arrowUp.mouseout"/>
                  </use>
                  <path fill="none" stroke="white" stroke-width="1.5" d="M0,-3.0v7 M-2.5,-0.5L0,-3.0L2.5,-0.5"/>
                </g>
                <g id="arrowRight" xlink:href="#dirArrow" transform="rotate(90) translate(36 -43)" onmousedown="handlePan(1,0)">
                  <use xlink:href="#rim" fill="#404040">
                        <set attributeName="fill" to="#808080" begin="arrowRight.mouseover" end="arrowRight.mouseout"/>
                  </use>
                  <path fill="none" stroke="white" stroke-width="1.5" d="M0,-3.0v7 M-2.5,-0.5L0,-3.0L2.5,-0.5"/>
                </g>
                <g id="arrowDown" xlink:href="#dirArrow" transform="rotate(180) translate(-30 -48)" onmousedown="handlePan(0,1)">
                  <use xlink:href="#rim" fill="#404040">
                        <set attributeName="fill" to="#808080" begin="arrowDown.mouseover" end="arrowDown.mouseout"/>
                  </use>
                  <path fill="none" stroke="white" stroke-width="1.5" d="M0,-3.0v7 M-2.5,-0.5L0,-3.0L2.5,-0.5"/>
                </g>
                <g id="arrowLeft" xlink:href="#dirArrow" transform="rotate(270) translate(-36 17)" onmousedown="handlePan(-1,0)">
                  <use xlink:href="#rim" fill="#404040">
                        <set attributeName="fill" to="#808080" begin="arrowLeft.mouseover" end="arrowLeft.mouseout"/>
                  </use>
                  <path fill="none" stroke="white" stroke-width="1.5" d="M0,-3.0v7 M-2.5,-0.5L0,-3.0L2.5,-0.5"/>
                </g>
        </g>
        <svg viewBox="0 0 15 15" width="100%" height="30px" preserveAspectRatio="xMaxYMin meet">
         <g id="arrow_out" transform="scale(0.3 0.3)">
          <a xlink:href="class_render_data_af74f8858b9e0dedb914f24390e140a04_icgraph_org.svg" target="_base">
           <rect id="button" ry="5" rx="5" y="6" x="6" height="38" width="38"
                fill="#f2f5e9" fill-opacity="0.5" stroke="#606060" stroke-width="1.0"/>
           <path id="arrow"
             d="M 11.500037,31.436501 C 11.940474,20.09759 22.043105,11.32322 32.158766,21.979434 L 37.068811,17.246167 C 37.068811,17.246167 37.088388,32 37.088388,32 L 22.160133,31.978069 C 22.160133,31.978069 26.997745,27.140456 26.997745,27.140456 C 18.528582,18.264221 13.291696,25.230495 11.500037,31.436501 z"
             style="fill:#404040;"/>
          </a>
         </g>
        </svg>
</svg>
