<?xml version="1.0" encoding="UTF-8" standalone="no"?>
<!DOCTYPE svg PUBLIC "-//W3C//DTD SVG 1.1//EN"
 "http://www.w3.org/Graphics/SVG/1.1/DTD/svg11.dtd">
<!-- Generated by graphviz version 2.40.1 (20161225.0304)
 -->
<!-- Title: RenderData::generateIcosahedronAtDepthZero Pages: 1 -->
<svg width="1245pt" height="154pt"
 viewBox="0.00 0.00 1245.00 153.50" xmlns="http://www.w3.org/2000/svg" xmlns:xlink="http://www.w3.org/1999/xlink">
<g id="graph0" class="graph" transform="scale(1 1) rotate(0) translate(4 149.5)">
<title>RenderData::generateIcosahedronAtDepthZero</title>
<!-- Node27 -->
<g id="node1" class="node">
<title>Node27</title>
<polygon fill="#bfbfbf" stroke="#000000" points="0,-44 0,-74 166,-74 166,-44 0,-44"/>
<text text-anchor="start" x="8" y="-62" font-family="Helvetica,sans-Serif" font-size="10.00" fill="#000000">RenderData::generateIcosahedron</text>
<text text-anchor="middle" x="83" y="-51" font-family="Helvetica,sans-Serif" font-size="10.00" fill="#000000">AtDepthZero</text>
</g>
<!-- Node28 -->
<g id="node2" class="node">
<title>Node28</title>
<g id="a_node2"><a xlink:href="../../da/dce/class_render_data.html#a8d5f7285d29dc9ca0f93fcf2b5826283" target="_top" xlink:title="RenderData::setSphereDepth">
<polygon fill="none" stroke="#000000" points="373,-49.5 373,-68.5 519,-68.5 519,-49.5 373,-49.5"/>
<text text-anchor="middle" x="446" y="-56.5" font-family="Helvetica,sans-Serif" font-size="10.00" fill="#000000">RenderData::setSphereDepth</text>
</a>
</g>
</g>
<!-- Node27&#45;&gt;Node28 -->
<g id="edge1" class="edge">
<title>Node27&#45;&gt;Node28</title>
<path fill="none" stroke="#191970" d="M176.3793,-60.7183C185.0406,-60.8328 193.6836,-60.9301 202,-61 261.9979,-61.5041 277.0025,-61.5504 337,-61 348.5449,-60.8941 360.7767,-60.7251 372.7126,-60.5291"/>
<polygon fill="#191970" stroke="#191970" points="176.2696,-57.2166 166.2217,-60.5767 176.1719,-64.2159 176.2696,-57.2166"/>
</g>
<!-- Node36 -->
<g id="node10" class="node">
<title>Node36</title>
<g id="a_node10"><a xlink:href="../../da/dce/class_render_data.html#ac1bbf9770f040e452f676358ee699767" target="_top" xlink:title="RenderData::calculateNext\lSubdivision">
<polygon fill="none" stroke="#000000" points="202,-22 202,-52 337,-52 337,-22 202,-22"/>
<text text-anchor="start" x="210" y="-40" font-family="Helvetica,sans-Serif" font-size="10.00" fill="#000000">RenderData::calculateNext</text>
<text text-anchor="middle" x="269.5" y="-29" font-family="Helvetica,sans-Serif" font-size="10.00" fill="#000000">Subdivision</text>
</a>
</g>
</g>
<!-- Node27&#45;&gt;Node36 -->
<g id="edge14" class="edge">
<title>Node27&#45;&gt;Node36</title>
<path fill="none" stroke="#191970" d="M176.2756,-47.997C184.908,-46.9787 193.5402,-45.9604 201.8762,-44.9771"/>
<polygon fill="#191970" stroke="#191970" points="175.6805,-44.5428 166.1594,-49.1903 176.5006,-51.4946 175.6805,-44.5428"/>
</g>
<!-- Node29 -->
<g id="node3" class="node">
<title>Node29</title>
<g id="a_node3"><a xlink:href="../../d9/dc6/class_main_window.html#a7bdf36376a7474c5218923ed66baa937" target="_top" xlink:title="MainWindow::changeTriangle\lDepth">
<polygon fill="none" stroke="#000000" points="917.5,-115 917.5,-145 1062.5,-145 1062.5,-115 917.5,-115"/>
<text text-anchor="start" x="925.5" y="-133" font-family="Helvetica,sans-Serif" font-size="10.00" fill="#000000">MainWindow::changeTriangle</text>
<text text-anchor="middle" x="990" y="-122" font-family="Helvetica,sans-Serif" font-size="10.00" fill="#000000">Depth</text>
</a>
</g>
</g>
<!-- Node28&#45;&gt;Node29 -->
<g id="edge2" class="edge">
<title>Node28&#45;&gt;Node29</title>
<path fill="none" stroke="#191970" d="M507.2321,-70.2671C522.7868,-72.9659 539.4877,-75.7225 555,-78 682.1755,-96.6717 831.0153,-113.3528 917.4919,-122.5343"/>
<polygon fill="#191970" stroke="#191970" points="507.6542,-66.7878 497.1999,-68.5077 506.4449,-73.6826 507.6542,-66.7878"/>
</g>
<!-- Node31 -->
<g id="node5" class="node">
<title>Node31</title>
<g id="a_node5"><a xlink:href="../../da/dce/class_render_data.html#ac161f29f7d6ae6fd3912e8af7bdccdfd" target="_top" xlink:title="RenderData::loadPointsFromFile">
<polygon fill="none" stroke="#000000" points="719,-11.5 719,-30.5 878,-30.5 878,-11.5 719,-11.5"/>
<text text-anchor="middle" x="798.5" y="-18.5" font-family="Helvetica,sans-Serif" font-size="10.00" fill="#000000">RenderData::loadPointsFromFile</text>
</a>
</g>
</g>
<!-- Node28&#45;&gt;Node31 -->
<g id="edge4" class="edge">
<title>Node28&#45;&gt;Node31</title>
<path fill="none" stroke="#191970" d="M504.6073,-47.734C520.8791,-44.8927 538.5858,-42.0663 555,-40 609.4817,-33.1417 671.1533,-28.3601 718.7992,-25.3091"/>
<polygon fill="#191970" stroke="#191970" points="503.9183,-44.3015 494.6856,-49.4983 505.1439,-51.1934 503.9183,-44.3015"/>
</g>
<!-- Node33 -->
<g id="node7" class="node">
<title>Node33</title>
<g id="a_node7"><a xlink:href="../../da/dce/class_render_data.html#a16b04b2437ea3fa034381a138cbf2f83" target="_top" xlink:title="Sets initial sphere depth to 3. ">
<polygon fill="none" stroke="#000000" points="555,-49.5 555,-68.5 683,-68.5 683,-49.5 555,-49.5"/>
<text text-anchor="middle" x="619" y="-56.5" font-family="Helvetica,sans-Serif" font-size="10.00" fill="#000000">RenderData::RenderData</text>
</a>
</g>
</g>
<!-- Node28&#45;&gt;Node33 -->
<g id="edge7" class="edge">
<title>Node28&#45;&gt;Node33</title>
<path fill="none" stroke="#191970" d="M529.2156,-59C537.853,-59 546.5342,-59 554.9139,-59"/>
<polygon fill="#191970" stroke="#191970" points="529.1169,-55.5001 519.1168,-59 529.1168,-62.5001 529.1169,-55.5001"/>
</g>
<!-- Node30 -->
<g id="node4" class="node">
<title>Node30</title>
<g id="a_node4"><a xlink:href="../../d9/dc6/class_main_window.html#a8b244be8b7b7db1b08de2a2acb9409db" target="_top" xlink:title="MainWindow::MainWindow">
<polygon fill="none" stroke="#000000" points="1102,-57.5 1102,-76.5 1237,-76.5 1237,-57.5 1102,-57.5"/>
<text text-anchor="middle" x="1169.5" y="-64.5" font-family="Helvetica,sans-Serif" font-size="10.00" fill="#000000">MainWindow::MainWindow</text>
</a>
</g>
</g>
<!-- Node29&#45;&gt;Node30 -->
<g id="edge3" class="edge">
<title>Node29&#45;&gt;Node30</title>
<path fill="none" stroke="#191970" d="M1042.835,-111.4562C1075.4352,-100.0144 1115.9048,-85.8106 1142.1974,-76.5825"/>
<polygon fill="#191970" stroke="#191970" points="1041.2713,-108.2957 1032.9947,-114.9099 1043.5896,-114.9007 1041.2713,-108.2957"/>
</g>
<!-- Node32 -->
<g id="node6" class="node">
<title>Node32</title>
<g id="a_node6"><a xlink:href="../../d9/dc6/class_main_window.html#a288b768c3c21a9171bdc56fe845ece8b" target="_top" xlink:title="MainWindow::openFile">
<polygon fill="none" stroke="#000000" points="932,-.5 932,-19.5 1048,-19.5 1048,-.5 932,-.5"/>
<text text-anchor="middle" x="990" y="-7.5" font-family="Helvetica,sans-Serif" font-size="10.00" fill="#000000">MainWindow::openFile</text>
</a>
</g>
</g>
<!-- Node31&#45;&gt;Node32 -->
<g id="edge5" class="edge">
<title>Node31&#45;&gt;Node32</title>
<path fill="none" stroke="#191970" d="M888.2307,-15.8458C903.0061,-14.997 917.9735,-14.1373 931.7179,-13.3478"/>
<polygon fill="#191970" stroke="#191970" points="887.8324,-12.3628 878.0496,-16.4306 888.2339,-19.3513 887.8324,-12.3628"/>
</g>
<!-- Node32&#45;&gt;Node30 -->
<g id="edge6" class="edge">
<title>Node32&#45;&gt;Node30</title>
<path fill="none" stroke="#191970" d="M1041.5411,-22.0929C1049.7628,-24.2492 1058.1445,-26.5836 1066,-29 1093.6262,-37.4981 1124.6714,-49.1919 1145.4907,-57.3549"/>
<polygon fill="#191970" stroke="#191970" points="1042.1935,-18.6471 1031.6379,-19.5574 1040.4573,-25.4284 1042.1935,-18.6471"/>
</g>
<!-- Node34 -->
<g id="node8" class="node">
<title>Node34</title>
<g id="a_node8"><a xlink:href="../../da/dce/class_render_data.html#a1fffc72f3dd17ab052d4fb2f025ef5a0" target="_top" xlink:title="RenderData::getInstance">
<polygon fill="none" stroke="#000000" points="735.5,-49.5 735.5,-68.5 861.5,-68.5 861.5,-49.5 735.5,-49.5"/>
<text text-anchor="middle" x="798.5" y="-56.5" font-family="Helvetica,sans-Serif" font-size="10.00" fill="#000000">RenderData::getInstance</text>
</a>
</g>
</g>
<!-- Node33&#45;&gt;Node34 -->
<g id="edge8" class="edge">
<title>Node33&#45;&gt;Node34</title>
<path fill="none" stroke="#191970" d="M693.147,-59C707.1782,-59 721.7342,-59 735.3861,-59"/>
<polygon fill="#191970" stroke="#191970" points="693.0434,-55.5001 683.0434,-59 693.0434,-62.5001 693.0434,-55.5001"/>
</g>
<!-- Node34&#45;&gt;Node29 -->
<g id="edge10" class="edge">
<title>Node34&#45;&gt;Node29</title>
<path fill="none" stroke="#191970" d="M833.9156,-72.1306C866.5535,-84.2313 914.9749,-102.1839 949.2156,-114.8789"/>
<polygon fill="#191970" stroke="#191970" points="834.9196,-68.7701 824.3265,-68.5754 832.4861,-75.3335 834.9196,-68.7701"/>
</g>
<!-- Node34&#45;&gt;Node30 -->
<g id="edge9" class="edge">
<title>Node34&#45;&gt;Node30</title>
<path fill="none" stroke="#191970" d="M871.7832,-64.8422C885.7894,-65.7416 900.3409,-66.5275 914,-67 977.726,-69.2043 1050.446,-68.9331 1101.9661,-68.2714"/>
<polygon fill="#191970" stroke="#191970" points="871.9122,-61.3431 861.7015,-64.17 871.4464,-68.3276 871.9122,-61.3431"/>
</g>
<!-- Node34&#45;&gt;Node32 -->
<g id="edge11" class="edge">
<title>Node34&#45;&gt;Node32</title>
<path fill="none" stroke="#191970" d="M850.5229,-47.0564C859.703,-44.8095 869.1507,-42.407 878,-40 894.1437,-35.609 897.8793,-33.4748 914,-29 925.6635,-25.7625 938.4029,-22.4796 950.0605,-19.5742"/>
<polygon fill="#191970" stroke="#191970" points="849.6068,-43.677 840.7076,-49.4264 851.2498,-50.4815 849.6068,-43.677"/>
</g>
<!-- Node35 -->
<g id="node9" class="node">
<title>Node35</title>
<g id="a_node9"><a xlink:href="../../d9/dc6/class_main_window.html#a1cfcf14a3dbba8db45a2444a0fbe5a9f" target="_top" xlink:title="MainWindow::changeColorMap">
<polygon fill="none" stroke="#000000" points="914,-38.5 914,-57.5 1066,-57.5 1066,-38.5 914,-38.5"/>
<text text-anchor="middle" x="990" y="-45.5" font-family="Helvetica,sans-Serif" font-size="10.00" fill="#000000">MainWindow::changeColorMap</text>
</a>
</g>
</g>
<!-- Node34&#45;&gt;Node35 -->
<g id="edge12" class="edge">
<title>Node34&#45;&gt;Node35</title>
<path fill="none" stroke="#191970" d="M872.0571,-54.7748C885.7445,-53.9886 900.0722,-53.1656 913.8359,-52.375"/>
<polygon fill="#191970" stroke="#191970" points="871.5178,-51.2999 861.735,-55.3677 871.9193,-58.2884 871.5178,-51.2999"/>
</g>
<!-- Node35&#45;&gt;Node30 -->
<g id="edge13" class="edge">
<title>Node35&#45;&gt;Node30</title>
<path fill="none" stroke="#191970" d="M1076.1793,-57.122C1084.7781,-58.0322 1093.4207,-58.947 1101.7906,-59.833"/>
<polygon fill="#191970" stroke="#191970" points="1076.4371,-53.6299 1066.1242,-56.0577 1075.7002,-60.591 1076.4371,-53.6299"/>
</g>
<!-- Node36&#45;&gt;Node28 -->
<g id="edge15" class="edge">
<title>Node36&#45;&gt;Node28</title>
<path fill="none" stroke="#191970" d="M347.1783,-46.6823C355.7179,-47.7467 364.3914,-48.8278 372.8728,-49.885"/>
<polygon fill="#191970" stroke="#191970" points="347.5909,-43.2067 337.2347,-45.4429 346.725,-50.153 347.5909,-43.2067"/>
</g>
</g>
</svg>
