<?xml version="1.0" encoding="UTF-8" standalone="no"?>
<!DOCTYPE svg PUBLIC "-//W3C//DTD SVG 1.1//EN"
 "http://www.w3.org/Graphics/SVG/1.1/DTD/svg11.dtd">
<!-- Generated by graphviz version 2.40.1 (20161225.0304)
 -->
<!-- Title: RenderData::calculateNextSubdivision Pages: 1 -->
<svg width="705pt" height="133pt"
 viewBox="0.00 0.00 705.00 132.67" xmlns="http://www.w3.org/2000/svg" xmlns:xlink="http://www.w3.org/1999/xlink">
<g id="graph0" class="graph" transform="scale(1 1) rotate(0) translate(4 128.6742)">
<title>RenderData::calculateNextSubdivision</title>
<!-- Node10 -->
<g id="node1" class="node">
<title>Node10</title>
<polygon fill="#bfbfbf" stroke="#000000" points="0,-55 0,-85 135,-85 135,-55 0,-55"/>
<text text-anchor="start" x="8" y="-73" font-family="Helvetica,sans-Serif" font-size="10.00" fill="#000000">RenderData::calculateNext</text>
<text text-anchor="middle" x="67.5" y="-62" font-family="Helvetica,sans-Serif" font-size="10.00" fill="#000000">Subdivision</text>
</g>
<!-- Node11 -->
<g id="node2" class="node">
<title>Node11</title>
<g id="a_node2"><a xlink:href="../../da/dce/class_render_data.html#adee024bdbedaae2cfd38bb2038b4aa48" target="_top" xlink:title="RenderData::generateIcosahedron\lAtDepthZero">
<polygon fill="none" stroke="#000000" points="171,-77 171,-107 337,-107 337,-77 171,-77"/>
<text text-anchor="start" x="179" y="-95" font-family="Helvetica,sans-Serif" font-size="10.00" fill="#000000">RenderData::generateIcosahedron</text>
<text text-anchor="middle" x="254" y="-84" font-family="Helvetica,sans-Serif" font-size="10.00" fill="#000000">AtDepthZero</text>
</a>
</g>
</g>
<!-- Node10&#45;&gt;Node11 -->
<g id="edge1" class="edge">
<title>Node10&#45;&gt;Node11</title>
<path fill="none" stroke="#191970" d="M135.0945,-77.9736C143.4112,-78.9547 152.0232,-79.9706 160.6365,-80.9866"/>
<polygon fill="#191970" stroke="#191970" points="160.3895,-84.4817 170.7307,-82.1773 161.2096,-77.5299 160.3895,-84.4817"/>
</g>
<!-- Node12 -->
<g id="node3" class="node">
<title>Node12</title>
<g id="a_node3"><a xlink:href="../../da/dce/class_render_data.html#af74f8858b9e0dedb914f24390e140a04" target="_top" xlink:title="RenderData::filterPoints\lForTriangle">
<polygon fill="none" stroke="#000000" points="379,-88 379,-118 501,-118 501,-88 379,-88"/>
<text text-anchor="start" x="387" y="-106" font-family="Helvetica,sans-Serif" font-size="10.00" fill="#000000">RenderData::filterPoints</text>
<text text-anchor="middle" x="440" y="-95" font-family="Helvetica,sans-Serif" font-size="10.00" fill="#000000">ForTriangle</text>
</a>
</g>
</g>
<!-- Node10&#45;&gt;Node12 -->
<g id="edge9" class="edge">
<title>Node10&#45;&gt;Node12</title>
<path fill="none" stroke="#191970" d="M93.2702,-85.1066C113.6088,-96.1097 143.109,-110.0811 171,-116 237.0931,-130.0259 314.2826,-124.075 368.9817,-116.231"/>
<polygon fill="#191970" stroke="#191970" points="369.5511,-119.6849 378.9258,-114.7488 368.519,-112.7614 369.5511,-119.6849"/>
</g>
<!-- Node15 -->
<g id="node6" class="node">
<title>Node15</title>
<g id="a_node6"><a xlink:href="../../da/dce/class_render_data.html#a4fca77ce81a628de0ddaeb7d75a4c371" target="_top" xlink:title="RenderData::insertTriangle\lIntoVerticesVector">
<polygon fill="none" stroke="#000000" points="373,-39 373,-69 507,-69 507,-39 373,-39"/>
<text text-anchor="start" x="381" y="-57" font-family="Helvetica,sans-Serif" font-size="10.00" fill="#000000">RenderData::insertTriangle</text>
<text text-anchor="middle" x="440" y="-46" font-family="Helvetica,sans-Serif" font-size="10.00" fill="#000000">IntoVerticesVector</text>
</a>
</g>
</g>
<!-- Node10&#45;&gt;Node15 -->
<g id="edge8" class="edge">
<title>Node10&#45;&gt;Node15</title>
<path fill="none" stroke="#191970" d="M135.3891,-67.084C199.5607,-64.3276 295.7409,-60.1964 362.8021,-57.3159"/>
<polygon fill="#191970" stroke="#191970" points="363.0508,-60.8085 372.8914,-56.8825 362.7504,-53.815 363.0508,-60.8085"/>
</g>
<!-- Node16 -->
<g id="node7" class="node">
<title>Node16</title>
<g id="a_node7"><a xlink:href="../../da/dce/class_render_data.html#ad8c590fd11eda06875112a74d318267f" target="_top" xlink:title="RenderData::normalize">
<polygon fill="none" stroke="#000000" points="195.5,-.5 195.5,-19.5 312.5,-19.5 312.5,-.5 195.5,-.5"/>
<text text-anchor="middle" x="254" y="-7.5" font-family="Helvetica,sans-Serif" font-size="10.00" fill="#000000">RenderData::normalize</text>
</a>
</g>
</g>
<!-- Node10&#45;&gt;Node16 -->
<g id="edge6" class="edge">
<title>Node10&#45;&gt;Node16</title>
<path fill="none" stroke="#191970" d="M109.1289,-54.9531C127.9479,-48.2976 150.5145,-40.5194 171,-34 183.5192,-30.0158 197.1876,-25.9486 209.7532,-22.3215"/>
<polygon fill="#191970" stroke="#191970" points="210.9005,-25.6337 219.5512,-19.5169 208.9741,-18.904 210.9005,-25.6337"/>
</g>
<!-- Node11&#45;&gt;Node12 -->
<g id="edge2" class="edge">
<title>Node11&#45;&gt;Node12</title>
<path fill="none" stroke="#191970" d="M337.2076,-96.9209C347.7265,-97.543 358.4144,-98.175 368.7249,-98.7848"/>
<polygon fill="#191970" stroke="#191970" points="368.7001,-102.2894 378.8894,-99.3859 369.1135,-95.3016 368.7001,-102.2894"/>
</g>
<!-- Node11&#45;&gt;Node15 -->
<g id="edge5" class="edge">
<title>Node11&#45;&gt;Node15</title>
<path fill="none" stroke="#191970" d="M327.5121,-76.9814C339.0571,-74.6227 351.0216,-72.1784 362.6501,-69.8027"/>
<polygon fill="#191970" stroke="#191970" points="363.6665,-73.1674 372.7635,-67.7365 362.2652,-66.3091 363.6665,-73.1674"/>
</g>
<!-- Node13 -->
<g id="node4" class="node">
<title>Node13</title>
<g id="a_node4"><a xlink:href="../../da/dce/class_render_data.html#afbc604f853739d0198c9da5097987fa7" target="_top" xlink:title="RenderData::getTransformation\lMatrix">
<polygon fill="none" stroke="#000000" points="543,-88 543,-118 697,-118 697,-88 543,-88"/>
<text text-anchor="start" x="551" y="-106" font-family="Helvetica,sans-Serif" font-size="10.00" fill="#000000">RenderData::getTransformation</text>
<text text-anchor="middle" x="620" y="-95" font-family="Helvetica,sans-Serif" font-size="10.00" fill="#000000">Matrix</text>
</a>
</g>
</g>
<!-- Node12&#45;&gt;Node13 -->
<g id="edge3" class="edge">
<title>Node12&#45;&gt;Node13</title>
<path fill="none" stroke="#191970" d="M501.191,-103C511.3088,-103 521.9696,-103 532.5825,-103"/>
<polygon fill="#191970" stroke="#191970" points="532.7238,-106.5001 542.7238,-103 532.7238,-99.5001 532.7238,-106.5001"/>
</g>
<!-- Node14 -->
<g id="node5" class="node">
<title>Node14</title>
<g id="a_node5"><a xlink:href="../../da/dce/class_render_data.html#a7b32e615d46ac5ffbd3d14de0da2c406" target="_top" xlink:title="RenderData::pointInFirst\lQuadrantAfterTransformation">
<polygon fill="none" stroke="#000000" points="548.5,-17 548.5,-47 691.5,-47 691.5,-17 548.5,-17"/>
<text text-anchor="start" x="556.5" y="-35" font-family="Helvetica,sans-Serif" font-size="10.00" fill="#000000">RenderData::pointInFirst</text>
<text text-anchor="middle" x="620" y="-24" font-family="Helvetica,sans-Serif" font-size="10.00" fill="#000000">QuadrantAfterTransformation</text>
</a>
</g>
</g>
<!-- Node12&#45;&gt;Node14 -->
<g id="edge4" class="edge">
<title>Node12&#45;&gt;Node14</title>
<path fill="none" stroke="#191970" d="M480.8187,-87.9876C489.4801,-84.741 498.5563,-81.2931 507,-78 529.2315,-69.3295 553.78,-59.3818 574.3008,-50.9602"/>
<polygon fill="#191970" stroke="#191970" points="575.8054,-54.1259 583.7222,-47.0849 573.1425,-47.6521 575.8054,-54.1259"/>
</g>
<!-- Node16&#45;&gt;Node14 -->
<g id="edge7" class="edge">
<title>Node16&#45;&gt;Node14</title>
<path fill="none" stroke="#191970" d="M312.8042,-13.5347C373.8287,-17.2028 469.7402,-22.968 538.1524,-27.0802"/>
<polygon fill="#191970" stroke="#191970" points="538.2703,-30.5935 548.4623,-27.6999 538.6904,-23.6061 538.2703,-30.5935"/>
</g>
</g>
</svg>
