<?xml version="1.0" encoding="UTF-8" standalone="no"?>
<!DOCTYPE svg PUBLIC "-//W3C//DTD SVG 1.1//EN"
 "http://www.w3.org/Graphics/SVG/1.1/DTD/svg11.dtd">
<!-- Generated by graphviz version 2.40.1 (20161225.0304)
 -->
<!-- Title: RenderData::getInstance Pages: 1 -->
<svg width="493pt" height="136pt"
 viewBox="0.00 0.00 493.00 135.96" xmlns="http://www.w3.org/2000/svg" xmlns:xlink="http://www.w3.org/1999/xlink">
<g id="graph0" class="graph" transform="scale(1 1) rotate(0) translate(4 131.9621)">
<title>RenderData::getInstance</title>
<!-- Node42 -->
<g id="node1" class="node">
<title>Node42</title>
<polygon fill="#bfbfbf" stroke="#000000" points="0,-60.5 0,-79.5 126,-79.5 126,-60.5 0,-60.5"/>
<text text-anchor="middle" x="63" y="-67.5" font-family="Helvetica,sans-Serif" font-size="10.00" fill="#000000">RenderData::getInstance</text>
</g>
<!-- Node43 -->
<g id="node2" class="node">
<title>Node43</title>
<g id="a_node2"><a xlink:href="../../d9/dc6/class_main_window.html#a8b244be8b7b7db1b08de2a2acb9409db" target="_top" xlink:title="MainWindow::MainWindow">
<polygon fill="none" stroke="#000000" points="350,-60.5 350,-79.5 485,-79.5 485,-60.5 350,-60.5"/>
<text text-anchor="middle" x="417.5" y="-67.5" font-family="Helvetica,sans-Serif" font-size="10.00" fill="#000000">MainWindow::MainWindow</text>
</a>
</g>
</g>
<!-- Node42&#45;&gt;Node43 -->
<g id="edge1" class="edge">
<title>Node42&#45;&gt;Node43</title>
<path fill="none" stroke="#191970" d="M86.3995,-84.7753C105.8066,-96.1061 134.5649,-110.8183 162,-117 227.9033,-131.8495 247.973,-131.2895 314,-117 347.1756,-109.8202 382.493,-91.0717 402.0982,-79.541"/>
<polygon fill="#191970" stroke="#191970" points="88.0458,-81.6814 77.6703,-79.5367 84.4438,-87.6835 88.0458,-81.6814"/>
</g>
<!-- Node44 -->
<g id="node3" class="node">
<title>Node44</title>
<g id="a_node3"><a xlink:href="../../d9/dc6/class_main_window.html#a7bdf36376a7474c5218923ed66baa937" target="_top" xlink:title="MainWindow::changeTriangle\lDepth">
<polygon fill="none" stroke="#000000" points="165.5,-77 165.5,-107 310.5,-107 310.5,-77 165.5,-77"/>
<text text-anchor="start" x="173.5" y="-95" font-family="Helvetica,sans-Serif" font-size="10.00" fill="#000000">MainWindow::changeTriangle</text>
<text text-anchor="middle" x="238" y="-84" font-family="Helvetica,sans-Serif" font-size="10.00" fill="#000000">Depth</text>
</a>
</g>
</g>
<!-- Node42&#45;&gt;Node44 -->
<g id="edge2" class="edge">
<title>Node42&#45;&gt;Node44</title>
<path fill="none" stroke="#191970" d="M136.1511,-79.1961C145.8235,-80.4121 155.7364,-81.6583 165.3995,-82.8731"/>
<polygon fill="#191970" stroke="#191970" points="136.5375,-75.7173 126.179,-77.9425 135.6643,-82.6626 136.5375,-75.7173"/>
</g>
<!-- Node45 -->
<g id="node4" class="node">
<title>Node45</title>
<g id="a_node4"><a xlink:href="../../d9/dc6/class_main_window.html#a288b768c3c21a9171bdc56fe845ece8b" target="_top" xlink:title="MainWindow::openFile">
<polygon fill="none" stroke="#000000" points="180,-38.5 180,-57.5 296,-57.5 296,-38.5 180,-38.5"/>
<text text-anchor="middle" x="238" y="-45.5" font-family="Helvetica,sans-Serif" font-size="10.00" fill="#000000">MainWindow::openFile</text>
</a>
</g>
</g>
<!-- Node42&#45;&gt;Node45 -->
<g id="edge4" class="edge">
<title>Node42&#45;&gt;Node45</title>
<path fill="none" stroke="#191970" d="M136.1652,-60.8021C150.7454,-58.9692 165.8715,-57.0676 179.8643,-55.3085"/>
<polygon fill="#191970" stroke="#191970" points="135.6643,-57.3374 126.179,-62.0575 136.5375,-64.2827 135.6643,-57.3374"/>
</g>
<!-- Node46 -->
<g id="node5" class="node">
<title>Node46</title>
<g id="a_node5"><a xlink:href="../../d9/dc6/class_main_window.html#a1cfcf14a3dbba8db45a2444a0fbe5a9f" target="_top" xlink:title="MainWindow::changeColorMap">
<polygon fill="none" stroke="#000000" points="162,-.5 162,-19.5 314,-19.5 314,-.5 162,-.5"/>
<text text-anchor="middle" x="238" y="-7.5" font-family="Helvetica,sans-Serif" font-size="10.00" fill="#000000">MainWindow::changeColorMap</text>
</a>
</g>
</g>
<!-- Node42&#45;&gt;Node46 -->
<g id="edge6" class="edge">
<title>Node42&#45;&gt;Node46</title>
<path fill="none" stroke="#191970" d="M92.7594,-56.3231C112.193,-47.7306 138.2734,-36.8314 162,-29 172.5905,-25.5044 184.194,-22.2988 195.0751,-19.556"/>
<polygon fill="#191970" stroke="#191970" points="91.2215,-53.1768 83.5221,-60.4548 94.0796,-59.5667 91.2215,-53.1768"/>
</g>
<!-- Node44&#45;&gt;Node43 -->
<g id="edge3" class="edge">
<title>Node44&#45;&gt;Node43</title>
<path fill="none" stroke="#191970" d="M320.8256,-81.8487C330.5498,-80.6569 340.383,-79.4517 349.8651,-78.2895"/>
<polygon fill="#191970" stroke="#191970" points="320.2507,-78.3929 310.7508,-83.0835 321.1023,-85.3409 320.2507,-78.3929"/>
</g>
<!-- Node45&#45;&gt;Node43 -->
<g id="edge5" class="edge">
<title>Node45&#45;&gt;Node43</title>
<path fill="none" stroke="#191970" d="M306.473,-56.3922C320.6872,-58.1344 335.6569,-59.9691 349.8416,-61.7076"/>
<polygon fill="#191970" stroke="#191970" points="306.63,-52.8854 296.2785,-55.1428 305.7784,-59.8334 306.63,-52.8854"/>
</g>
<!-- Node46&#45;&gt;Node43 -->
<g id="edge7" class="edge">
<title>Node46&#45;&gt;Node43</title>
<path fill="none" stroke="#191970" d="M290.1758,-22.0734C298.2039,-24.2101 306.3598,-26.5436 314,-29 342.7034,-38.2285 374.858,-51.4346 395.599,-60.3438"/>
<polygon fill="#191970" stroke="#191970" points="291.0479,-18.6838 280.4901,-19.5696 289.2959,-25.4611 291.0479,-18.6838"/>
</g>
</g>
</svg>
