<?xml version="1.0" encoding="UTF-8" standalone="no"?>
<!DOCTYPE svg PUBLIC "-//W3C//DTD SVG 1.1//EN"
 "http://www.w3.org/Graphics/SVG/1.1/DTD/svg11.dtd">
<!-- Generated by graphviz version 2.40.1 (20161225.0304)
 -->
<!-- Title: RenderData::getTransformationMatrix Pages: 1 -->
<!--zoomable 154 -->
<svg id="main" version="1.1" xmlns="http://www.w3.org/2000/svg" xmlns:xlink="http://www.w3.org/1999/xlink" xml:space="preserve" onload="init(evt)">
<style type="text/css"><![CDATA[
.edge:hover path { stroke: red; }
.edge:hover polygon { stroke: red; fill: red; }
]]></style>
<script type="text/javascript"><![CDATA[
var edges = document.getElementsByTagName('g');
if (edges && edges.length) {
  for (var i=0;i<edges.length;i++) {
    if (edges[i].id.substr(0,4)=='edge') {
      edges[i].setAttribute('class','edge');
    }
  }
}
]]></script>
        <defs>
                <circle id="rim" cx="0" cy="0" r="7"/>
                <circle id="rim2" cx="0" cy="0" r="3.5"/>
                <g id="zoomPlus">
                        <use xlink:href="#rim" fill="#404040">
                                <set attributeName="fill" to="#808080" begin="zoomplus.mouseover" end="zoomplus.mouseout"/>
                        </use>
                        <path d="M-4,0h8M0,-4v8" fill="none" stroke="white" stroke-width="1.5" pointer-events="none"/>
                </g>
                <g id="zoomMin">
                        <use xlink:href="#rim" fill="#404040">
                                <set attributeName="fill" to="#808080" begin="zoomminus.mouseover" end="zoomminus.mouseout"/>
                        </use>
                        <path d="M-4,0h8" fill="none" stroke="white" stroke-width="1.5" pointer-events="none"/>
                </g>
                <g id="dirArrow">
                        <path fill="none" stroke="white" stroke-width="1.5" d="M0,-3.0v7 M-2.5,-0.5L0,-3.0L2.5,-0.5"/>
                </g>
               <g id="resetDef">
                       <use xlink:href="#rim2" fill="#404040">
                               <set attributeName="fill" to="#808080" begin="reset.mouseover" end="reset.mouseout"/>
                       </use>
               </g>
        </defs>

<script type="text/javascript">
var viewWidth = 1593;
var viewHeight = 154;
var sectionId = 'dynsection-8';
</script>
<script xlink:href="../../svgpan.js"/>
<svg id="graph" class="graph">
<g id="viewport">
<title>RenderData::getTransformationMatrix</title>
<!-- Node50 -->
<g id="node1" class="node">
<title>Node50</title>
<polygon fill="#bfbfbf" stroke="#000000" points="0,-44 0,-74 154,-74 154,-44 0,-44"/>
<text text-anchor="start" x="8" y="-62" font-family="Helvetica,sans-Serif" font-size="10.00" fill="#000000">RenderData::getTransformation</text>
<text text-anchor="middle" x="77" y="-51" font-family="Helvetica,sans-Serif" font-size="10.00" fill="#000000">Matrix</text>
</g>
<!-- Node51 -->
<g id="node2" class="node">
<title>Node51</title>
<g id="a_node2"><a xlink:href="../../da/dce/class_render_data.html#af74f8858b9e0dedb914f24390e140a04" target="_top" xlink:title="RenderData::filterPoints\lForTriangle">
<polygon fill="none" stroke="#000000" points="190,-44 190,-74 312,-74 312,-44 190,-44"/>
<text text-anchor="start" x="198" y="-62" font-family="Helvetica,sans-Serif" font-size="10.00" fill="#000000">RenderData::filterPoints</text>
<text text-anchor="middle" x="251" y="-51" font-family="Helvetica,sans-Serif" font-size="10.00" fill="#000000">ForTriangle</text>
</a>
</g>
</g>
<!-- Node50&#45;&gt;Node51 -->
<g id="edge1" class="edge">
<title>Node50&#45;&gt;Node51</title>
<path fill="none" stroke="#191970" d="M164.2429,-59C172.9175,-59 181.5889,-59 189.9122,-59"/>
<polygon fill="#191970" stroke="#191970" points="164.0788,-55.5001 154.0788,-59 164.0788,-62.5001 164.0788,-55.5001"/>
</g>
<!-- Node52 -->
<g id="node3" class="node">
<title>Node52</title>
<g id="a_node3"><a xlink:href="../../da/dce/class_render_data.html#adee024bdbedaae2cfd38bb2038b4aa48" target="_top" xlink:title="RenderData::generateIcosahedron\lAtDepthZero">
<polygon fill="none" stroke="#000000" points="348,-66 348,-96 514,-96 514,-66 348,-66"/>
<text text-anchor="start" x="356" y="-84" font-family="Helvetica,sans-Serif" font-size="10.00" fill="#000000">RenderData::generateIcosahedron</text>
<text text-anchor="middle" x="431" y="-73" font-family="Helvetica,sans-Serif" font-size="10.00" fill="#000000">AtDepthZero</text>
</a>
</g>
</g>
<!-- Node51&#45;&gt;Node52 -->
<g id="edge2" class="edge">
<title>Node51&#45;&gt;Node52</title>
<path fill="none" stroke="#191970" d="M322.3335,-67.7185C330.7586,-68.7483 339.412,-69.8059 347.9806,-70.8532"/>
<polygon fill="#191970" stroke="#191970" points="322.5417,-64.218 312.191,-66.4789 321.6924,-71.1663 322.5417,-64.218"/>
</g>
<!-- Node61 -->
<g id="node12" class="node">
<title>Node61</title>
<g id="a_node12"><a xlink:href="../../da/dce/class_render_data.html#ac1bbf9770f040e452f676358ee699767" target="_top" xlink:title="RenderData::calculateNext\lSubdivision">
<polygon fill="none" stroke="#000000" points="550,-22 550,-52 685,-52 685,-22 550,-22"/>
<text text-anchor="start" x="558" y="-40" font-family="Helvetica,sans-Serif" font-size="10.00" fill="#000000">RenderData::calculateNext</text>
<text text-anchor="middle" x="617.5" y="-29" font-family="Helvetica,sans-Serif" font-size="10.00" fill="#000000">Subdivision</text>
</a>
</g>
</g>
<!-- Node51&#45;&gt;Node61 -->
<g id="edge18" class="edge">
<title>Node51&#45;&gt;Node61</title>
<path fill="none" stroke="#191970" d="M322.6256,-54.7005C388.4077,-50.7518 485.1921,-44.9421 549.7275,-41.0682"/>
<polygon fill="#191970" stroke="#191970" points="322.1161,-51.2247 312.3439,-55.3177 322.5356,-58.2121 322.1161,-51.2247"/>
</g>
<!-- Node53 -->
<g id="node4" class="node">
<title>Node53</title>
<g id="a_node4"><a xlink:href="../../da/dce/class_render_data.html#a8d5f7285d29dc9ca0f93fcf2b5826283" target="_top" xlink:title="RenderData::setSphereDepth">
<polygon fill="none" stroke="#000000" points="721,-49.5 721,-68.5 867,-68.5 867,-49.5 721,-49.5"/>
<text text-anchor="middle" x="794" y="-56.5" font-family="Helvetica,sans-Serif" font-size="10.00" fill="#000000">RenderData::setSphereDepth</text>
</a>
</g>
</g>
<!-- Node52&#45;&gt;Node53 -->
<g id="edge3" class="edge">
<title>Node52&#45;&gt;Node53</title>
<path fill="none" stroke="#191970" d="M524.3256,-75.3439C585.5017,-71.6363 664.3318,-66.8587 720.9407,-63.4278"/>
<polygon fill="#191970" stroke="#191970" points="524.0495,-71.8541 514.2795,-75.9528 524.473,-78.8413 524.0495,-71.8541"/>
</g>
<!-- Node52&#45;&gt;Node61 -->
<g id="edge16" class="edge">
<title>Node52&#45;&gt;Node61</title>
<path fill="none" stroke="#191970" d="M504.6543,-63.6231C520.9068,-59.7888 537.9909,-55.7582 553.8094,-52.0262"/>
<polygon fill="#191970" stroke="#191970" points="503.5902,-60.278 494.6611,-65.9808 505.1976,-67.091 503.5902,-60.278"/>
</g>
<!-- Node54 -->
<g id="node5" class="node">
<title>Node54</title>
<g id="a_node5"><a xlink:href="../../d9/dc6/class_main_window.html#a7bdf36376a7474c5218923ed66baa937" target="_top" xlink:title="MainWindow::changeTriangle\lDepth">
<polygon fill="none" stroke="#000000" points="1265.5,-115 1265.5,-145 1410.5,-145 1410.5,-115 1265.5,-115"/>
<text text-anchor="start" x="1273.5" y="-133" font-family="Helvetica,sans-Serif" font-size="10.00" fill="#000000">MainWindow::changeTriangle</text>
<text text-anchor="middle" x="1338" y="-122" font-family="Helvetica,sans-Serif" font-size="10.00" fill="#000000">Depth</text>
</a>
</g>
</g>
<!-- Node53&#45;&gt;Node54 -->
<g id="edge4" class="edge">
<title>Node53&#45;&gt;Node54</title>
<path fill="none" stroke="#191970" d="M855.2321,-70.2671C870.7868,-72.9659 887.4877,-75.7225 903,-78 1030.1755,-96.6717 1179.0153,-113.3528 1265.4919,-122.5343"/>
<polygon fill="#191970" stroke="#191970" points="855.6542,-66.7878 845.1999,-68.5077 854.4449,-73.6826 855.6542,-66.7878"/>
</g>
<!-- Node56 -->
<g id="node7" class="node">
<title>Node56</title>
<g id="a_node7"><a xlink:href="../../da/dce/class_render_data.html#ac161f29f7d6ae6fd3912e8af7bdccdfd" target="_top" xlink:title="RenderData::loadPointsFromFile">
<polygon fill="none" stroke="#000000" points="1067,-11.5 1067,-30.5 1226,-30.5 1226,-11.5 1067,-11.5"/>
<text text-anchor="middle" x="1146.5" y="-18.5" font-family="Helvetica,sans-Serif" font-size="10.00" fill="#000000">RenderData::loadPointsFromFile</text>
</a>
</g>
</g>
<!-- Node53&#45;&gt;Node56 -->
<g id="edge6" class="edge">
<title>Node53&#45;&gt;Node56</title>
<path fill="none" stroke="#191970" d="M852.6073,-47.734C868.8791,-44.8927 886.5858,-42.0663 903,-40 957.4817,-33.1417 1019.1533,-28.3601 1066.7992,-25.3091"/>
<polygon fill="#191970" stroke="#191970" points="851.9183,-44.3015 842.6856,-49.4983 853.1439,-51.1934 851.9183,-44.3015"/>
</g>
<!-- Node58 -->
<g id="node9" class="node">
<title>Node58</title>
<g id="a_node9"><a xlink:href="../../da/dce/class_render_data.html#a16b04b2437ea3fa034381a138cbf2f83" target="_top" xlink:title="Sets initial sphere depth to 3. ">
<polygon fill="none" stroke="#000000" points="903,-49.5 903,-68.5 1031,-68.5 1031,-49.5 903,-49.5"/>
<text text-anchor="middle" x="967" y="-56.5" font-family="Helvetica,sans-Serif" font-size="10.00" fill="#000000">RenderData::RenderData</text>
</a>
</g>
</g>
<!-- Node53&#45;&gt;Node58 -->
<g id="edge9" class="edge">
<title>Node53&#45;&gt;Node58</title>
<path fill="none" stroke="#191970" d="M877.2156,-59C885.853,-59 894.5342,-59 902.9139,-59"/>
<polygon fill="#191970" stroke="#191970" points="877.1169,-55.5001 867.1168,-59 877.1168,-62.5001 877.1169,-55.5001"/>
</g>
<!-- Node55 -->
<g id="node6" class="node">
<title>Node55</title>
<g id="a_node6"><a xlink:href="../../d9/dc6/class_main_window.html#a8b244be8b7b7db1b08de2a2acb9409db" target="_top" xlink:title="MainWindow::MainWindow">
<polygon fill="none" stroke="#000000" points="1450,-57.5 1450,-76.5 1585,-76.5 1585,-57.5 1450,-57.5"/>
<text text-anchor="middle" x="1517.5" y="-64.5" font-family="Helvetica,sans-Serif" font-size="10.00" fill="#000000">MainWindow::MainWindow</text>
</a>
</g>
</g>
<!-- Node54&#45;&gt;Node55 -->
<g id="edge5" class="edge">
<title>Node54&#45;&gt;Node55</title>
<path fill="none" stroke="#191970" d="M1390.835,-111.4562C1423.4352,-100.0144 1463.9048,-85.8106 1490.1974,-76.5825"/>
<polygon fill="#191970" stroke="#191970" points="1389.2713,-108.2957 1380.9947,-114.9099 1391.5896,-114.9007 1389.2713,-108.2957"/>
</g>
<!-- Node57 -->
<g id="node8" class="node">
<title>Node57</title>
<g id="a_node8"><a xlink:href="../../d9/dc6/class_main_window.html#a288b768c3c21a9171bdc56fe845ece8b" target="_top" xlink:title="MainWindow::openFile">
<polygon fill="none" stroke="#000000" points="1280,-.5 1280,-19.5 1396,-19.5 1396,-.5 1280,-.5"/>
<text text-anchor="middle" x="1338" y="-7.5" font-family="Helvetica,sans-Serif" font-size="10.00" fill="#000000">MainWindow::openFile</text>
</a>
</g>
</g>
<!-- Node56&#45;&gt;Node57 -->
<g id="edge7" class="edge">
<title>Node56&#45;&gt;Node57</title>
<path fill="none" stroke="#191970" d="M1236.2307,-15.8458C1251.0061,-14.997 1265.9735,-14.1373 1279.7179,-13.3478"/>
<polygon fill="#191970" stroke="#191970" points="1235.8324,-12.3628 1226.0496,-16.4306 1236.2339,-19.3513 1235.8324,-12.3628"/>
</g>
<!-- Node57&#45;&gt;Node55 -->
<g id="edge8" class="edge">
<title>Node57&#45;&gt;Node55</title>
<path fill="none" stroke="#191970" d="M1389.5411,-22.0929C1397.7628,-24.2492 1406.1445,-26.5836 1414,-29 1441.6262,-37.4981 1472.6714,-49.1919 1493.4907,-57.3549"/>
<polygon fill="#191970" stroke="#191970" points="1390.1935,-18.6471 1379.6379,-19.5574 1388.4573,-25.4284 1390.1935,-18.6471"/>
</g>
<!-- Node59 -->
<g id="node10" class="node">
<title>Node59</title>
<g id="a_node10"><a xlink:href="../../da/dce/class_render_data.html#a1fffc72f3dd17ab052d4fb2f025ef5a0" target="_top" xlink:title="RenderData::getInstance">
<polygon fill="none" stroke="#000000" points="1083.5,-49.5 1083.5,-68.5 1209.5,-68.5 1209.5,-49.5 1083.5,-49.5"/>
<text text-anchor="middle" x="1146.5" y="-56.5" font-family="Helvetica,sans-Serif" font-size="10.00" fill="#000000">RenderData::getInstance</text>
</a>
</g>
</g>
<!-- Node58&#45;&gt;Node59 -->
<g id="edge10" class="edge">
<title>Node58&#45;&gt;Node59</title>
<path fill="none" stroke="#191970" d="M1041.147,-59C1055.1782,-59 1069.7342,-59 1083.3861,-59"/>
<polygon fill="#191970" stroke="#191970" points="1041.0434,-55.5001 1031.0434,-59 1041.0434,-62.5001 1041.0434,-55.5001"/>
</g>
<!-- Node59&#45;&gt;Node54 -->
<g id="edge12" class="edge">
<title>Node59&#45;&gt;Node54</title>
<path fill="none" stroke="#191970" d="M1181.9156,-72.1306C1214.5535,-84.2313 1262.9749,-102.1839 1297.2156,-114.8789"/>
<polygon fill="#191970" stroke="#191970" points="1182.9196,-68.7701 1172.3265,-68.5754 1180.4861,-75.3335 1182.9196,-68.7701"/>
</g>
<!-- Node59&#45;&gt;Node55 -->
<g id="edge11" class="edge">
<title>Node59&#45;&gt;Node55</title>
<path fill="none" stroke="#191970" d="M1219.7832,-64.8422C1233.7894,-65.7416 1248.3409,-66.5275 1262,-67 1325.726,-69.2043 1398.446,-68.9331 1449.9661,-68.2714"/>
<polygon fill="#191970" stroke="#191970" points="1219.9122,-61.3431 1209.7015,-64.17 1219.4464,-68.3276 1219.9122,-61.3431"/>
</g>
<!-- Node59&#45;&gt;Node57 -->
<g id="edge13" class="edge">
<title>Node59&#45;&gt;Node57</title>
<path fill="none" stroke="#191970" d="M1198.5229,-47.0564C1207.703,-44.8095 1217.1507,-42.407 1226,-40 1242.1437,-35.609 1245.8793,-33.4748 1262,-29 1273.6635,-25.7625 1286.4029,-22.4796 1298.0605,-19.5742"/>
<polygon fill="#191970" stroke="#191970" points="1197.6068,-43.677 1188.7076,-49.4264 1199.2498,-50.4815 1197.6068,-43.677"/>
</g>
<!-- Node60 -->
<g id="node11" class="node">
<title>Node60</title>
<g id="a_node11"><a xlink:href="../../d9/dc6/class_main_window.html#a1cfcf14a3dbba8db45a2444a0fbe5a9f" target="_top" xlink:title="MainWindow::changeColorMap">
<polygon fill="none" stroke="#000000" points="1262,-38.5 1262,-57.5 1414,-57.5 1414,-38.5 1262,-38.5"/>
<text text-anchor="middle" x="1338" y="-45.5" font-family="Helvetica,sans-Serif" font-size="10.00" fill="#000000">MainWindow::changeColorMap</text>
</a>
</g>
</g>
<!-- Node59&#45;&gt;Node60 -->
<g id="edge14" class="edge">
<title>Node59&#45;&gt;Node60</title>
<path fill="none" stroke="#191970" d="M1220.0571,-54.7748C1233.7445,-53.9886 1248.0722,-53.1656 1261.8359,-52.375"/>
<polygon fill="#191970" stroke="#191970" points="1219.5178,-51.2999 1209.735,-55.3677 1219.9193,-58.2884 1219.5178,-51.2999"/>
</g>
<!-- Node60&#45;&gt;Node55 -->
<g id="edge15" class="edge">
<title>Node60&#45;&gt;Node55</title>
<path fill="none" stroke="#191970" d="M1424.1793,-57.122C1432.7781,-58.0322 1441.4207,-58.947 1449.7906,-59.833"/>
<polygon fill="#191970" stroke="#191970" points="1424.4371,-53.6299 1414.1242,-56.0577 1423.7002,-60.591 1424.4371,-53.6299"/>
</g>
<!-- Node61&#45;&gt;Node53 -->
<g id="edge17" class="edge">
<title>Node61&#45;&gt;Node53</title>
<path fill="none" stroke="#191970" d="M695.1783,-46.6823C703.7179,-47.7467 712.3914,-48.8278 720.8728,-49.885"/>
<polygon fill="#191970" stroke="#191970" points="695.5909,-43.2067 685.2347,-45.4429 694.725,-50.153 695.5909,-43.2067"/>
</g>
</g>
</svg>
        <g id="navigator" transform="translate(0 0)" fill="#404254">
                <rect fill="#f2f5e9" fill-opacity="0.5" stroke="#606060" stroke-width=".5" x="0" y="0" width="60" height="60"/>
                <use id="zoomplus" xlink:href="#zoomPlus" x="17" y="9" onmousedown="handleZoom(evt,'in')"/>
                <use id="zoomminus" xlink:href="#zoomMin" x="42" y="9" onmousedown="handleZoom(evt,'out')"/>
                <use id="reset" xlink:href="#resetDef" x="30" y="36" onmousedown="handleReset()"/>
                <g id="arrowUp" xlink:href="#dirArrow" transform="translate(30 24)" onmousedown="handlePan(0,-1)">
                  <use xlink:href="#rim" fill="#404040">
                        <set attributeName="fill" to="#808080" begin="arrowUp.mouseover" end="arrowUp.mouseout"/>
                  </use>
                  <path fill="none" stroke="white" stroke-width="1.5" d="M0,-3.0v7 M-2.5,-0.5L0,-3.0L2.5,-0.5"/>
                </g>
                <g id="arrowRight" xlink:href="#dirArrow" transform="rotate(90) translate(36 -43)" onmousedown="handlePan(1,0)">
                  <use xlink:href="#rim" fill="#404040">
                        <set attributeName="fill" to="#808080" begin="arrowRight.mouseover" end="arrowRight.mouseout"/>
                  </use>
                  <path fill="none" stroke="white" stroke-width="1.5" d="M0,-3.0v7 M-2.5,-0.5L0,-3.0L2.5,-0.5"/>
                </g>
                <g id="arrowDown" xlink:href="#dirArrow" transform="rotate(180) translate(-30 -48)" onmousedown="handlePan(0,1)">
                  <use xlink:href="#rim" fill="#404040">
                        <set attributeName="fill" to="#808080" begin="arrowDown.mouseover" end="arrowDown.mouseout"/>
                  </use>
                  <path fill="none" stroke="white" stroke-width="1.5" d="M0,-3.0v7 M-2.5,-0.5L0,-3.0L2.5,-0.5"/>
                </g>
                <g id="arrowLeft" xlink:href="#dirArrow" transform="rotate(270) translate(-36 17)" onmousedown="handlePan(-1,0)">
                  <use xlink:href="#rim" fill="#404040">
                        <set attributeName="fill" to="#808080" begin="arrowLeft.mouseover" end="arrowLeft.mouseout"/>
                  </use>
                  <path fill="none" stroke="white" stroke-width="1.5" d="M0,-3.0v7 M-2.5,-0.5L0,-3.0L2.5,-0.5"/>
                </g>
        </g>
        <svg viewBox="0 0 15 15" width="100%" height="30px" preserveAspectRatio="xMaxYMin meet">
         <g id="arrow_out" transform="scale(0.3 0.3)">
          <a xlink:href="class_render_data_afbc604f853739d0198c9da5097987fa7_icgraph_org.svg" target="_base">
           <rect id="button" ry="5" rx="5" y="6" x="6" height="38" width="38"
                fill="#f2f5e9" fill-opacity="0.5" stroke="#606060" stroke-width="1.0"/>
           <path id="arrow"
             d="M 11.500037,31.436501 C 11.940474,20.09759 22.043105,11.32322 32.158766,21.979434 L 37.068811,17.246167 C 37.068811,17.246167 37.088388,32 37.088388,32 L 22.160133,31.978069 C 22.160133,31.978069 26.997745,27.140456 26.997745,27.140456 C 18.528582,18.264221 13.291696,25.230495 11.500037,31.436501 z"
             style="fill:#404040;"/>
          </a>
         </g>
        </svg>
</svg>
