<?xml version="1.0" encoding="UTF-8" standalone="no"?>
<!DOCTYPE svg PUBLIC "-//W3C//DTD SVG 1.1//EN"
 "http://www.w3.org/Graphics/SVG/1.1/DTD/svg11.dtd">
<!-- Generated by graphviz version 2.40.1 (20161225.0304)
 -->
<!-- Title: RenderData::getPointsAsVector Pages: 1 -->
<svg width="530pt" height="28pt"
 viewBox="0.00 0.00 530.00 28.00" xmlns="http://www.w3.org/2000/svg" xmlns:xlink="http://www.w3.org/1999/xlink">
<g id="graph0" class="graph" transform="scale(1 1) rotate(0) translate(4 24)">
<title>RenderData::getPointsAsVector</title>
<!-- Node47 -->
<g id="node1" class="node">
<title>Node47</title>
<polygon fill="#bfbfbf" stroke="#000000" points="0,-.5 0,-19.5 157,-19.5 157,-.5 0,-.5"/>
<text text-anchor="middle" x="78.5" y="-7.5" font-family="Helvetica,sans-Serif" font-size="10.00" fill="#000000">RenderData::getPointsAsVector</text>
</g>
<!-- Node48 -->
<g id="node2" class="node">
<title>Node48</title>
<g id="a_node2"><a xlink:href="../../df/dda/class_sphere_widget.html#a692ca1c1e7556f6abd7b5f6a49a2557c" target="_top" xlink:title="SphereWidget::updatePoints">
<polygon fill="none" stroke="#000000" points="193,-.5 193,-19.5 334,-19.5 334,-.5 193,-.5"/>
<text text-anchor="middle" x="263.5" y="-7.5" font-family="Helvetica,sans-Serif" font-size="10.00" fill="#000000">SphereWidget::updatePoints</text>
</a>
</g>
</g>
<!-- Node47&#45;&gt;Node48 -->
<g id="edge1" class="edge">
<title>Node47&#45;&gt;Node48</title>
<path fill="none" stroke="#191970" d="M167.2373,-10C175.7982,-10 184.4021,-10 192.7552,-10"/>
<polygon fill="#191970" stroke="#191970" points="167.2249,-6.5001 157.2249,-10 167.2249,-13.5001 167.2249,-6.5001"/>
</g>
<!-- Node49 -->
<g id="node3" class="node">
<title>Node49</title>
<g id="a_node3"><a xlink:href="../../df/dda/class_sphere_widget.html#a1766e5d68f4c57f52d6b1ee40cc0326c" target="_top" xlink:title="SphereWidget::~SphereWidget">
<polygon fill="none" stroke="#000000" points="370,-.5 370,-19.5 522,-19.5 522,-.5 370,-.5"/>
<text text-anchor="middle" x="446" y="-7.5" font-family="Helvetica,sans-Serif" font-size="10.00" fill="#000000">SphereWidget::~SphereWidget</text>
</a>
</g>
</g>
<!-- Node48&#45;&gt;Node49 -->
<g id="edge2" class="edge">
<title>Node48&#45;&gt;Node49</title>
<path fill="none" stroke="#191970" d="M344.3369,-10C352.8287,-10 361.4424,-10 369.8787,-10"/>
<polygon fill="#191970" stroke="#191970" points="344.0593,-6.5001 334.0593,-10 344.0592,-13.5001 344.0593,-6.5001"/>
</g>
</g>
</svg>
