<?xml version="1.0" encoding="UTF-8" standalone="no"?>
<!DOCTYPE svg PUBLIC "-//W3C//DTD SVG 1.1//EN"
 "http://www.w3.org/Graphics/SVG/1.1/DTD/svg11.dtd">
<!-- Generated by graphviz version 2.40.1 (20161225.0304)
 -->
<!-- Title: RenderData::insertTriangleIntoVerticesVector Pages: 1 -->
<!--zoomable 154 -->
<svg id="main" version="1.1" xmlns="http://www.w3.org/2000/svg" xmlns:xlink="http://www.w3.org/1999/xlink" xml:space="preserve" onload="init(evt)">
<style type="text/css"><![CDATA[
.edge:hover path { stroke: red; }
.edge:hover polygon { stroke: red; fill: red; }
]]></style>
<script type="text/javascript"><![CDATA[
var edges = document.getElementsByTagName('g');
if (edges && edges.length) {
  for (var i=0;i<edges.length;i++) {
    if (edges[i].id.substr(0,4)=='edge') {
      edges[i].setAttribute('class','edge');
    }
  }
}
]]></script>
        <defs>
                <circle id="rim" cx="0" cy="0" r="7"/>
                <circle id="rim2" cx="0" cy="0" r="3.5"/>
                <g id="zoomPlus">
                        <use xlink:href="#rim" fill="#404040">
                                <set attributeName="fill" to="#808080" begin="zoomplus.mouseover" end="zoomplus.mouseout"/>
                        </use>
                        <path d="M-4,0h8M0,-4v8" fill="none" stroke="white" stroke-width="1.5" pointer-events="none"/>
                </g>
                <g id="zoomMin">
                        <use xlink:href="#rim" fill="#404040">
                                <set attributeName="fill" to="#808080" begin="zoomminus.mouseover" end="zoomminus.mouseout"/>
                        </use>
                        <path d="M-4,0h8" fill="none" stroke="white" stroke-width="1.5" pointer-events="none"/>
                </g>
                <g id="dirArrow">
                        <path fill="none" stroke="white" stroke-width="1.5" d="M0,-3.0v7 M-2.5,-0.5L0,-3.0L2.5,-0.5"/>
                </g>
               <g id="resetDef">
                       <use xlink:href="#rim2" fill="#404040">
                               <set attributeName="fill" to="#808080" begin="reset.mouseover" end="reset.mouseout"/>
                       </use>
               </g>
        </defs>

<script type="text/javascript">
var viewWidth = 1415;
var viewHeight = 154;
var sectionId = 'dynsection-10';
</script>
<script xlink:href="../../svgpan.js"/>
<svg id="graph" class="graph">
<g id="viewport">
<title>RenderData::insertTriangleIntoVerticesVector</title>
<!-- Node66 -->
<g id="node1" class="node">
<title>Node66</title>
<polygon fill="#bfbfbf" stroke="#000000" points="0,-44 0,-74 134,-74 134,-44 0,-44"/>
<text text-anchor="start" x="8" y="-62" font-family="Helvetica,sans-Serif" font-size="10.00" fill="#000000">RenderData::insertTriangle</text>
<text text-anchor="middle" x="67" y="-51" font-family="Helvetica,sans-Serif" font-size="10.00" fill="#000000">IntoVerticesVector</text>
</g>
<!-- Node67 -->
<g id="node2" class="node">
<title>Node67</title>
<g id="a_node2"><a xlink:href="../../da/dce/class_render_data.html#adee024bdbedaae2cfd38bb2038b4aa48" target="_top" xlink:title="RenderData::generateIcosahedron\lAtDepthZero">
<polygon fill="none" stroke="#000000" points="170,-66 170,-96 336,-96 336,-66 170,-66"/>
<text text-anchor="start" x="178" y="-84" font-family="Helvetica,sans-Serif" font-size="10.00" fill="#000000">RenderData::generateIcosahedron</text>
<text text-anchor="middle" x="253" y="-73" font-family="Helvetica,sans-Serif" font-size="10.00" fill="#000000">AtDepthZero</text>
</a>
</g>
</g>
<!-- Node66&#45;&gt;Node67 -->
<g id="edge1" class="edge">
<title>Node66&#45;&gt;Node67</title>
<path fill="none" stroke="#191970" d="M144.2923,-68.1421C152.6943,-69.1359 161.2724,-70.1505 169.7416,-71.1522"/>
<polygon fill="#191970" stroke="#191970" points="144.4922,-64.6414 134.1503,-66.9425 143.6699,-71.593 144.4922,-64.6414"/>
</g>
<!-- Node76 -->
<g id="node11" class="node">
<title>Node76</title>
<g id="a_node11"><a xlink:href="../../da/dce/class_render_data.html#ac1bbf9770f040e452f676358ee699767" target="_top" xlink:title="RenderData::calculateNext\lSubdivision">
<polygon fill="none" stroke="#000000" points="372,-22 372,-52 507,-52 507,-22 372,-22"/>
<text text-anchor="start" x="380" y="-40" font-family="Helvetica,sans-Serif" font-size="10.00" fill="#000000">RenderData::calculateNext</text>
<text text-anchor="middle" x="439.5" y="-29" font-family="Helvetica,sans-Serif" font-size="10.00" fill="#000000">Subdivision</text>
</a>
</g>
</g>
<!-- Node66&#45;&gt;Node76 -->
<g id="edge17" class="edge">
<title>Node66&#45;&gt;Node76</title>
<path fill="none" stroke="#191970" d="M144.1225,-54.4451C211.2374,-50.4813 307.5596,-44.7925 371.7553,-41.001"/>
<polygon fill="#191970" stroke="#191970" points="143.802,-50.9579 134.0257,-55.0414 144.2147,-57.9457 143.802,-50.9579"/>
</g>
<!-- Node68 -->
<g id="node3" class="node">
<title>Node68</title>
<g id="a_node3"><a xlink:href="../../da/dce/class_render_data.html#a8d5f7285d29dc9ca0f93fcf2b5826283" target="_top" xlink:title="RenderData::setSphereDepth">
<polygon fill="none" stroke="#000000" points="543,-49.5 543,-68.5 689,-68.5 689,-49.5 543,-49.5"/>
<text text-anchor="middle" x="616" y="-56.5" font-family="Helvetica,sans-Serif" font-size="10.00" fill="#000000">RenderData::setSphereDepth</text>
</a>
</g>
</g>
<!-- Node67&#45;&gt;Node68 -->
<g id="edge2" class="edge">
<title>Node67&#45;&gt;Node68</title>
<path fill="none" stroke="#191970" d="M346.3256,-75.3439C407.5017,-71.6363 486.3318,-66.8587 542.9407,-63.4278"/>
<polygon fill="#191970" stroke="#191970" points="346.0495,-71.8541 336.2795,-75.9528 346.473,-78.8413 346.0495,-71.8541"/>
</g>
<!-- Node67&#45;&gt;Node76 -->
<g id="edge15" class="edge">
<title>Node67&#45;&gt;Node76</title>
<path fill="none" stroke="#191970" d="M326.6543,-63.6231C342.9068,-59.7888 359.9909,-55.7582 375.8094,-52.0262"/>
<polygon fill="#191970" stroke="#191970" points="325.5902,-60.278 316.6611,-65.9808 327.1976,-67.091 325.5902,-60.278"/>
</g>
<!-- Node69 -->
<g id="node4" class="node">
<title>Node69</title>
<g id="a_node4"><a xlink:href="../../d9/dc6/class_main_window.html#a7bdf36376a7474c5218923ed66baa937" target="_top" xlink:title="MainWindow::changeTriangle\lDepth">
<polygon fill="none" stroke="#000000" points="1087.5,-115 1087.5,-145 1232.5,-145 1232.5,-115 1087.5,-115"/>
<text text-anchor="start" x="1095.5" y="-133" font-family="Helvetica,sans-Serif" font-size="10.00" fill="#000000">MainWindow::changeTriangle</text>
<text text-anchor="middle" x="1160" y="-122" font-family="Helvetica,sans-Serif" font-size="10.00" fill="#000000">Depth</text>
</a>
</g>
</g>
<!-- Node68&#45;&gt;Node69 -->
<g id="edge3" class="edge">
<title>Node68&#45;&gt;Node69</title>
<path fill="none" stroke="#191970" d="M677.2321,-70.2671C692.7868,-72.9659 709.4877,-75.7225 725,-78 852.1755,-96.6717 1001.0153,-113.3528 1087.4919,-122.5343"/>
<polygon fill="#191970" stroke="#191970" points="677.6542,-66.7878 667.1999,-68.5077 676.4449,-73.6826 677.6542,-66.7878"/>
</g>
<!-- Node71 -->
<g id="node6" class="node">
<title>Node71</title>
<g id="a_node6"><a xlink:href="../../da/dce/class_render_data.html#ac161f29f7d6ae6fd3912e8af7bdccdfd" target="_top" xlink:title="RenderData::loadPointsFromFile">
<polygon fill="none" stroke="#000000" points="889,-11.5 889,-30.5 1048,-30.5 1048,-11.5 889,-11.5"/>
<text text-anchor="middle" x="968.5" y="-18.5" font-family="Helvetica,sans-Serif" font-size="10.00" fill="#000000">RenderData::loadPointsFromFile</text>
</a>
</g>
</g>
<!-- Node68&#45;&gt;Node71 -->
<g id="edge5" class="edge">
<title>Node68&#45;&gt;Node71</title>
<path fill="none" stroke="#191970" d="M674.6073,-47.734C690.8791,-44.8927 708.5858,-42.0663 725,-40 779.4817,-33.1417 841.1533,-28.3601 888.7992,-25.3091"/>
<polygon fill="#191970" stroke="#191970" points="673.9183,-44.3015 664.6856,-49.4983 675.1439,-51.1934 673.9183,-44.3015"/>
</g>
<!-- Node73 -->
<g id="node8" class="node">
<title>Node73</title>
<g id="a_node8"><a xlink:href="../../da/dce/class_render_data.html#a16b04b2437ea3fa034381a138cbf2f83" target="_top" xlink:title="Sets initial sphere depth to 3. ">
<polygon fill="none" stroke="#000000" points="725,-49.5 725,-68.5 853,-68.5 853,-49.5 725,-49.5"/>
<text text-anchor="middle" x="789" y="-56.5" font-family="Helvetica,sans-Serif" font-size="10.00" fill="#000000">RenderData::RenderData</text>
</a>
</g>
</g>
<!-- Node68&#45;&gt;Node73 -->
<g id="edge8" class="edge">
<title>Node68&#45;&gt;Node73</title>
<path fill="none" stroke="#191970" d="M699.2156,-59C707.853,-59 716.5342,-59 724.9139,-59"/>
<polygon fill="#191970" stroke="#191970" points="699.1169,-55.5001 689.1168,-59 699.1168,-62.5001 699.1169,-55.5001"/>
</g>
<!-- Node70 -->
<g id="node5" class="node">
<title>Node70</title>
<g id="a_node5"><a xlink:href="../../d9/dc6/class_main_window.html#a8b244be8b7b7db1b08de2a2acb9409db" target="_top" xlink:title="MainWindow::MainWindow">
<polygon fill="none" stroke="#000000" points="1272,-57.5 1272,-76.5 1407,-76.5 1407,-57.5 1272,-57.5"/>
<text text-anchor="middle" x="1339.5" y="-64.5" font-family="Helvetica,sans-Serif" font-size="10.00" fill="#000000">MainWindow::MainWindow</text>
</a>
</g>
</g>
<!-- Node69&#45;&gt;Node70 -->
<g id="edge4" class="edge">
<title>Node69&#45;&gt;Node70</title>
<path fill="none" stroke="#191970" d="M1212.835,-111.4562C1245.4352,-100.0144 1285.9048,-85.8106 1312.1974,-76.5825"/>
<polygon fill="#191970" stroke="#191970" points="1211.2713,-108.2957 1202.9947,-114.9099 1213.5896,-114.9007 1211.2713,-108.2957"/>
</g>
<!-- Node72 -->
<g id="node7" class="node">
<title>Node72</title>
<g id="a_node7"><a xlink:href="../../d9/dc6/class_main_window.html#a288b768c3c21a9171bdc56fe845ece8b" target="_top" xlink:title="MainWindow::openFile">
<polygon fill="none" stroke="#000000" points="1102,-.5 1102,-19.5 1218,-19.5 1218,-.5 1102,-.5"/>
<text text-anchor="middle" x="1160" y="-7.5" font-family="Helvetica,sans-Serif" font-size="10.00" fill="#000000">MainWindow::openFile</text>
</a>
</g>
</g>
<!-- Node71&#45;&gt;Node72 -->
<g id="edge6" class="edge">
<title>Node71&#45;&gt;Node72</title>
<path fill="none" stroke="#191970" d="M1058.2307,-15.8458C1073.0061,-14.997 1087.9735,-14.1373 1101.7179,-13.3478"/>
<polygon fill="#191970" stroke="#191970" points="1057.8324,-12.3628 1048.0496,-16.4306 1058.2339,-19.3513 1057.8324,-12.3628"/>
</g>
<!-- Node72&#45;&gt;Node70 -->
<g id="edge7" class="edge">
<title>Node72&#45;&gt;Node70</title>
<path fill="none" stroke="#191970" d="M1211.5411,-22.0929C1219.7628,-24.2492 1228.1445,-26.5836 1236,-29 1263.6262,-37.4981 1294.6714,-49.1919 1315.4907,-57.3549"/>
<polygon fill="#191970" stroke="#191970" points="1212.1935,-18.6471 1201.6379,-19.5574 1210.4573,-25.4284 1212.1935,-18.6471"/>
</g>
<!-- Node74 -->
<g id="node9" class="node">
<title>Node74</title>
<g id="a_node9"><a xlink:href="../../da/dce/class_render_data.html#a1fffc72f3dd17ab052d4fb2f025ef5a0" target="_top" xlink:title="RenderData::getInstance">
<polygon fill="none" stroke="#000000" points="905.5,-49.5 905.5,-68.5 1031.5,-68.5 1031.5,-49.5 905.5,-49.5"/>
<text text-anchor="middle" x="968.5" y="-56.5" font-family="Helvetica,sans-Serif" font-size="10.00" fill="#000000">RenderData::getInstance</text>
</a>
</g>
</g>
<!-- Node73&#45;&gt;Node74 -->
<g id="edge9" class="edge">
<title>Node73&#45;&gt;Node74</title>
<path fill="none" stroke="#191970" d="M863.147,-59C877.1782,-59 891.7342,-59 905.3861,-59"/>
<polygon fill="#191970" stroke="#191970" points="863.0434,-55.5001 853.0434,-59 863.0434,-62.5001 863.0434,-55.5001"/>
</g>
<!-- Node74&#45;&gt;Node69 -->
<g id="edge11" class="edge">
<title>Node74&#45;&gt;Node69</title>
<path fill="none" stroke="#191970" d="M1003.9156,-72.1306C1036.5535,-84.2313 1084.9749,-102.1839 1119.2156,-114.8789"/>
<polygon fill="#191970" stroke="#191970" points="1004.9196,-68.7701 994.3265,-68.5754 1002.4861,-75.3335 1004.9196,-68.7701"/>
</g>
<!-- Node74&#45;&gt;Node70 -->
<g id="edge10" class="edge">
<title>Node74&#45;&gt;Node70</title>
<path fill="none" stroke="#191970" d="M1041.7832,-64.8422C1055.7894,-65.7416 1070.3409,-66.5275 1084,-67 1147.726,-69.2043 1220.446,-68.9331 1271.9661,-68.2714"/>
<polygon fill="#191970" stroke="#191970" points="1041.9122,-61.3431 1031.7015,-64.17 1041.4464,-68.3276 1041.9122,-61.3431"/>
</g>
<!-- Node74&#45;&gt;Node72 -->
<g id="edge12" class="edge">
<title>Node74&#45;&gt;Node72</title>
<path fill="none" stroke="#191970" d="M1020.5229,-47.0564C1029.703,-44.8095 1039.1507,-42.407 1048,-40 1064.1437,-35.609 1067.8793,-33.4748 1084,-29 1095.6635,-25.7625 1108.4029,-22.4796 1120.0605,-19.5742"/>
<polygon fill="#191970" stroke="#191970" points="1019.6068,-43.677 1010.7076,-49.4264 1021.2498,-50.4815 1019.6068,-43.677"/>
</g>
<!-- Node75 -->
<g id="node10" class="node">
<title>Node75</title>
<g id="a_node10"><a xlink:href="../../d9/dc6/class_main_window.html#a1cfcf14a3dbba8db45a2444a0fbe5a9f" target="_top" xlink:title="MainWindow::changeColorMap">
<polygon fill="none" stroke="#000000" points="1084,-38.5 1084,-57.5 1236,-57.5 1236,-38.5 1084,-38.5"/>
<text text-anchor="middle" x="1160" y="-45.5" font-family="Helvetica,sans-Serif" font-size="10.00" fill="#000000">MainWindow::changeColorMap</text>
</a>
</g>
</g>
<!-- Node74&#45;&gt;Node75 -->
<g id="edge13" class="edge">
<title>Node74&#45;&gt;Node75</title>
<path fill="none" stroke="#191970" d="M1042.0571,-54.7748C1055.7445,-53.9886 1070.0722,-53.1656 1083.8359,-52.375"/>
<polygon fill="#191970" stroke="#191970" points="1041.5178,-51.2999 1031.735,-55.3677 1041.9193,-58.2884 1041.5178,-51.2999"/>
</g>
<!-- Node75&#45;&gt;Node70 -->
<g id="edge14" class="edge">
<title>Node75&#45;&gt;Node70</title>
<path fill="none" stroke="#191970" d="M1246.1793,-57.122C1254.7781,-58.0322 1263.4207,-58.947 1271.7906,-59.833"/>
<polygon fill="#191970" stroke="#191970" points="1246.4371,-53.6299 1236.1242,-56.0577 1245.7002,-60.591 1246.4371,-53.6299"/>
</g>
<!-- Node76&#45;&gt;Node68 -->
<g id="edge16" class="edge">
<title>Node76&#45;&gt;Node68</title>
<path fill="none" stroke="#191970" d="M517.1783,-46.6823C525.7179,-47.7467 534.3914,-48.8278 542.8728,-49.885"/>
<polygon fill="#191970" stroke="#191970" points="517.5909,-43.2067 507.2347,-45.4429 516.725,-50.153 517.5909,-43.2067"/>
</g>
</g>
</svg>
        <g id="navigator" transform="translate(0 0)" fill="#404254">
                <rect fill="#f2f5e9" fill-opacity="0.5" stroke="#606060" stroke-width=".5" x="0" y="0" width="60" height="60"/>
                <use id="zoomplus" xlink:href="#zoomPlus" x="17" y="9" onmousedown="handleZoom(evt,'in')"/>
                <use id="zoomminus" xlink:href="#zoomMin" x="42" y="9" onmousedown="handleZoom(evt,'out')"/>
                <use id="reset" xlink:href="#resetDef" x="30" y="36" onmousedown="handleReset()"/>
                <g id="arrowUp" xlink:href="#dirArrow" transform="translate(30 24)" onmousedown="handlePan(0,-1)">
                  <use xlink:href="#rim" fill="#404040">
                        <set attributeName="fill" to="#808080" begin="arrowUp.mouseover" end="arrowUp.mouseout"/>
                  </use>
                  <path fill="none" stroke="white" stroke-width="1.5" d="M0,-3.0v7 M-2.5,-0.5L0,-3.0L2.5,-0.5"/>
                </g>
                <g id="arrowRight" xlink:href="#dirArrow" transform="rotate(90) translate(36 -43)" onmousedown="handlePan(1,0)">
                  <use xlink:href="#rim" fill="#404040">
                        <set attributeName="fill" to="#808080" begin="arrowRight.mouseover" end="arrowRight.mouseout"/>
                  </use>
                  <path fill="none" stroke="white" stroke-width="1.5" d="M0,-3.0v7 M-2.5,-0.5L0,-3.0L2.5,-0.5"/>
                </g>
                <g id="arrowDown" xlink:href="#dirArrow" transform="rotate(180) translate(-30 -48)" onmousedown="handlePan(0,1)">
                  <use xlink:href="#rim" fill="#404040">
                        <set attributeName="fill" to="#808080" begin="arrowDown.mouseover" end="arrowDown.mouseout"/>
                  </use>
                  <path fill="none" stroke="white" stroke-width="1.5" d="M0,-3.0v7 M-2.5,-0.5L0,-3.0L2.5,-0.5"/>
                </g>
                <g id="arrowLeft" xlink:href="#dirArrow" transform="rotate(270) translate(-36 17)" onmousedown="handlePan(-1,0)">
                  <use xlink:href="#rim" fill="#404040">
                        <set attributeName="fill" to="#808080" begin="arrowLeft.mouseover" end="arrowLeft.mouseout"/>
                  </use>
                  <path fill="none" stroke="white" stroke-width="1.5" d="M0,-3.0v7 M-2.5,-0.5L0,-3.0L2.5,-0.5"/>
                </g>
        </g>
        <svg viewBox="0 0 15 15" width="100%" height="30px" preserveAspectRatio="xMaxYMin meet">
         <g id="arrow_out" transform="scale(0.3 0.3)">
          <a xlink:href="class_render_data_a4fca77ce81a628de0ddaeb7d75a4c371_icgraph_org.svg" target="_base">
           <rect id="button" ry="5" rx="5" y="6" x="6" height="38" width="38"
                fill="#f2f5e9" fill-opacity="0.5" stroke="#606060" stroke-width="1.0"/>
           <path id="arrow"
             d="M 11.500037,31.436501 C 11.940474,20.09759 22.043105,11.32322 32.158766,21.979434 L 37.068811,17.246167 C 37.068811,17.246167 37.088388,32 37.088388,32 L 22.160133,31.978069 C 22.160133,31.978069 26.997745,27.140456 26.997745,27.140456 C 18.528582,18.264221 13.291696,25.230495 11.500037,31.436501 z"
             style="fill:#404040;"/>
          </a>
         </g>
        </svg>
</svg>
