<?xml version="1.0" encoding="UTF-8" standalone="no"?>
<!DOCTYPE svg PUBLIC "-//W3C//DTD SVG 1.1//EN"
 "http://www.w3.org/Graphics/SVG/1.1/DTD/svg11.dtd">
<!-- Generated by graphviz version 2.40.1 (20161225.0304)
 -->
<!-- Title: RenderData::pointInFirstQuadrantAfterTransformation Pages: 1 -->
<svg width="1582pt" height="165pt"
 viewBox="0.00 0.00 1582.00 164.50" xmlns="http://www.w3.org/2000/svg" xmlns:xlink="http://www.w3.org/1999/xlink">
<g id="graph0" class="graph" transform="scale(1 1) rotate(0) translate(4 160.5)">
<title>RenderData::pointInFirstQuadrantAfterTransformation</title>
<!-- Node90 -->
<g id="node1" class="node">
<title>Node90</title>
<polygon fill="#bfbfbf" stroke="#000000" points="0,-17 0,-47 143,-47 143,-17 0,-17"/>
<text text-anchor="start" x="8" y="-35" font-family="Helvetica,sans-Serif" font-size="10.00" fill="#000000">RenderData::pointInFirst</text>
<text text-anchor="middle" x="71.5" y="-24" font-family="Helvetica,sans-Serif" font-size="10.00" fill="#000000">QuadrantAfterTransformation</text>
</g>
<!-- Node91 -->
<g id="node2" class="node">
<title>Node91</title>
<g id="a_node2"><a xlink:href="../../da/dce/class_render_data.html#af74f8858b9e0dedb914f24390e140a04" target="_top" xlink:title="RenderData::filterPoints\lForTriangle">
<polygon fill="none" stroke="#000000" points="179,-39 179,-69 301,-69 301,-39 179,-39"/>
<text text-anchor="start" x="187" y="-57" font-family="Helvetica,sans-Serif" font-size="10.00" fill="#000000">RenderData::filterPoints</text>
<text text-anchor="middle" x="240" y="-46" font-family="Helvetica,sans-Serif" font-size="10.00" fill="#000000">ForTriangle</text>
</a>
</g>
</g>
<!-- Node90&#45;&gt;Node91 -->
<g id="edge1" class="edge">
<title>Node90&#45;&gt;Node91</title>
<path fill="none" stroke="#191970" d="M153.4672,-42.702C162.0326,-43.8203 170.6295,-44.9427 178.9033,-46.023"/>
<polygon fill="#191970" stroke="#191970" points="153.8169,-39.218 143.4479,-41.3938 152.9106,-46.1591 153.8169,-39.218"/>
</g>
<!-- Node102 -->
<g id="node13" class="node">
<title>Node102</title>
<g id="a_node13"><a xlink:href="../../da/dce/class_render_data.html#ad8c590fd11eda06875112a74d318267f" target="_top" xlink:title="RenderData::normalize">
<polygon fill="none" stroke="#000000" points="361.5,-.5 361.5,-19.5 478.5,-19.5 478.5,-.5 361.5,-.5"/>
<text text-anchor="middle" x="420" y="-7.5" font-family="Helvetica,sans-Serif" font-size="10.00" fill="#000000">RenderData::normalize</text>
</a>
</g>
</g>
<!-- Node90&#45;&gt;Node102 -->
<g id="edge19" class="edge">
<title>Node90&#45;&gt;Node102</title>
<path fill="none" stroke="#191970" d="M153.3231,-26.8347C217.1532,-22.8052 304.2698,-17.3058 361.3077,-13.7051"/>
<polygon fill="#191970" stroke="#191970" points="153.0465,-23.3451 143.2869,-27.4683 153.4875,-30.3312 153.0465,-23.3451"/>
</g>
<!-- Node92 -->
<g id="node3" class="node">
<title>Node92</title>
<g id="a_node3"><a xlink:href="../../da/dce/class_render_data.html#adee024bdbedaae2cfd38bb2038b4aa48" target="_top" xlink:title="RenderData::generateIcosahedron\lAtDepthZero">
<polygon fill="none" stroke="#000000" points="337,-77 337,-107 503,-107 503,-77 337,-77"/>
<text text-anchor="start" x="345" y="-95" font-family="Helvetica,sans-Serif" font-size="10.00" fill="#000000">RenderData::generateIcosahedron</text>
<text text-anchor="middle" x="420" y="-84" font-family="Helvetica,sans-Serif" font-size="10.00" fill="#000000">AtDepthZero</text>
</a>
</g>
</g>
<!-- Node91&#45;&gt;Node92 -->
<g id="edge2" class="edge">
<title>Node91&#45;&gt;Node92</title>
<path fill="none" stroke="#191970" d="M311.0116,-68.9913C323.4158,-71.61 336.3241,-74.3351 348.735,-76.9552"/>
<polygon fill="#191970" stroke="#191970" points="311.6983,-65.5592 301.191,-66.9181 310.2523,-72.4083 311.6983,-65.5592"/>
</g>
<!-- Node101 -->
<g id="node12" class="node">
<title>Node101</title>
<g id="a_node12"><a xlink:href="../../da/dce/class_render_data.html#ac1bbf9770f040e452f676358ee699767" target="_top" xlink:title="RenderData::calculateNext\lSubdivision">
<polygon fill="none" stroke="#000000" points="539,-33 539,-63 674,-63 674,-33 539,-33"/>
<text text-anchor="start" x="547" y="-51" font-family="Helvetica,sans-Serif" font-size="10.00" fill="#000000">RenderData::calculateNext</text>
<text text-anchor="middle" x="606.5" y="-40" font-family="Helvetica,sans-Serif" font-size="10.00" fill="#000000">Subdivision</text>
</a>
</g>
</g>
<!-- Node91&#45;&gt;Node101 -->
<g id="edge18" class="edge">
<title>Node91&#45;&gt;Node101</title>
<path fill="none" stroke="#191970" d="M311.6256,-52.8274C377.4077,-51.7505 474.1921,-50.166 538.7275,-49.1095"/>
<polygon fill="#191970" stroke="#191970" points="311.2852,-49.3324 301.3439,-52.9957 311.3998,-56.3315 311.2852,-49.3324"/>
</g>
<!-- Node93 -->
<g id="node4" class="node">
<title>Node93</title>
<g id="a_node4"><a xlink:href="../../da/dce/class_render_data.html#a8d5f7285d29dc9ca0f93fcf2b5826283" target="_top" xlink:title="RenderData::setSphereDepth">
<polygon fill="none" stroke="#000000" points="710,-60.5 710,-79.5 856,-79.5 856,-60.5 710,-60.5"/>
<text text-anchor="middle" x="783" y="-67.5" font-family="Helvetica,sans-Serif" font-size="10.00" fill="#000000">RenderData::setSphereDepth</text>
</a>
</g>
</g>
<!-- Node92&#45;&gt;Node93 -->
<g id="edge3" class="edge">
<title>Node92&#45;&gt;Node93</title>
<path fill="none" stroke="#191970" d="M513.3256,-86.3439C574.5017,-82.6363 653.3318,-77.8587 709.9407,-74.4278"/>
<polygon fill="#191970" stroke="#191970" points="513.0495,-82.8541 503.2795,-86.9528 513.473,-89.8413 513.0495,-82.8541"/>
</g>
<!-- Node92&#45;&gt;Node101 -->
<g id="edge16" class="edge">
<title>Node92&#45;&gt;Node101</title>
<path fill="none" stroke="#191970" d="M493.6543,-74.6231C509.9068,-70.7888 526.9909,-66.7582 542.8094,-63.0262"/>
<polygon fill="#191970" stroke="#191970" points="492.5902,-71.278 483.6611,-76.9808 494.1976,-78.091 492.5902,-71.278"/>
</g>
<!-- Node94 -->
<g id="node5" class="node">
<title>Node94</title>
<g id="a_node5"><a xlink:href="../../d9/dc6/class_main_window.html#a7bdf36376a7474c5218923ed66baa937" target="_top" xlink:title="MainWindow::changeTriangle\lDepth">
<polygon fill="none" stroke="#000000" points="1254.5,-126 1254.5,-156 1399.5,-156 1399.5,-126 1254.5,-126"/>
<text text-anchor="start" x="1262.5" y="-144" font-family="Helvetica,sans-Serif" font-size="10.00" fill="#000000">MainWindow::changeTriangle</text>
<text text-anchor="middle" x="1327" y="-133" font-family="Helvetica,sans-Serif" font-size="10.00" fill="#000000">Depth</text>
</a>
</g>
</g>
<!-- Node93&#45;&gt;Node94 -->
<g id="edge4" class="edge">
<title>Node93&#45;&gt;Node94</title>
<path fill="none" stroke="#191970" d="M844.2321,-81.2671C859.7868,-83.9659 876.4877,-86.7225 892,-89 1019.1755,-107.6717 1168.0153,-124.3528 1254.4919,-133.5343"/>
<polygon fill="#191970" stroke="#191970" points="844.6542,-77.7878 834.1999,-79.5077 843.4449,-84.6826 844.6542,-77.7878"/>
</g>
<!-- Node96 -->
<g id="node7" class="node">
<title>Node96</title>
<g id="a_node7"><a xlink:href="../../da/dce/class_render_data.html#ac161f29f7d6ae6fd3912e8af7bdccdfd" target="_top" xlink:title="RenderData::loadPointsFromFile">
<polygon fill="none" stroke="#000000" points="1056,-22.5 1056,-41.5 1215,-41.5 1215,-22.5 1056,-22.5"/>
<text text-anchor="middle" x="1135.5" y="-29.5" font-family="Helvetica,sans-Serif" font-size="10.00" fill="#000000">RenderData::loadPointsFromFile</text>
</a>
</g>
</g>
<!-- Node93&#45;&gt;Node96 -->
<g id="edge6" class="edge">
<title>Node93&#45;&gt;Node96</title>
<path fill="none" stroke="#191970" d="M841.6073,-58.734C857.8791,-55.8927 875.5858,-53.0663 892,-51 946.4817,-44.1417 1008.1533,-39.3601 1055.7992,-36.3091"/>
<polygon fill="#191970" stroke="#191970" points="840.9183,-55.3015 831.6856,-60.4983 842.1439,-62.1934 840.9183,-55.3015"/>
</g>
<!-- Node98 -->
<g id="node9" class="node">
<title>Node98</title>
<g id="a_node9"><a xlink:href="../../da/dce/class_render_data.html#a16b04b2437ea3fa034381a138cbf2f83" target="_top" xlink:title="Sets initial sphere depth to 3. ">
<polygon fill="none" stroke="#000000" points="892,-60.5 892,-79.5 1020,-79.5 1020,-60.5 892,-60.5"/>
<text text-anchor="middle" x="956" y="-67.5" font-family="Helvetica,sans-Serif" font-size="10.00" fill="#000000">RenderData::RenderData</text>
</a>
</g>
</g>
<!-- Node93&#45;&gt;Node98 -->
<g id="edge9" class="edge">
<title>Node93&#45;&gt;Node98</title>
<path fill="none" stroke="#191970" d="M866.2156,-70C874.853,-70 883.5342,-70 891.9139,-70"/>
<polygon fill="#191970" stroke="#191970" points="866.1169,-66.5001 856.1168,-70 866.1168,-73.5001 866.1169,-66.5001"/>
</g>
<!-- Node95 -->
<g id="node6" class="node">
<title>Node95</title>
<g id="a_node6"><a xlink:href="../../d9/dc6/class_main_window.html#a8b244be8b7b7db1b08de2a2acb9409db" target="_top" xlink:title="MainWindow::MainWindow">
<polygon fill="none" stroke="#000000" points="1439,-68.5 1439,-87.5 1574,-87.5 1574,-68.5 1439,-68.5"/>
<text text-anchor="middle" x="1506.5" y="-75.5" font-family="Helvetica,sans-Serif" font-size="10.00" fill="#000000">MainWindow::MainWindow</text>
</a>
</g>
</g>
<!-- Node94&#45;&gt;Node95 -->
<g id="edge5" class="edge">
<title>Node94&#45;&gt;Node95</title>
<path fill="none" stroke="#191970" d="M1379.835,-122.4562C1412.4352,-111.0144 1452.9048,-96.8106 1479.1974,-87.5825"/>
<polygon fill="#191970" stroke="#191970" points="1378.2713,-119.2957 1369.9947,-125.9099 1380.5896,-125.9007 1378.2713,-119.2957"/>
</g>
<!-- Node97 -->
<g id="node8" class="node">
<title>Node97</title>
<g id="a_node8"><a xlink:href="../../d9/dc6/class_main_window.html#a288b768c3c21a9171bdc56fe845ece8b" target="_top" xlink:title="MainWindow::openFile">
<polygon fill="none" stroke="#000000" points="1269,-11.5 1269,-30.5 1385,-30.5 1385,-11.5 1269,-11.5"/>
<text text-anchor="middle" x="1327" y="-18.5" font-family="Helvetica,sans-Serif" font-size="10.00" fill="#000000">MainWindow::openFile</text>
</a>
</g>
</g>
<!-- Node96&#45;&gt;Node97 -->
<g id="edge7" class="edge">
<title>Node96&#45;&gt;Node97</title>
<path fill="none" stroke="#191970" d="M1225.2307,-26.8458C1240.0061,-25.997 1254.9735,-25.1373 1268.7179,-24.3478"/>
<polygon fill="#191970" stroke="#191970" points="1224.8324,-23.3628 1215.0496,-27.4306 1225.2339,-30.3513 1224.8324,-23.3628"/>
</g>
<!-- Node97&#45;&gt;Node95 -->
<g id="edge8" class="edge">
<title>Node97&#45;&gt;Node95</title>
<path fill="none" stroke="#191970" d="M1378.5411,-33.0929C1386.7628,-35.2492 1395.1445,-37.5836 1403,-40 1430.6262,-48.4981 1461.6714,-60.1919 1482.4907,-68.3549"/>
<polygon fill="#191970" stroke="#191970" points="1379.1935,-29.6471 1368.6379,-30.5574 1377.4573,-36.4284 1379.1935,-29.6471"/>
</g>
<!-- Node99 -->
<g id="node10" class="node">
<title>Node99</title>
<g id="a_node10"><a xlink:href="../../da/dce/class_render_data.html#a1fffc72f3dd17ab052d4fb2f025ef5a0" target="_top" xlink:title="RenderData::getInstance">
<polygon fill="none" stroke="#000000" points="1072.5,-60.5 1072.5,-79.5 1198.5,-79.5 1198.5,-60.5 1072.5,-60.5"/>
<text text-anchor="middle" x="1135.5" y="-67.5" font-family="Helvetica,sans-Serif" font-size="10.00" fill="#000000">RenderData::getInstance</text>
</a>
</g>
</g>
<!-- Node98&#45;&gt;Node99 -->
<g id="edge10" class="edge">
<title>Node98&#45;&gt;Node99</title>
<path fill="none" stroke="#191970" d="M1030.147,-70C1044.1782,-70 1058.7342,-70 1072.3861,-70"/>
<polygon fill="#191970" stroke="#191970" points="1030.0434,-66.5001 1020.0434,-70 1030.0434,-73.5001 1030.0434,-66.5001"/>
</g>
<!-- Node99&#45;&gt;Node94 -->
<g id="edge12" class="edge">
<title>Node99&#45;&gt;Node94</title>
<path fill="none" stroke="#191970" d="M1170.9156,-83.1306C1203.5535,-95.2313 1251.9749,-113.1839 1286.2156,-125.8789"/>
<polygon fill="#191970" stroke="#191970" points="1171.9196,-79.7701 1161.3265,-79.5754 1169.4861,-86.3335 1171.9196,-79.7701"/>
</g>
<!-- Node99&#45;&gt;Node95 -->
<g id="edge11" class="edge">
<title>Node99&#45;&gt;Node95</title>
<path fill="none" stroke="#191970" d="M1208.7832,-75.8422C1222.7894,-76.7416 1237.3409,-77.5275 1251,-78 1314.726,-80.2043 1387.446,-79.9331 1438.9661,-79.2714"/>
<polygon fill="#191970" stroke="#191970" points="1208.9122,-72.3431 1198.7015,-75.17 1208.4464,-79.3276 1208.9122,-72.3431"/>
</g>
<!-- Node99&#45;&gt;Node97 -->
<g id="edge13" class="edge">
<title>Node99&#45;&gt;Node97</title>
<path fill="none" stroke="#191970" d="M1187.5229,-58.0564C1196.703,-55.8095 1206.1507,-53.407 1215,-51 1231.1437,-46.609 1234.8793,-44.4748 1251,-40 1262.6635,-36.7625 1275.4029,-33.4796 1287.0605,-30.5742"/>
<polygon fill="#191970" stroke="#191970" points="1186.6068,-54.677 1177.7076,-60.4264 1188.2498,-61.4815 1186.6068,-54.677"/>
</g>
<!-- Node100 -->
<g id="node11" class="node">
<title>Node100</title>
<g id="a_node11"><a xlink:href="../../d9/dc6/class_main_window.html#a1cfcf14a3dbba8db45a2444a0fbe5a9f" target="_top" xlink:title="MainWindow::changeColorMap">
<polygon fill="none" stroke="#000000" points="1251,-49.5 1251,-68.5 1403,-68.5 1403,-49.5 1251,-49.5"/>
<text text-anchor="middle" x="1327" y="-56.5" font-family="Helvetica,sans-Serif" font-size="10.00" fill="#000000">MainWindow::changeColorMap</text>
</a>
</g>
</g>
<!-- Node99&#45;&gt;Node100 -->
<g id="edge14" class="edge">
<title>Node99&#45;&gt;Node100</title>
<path fill="none" stroke="#191970" d="M1209.0571,-65.7748C1222.7445,-64.9886 1237.0722,-64.1656 1250.8359,-63.375"/>
<polygon fill="#191970" stroke="#191970" points="1208.5178,-62.2999 1198.735,-66.3677 1208.9193,-69.2884 1208.5178,-62.2999"/>
</g>
<!-- Node100&#45;&gt;Node95 -->
<g id="edge15" class="edge">
<title>Node100&#45;&gt;Node95</title>
<path fill="none" stroke="#191970" d="M1413.1793,-68.122C1421.7781,-69.0322 1430.4207,-69.947 1438.7906,-70.833"/>
<polygon fill="#191970" stroke="#191970" points="1413.4371,-64.6299 1403.1242,-67.0577 1412.7002,-71.591 1413.4371,-64.6299"/>
</g>
<!-- Node101&#45;&gt;Node93 -->
<g id="edge17" class="edge">
<title>Node101&#45;&gt;Node93</title>
<path fill="none" stroke="#191970" d="M684.1783,-57.6823C692.7179,-58.7467 701.3914,-59.8278 709.8728,-60.885"/>
<polygon fill="#191970" stroke="#191970" points="684.5909,-54.2067 674.2347,-56.4429 683.725,-61.153 684.5909,-54.2067"/>
</g>
<!-- Node102&#45;&gt;Node101 -->
<g id="edge20" class="edge">
<title>Node102&#45;&gt;Node101</title>
<path fill="none" stroke="#191970" d="M476.9929,-21.6125C496.4621,-25.5794 518.4288,-30.0552 538.6664,-34.1787"/>
<polygon fill="#191970" stroke="#191970" points="477.5593,-18.1561 467.0618,-19.589 476.1617,-25.0151 477.5593,-18.1561"/>
</g>
</g>
</svg>
