<?xml version="1.0" encoding="UTF-8" standalone="no"?>
<!DOCTYPE svg PUBLIC "-//W3C//DTD SVG 1.1//EN"
 "http://www.w3.org/Graphics/SVG/1.1/DTD/svg11.dtd">
<!-- Generated by graphviz version 2.40.1 (20161225.0304)
 -->
<!-- Title: RenderData::getColorsForTriangles Pages: 1 -->
<svg width="859pt" height="92pt"
 viewBox="0.00 0.00 859.00 92.31" xmlns="http://www.w3.org/2000/svg" xmlns:xlink="http://www.w3.org/1999/xlink">
<g id="graph0" class="graph" transform="scale(1 1) rotate(0) translate(4 88.3133)">
<title>RenderData::getColorsForTriangles</title>
<!-- Node37 -->
<g id="node1" class="node">
<title>Node37</title>
<polygon fill="#bfbfbf" stroke="#000000" points="0,-44.5 0,-74.5 131,-74.5 131,-44.5 0,-44.5"/>
<text text-anchor="start" x="8" y="-62.5" font-family="Helvetica,sans-Serif" font-size="10.00" fill="#000000">RenderData::getColorsFor</text>
<text text-anchor="middle" x="65.5" y="-51.5" font-family="Helvetica,sans-Serif" font-size="10.00" fill="#000000">Triangles</text>
</g>
<!-- Node38 -->
<g id="node2" class="node">
<title>Node38</title>
<g id="a_node2"><a xlink:href="../../df/dda/class_sphere_widget.html#a871c5252a7a218c5d405be5dfc3dbfa1" target="_top" xlink:title="SphereWidget::updateTriangle\lColor">
<polygon fill="none" stroke="#000000" points="167,-44.5 167,-74.5 315,-74.5 315,-44.5 167,-44.5"/>
<text text-anchor="start" x="175" y="-62.5" font-family="Helvetica,sans-Serif" font-size="10.00" fill="#000000">SphereWidget::updateTriangle</text>
<text text-anchor="middle" x="241" y="-51.5" font-family="Helvetica,sans-Serif" font-size="10.00" fill="#000000">Color</text>
</a>
</g>
</g>
<!-- Node37&#45;&gt;Node38 -->
<g id="edge1" class="edge">
<title>Node37&#45;&gt;Node38</title>
<path fill="none" stroke="#191970" d="M141.5011,-59.5C149.9008,-59.5 158.4468,-59.5 166.8236,-59.5"/>
<polygon fill="#191970" stroke="#191970" points="141.3491,-56.0001 131.349,-59.5 141.349,-63.0001 141.3491,-56.0001"/>
</g>
<!-- Node39 -->
<g id="node3" class="node">
<title>Node39</title>
<g id="a_node3"><a xlink:href="../../df/dda/class_sphere_widget.html#a323d335cf261b7156da1a59aaf28c40c" target="_top" xlink:title="SphereWidget::initializeGL">
<polygon fill="none" stroke="#000000" points="531,-49 531,-68 663,-68 663,-49 531,-49"/>
<text text-anchor="middle" x="597" y="-56" font-family="Helvetica,sans-Serif" font-size="10.00" fill="#000000">SphereWidget::initializeGL</text>
</a>
</g>
</g>
<!-- Node38&#45;&gt;Node39 -->
<g id="edge2" class="edge">
<title>Node38&#45;&gt;Node39</title>
<path fill="none" stroke="#191970" d="M325.4893,-59.2627C388.3831,-59.086 473.0286,-58.8482 530.9917,-58.6854"/>
<polygon fill="#191970" stroke="#191970" points="325.186,-55.7634 315.1959,-59.2916 325.2058,-62.7634 325.186,-55.7634"/>
</g>
<!-- Node40 -->
<g id="node4" class="node">
<title>Node40</title>
<g id="a_node4"><a xlink:href="../../df/dda/class_sphere_widget.html#a1766e5d68f4c57f52d6b1ee40cc0326c" target="_top" xlink:title="SphereWidget::~SphereWidget">
<polygon fill="none" stroke="#000000" points="699,-49 699,-68 851,-68 851,-49 699,-49"/>
<text text-anchor="middle" x="775" y="-56" font-family="Helvetica,sans-Serif" font-size="10.00" fill="#000000">SphereWidget::~SphereWidget</text>
</a>
</g>
</g>
<!-- Node38&#45;&gt;Node40 -->
<g id="edge7" class="edge">
<title>Node38&#45;&gt;Node40</title>
<path fill="none" stroke="#191970" d="M325.2979,-71.1389C333.966,-72.0629 342.6519,-72.8777 351,-73.5 489.2944,-83.8089 524.8112,-89.1382 663,-77.5 685.011,-75.6462 709.1999,-71.7778 729.4479,-68.0123"/>
<polygon fill="#191970" stroke="#191970" points="325.4779,-67.6374 315.1519,-70.009 324.7031,-74.5944 325.4779,-67.6374"/>
</g>
<!-- Node41 -->
<g id="node5" class="node">
<title>Node41</title>
<g id="a_node5"><a xlink:href="../../df/dda/class_sphere_widget.html#a7d132800fb4d6b7b925c253679bb6445" target="_top" xlink:title="SphereWidget::updateSphere\lVertices">
<polygon fill="none" stroke="#000000" points="351,-.5 351,-30.5 495,-30.5 495,-.5 351,-.5"/>
<text text-anchor="start" x="359" y="-18.5" font-family="Helvetica,sans-Serif" font-size="10.00" fill="#000000">SphereWidget::updateSphere</text>
<text text-anchor="middle" x="423" y="-7.5" font-family="Helvetica,sans-Serif" font-size="10.00" fill="#000000">Vertices</text>
</a>
</g>
</g>
<!-- Node38&#45;&gt;Node41 -->
<g id="edge4" class="edge">
<title>Node38&#45;&gt;Node41</title>
<path fill="none" stroke="#191970" d="M312.8771,-42.1231C328.7374,-38.2888 345.4094,-34.2582 360.8462,-30.5262"/>
<polygon fill="#191970" stroke="#191970" points="312.0225,-38.7288 303.125,-44.4808 313.6675,-45.5328 312.0225,-38.7288"/>
</g>
<!-- Node39&#45;&gt;Node40 -->
<g id="edge3" class="edge">
<title>Node39&#45;&gt;Node40</title>
<path fill="none" stroke="#191970" d="M673.2726,-58.5C681.753,-58.5 690.3909,-58.5 698.8696,-58.5"/>
<polygon fill="#191970" stroke="#191970" points="673.0277,-55.0001 663.0277,-58.5 673.0276,-62.0001 673.0277,-55.0001"/>
</g>
<!-- Node41&#45;&gt;Node39 -->
<g id="edge5" class="edge">
<title>Node41&#45;&gt;Node39</title>
<path fill="none" stroke="#191970" d="M493.5813,-32.9425C515.7485,-38.4206 539.3914,-44.2634 558.4681,-48.9777"/>
<polygon fill="#191970" stroke="#191970" points="494.4044,-29.5407 483.8568,-30.5393 492.725,-36.3363 494.4044,-29.5407"/>
</g>
<!-- Node41&#45;&gt;Node40 -->
<g id="edge6" class="edge">
<title>Node41&#45;&gt;Node40</title>
<path fill="none" stroke="#191970" d="M505.0978,-22.3101C551.5313,-26.5123 610.6116,-32.4453 663,-39.5 682.7413,-42.1584 704.3388,-45.6766 723.2551,-48.9624"/>
<polygon fill="#191970" stroke="#191970" points="505.3609,-18.8198 495.0884,-21.4133 504.7362,-25.7918 505.3609,-18.8198"/>
</g>
</g>
</svg>
