<?xml version="1.0" encoding="UTF-8" standalone="no"?>
<!DOCTYPE svg PUBLIC "-//W3C//DTD SVG 1.1//EN"
 "http://www.w3.org/Graphics/SVG/1.1/DTD/svg11.dtd">
<!-- Generated by graphviz version 2.40.1 (20161225.0304)
 -->
<!-- Title: RenderData::filterPointsForTriangle Pages: 1 -->
<svg width="320pt" height="88pt"
 viewBox="0.00 0.00 320.00 88.00" xmlns="http://www.w3.org/2000/svg" xmlns:xlink="http://www.w3.org/1999/xlink">
<g id="graph0" class="graph" transform="scale(1 1) rotate(0) translate(4 84)">
<title>RenderData::filterPointsForTriangle</title>
<!-- Node17 -->
<g id="node1" class="node">
<title>Node17</title>
<polygon fill="#bfbfbf" stroke="#000000" points="0,-24.5 0,-54.5 122,-54.5 122,-24.5 0,-24.5"/>
<text text-anchor="start" x="8" y="-42.5" font-family="Helvetica,sans-Serif" font-size="10.00" fill="#000000">RenderData::filterPoints</text>
<text text-anchor="middle" x="61" y="-31.5" font-family="Helvetica,sans-Serif" font-size="10.00" fill="#000000">ForTriangle</text>
</g>
<!-- Node18 -->
<g id="node2" class="node">
<title>Node18</title>
<g id="a_node2"><a xlink:href="../../da/dce/class_render_data.html#afbc604f853739d0198c9da5097987fa7" target="_top" xlink:title="RenderData::getTransformation\lMatrix">
<polygon fill="none" stroke="#000000" points="158,-49.5 158,-79.5 312,-79.5 312,-49.5 158,-49.5"/>
<text text-anchor="start" x="166" y="-67.5" font-family="Helvetica,sans-Serif" font-size="10.00" fill="#000000">RenderData::getTransformation</text>
<text text-anchor="middle" x="235" y="-56.5" font-family="Helvetica,sans-Serif" font-size="10.00" fill="#000000">Matrix</text>
</a>
</g>
</g>
<!-- Node17&#45;&gt;Node18 -->
<g id="edge1" class="edge">
<title>Node17&#45;&gt;Node18</title>
<path fill="none" stroke="#191970" d="M122.3459,-48.3141C130.5739,-49.4962 139.1381,-50.7267 147.7061,-51.9578"/>
<polygon fill="#191970" stroke="#191970" points="147.3498,-55.4424 157.746,-53.4003 148.3454,-48.5136 147.3498,-55.4424"/>
</g>
<!-- Node19 -->
<g id="node3" class="node">
<title>Node19</title>
<g id="a_node3"><a xlink:href="../../da/dce/class_render_data.html#a7b32e615d46ac5ffbd3d14de0da2c406" target="_top" xlink:title="RenderData::pointInFirst\lQuadrantAfterTransformation">
<polygon fill="none" stroke="#000000" points="163.5,-.5 163.5,-30.5 306.5,-30.5 306.5,-.5 163.5,-.5"/>
<text text-anchor="start" x="171.5" y="-18.5" font-family="Helvetica,sans-Serif" font-size="10.00" fill="#000000">RenderData::pointInFirst</text>
<text text-anchor="middle" x="235" y="-7.5" font-family="Helvetica,sans-Serif" font-size="10.00" fill="#000000">QuadrantAfterTransformation</text>
</a>
</g>
</g>
<!-- Node17&#45;&gt;Node19 -->
<g id="edge2" class="edge">
<title>Node17&#45;&gt;Node19</title>
<path fill="none" stroke="#191970" d="M122.3459,-31.0385C132.4298,-29.6476 143.0188,-28.1871 153.5008,-26.7413"/>
<polygon fill="#191970" stroke="#191970" points="154.0699,-30.196 163.4978,-25.3624 153.1134,-23.2617 154.0699,-30.196"/>
</g>
</g>
</svg>
