<?xml version="1.0" encoding="UTF-8" standalone="no"?>
<!DOCTYPE svg PUBLIC "-//W3C//DTD SVG 1.1//EN"
 "http://www.w3.org/Graphics/SVG/1.1/DTD/svg11.dtd">
<!-- Generated by graphviz version 2.40.1 (20161225.0304)
 -->
<!-- Title: RenderData::calculateNextSubdivision Pages: 1 -->
<svg width="1043pt" height="154pt"
 viewBox="0.00 0.00 1043.00 153.50" xmlns="http://www.w3.org/2000/svg" xmlns:xlink="http://www.w3.org/1999/xlink">
<g id="graph0" class="graph" transform="scale(1 1) rotate(0) translate(4 149.5)">
<title>RenderData::calculateNextSubdivision</title>
<!-- Node7 -->
<g id="node1" class="node">
<title>Node7</title>
<polygon fill="#bfbfbf" stroke="#000000" points="0,-44 0,-74 135,-74 135,-44 0,-44"/>
<text text-anchor="start" x="8" y="-62" font-family="Helvetica,sans-Serif" font-size="10.00" fill="#000000">RenderData::calculateNext</text>
<text text-anchor="middle" x="67.5" y="-51" font-family="Helvetica,sans-Serif" font-size="10.00" fill="#000000">Subdivision</text>
</g>
<!-- Node8 -->
<g id="node2" class="node">
<title>Node8</title>
<g id="a_node2"><a xlink:href="../../da/dce/class_render_data.html#a8d5f7285d29dc9ca0f93fcf2b5826283" target="_top" xlink:title="RenderData::setSphereDepth">
<polygon fill="none" stroke="#000000" points="171,-49.5 171,-68.5 317,-68.5 317,-49.5 171,-49.5"/>
<text text-anchor="middle" x="244" y="-56.5" font-family="Helvetica,sans-Serif" font-size="10.00" fill="#000000">RenderData::setSphereDepth</text>
</a>
</g>
</g>
<!-- Node7&#45;&gt;Node8 -->
<g id="edge1" class="edge">
<title>Node7&#45;&gt;Node8</title>
<path fill="none" stroke="#191970" d="M145.4568,-59C153.9064,-59 162.4836,-59 170.8728,-59"/>
<polygon fill="#191970" stroke="#191970" points="145.2348,-55.5001 135.2347,-59 145.2347,-62.5001 145.2348,-55.5001"/>
</g>
<!-- Node9 -->
<g id="node3" class="node">
<title>Node9</title>
<g id="a_node3"><a xlink:href="../../d9/dc6/class_main_window.html#a7bdf36376a7474c5218923ed66baa937" target="_top" xlink:title="MainWindow::changeTriangle\lDepth">
<polygon fill="none" stroke="#000000" points="715.5,-115 715.5,-145 860.5,-145 860.5,-115 715.5,-115"/>
<text text-anchor="start" x="723.5" y="-133" font-family="Helvetica,sans-Serif" font-size="10.00" fill="#000000">MainWindow::changeTriangle</text>
<text text-anchor="middle" x="788" y="-122" font-family="Helvetica,sans-Serif" font-size="10.00" fill="#000000">Depth</text>
</a>
</g>
</g>
<!-- Node8&#45;&gt;Node9 -->
<g id="edge2" class="edge">
<title>Node8&#45;&gt;Node9</title>
<path fill="none" stroke="#191970" d="M305.2321,-70.2671C320.7868,-72.9659 337.4877,-75.7225 353,-78 480.1755,-96.6717 629.0153,-113.3528 715.4919,-122.5343"/>
<polygon fill="#191970" stroke="#191970" points="305.6542,-66.7878 295.1999,-68.5077 304.4449,-73.6826 305.6542,-66.7878"/>
</g>
<!-- Node11 -->
<g id="node5" class="node">
<title>Node11</title>
<g id="a_node5"><a xlink:href="../../da/dce/class_render_data.html#ac161f29f7d6ae6fd3912e8af7bdccdfd" target="_top" xlink:title="RenderData::loadPointsFromFile">
<polygon fill="none" stroke="#000000" points="517,-11.5 517,-30.5 676,-30.5 676,-11.5 517,-11.5"/>
<text text-anchor="middle" x="596.5" y="-18.5" font-family="Helvetica,sans-Serif" font-size="10.00" fill="#000000">RenderData::loadPointsFromFile</text>
</a>
</g>
</g>
<!-- Node8&#45;&gt;Node11 -->
<g id="edge4" class="edge">
<title>Node8&#45;&gt;Node11</title>
<path fill="none" stroke="#191970" d="M302.6073,-47.734C318.8791,-44.8927 336.5858,-42.0663 353,-40 407.4817,-33.1417 469.1533,-28.3601 516.7992,-25.3091"/>
<polygon fill="#191970" stroke="#191970" points="301.9183,-44.3015 292.6856,-49.4983 303.1439,-51.1934 301.9183,-44.3015"/>
</g>
<!-- Node13 -->
<g id="node7" class="node">
<title>Node13</title>
<g id="a_node7"><a xlink:href="../../da/dce/class_render_data.html#a16b04b2437ea3fa034381a138cbf2f83" target="_top" xlink:title="Sets initial sphere depth to 3. ">
<polygon fill="none" stroke="#000000" points="353,-49.5 353,-68.5 481,-68.5 481,-49.5 353,-49.5"/>
<text text-anchor="middle" x="417" y="-56.5" font-family="Helvetica,sans-Serif" font-size="10.00" fill="#000000">RenderData::RenderData</text>
</a>
</g>
</g>
<!-- Node8&#45;&gt;Node13 -->
<g id="edge7" class="edge">
<title>Node8&#45;&gt;Node13</title>
<path fill="none" stroke="#191970" d="M327.2156,-59C335.853,-59 344.5342,-59 352.9139,-59"/>
<polygon fill="#191970" stroke="#191970" points="327.1169,-55.5001 317.1168,-59 327.1168,-62.5001 327.1169,-55.5001"/>
</g>
<!-- Node10 -->
<g id="node4" class="node">
<title>Node10</title>
<g id="a_node4"><a xlink:href="../../d9/dc6/class_main_window.html#a8b244be8b7b7db1b08de2a2acb9409db" target="_top" xlink:title="MainWindow::MainWindow">
<polygon fill="none" stroke="#000000" points="900,-57.5 900,-76.5 1035,-76.5 1035,-57.5 900,-57.5"/>
<text text-anchor="middle" x="967.5" y="-64.5" font-family="Helvetica,sans-Serif" font-size="10.00" fill="#000000">MainWindow::MainWindow</text>
</a>
</g>
</g>
<!-- Node9&#45;&gt;Node10 -->
<g id="edge3" class="edge">
<title>Node9&#45;&gt;Node10</title>
<path fill="none" stroke="#191970" d="M840.835,-111.4562C873.4352,-100.0144 913.9048,-85.8106 940.1974,-76.5825"/>
<polygon fill="#191970" stroke="#191970" points="839.2713,-108.2957 830.9947,-114.9099 841.5896,-114.9007 839.2713,-108.2957"/>
</g>
<!-- Node12 -->
<g id="node6" class="node">
<title>Node12</title>
<g id="a_node6"><a xlink:href="../../d9/dc6/class_main_window.html#a288b768c3c21a9171bdc56fe845ece8b" target="_top" xlink:title="MainWindow::openFile">
<polygon fill="none" stroke="#000000" points="730,-.5 730,-19.5 846,-19.5 846,-.5 730,-.5"/>
<text text-anchor="middle" x="788" y="-7.5" font-family="Helvetica,sans-Serif" font-size="10.00" fill="#000000">MainWindow::openFile</text>
</a>
</g>
</g>
<!-- Node11&#45;&gt;Node12 -->
<g id="edge5" class="edge">
<title>Node11&#45;&gt;Node12</title>
<path fill="none" stroke="#191970" d="M686.2307,-15.8458C701.0061,-14.997 715.9735,-14.1373 729.7179,-13.3478"/>
<polygon fill="#191970" stroke="#191970" points="685.8324,-12.3628 676.0496,-16.4306 686.2339,-19.3513 685.8324,-12.3628"/>
</g>
<!-- Node12&#45;&gt;Node10 -->
<g id="edge6" class="edge">
<title>Node12&#45;&gt;Node10</title>
<path fill="none" stroke="#191970" d="M839.5411,-22.0929C847.7628,-24.2492 856.1445,-26.5836 864,-29 891.6262,-37.4981 922.6714,-49.1919 943.4907,-57.3549"/>
<polygon fill="#191970" stroke="#191970" points="840.1935,-18.6471 829.6379,-19.5574 838.4573,-25.4284 840.1935,-18.6471"/>
</g>
<!-- Node14 -->
<g id="node8" class="node">
<title>Node14</title>
<g id="a_node8"><a xlink:href="../../da/dce/class_render_data.html#a1fffc72f3dd17ab052d4fb2f025ef5a0" target="_top" xlink:title="RenderData::getInstance">
<polygon fill="none" stroke="#000000" points="533.5,-49.5 533.5,-68.5 659.5,-68.5 659.5,-49.5 533.5,-49.5"/>
<text text-anchor="middle" x="596.5" y="-56.5" font-family="Helvetica,sans-Serif" font-size="10.00" fill="#000000">RenderData::getInstance</text>
</a>
</g>
</g>
<!-- Node13&#45;&gt;Node14 -->
<g id="edge8" class="edge">
<title>Node13&#45;&gt;Node14</title>
<path fill="none" stroke="#191970" d="M491.147,-59C505.1782,-59 519.7342,-59 533.3861,-59"/>
<polygon fill="#191970" stroke="#191970" points="491.0434,-55.5001 481.0434,-59 491.0434,-62.5001 491.0434,-55.5001"/>
</g>
<!-- Node14&#45;&gt;Node9 -->
<g id="edge10" class="edge">
<title>Node14&#45;&gt;Node9</title>
<path fill="none" stroke="#191970" d="M631.9156,-72.1306C664.5535,-84.2313 712.9749,-102.1839 747.2156,-114.8789"/>
<polygon fill="#191970" stroke="#191970" points="632.9196,-68.7701 622.3265,-68.5754 630.4861,-75.3335 632.9196,-68.7701"/>
</g>
<!-- Node14&#45;&gt;Node10 -->
<g id="edge9" class="edge">
<title>Node14&#45;&gt;Node10</title>
<path fill="none" stroke="#191970" d="M669.7832,-64.8422C683.7894,-65.7416 698.3409,-66.5275 712,-67 775.726,-69.2043 848.446,-68.9331 899.9661,-68.2714"/>
<polygon fill="#191970" stroke="#191970" points="669.9122,-61.3431 659.7015,-64.17 669.4464,-68.3276 669.9122,-61.3431"/>
</g>
<!-- Node14&#45;&gt;Node12 -->
<g id="edge11" class="edge">
<title>Node14&#45;&gt;Node12</title>
<path fill="none" stroke="#191970" d="M648.5229,-47.0564C657.703,-44.8095 667.1507,-42.407 676,-40 692.1437,-35.609 695.8793,-33.4748 712,-29 723.6635,-25.7625 736.4029,-22.4796 748.0605,-19.5742"/>
<polygon fill="#191970" stroke="#191970" points="647.6068,-43.677 638.7076,-49.4264 649.2498,-50.4815 647.6068,-43.677"/>
</g>
<!-- Node15 -->
<g id="node9" class="node">
<title>Node15</title>
<g id="a_node9"><a xlink:href="../../d9/dc6/class_main_window.html#a1cfcf14a3dbba8db45a2444a0fbe5a9f" target="_top" xlink:title="MainWindow::changeColorMap">
<polygon fill="none" stroke="#000000" points="712,-38.5 712,-57.5 864,-57.5 864,-38.5 712,-38.5"/>
<text text-anchor="middle" x="788" y="-45.5" font-family="Helvetica,sans-Serif" font-size="10.00" fill="#000000">MainWindow::changeColorMap</text>
</a>
</g>
</g>
<!-- Node14&#45;&gt;Node15 -->
<g id="edge12" class="edge">
<title>Node14&#45;&gt;Node15</title>
<path fill="none" stroke="#191970" d="M670.0571,-54.7748C683.7445,-53.9886 698.0722,-53.1656 711.8359,-52.375"/>
<polygon fill="#191970" stroke="#191970" points="669.5178,-51.2999 659.735,-55.3677 669.9193,-58.2884 669.5178,-51.2999"/>
</g>
<!-- Node15&#45;&gt;Node10 -->
<g id="edge13" class="edge">
<title>Node15&#45;&gt;Node10</title>
<path fill="none" stroke="#191970" d="M874.1793,-57.122C882.7781,-58.0322 891.4207,-58.947 899.7906,-59.833"/>
<polygon fill="#191970" stroke="#191970" points="874.4371,-53.6299 864.1242,-56.0577 873.7002,-60.591 874.4371,-53.6299"/>
</g>
</g>
</svg>
