<?xml version="1.0" encoding="UTF-8" standalone="no"?>
<!DOCTYPE svg PUBLIC "-//W3C//DTD SVG 1.1//EN"
 "http://www.w3.org/Graphics/SVG/1.1/DTD/svg11.dtd">
<!-- Generated by graphviz version 2.40.1 (20161225.0304)
 -->
<!-- Title: RenderData::loadPointsFromFile Pages: 1 -->
<svg width="1082pt" height="159pt"
 viewBox="0.00 0.00 1082.00 159.00" xmlns="http://www.w3.org/2000/svg" xmlns:xlink="http://www.w3.org/1999/xlink">
<g id="graph0" class="graph" transform="scale(1 1) rotate(0) translate(4 155)">
<title>RenderData::loadPointsFromFile</title>
<!-- Node42 -->
<g id="node1" class="node">
<title>Node42</title>
<polygon fill="#bfbfbf" stroke="#000000" points="0,-28 0,-47 159,-47 159,-28 0,-28"/>
<text text-anchor="middle" x="79.5" y="-35" font-family="Helvetica,sans-Serif" font-size="10.00" fill="#000000">RenderData::loadPointsFromFile</text>
</g>
<!-- Node43 -->
<g id="node2" class="node">
<title>Node43</title>
<g id="a_node2"><a xlink:href="../../da/dce/class_render_data.html#a8d5f7285d29dc9ca0f93fcf2b5826283" target="_top" xlink:title="RenderData::setSphereDepth">
<polygon fill="none" stroke="#000000" points="195,-28 195,-47 341,-47 341,-28 195,-28"/>
<text text-anchor="middle" x="268" y="-35" font-family="Helvetica,sans-Serif" font-size="10.00" fill="#000000">RenderData::setSphereDepth</text>
</a>
</g>
</g>
<!-- Node42&#45;&gt;Node43 -->
<g id="edge1" class="edge">
<title>Node42&#45;&gt;Node43</title>
<path fill="none" stroke="#191970" d="M159.1678,-37.5C167.5971,-37.5 176.1859,-37.5 184.6557,-37.5"/>
<polygon fill="#191970" stroke="#191970" points="184.9092,-41.0001 194.9092,-37.5 184.9091,-34.0001 184.9092,-41.0001"/>
</g>
<!-- Node44 -->
<g id="node3" class="node">
<title>Node44</title>
<g id="a_node3"><a xlink:href="../../da/dce/class_render_data.html#adee024bdbedaae2cfd38bb2038b4aa48" target="_top" xlink:title="RenderData::generateIcosahedron\lAtDepthZero">
<polygon fill="none" stroke="#000000" points="548,-.5 548,-30.5 714,-30.5 714,-.5 548,-.5"/>
<text text-anchor="start" x="556" y="-18.5" font-family="Helvetica,sans-Serif" font-size="10.00" fill="#000000">RenderData::generateIcosahedron</text>
<text text-anchor="middle" x="631" y="-7.5" font-family="Helvetica,sans-Serif" font-size="10.00" fill="#000000">AtDepthZero</text>
</a>
</g>
</g>
<!-- Node43&#45;&gt;Node44 -->
<g id="edge2" class="edge">
<title>Node43&#45;&gt;Node44</title>
<path fill="none" stroke="#191970" d="M341.0218,-33.0744C397.6997,-29.6394 476.6696,-24.8534 537.8894,-21.1431"/>
<polygon fill="#191970" stroke="#191970" points="538.1719,-24.6325 547.9418,-20.5338 537.7484,-17.6453 538.1719,-24.6325"/>
</g>
<!-- Node49 -->
<g id="node8" class="node">
<title>Node49</title>
<g id="a_node8"><a xlink:href="../../da/dce/class_render_data.html#ac1bbf9770f040e452f676358ee699767" target="_top" xlink:title="RenderData::calculateNext\lSubdivision">
<polygon fill="none" stroke="#000000" points="377,-44.5 377,-74.5 512,-74.5 512,-44.5 377,-44.5"/>
<text text-anchor="start" x="385" y="-62.5" font-family="Helvetica,sans-Serif" font-size="10.00" fill="#000000">RenderData::calculateNext</text>
<text text-anchor="middle" x="444.5" y="-51.5" font-family="Helvetica,sans-Serif" font-size="10.00" fill="#000000">Subdivision</text>
</a>
</g>
</g>
<!-- Node43&#45;&gt;Node49 -->
<g id="edge7" class="edge">
<title>Node43&#45;&gt;Node49</title>
<path fill="none" stroke="#191970" d="M341.0634,-46.607C349.5838,-47.6691 358.299,-48.7554 366.8782,-49.8248"/>
<polygon fill="#191970" stroke="#191970" points="366.5111,-53.306 376.8672,-51.0699 367.377,-46.3598 366.5111,-53.306"/>
</g>
<!-- Node45 -->
<g id="node4" class="node">
<title>Node45</title>
<g id="a_node4"><a xlink:href="../../da/dce/class_render_data.html#af74f8858b9e0dedb914f24390e140a04" target="_top" xlink:title="RenderData::filterPoints\lForTriangle">
<polygon fill="none" stroke="#000000" points="756,-73.5 756,-103.5 878,-103.5 878,-73.5 756,-73.5"/>
<text text-anchor="start" x="764" y="-91.5" font-family="Helvetica,sans-Serif" font-size="10.00" fill="#000000">RenderData::filterPoints</text>
<text text-anchor="middle" x="817" y="-80.5" font-family="Helvetica,sans-Serif" font-size="10.00" fill="#000000">ForTriangle</text>
</a>
</g>
</g>
<!-- Node44&#45;&gt;Node45 -->
<g id="edge3" class="edge">
<title>Node44&#45;&gt;Node45</title>
<path fill="none" stroke="#191970" d="M669.5393,-30.6256C698.3441,-41.9308 737.9111,-57.4598 768.8079,-69.5859"/>
<polygon fill="#191970" stroke="#191970" points="767.9226,-72.9983 778.5101,-73.3937 770.48,-66.4822 767.9226,-72.9983"/>
</g>
<!-- Node48 -->
<g id="node7" class="node">
<title>Node48</title>
<g id="a_node7"><a xlink:href="../../da/dce/class_render_data.html#a4fca77ce81a628de0ddaeb7d75a4c371" target="_top" xlink:title="RenderData::insertTriangle\lIntoVerticesVector">
<polygon fill="none" stroke="#000000" points="750,-13.5 750,-43.5 884,-43.5 884,-13.5 750,-13.5"/>
<text text-anchor="start" x="758" y="-31.5" font-family="Helvetica,sans-Serif" font-size="10.00" fill="#000000">RenderData::insertTriangle</text>
<text text-anchor="middle" x="817" y="-20.5" font-family="Helvetica,sans-Serif" font-size="10.00" fill="#000000">IntoVerticesVector</text>
</a>
</g>
</g>
<!-- Node44&#45;&gt;Node48 -->
<g id="edge6" class="edge">
<title>Node44&#45;&gt;Node48</title>
<path fill="none" stroke="#191970" d="M714.2076,-21.3156C722.6658,-21.9067 731.2332,-22.5055 739.6259,-23.0921"/>
<polygon fill="#191970" stroke="#191970" points="739.5376,-26.5944 749.7573,-23.8002 740.0257,-19.6114 739.5376,-26.5944"/>
</g>
<!-- Node46 -->
<g id="node5" class="node">
<title>Node46</title>
<g id="a_node5"><a xlink:href="../../da/dce/class_render_data.html#afbc604f853739d0198c9da5097987fa7" target="_top" xlink:title="RenderData::getTransformation\lMatrix">
<polygon fill="none" stroke="#000000" points="920,-71.5 920,-101.5 1074,-101.5 1074,-71.5 920,-71.5"/>
<text text-anchor="start" x="928" y="-89.5" font-family="Helvetica,sans-Serif" font-size="10.00" fill="#000000">RenderData::getTransformation</text>
<text text-anchor="middle" x="997" y="-78.5" font-family="Helvetica,sans-Serif" font-size="10.00" fill="#000000">Matrix</text>
</a>
</g>
</g>
<!-- Node45&#45;&gt;Node46 -->
<g id="edge4" class="edge">
<title>Node45&#45;&gt;Node46</title>
<path fill="none" stroke="#191970" d="M878.191,-87.8201C888.3088,-87.7077 898.9696,-87.5892 909.5825,-87.4713"/>
<polygon fill="#191970" stroke="#191970" points="909.7633,-90.9696 919.7238,-87.3586 909.6855,-83.97 909.7633,-90.9696"/>
</g>
<!-- Node47 -->
<g id="node6" class="node">
<title>Node47</title>
<g id="a_node6"><a xlink:href="../../da/dce/class_render_data.html#a7b32e615d46ac5ffbd3d14de0da2c406" target="_top" xlink:title="RenderData::pointInFirst\lQuadrantAfterTransformation">
<polygon fill="none" stroke="#000000" points="925.5,-120.5 925.5,-150.5 1068.5,-150.5 1068.5,-120.5 925.5,-120.5"/>
<text text-anchor="start" x="933.5" y="-138.5" font-family="Helvetica,sans-Serif" font-size="10.00" fill="#000000">RenderData::pointInFirst</text>
<text text-anchor="middle" x="997" y="-127.5" font-family="Helvetica,sans-Serif" font-size="10.00" fill="#000000">QuadrantAfterTransformation</text>
</a>
</g>
</g>
<!-- Node45&#45;&gt;Node47 -->
<g id="edge5" class="edge">
<title>Node45&#45;&gt;Node47</title>
<path fill="none" stroke="#191970" d="M874.448,-103.5003C891.9839,-108.0791 911.4252,-113.1555 929.5602,-117.8907"/>
<polygon fill="#191970" stroke="#191970" points="928.9205,-121.341 939.4804,-120.481 930.689,-114.568 928.9205,-121.341"/>
</g>
<!-- Node49&#45;&gt;Node44 -->
<g id="edge8" class="edge">
<title>Node49&#45;&gt;Node44</title>
<path fill="none" stroke="#191970" d="M508.1611,-44.4808C523.978,-40.7492 541.0619,-36.7186 557.3154,-32.884"/>
<polygon fill="#191970" stroke="#191970" points="558.3803,-36.229 567.3094,-30.5262 556.7729,-29.416 558.3803,-36.229"/>
</g>
<!-- Node49&#45;&gt;Node45 -->
<g id="edge12" class="edge">
<title>Node49&#45;&gt;Node45</title>
<path fill="none" stroke="#191970" d="M512.0555,-69.4178C524.0114,-70.9502 536.3574,-72.3897 548,-73.5 614.8181,-79.8721 691.2511,-83.8137 745.5241,-86.0474"/>
<polygon fill="#191970" stroke="#191970" points="745.6003,-89.5532 755.733,-86.4582 745.8818,-82.5589 745.6003,-89.5532"/>
</g>
<!-- Node49&#45;&gt;Node48 -->
<g id="edge11" class="edge">
<title>Node49&#45;&gt;Node48</title>
<path fill="none" stroke="#191970" d="M512.1106,-55.0903C566.6471,-51.3868 645.3128,-45.7148 714,-39.5 722.3675,-38.7429 731.1114,-37.8958 739.8155,-37.0167"/>
<polygon fill="#191970" stroke="#191970" points="740.3993,-40.4753 749.9902,-35.9736 739.6853,-33.5118 740.3993,-40.4753"/>
</g>
<!-- Node50 -->
<g id="node9" class="node">
<title>Node50</title>
<g id="a_node9"><a xlink:href="../../da/dce/class_render_data.html#ad8c590fd11eda06875112a74d318267f" target="_top" xlink:title="RenderData::normalize">
<polygon fill="none" stroke="#000000" points="572.5,-126 572.5,-145 689.5,-145 689.5,-126 572.5,-126"/>
<text text-anchor="middle" x="631" y="-133" font-family="Helvetica,sans-Serif" font-size="10.00" fill="#000000">RenderData::normalize</text>
</a>
</g>
</g>
<!-- Node49&#45;&gt;Node50 -->
<g id="edge9" class="edge">
<title>Node49&#45;&gt;Node50</title>
<path fill="none" stroke="#191970" d="M471.1162,-74.5829C491.6616,-85.8011 521.0396,-100.9335 548,-111.5 559.0176,-115.8181 571.127,-119.754 582.6088,-123.1333"/>
<polygon fill="#191970" stroke="#191970" points="581.9176,-126.5757 592.4942,-125.9552 583.8391,-119.8446 581.9176,-126.5757"/>
</g>
<!-- Node50&#45;&gt;Node47 -->
<g id="edge10" class="edge">
<title>Node50&#45;&gt;Node47</title>
<path fill="none" stroke="#191970" d="M689.8042,-135.5C750.8287,-135.5 846.7402,-135.5 915.1524,-135.5"/>
<polygon fill="#191970" stroke="#191970" points="915.4623,-139.0001 925.4623,-135.5 915.4623,-132.0001 915.4623,-139.0001"/>
</g>
</g>
</svg>
