<?xml version="1.0" encoding="UTF-8" standalone="no"?>
<!DOCTYPE svg PUBLIC "-//W3C//DTD SVG 1.1//EN"
 "http://www.w3.org/Graphics/SVG/1.1/DTD/svg11.dtd">
<!-- Generated by graphviz version 2.40.1 (20161225.0304)
 -->
<!-- Title: RenderData::getInstance Pages: 1 -->
<svg width="1213pt" height="159pt"
 viewBox="0.00 0.00 1213.00 159.00" xmlns="http://www.w3.org/2000/svg" xmlns:xlink="http://www.w3.org/1999/xlink">
<g id="graph0" class="graph" transform="scale(1 1) rotate(0) translate(4 155)">
<title>RenderData::getInstance</title>
<!-- Node28 -->
<g id="node1" class="node">
<title>Node28</title>
<polygon fill="#bfbfbf" stroke="#000000" points="0,-28 0,-47 126,-47 126,-28 0,-28"/>
<text text-anchor="middle" x="63" y="-35" font-family="Helvetica,sans-Serif" font-size="10.00" fill="#000000">RenderData::getInstance</text>
</g>
<!-- Node29 -->
<g id="node2" class="node">
<title>Node29</title>
<g id="a_node2"><a xlink:href="../../da/dce/class_render_data.html#a16b04b2437ea3fa034381a138cbf2f83" target="_top" xlink:title="Sets initial sphere depth to 3. ">
<polygon fill="none" stroke="#000000" points="162,-28 162,-47 290,-47 290,-28 162,-28"/>
<text text-anchor="middle" x="226" y="-35" font-family="Helvetica,sans-Serif" font-size="10.00" fill="#000000">RenderData::RenderData</text>
</a>
</g>
</g>
<!-- Node28&#45;&gt;Node29 -->
<g id="edge1" class="edge">
<title>Node28&#45;&gt;Node29</title>
<path fill="none" stroke="#191970" d="M126.0201,-37.5C134.4552,-37.5 143.1691,-37.5 151.7739,-37.5"/>
<polygon fill="#191970" stroke="#191970" points="151.802,-41.0001 161.802,-37.5 151.802,-34.0001 151.802,-41.0001"/>
</g>
<!-- Node30 -->
<g id="node3" class="node">
<title>Node30</title>
<g id="a_node3"><a xlink:href="../../da/dce/class_render_data.html#a8d5f7285d29dc9ca0f93fcf2b5826283" target="_top" xlink:title="RenderData::setSphereDepth">
<polygon fill="none" stroke="#000000" points="326,-28 326,-47 472,-47 472,-28 326,-28"/>
<text text-anchor="middle" x="399" y="-35" font-family="Helvetica,sans-Serif" font-size="10.00" fill="#000000">RenderData::setSphereDepth</text>
</a>
</g>
</g>
<!-- Node29&#45;&gt;Node30 -->
<g id="edge2" class="edge">
<title>Node29&#45;&gt;Node30</title>
<path fill="none" stroke="#191970" d="M290.4188,-37.5C298.6145,-37.5 307.0937,-37.5 315.5343,-37.5"/>
<polygon fill="#191970" stroke="#191970" points="315.7892,-41.0001 325.7892,-37.5 315.7891,-34.0001 315.7892,-41.0001"/>
</g>
<!-- Node31 -->
<g id="node4" class="node">
<title>Node31</title>
<g id="a_node4"><a xlink:href="../../da/dce/class_render_data.html#adee024bdbedaae2cfd38bb2038b4aa48" target="_top" xlink:title="RenderData::generateIcosahedron\lAtDepthZero">
<polygon fill="none" stroke="#000000" points="679,-.5 679,-30.5 845,-30.5 845,-.5 679,-.5"/>
<text text-anchor="start" x="687" y="-18.5" font-family="Helvetica,sans-Serif" font-size="10.00" fill="#000000">RenderData::generateIcosahedron</text>
<text text-anchor="middle" x="762" y="-7.5" font-family="Helvetica,sans-Serif" font-size="10.00" fill="#000000">AtDepthZero</text>
</a>
</g>
</g>
<!-- Node30&#45;&gt;Node31 -->
<g id="edge3" class="edge">
<title>Node30&#45;&gt;Node31</title>
<path fill="none" stroke="#191970" d="M472.0218,-33.0744C528.6997,-29.6394 607.6696,-24.8534 668.8894,-21.1431"/>
<polygon fill="#191970" stroke="#191970" points="669.1719,-24.6325 678.9418,-20.5338 668.7484,-17.6453 669.1719,-24.6325"/>
</g>
<!-- Node36 -->
<g id="node9" class="node">
<title>Node36</title>
<g id="a_node9"><a xlink:href="../../da/dce/class_render_data.html#ac1bbf9770f040e452f676358ee699767" target="_top" xlink:title="RenderData::calculateNext\lSubdivision">
<polygon fill="none" stroke="#000000" points="508,-44.5 508,-74.5 643,-74.5 643,-44.5 508,-44.5"/>
<text text-anchor="start" x="516" y="-62.5" font-family="Helvetica,sans-Serif" font-size="10.00" fill="#000000">RenderData::calculateNext</text>
<text text-anchor="middle" x="575.5" y="-51.5" font-family="Helvetica,sans-Serif" font-size="10.00" fill="#000000">Subdivision</text>
</a>
</g>
</g>
<!-- Node30&#45;&gt;Node36 -->
<g id="edge8" class="edge">
<title>Node30&#45;&gt;Node36</title>
<path fill="none" stroke="#191970" d="M472.0634,-46.607C480.5838,-47.6691 489.299,-48.7554 497.8782,-49.8248"/>
<polygon fill="#191970" stroke="#191970" points="497.5111,-53.306 507.8672,-51.0699 498.377,-46.3598 497.5111,-53.306"/>
</g>
<!-- Node32 -->
<g id="node5" class="node">
<title>Node32</title>
<g id="a_node5"><a xlink:href="../../da/dce/class_render_data.html#af74f8858b9e0dedb914f24390e140a04" target="_top" xlink:title="RenderData::filterPoints\lForTriangle">
<polygon fill="none" stroke="#000000" points="887,-73.5 887,-103.5 1009,-103.5 1009,-73.5 887,-73.5"/>
<text text-anchor="start" x="895" y="-91.5" font-family="Helvetica,sans-Serif" font-size="10.00" fill="#000000">RenderData::filterPoints</text>
<text text-anchor="middle" x="948" y="-80.5" font-family="Helvetica,sans-Serif" font-size="10.00" fill="#000000">ForTriangle</text>
</a>
</g>
</g>
<!-- Node31&#45;&gt;Node32 -->
<g id="edge4" class="edge">
<title>Node31&#45;&gt;Node32</title>
<path fill="none" stroke="#191970" d="M800.5393,-30.6256C829.3441,-41.9308 868.9111,-57.4598 899.8079,-69.5859"/>
<polygon fill="#191970" stroke="#191970" points="898.9226,-72.9983 909.5101,-73.3937 901.48,-66.4822 898.9226,-72.9983"/>
</g>
<!-- Node35 -->
<g id="node8" class="node">
<title>Node35</title>
<g id="a_node8"><a xlink:href="../../da/dce/class_render_data.html#a4fca77ce81a628de0ddaeb7d75a4c371" target="_top" xlink:title="RenderData::insertTriangle\lIntoVerticesVector">
<polygon fill="none" stroke="#000000" points="881,-13.5 881,-43.5 1015,-43.5 1015,-13.5 881,-13.5"/>
<text text-anchor="start" x="889" y="-31.5" font-family="Helvetica,sans-Serif" font-size="10.00" fill="#000000">RenderData::insertTriangle</text>
<text text-anchor="middle" x="948" y="-20.5" font-family="Helvetica,sans-Serif" font-size="10.00" fill="#000000">IntoVerticesVector</text>
</a>
</g>
</g>
<!-- Node31&#45;&gt;Node35 -->
<g id="edge7" class="edge">
<title>Node31&#45;&gt;Node35</title>
<path fill="none" stroke="#191970" d="M845.2076,-21.3156C853.6658,-21.9067 862.2332,-22.5055 870.6259,-23.0921"/>
<polygon fill="#191970" stroke="#191970" points="870.5376,-26.5944 880.7573,-23.8002 871.0257,-19.6114 870.5376,-26.5944"/>
</g>
<!-- Node33 -->
<g id="node6" class="node">
<title>Node33</title>
<g id="a_node6"><a xlink:href="../../da/dce/class_render_data.html#afbc604f853739d0198c9da5097987fa7" target="_top" xlink:title="RenderData::getTransformation\lMatrix">
<polygon fill="none" stroke="#000000" points="1051,-71.5 1051,-101.5 1205,-101.5 1205,-71.5 1051,-71.5"/>
<text text-anchor="start" x="1059" y="-89.5" font-family="Helvetica,sans-Serif" font-size="10.00" fill="#000000">RenderData::getTransformation</text>
<text text-anchor="middle" x="1128" y="-78.5" font-family="Helvetica,sans-Serif" font-size="10.00" fill="#000000">Matrix</text>
</a>
</g>
</g>
<!-- Node32&#45;&gt;Node33 -->
<g id="edge5" class="edge">
<title>Node32&#45;&gt;Node33</title>
<path fill="none" stroke="#191970" d="M1009.191,-87.8201C1019.3088,-87.7077 1029.9696,-87.5892 1040.5825,-87.4713"/>
<polygon fill="#191970" stroke="#191970" points="1040.7633,-90.9696 1050.7238,-87.3586 1040.6855,-83.97 1040.7633,-90.9696"/>
</g>
<!-- Node34 -->
<g id="node7" class="node">
<title>Node34</title>
<g id="a_node7"><a xlink:href="../../da/dce/class_render_data.html#a7b32e615d46ac5ffbd3d14de0da2c406" target="_top" xlink:title="RenderData::pointInFirst\lQuadrantAfterTransformation">
<polygon fill="none" stroke="#000000" points="1056.5,-120.5 1056.5,-150.5 1199.5,-150.5 1199.5,-120.5 1056.5,-120.5"/>
<text text-anchor="start" x="1064.5" y="-138.5" font-family="Helvetica,sans-Serif" font-size="10.00" fill="#000000">RenderData::pointInFirst</text>
<text text-anchor="middle" x="1128" y="-127.5" font-family="Helvetica,sans-Serif" font-size="10.00" fill="#000000">QuadrantAfterTransformation</text>
</a>
</g>
</g>
<!-- Node32&#45;&gt;Node34 -->
<g id="edge6" class="edge">
<title>Node32&#45;&gt;Node34</title>
<path fill="none" stroke="#191970" d="M1005.448,-103.5003C1022.9839,-108.0791 1042.4252,-113.1555 1060.5602,-117.8907"/>
<polygon fill="#191970" stroke="#191970" points="1059.9205,-121.341 1070.4804,-120.481 1061.689,-114.568 1059.9205,-121.341"/>
</g>
<!-- Node36&#45;&gt;Node31 -->
<g id="edge9" class="edge">
<title>Node36&#45;&gt;Node31</title>
<path fill="none" stroke="#191970" d="M639.1611,-44.4808C654.978,-40.7492 672.0619,-36.7186 688.3154,-32.884"/>
<polygon fill="#191970" stroke="#191970" points="689.3803,-36.229 698.3094,-30.5262 687.7729,-29.416 689.3803,-36.229"/>
</g>
<!-- Node36&#45;&gt;Node32 -->
<g id="edge13" class="edge">
<title>Node36&#45;&gt;Node32</title>
<path fill="none" stroke="#191970" d="M643.0555,-69.4178C655.0114,-70.9502 667.3574,-72.3897 679,-73.5 745.8181,-79.8721 822.2511,-83.8137 876.5241,-86.0474"/>
<polygon fill="#191970" stroke="#191970" points="876.6003,-89.5532 886.733,-86.4582 876.8818,-82.5589 876.6003,-89.5532"/>
</g>
<!-- Node36&#45;&gt;Node35 -->
<g id="edge12" class="edge">
<title>Node36&#45;&gt;Node35</title>
<path fill="none" stroke="#191970" d="M643.1106,-55.0903C697.6471,-51.3868 776.3128,-45.7148 845,-39.5 853.3675,-38.7429 862.1114,-37.8958 870.8155,-37.0167"/>
<polygon fill="#191970" stroke="#191970" points="871.3993,-40.4753 880.9902,-35.9736 870.6853,-33.5118 871.3993,-40.4753"/>
</g>
<!-- Node37 -->
<g id="node10" class="node">
<title>Node37</title>
<g id="a_node10"><a xlink:href="../../da/dce/class_render_data.html#ad8c590fd11eda06875112a74d318267f" target="_top" xlink:title="RenderData::normalize">
<polygon fill="none" stroke="#000000" points="703.5,-126 703.5,-145 820.5,-145 820.5,-126 703.5,-126"/>
<text text-anchor="middle" x="762" y="-133" font-family="Helvetica,sans-Serif" font-size="10.00" fill="#000000">RenderData::normalize</text>
</a>
</g>
</g>
<!-- Node36&#45;&gt;Node37 -->
<g id="edge10" class="edge">
<title>Node36&#45;&gt;Node37</title>
<path fill="none" stroke="#191970" d="M602.1162,-74.5829C622.6616,-85.8011 652.0396,-100.9335 679,-111.5 690.0176,-115.8181 702.127,-119.754 713.6088,-123.1333"/>
<polygon fill="#191970" stroke="#191970" points="712.9176,-126.5757 723.4942,-125.9552 714.8391,-119.8446 712.9176,-126.5757"/>
</g>
<!-- Node37&#45;&gt;Node34 -->
<g id="edge11" class="edge">
<title>Node37&#45;&gt;Node34</title>
<path fill="none" stroke="#191970" d="M820.8042,-135.5C881.8287,-135.5 977.7402,-135.5 1046.1524,-135.5"/>
<polygon fill="#191970" stroke="#191970" points="1046.4623,-139.0001 1056.4623,-135.5 1046.4623,-132.0001 1046.4623,-139.0001"/>
</g>
</g>
</svg>
