<?xml version="1.0" encoding="UTF-8" standalone="no"?>
<!DOCTYPE svg PUBLIC "-//W3C//DTD SVG 1.1//EN"
 "http://www.w3.org/Graphics/SVG/1.1/DTD/svg11.dtd">
<!-- Generated by graphviz version 2.40.1 (20161225.0304)
 -->
<!-- Title: RenderData::setColorMap Pages: 1 -->
<svg width="498pt" height="47pt"
 viewBox="0.00 0.00 498.00 47.00" xmlns="http://www.w3.org/2000/svg" xmlns:xlink="http://www.w3.org/1999/xlink">
<g id="graph0" class="graph" transform="scale(1 1) rotate(0) translate(4 43)">
<title>RenderData::setColorMap</title>
<!-- Node103 -->
<g id="node1" class="node">
<title>Node103</title>
<polygon fill="#bfbfbf" stroke="#000000" points="0,-19.5 0,-38.5 131,-38.5 131,-19.5 0,-19.5"/>
<text text-anchor="middle" x="65.5" y="-26.5" font-family="Helvetica,sans-Serif" font-size="10.00" fill="#000000">RenderData::setColorMap</text>
</g>
<!-- Node104 -->
<g id="node2" class="node">
<title>Node104</title>
<g id="a_node2"><a xlink:href="../../d9/dc6/class_main_window.html#a8b244be8b7b7db1b08de2a2acb9409db" target="_top" xlink:title="MainWindow::MainWindow">
<polygon fill="none" stroke="#000000" points="355,-19.5 355,-38.5 490,-38.5 490,-19.5 355,-19.5"/>
<text text-anchor="middle" x="422.5" y="-26.5" font-family="Helvetica,sans-Serif" font-size="10.00" fill="#000000">MainWindow::MainWindow</text>
</a>
</g>
</g>
<!-- Node103&#45;&gt;Node104 -->
<g id="edge1" class="edge">
<title>Node103&#45;&gt;Node104</title>
<path fill="none" stroke="#191970" d="M141.7106,-29C204.9715,-29 294.1054,-29 354.8661,-29"/>
<polygon fill="#191970" stroke="#191970" points="141.3954,-25.5001 131.3953,-29 141.3953,-32.5001 141.3954,-25.5001"/>
</g>
<!-- Node105 -->
<g id="node3" class="node">
<title>Node105</title>
<g id="a_node3"><a xlink:href="../../d9/dc6/class_main_window.html#a1cfcf14a3dbba8db45a2444a0fbe5a9f" target="_top" xlink:title="MainWindow::changeColorMap">
<polygon fill="none" stroke="#000000" points="167,-.5 167,-19.5 319,-19.5 319,-.5 167,-.5"/>
<text text-anchor="middle" x="243" y="-7.5" font-family="Helvetica,sans-Serif" font-size="10.00" fill="#000000">MainWindow::changeColorMap</text>
</a>
</g>
</g>
<!-- Node103&#45;&gt;Node105 -->
<g id="edge2" class="edge">
<title>Node103&#45;&gt;Node105</title>
<path fill="none" stroke="#191970" d="M141.0388,-20.9142C149.596,-19.9982 158.3207,-19.0643 166.8852,-18.1475"/>
<polygon fill="#191970" stroke="#191970" points="140.6608,-17.4345 131.0901,-21.9791 141.4059,-24.3948 140.6608,-17.4345"/>
</g>
<!-- Node105&#45;&gt;Node104 -->
<g id="edge3" class="edge">
<title>Node105&#45;&gt;Node104</title>
<path fill="none" stroke="#191970" d="M329.1793,-19.122C337.7781,-20.0322 346.4207,-20.947 354.7906,-21.833"/>
<polygon fill="#191970" stroke="#191970" points="329.4371,-15.6299 319.1242,-18.0577 328.7002,-22.591 329.4371,-15.6299"/>
</g>
</g>
</svg>
