<?xml version="1.0" encoding="UTF-8" standalone="no"?>
<!DOCTYPE svg PUBLIC "-//W3C//DTD SVG 1.1//EN"
 "http://www.w3.org/Graphics/SVG/1.1/DTD/svg11.dtd">
<!-- Generated by graphviz version 2.40.1 (20161225.0304)
 -->
<!-- Title: RenderData::RenderData Pages: 1 -->
<svg width="657pt" height="136pt"
 viewBox="0.00 0.00 657.00 135.96" xmlns="http://www.w3.org/2000/svg" xmlns:xlink="http://www.w3.org/1999/xlink">
<g id="graph0" class="graph" transform="scale(1 1) rotate(0) translate(4 131.9621)">
<title>RenderData::RenderData</title>
<!-- Node0 -->
<g id="node1" class="node">
<title>Node0</title>
<polygon fill="#bfbfbf" stroke="#000000" points="0,-60.5 0,-79.5 128,-79.5 128,-60.5 0,-60.5"/>
<text text-anchor="middle" x="64" y="-67.5" font-family="Helvetica,sans-Serif" font-size="10.00" fill="#000000">RenderData::RenderData</text>
</g>
<!-- Node1 -->
<g id="node2" class="node">
<title>Node1</title>
<g id="a_node2"><a xlink:href="../../da/dce/class_render_data.html#a1fffc72f3dd17ab052d4fb2f025ef5a0" target="_top" xlink:title="RenderData::getInstance">
<polygon fill="none" stroke="#000000" points="164,-60.5 164,-79.5 290,-79.5 290,-60.5 164,-60.5"/>
<text text-anchor="middle" x="227" y="-67.5" font-family="Helvetica,sans-Serif" font-size="10.00" fill="#000000">RenderData::getInstance</text>
</a>
</g>
</g>
<!-- Node0&#45;&gt;Node1 -->
<g id="edge1" class="edge">
<title>Node0&#45;&gt;Node1</title>
<path fill="none" stroke="#191970" d="M138.6288,-70C147.0569,-70 155.5836,-70 163.8451,-70"/>
<polygon fill="#191970" stroke="#191970" points="138.422,-66.5001 128.4219,-70 138.4219,-73.5001 138.422,-66.5001"/>
</g>
<!-- Node2 -->
<g id="node3" class="node">
<title>Node2</title>
<g id="a_node3"><a xlink:href="../../d9/dc6/class_main_window.html#a8b244be8b7b7db1b08de2a2acb9409db" target="_top" xlink:title="MainWindow::MainWindow">
<polygon fill="none" stroke="#000000" points="514,-60.5 514,-79.5 649,-79.5 649,-60.5 514,-60.5"/>
<text text-anchor="middle" x="581.5" y="-67.5" font-family="Helvetica,sans-Serif" font-size="10.00" fill="#000000">MainWindow::MainWindow</text>
</a>
</g>
</g>
<!-- Node1&#45;&gt;Node2 -->
<g id="edge2" class="edge">
<title>Node1&#45;&gt;Node2</title>
<path fill="none" stroke="#191970" d="M250.3995,-84.7753C269.8066,-96.1061 298.5649,-110.8183 326,-117 391.9033,-131.8495 411.973,-131.2895 478,-117 511.1756,-109.8202 546.493,-91.0717 566.0982,-79.541"/>
<polygon fill="#191970" stroke="#191970" points="252.0458,-81.6814 241.6703,-79.5367 248.4438,-87.6835 252.0458,-81.6814"/>
</g>
<!-- Node3 -->
<g id="node4" class="node">
<title>Node3</title>
<g id="a_node4"><a xlink:href="../../d9/dc6/class_main_window.html#a7bdf36376a7474c5218923ed66baa937" target="_top" xlink:title="MainWindow::changeTriangle\lDepth">
<polygon fill="none" stroke="#000000" points="329.5,-77 329.5,-107 474.5,-107 474.5,-77 329.5,-77"/>
<text text-anchor="start" x="337.5" y="-95" font-family="Helvetica,sans-Serif" font-size="10.00" fill="#000000">MainWindow::changeTriangle</text>
<text text-anchor="middle" x="402" y="-84" font-family="Helvetica,sans-Serif" font-size="10.00" fill="#000000">Depth</text>
</a>
</g>
</g>
<!-- Node1&#45;&gt;Node3 -->
<g id="edge3" class="edge">
<title>Node1&#45;&gt;Node3</title>
<path fill="none" stroke="#191970" d="M300.1511,-79.1961C309.8235,-80.4121 319.7364,-81.6583 329.3995,-82.8731"/>
<polygon fill="#191970" stroke="#191970" points="300.5375,-75.7173 290.179,-77.9425 299.6643,-82.6626 300.5375,-75.7173"/>
</g>
<!-- Node4 -->
<g id="node5" class="node">
<title>Node4</title>
<g id="a_node5"><a xlink:href="../../d9/dc6/class_main_window.html#a288b768c3c21a9171bdc56fe845ece8b" target="_top" xlink:title="MainWindow::openFile">
<polygon fill="none" stroke="#000000" points="344,-38.5 344,-57.5 460,-57.5 460,-38.5 344,-38.5"/>
<text text-anchor="middle" x="402" y="-45.5" font-family="Helvetica,sans-Serif" font-size="10.00" fill="#000000">MainWindow::openFile</text>
</a>
</g>
</g>
<!-- Node1&#45;&gt;Node4 -->
<g id="edge5" class="edge">
<title>Node1&#45;&gt;Node4</title>
<path fill="none" stroke="#191970" d="M300.1652,-60.8021C314.7454,-58.9692 329.8715,-57.0676 343.8643,-55.3085"/>
<polygon fill="#191970" stroke="#191970" points="299.6643,-57.3374 290.179,-62.0575 300.5375,-64.2827 299.6643,-57.3374"/>
</g>
<!-- Node5 -->
<g id="node6" class="node">
<title>Node5</title>
<g id="a_node6"><a xlink:href="../../d9/dc6/class_main_window.html#a1cfcf14a3dbba8db45a2444a0fbe5a9f" target="_top" xlink:title="MainWindow::changeColorMap">
<polygon fill="none" stroke="#000000" points="326,-.5 326,-19.5 478,-19.5 478,-.5 326,-.5"/>
<text text-anchor="middle" x="402" y="-7.5" font-family="Helvetica,sans-Serif" font-size="10.00" fill="#000000">MainWindow::changeColorMap</text>
</a>
</g>
</g>
<!-- Node1&#45;&gt;Node5 -->
<g id="edge7" class="edge">
<title>Node1&#45;&gt;Node5</title>
<path fill="none" stroke="#191970" d="M256.7594,-56.3231C276.193,-47.7306 302.2734,-36.8314 326,-29 336.5905,-25.5044 348.194,-22.2988 359.0751,-19.556"/>
<polygon fill="#191970" stroke="#191970" points="255.2215,-53.1768 247.5221,-60.4548 258.0796,-59.5667 255.2215,-53.1768"/>
</g>
<!-- Node3&#45;&gt;Node2 -->
<g id="edge4" class="edge">
<title>Node3&#45;&gt;Node2</title>
<path fill="none" stroke="#191970" d="M484.8256,-81.8487C494.5498,-80.6569 504.383,-79.4517 513.8651,-78.2895"/>
<polygon fill="#191970" stroke="#191970" points="484.2507,-78.3929 474.7508,-83.0835 485.1023,-85.3409 484.2507,-78.3929"/>
</g>
<!-- Node4&#45;&gt;Node2 -->
<g id="edge6" class="edge">
<title>Node4&#45;&gt;Node2</title>
<path fill="none" stroke="#191970" d="M470.473,-56.3922C484.6872,-58.1344 499.6569,-59.9691 513.8416,-61.7076"/>
<polygon fill="#191970" stroke="#191970" points="470.63,-52.8854 460.2785,-55.1428 469.7784,-59.8334 470.63,-52.8854"/>
</g>
<!-- Node5&#45;&gt;Node2 -->
<g id="edge8" class="edge">
<title>Node5&#45;&gt;Node2</title>
<path fill="none" stroke="#191970" d="M454.1758,-22.0734C462.2039,-24.2101 470.3598,-26.5436 478,-29 506.7034,-38.2285 538.858,-51.4346 559.599,-60.3438"/>
<polygon fill="#191970" stroke="#191970" points="455.0479,-18.6838 444.4901,-19.5696 453.2959,-25.4611 455.0479,-18.6838"/>
</g>
</g>
</svg>
