<?xml version="1.0" encoding="UTF-8" standalone="no"?>
<!DOCTYPE svg PUBLIC "-//W3C//DTD SVG 1.1//EN"
 "http://www.w3.org/Graphics/SVG/1.1/DTD/svg11.dtd">
<!-- Generated by graphviz version 2.40.1 (20161225.0304)
 -->
<!-- Title: RenderData::getVerticesAtCurrentDepth Pages: 1 -->
<svg width="678pt" height="53pt"
 viewBox="0.00 0.00 678.00 52.50" xmlns="http://www.w3.org/2000/svg" xmlns:xlink="http://www.w3.org/1999/xlink">
<g id="graph0" class="graph" transform="scale(1 1) rotate(0) translate(4 48.5)">
<title>RenderData::getVerticesAtCurrentDepth</title>
<!-- Node62 -->
<g id="node1" class="node">
<title>Node62</title>
<polygon fill="#bfbfbf" stroke="#000000" points="0,-.5 0,-30.5 134,-30.5 134,-.5 0,-.5"/>
<text text-anchor="start" x="8" y="-18.5" font-family="Helvetica,sans-Serif" font-size="10.00" fill="#000000">RenderData::getVerticesAt</text>
<text text-anchor="middle" x="67" y="-7.5" font-family="Helvetica,sans-Serif" font-size="10.00" fill="#000000">CurrentDepth</text>
</g>
<!-- Node63 -->
<g id="node2" class="node">
<title>Node63</title>
<g id="a_node2"><a xlink:href="../../df/dda/class_sphere_widget.html#a7d132800fb4d6b7b925c253679bb6445" target="_top" xlink:title="SphereWidget::updateSphere\lVertices">
<polygon fill="none" stroke="#000000" points="170,-.5 170,-30.5 314,-30.5 314,-.5 170,-.5"/>
<text text-anchor="start" x="178" y="-18.5" font-family="Helvetica,sans-Serif" font-size="10.00" fill="#000000">SphereWidget::updateSphere</text>
<text text-anchor="middle" x="242" y="-7.5" font-family="Helvetica,sans-Serif" font-size="10.00" fill="#000000">Vertices</text>
</a>
</g>
</g>
<!-- Node62&#45;&gt;Node63 -->
<g id="edge1" class="edge">
<title>Node62&#45;&gt;Node63</title>
<path fill="none" stroke="#191970" d="M144.3795,-15.5C152.8279,-15.5 161.4039,-15.5 169.7867,-15.5"/>
<polygon fill="#191970" stroke="#191970" points="144.1591,-12.0001 134.1591,-15.5 144.159,-19.0001 144.1591,-12.0001"/>
</g>
<!-- Node64 -->
<g id="node3" class="node">
<title>Node64</title>
<g id="a_node3"><a xlink:href="../../df/dda/class_sphere_widget.html#a323d335cf261b7156da1a59aaf28c40c" target="_top" xlink:title="SphereWidget::initializeGL">
<polygon fill="none" stroke="#000000" points="350,-25 350,-44 482,-44 482,-25 350,-25"/>
<text text-anchor="middle" x="416" y="-32" font-family="Helvetica,sans-Serif" font-size="10.00" fill="#000000">SphereWidget::initializeGL</text>
</a>
</g>
</g>
<!-- Node63&#45;&gt;Node64 -->
<g id="edge2" class="edge">
<title>Node63&#45;&gt;Node64</title>
<path fill="none" stroke="#191970" d="M324.1174,-24.4668C332.7543,-25.41 341.4556,-26.3601 349.8793,-27.2799"/>
<polygon fill="#191970" stroke="#191970" points="324.3493,-20.9714 314.0285,-23.3652 323.5894,-27.9301 324.3493,-20.9714"/>
</g>
<!-- Node65 -->
<g id="node4" class="node">
<title>Node65</title>
<g id="a_node4"><a xlink:href="../../df/dda/class_sphere_widget.html#a1766e5d68f4c57f52d6b1ee40cc0326c" target="_top" xlink:title="SphereWidget::~SphereWidget">
<polygon fill="none" stroke="#000000" points="518,-6 518,-25 670,-25 670,-6 518,-6"/>
<text text-anchor="middle" x="594" y="-13" font-family="Helvetica,sans-Serif" font-size="10.00" fill="#000000">SphereWidget::~SphereWidget</text>
</a>
</g>
</g>
<!-- Node63&#45;&gt;Node65 -->
<g id="edge4" class="edge">
<title>Node63&#45;&gt;Node65</title>
<path fill="none" stroke="#191970" d="M324.3918,-15.5C382.8449,-15.5 460.7273,-15.5 517.7517,-15.5"/>
<polygon fill="#191970" stroke="#191970" points="324.0819,-12.0001 314.0819,-15.5 324.0818,-19.0001 324.0819,-12.0001"/>
</g>
<!-- Node64&#45;&gt;Node65 -->
<g id="edge3" class="edge">
<title>Node64&#45;&gt;Node65</title>
<path fill="none" stroke="#191970" d="M491.9931,-26.3884C500.5632,-25.4736 509.2977,-24.5413 517.8696,-23.6263"/>
<polygon fill="#191970" stroke="#191970" points="491.5997,-22.9104 482.0277,-27.4521 492.3427,-29.8709 491.5997,-22.9104"/>
</g>
</g>
</svg>
