<?xml version="1.0" encoding="UTF-8" standalone="no"?>
<!DOCTYPE svg PUBLIC "-//W3C//DTD SVG 1.1//EN"
 "http://www.w3.org/Graphics/SVG/1.1/DTD/svg11.dtd">
<!-- Generated by graphviz version 2.40.1 (20161225.0304)
 -->
<!-- Title: RenderData::getColorsForTriangles Pages: 1 -->
<svg width="521pt" height="39pt"
 viewBox="0.00 0.00 521.00 39.00" xmlns="http://www.w3.org/2000/svg" xmlns:xlink="http://www.w3.org/1999/xlink">
<g id="graph0" class="graph" transform="scale(1 1) rotate(0) translate(4 35)">
<title>RenderData::getColorsForTriangles</title>
<!-- Node25 -->
<g id="node1" class="node">
<title>Node25</title>
<polygon fill="#bfbfbf" stroke="#000000" points="0,-.5 0,-30.5 131,-30.5 131,-.5 0,-.5"/>
<text text-anchor="start" x="8" y="-18.5" font-family="Helvetica,sans-Serif" font-size="10.00" fill="#000000">RenderData::getColorsFor</text>
<text text-anchor="middle" x="65.5" y="-7.5" font-family="Helvetica,sans-Serif" font-size="10.00" fill="#000000">Triangles</text>
</g>
<!-- Node26 -->
<g id="node2" class="node">
<title>Node26</title>
<g id="a_node2"><a xlink:href="../../dc/d7c/struct_sphere_depth_data.html#ad151dd50ed037d91aecec6b285a3e342" target="_top" xlink:title="SphereDepthData::getMaxPoints\lPerTriangle">
<polygon fill="none" stroke="#000000" points="167,-.5 167,-30.5 328,-30.5 328,-.5 167,-.5"/>
<text text-anchor="start" x="175" y="-18.5" font-family="Helvetica,sans-Serif" font-size="10.00" fill="#000000">SphereDepthData::getMaxPoints</text>
<text text-anchor="middle" x="247.5" y="-7.5" font-family="Helvetica,sans-Serif" font-size="10.00" fill="#000000">PerTriangle</text>
</a>
</g>
</g>
<!-- Node25&#45;&gt;Node26 -->
<g id="edge1" class="edge">
<title>Node25&#45;&gt;Node26</title>
<path fill="none" stroke="#191970" d="M131.2062,-15.5C139.549,-15.5 148.2,-15.5 156.8468,-15.5"/>
<polygon fill="#191970" stroke="#191970" points="156.9768,-19.0001 166.9767,-15.5 156.9767,-12.0001 156.9768,-19.0001"/>
</g>
<!-- Node27 -->
<g id="node3" class="node">
<title>Node27</title>
<g id="a_node3"><a xlink:href="../../dc/d7c/struct_sphere_depth_data.html#a4cf92f63341fd72e6659dcd1501eb2ac" target="_top" xlink:title="SphereDepthData::updateMax\lPointsPerTriangle">
<polygon fill="none" stroke="#000000" points="364,-.5 364,-30.5 513,-30.5 513,-.5 364,-.5"/>
<text text-anchor="start" x="372" y="-18.5" font-family="Helvetica,sans-Serif" font-size="10.00" fill="#000000">SphereDepthData::updateMax</text>
<text text-anchor="middle" x="438.5" y="-7.5" font-family="Helvetica,sans-Serif" font-size="10.00" fill="#000000">PointsPerTriangle</text>
</a>
</g>
</g>
<!-- Node26&#45;&gt;Node27 -->
<g id="edge2" class="edge">
<title>Node26&#45;&gt;Node27</title>
<path fill="none" stroke="#191970" d="M328.2244,-15.5C336.6207,-15.5 345.1733,-15.5 353.6139,-15.5"/>
<polygon fill="#191970" stroke="#191970" points="353.836,-19.0001 363.8359,-15.5 353.8359,-12.0001 353.836,-19.0001"/>
</g>
</g>
</svg>
