<?xml version="1.0" encoding="UTF-8" standalone="no"?>
<!DOCTYPE svg PUBLIC "-//W3C//DTD SVG 1.1//EN"
 "http://www.w3.org/Graphics/SVG/1.1/DTD/svg11.dtd">
<!-- Generated by graphviz version 2.40.1 (20161225.0304)
 -->
<!-- Title: RenderData::RenderData Pages: 1 -->
<svg width="1051pt" height="159pt"
 viewBox="0.00 0.00 1051.00 159.00" xmlns="http://www.w3.org/2000/svg" xmlns:xlink="http://www.w3.org/1999/xlink">
<g id="graph0" class="graph" transform="scale(1 1) rotate(0) translate(4 155)">
<title>RenderData::RenderData</title>
<!-- Node0 -->
<g id="node1" class="node">
<title>Node0</title>
<polygon fill="#bfbfbf" stroke="#000000" points="0,-28 0,-47 128,-47 128,-28 0,-28"/>
<text text-anchor="middle" x="64" y="-35" font-family="Helvetica,sans-Serif" font-size="10.00" fill="#000000">RenderData::RenderData</text>
</g>
<!-- Node1 -->
<g id="node2" class="node">
<title>Node1</title>
<g id="a_node2"><a xlink:href="../../da/dce/class_render_data.html#a8d5f7285d29dc9ca0f93fcf2b5826283" target="_top" xlink:title="RenderData::setSphereDepth">
<polygon fill="none" stroke="#000000" points="164,-28 164,-47 310,-47 310,-28 164,-28"/>
<text text-anchor="middle" x="237" y="-35" font-family="Helvetica,sans-Serif" font-size="10.00" fill="#000000">RenderData::setSphereDepth</text>
</a>
</g>
</g>
<!-- Node0&#45;&gt;Node1 -->
<g id="edge1" class="edge">
<title>Node0&#45;&gt;Node1</title>
<path fill="none" stroke="#191970" d="M128.4188,-37.5C136.6145,-37.5 145.0937,-37.5 153.5343,-37.5"/>
<polygon fill="#191970" stroke="#191970" points="153.7892,-41.0001 163.7892,-37.5 153.7891,-34.0001 153.7892,-41.0001"/>
</g>
<!-- Node2 -->
<g id="node3" class="node">
<title>Node2</title>
<g id="a_node3"><a xlink:href="../../da/dce/class_render_data.html#adee024bdbedaae2cfd38bb2038b4aa48" target="_top" xlink:title="RenderData::generateIcosahedron\lAtDepthZero">
<polygon fill="none" stroke="#000000" points="517,-.5 517,-30.5 683,-30.5 683,-.5 517,-.5"/>
<text text-anchor="start" x="525" y="-18.5" font-family="Helvetica,sans-Serif" font-size="10.00" fill="#000000">RenderData::generateIcosahedron</text>
<text text-anchor="middle" x="600" y="-7.5" font-family="Helvetica,sans-Serif" font-size="10.00" fill="#000000">AtDepthZero</text>
</a>
</g>
</g>
<!-- Node1&#45;&gt;Node2 -->
<g id="edge2" class="edge">
<title>Node1&#45;&gt;Node2</title>
<path fill="none" stroke="#191970" d="M310.0218,-33.0744C366.6997,-29.6394 445.6696,-24.8534 506.8894,-21.1431"/>
<polygon fill="#191970" stroke="#191970" points="507.1719,-24.6325 516.9418,-20.5338 506.7484,-17.6453 507.1719,-24.6325"/>
</g>
<!-- Node7 -->
<g id="node8" class="node">
<title>Node7</title>
<g id="a_node8"><a xlink:href="../../da/dce/class_render_data.html#ac1bbf9770f040e452f676358ee699767" target="_top" xlink:title="RenderData::calculateNext\lSubdivision">
<polygon fill="none" stroke="#000000" points="346,-44.5 346,-74.5 481,-74.5 481,-44.5 346,-44.5"/>
<text text-anchor="start" x="354" y="-62.5" font-family="Helvetica,sans-Serif" font-size="10.00" fill="#000000">RenderData::calculateNext</text>
<text text-anchor="middle" x="413.5" y="-51.5" font-family="Helvetica,sans-Serif" font-size="10.00" fill="#000000">Subdivision</text>
</a>
</g>
</g>
<!-- Node1&#45;&gt;Node7 -->
<g id="edge7" class="edge">
<title>Node1&#45;&gt;Node7</title>
<path fill="none" stroke="#191970" d="M310.0634,-46.607C318.5838,-47.6691 327.299,-48.7554 335.8782,-49.8248"/>
<polygon fill="#191970" stroke="#191970" points="335.5111,-53.306 345.8672,-51.0699 336.377,-46.3598 335.5111,-53.306"/>
</g>
<!-- Node3 -->
<g id="node4" class="node">
<title>Node3</title>
<g id="a_node4"><a xlink:href="../../da/dce/class_render_data.html#af74f8858b9e0dedb914f24390e140a04" target="_top" xlink:title="RenderData::filterPoints\lForTriangle">
<polygon fill="none" stroke="#000000" points="725,-73.5 725,-103.5 847,-103.5 847,-73.5 725,-73.5"/>
<text text-anchor="start" x="733" y="-91.5" font-family="Helvetica,sans-Serif" font-size="10.00" fill="#000000">RenderData::filterPoints</text>
<text text-anchor="middle" x="786" y="-80.5" font-family="Helvetica,sans-Serif" font-size="10.00" fill="#000000">ForTriangle</text>
</a>
</g>
</g>
<!-- Node2&#45;&gt;Node3 -->
<g id="edge3" class="edge">
<title>Node2&#45;&gt;Node3</title>
<path fill="none" stroke="#191970" d="M638.5393,-30.6256C667.3441,-41.9308 706.9111,-57.4598 737.8079,-69.5859"/>
<polygon fill="#191970" stroke="#191970" points="736.9226,-72.9983 747.5101,-73.3937 739.48,-66.4822 736.9226,-72.9983"/>
</g>
<!-- Node6 -->
<g id="node7" class="node">
<title>Node6</title>
<g id="a_node7"><a xlink:href="../../da/dce/class_render_data.html#a4fca77ce81a628de0ddaeb7d75a4c371" target="_top" xlink:title="RenderData::insertTriangle\lIntoVerticesVector">
<polygon fill="none" stroke="#000000" points="719,-13.5 719,-43.5 853,-43.5 853,-13.5 719,-13.5"/>
<text text-anchor="start" x="727" y="-31.5" font-family="Helvetica,sans-Serif" font-size="10.00" fill="#000000">RenderData::insertTriangle</text>
<text text-anchor="middle" x="786" y="-20.5" font-family="Helvetica,sans-Serif" font-size="10.00" fill="#000000">IntoVerticesVector</text>
</a>
</g>
</g>
<!-- Node2&#45;&gt;Node6 -->
<g id="edge6" class="edge">
<title>Node2&#45;&gt;Node6</title>
<path fill="none" stroke="#191970" d="M683.2076,-21.3156C691.6658,-21.9067 700.2332,-22.5055 708.6259,-23.0921"/>
<polygon fill="#191970" stroke="#191970" points="708.5376,-26.5944 718.7573,-23.8002 709.0257,-19.6114 708.5376,-26.5944"/>
</g>
<!-- Node4 -->
<g id="node5" class="node">
<title>Node4</title>
<g id="a_node5"><a xlink:href="../../da/dce/class_render_data.html#afbc604f853739d0198c9da5097987fa7" target="_top" xlink:title="RenderData::getTransformation\lMatrix">
<polygon fill="none" stroke="#000000" points="889,-71.5 889,-101.5 1043,-101.5 1043,-71.5 889,-71.5"/>
<text text-anchor="start" x="897" y="-89.5" font-family="Helvetica,sans-Serif" font-size="10.00" fill="#000000">RenderData::getTransformation</text>
<text text-anchor="middle" x="966" y="-78.5" font-family="Helvetica,sans-Serif" font-size="10.00" fill="#000000">Matrix</text>
</a>
</g>
</g>
<!-- Node3&#45;&gt;Node4 -->
<g id="edge4" class="edge">
<title>Node3&#45;&gt;Node4</title>
<path fill="none" stroke="#191970" d="M847.191,-87.8201C857.3088,-87.7077 867.9696,-87.5892 878.5825,-87.4713"/>
<polygon fill="#191970" stroke="#191970" points="878.7633,-90.9696 888.7238,-87.3586 878.6855,-83.97 878.7633,-90.9696"/>
</g>
<!-- Node5 -->
<g id="node6" class="node">
<title>Node5</title>
<g id="a_node6"><a xlink:href="../../da/dce/class_render_data.html#a7b32e615d46ac5ffbd3d14de0da2c406" target="_top" xlink:title="RenderData::pointInFirst\lQuadrantAfterTransformation">
<polygon fill="none" stroke="#000000" points="894.5,-120.5 894.5,-150.5 1037.5,-150.5 1037.5,-120.5 894.5,-120.5"/>
<text text-anchor="start" x="902.5" y="-138.5" font-family="Helvetica,sans-Serif" font-size="10.00" fill="#000000">RenderData::pointInFirst</text>
<text text-anchor="middle" x="966" y="-127.5" font-family="Helvetica,sans-Serif" font-size="10.00" fill="#000000">QuadrantAfterTransformation</text>
</a>
</g>
</g>
<!-- Node3&#45;&gt;Node5 -->
<g id="edge5" class="edge">
<title>Node3&#45;&gt;Node5</title>
<path fill="none" stroke="#191970" d="M843.448,-103.5003C860.9839,-108.0791 880.4252,-113.1555 898.5602,-117.8907"/>
<polygon fill="#191970" stroke="#191970" points="897.9205,-121.341 908.4804,-120.481 899.689,-114.568 897.9205,-121.341"/>
</g>
<!-- Node7&#45;&gt;Node2 -->
<g id="edge8" class="edge">
<title>Node7&#45;&gt;Node2</title>
<path fill="none" stroke="#191970" d="M477.1611,-44.4808C492.978,-40.7492 510.0619,-36.7186 526.3154,-32.884"/>
<polygon fill="#191970" stroke="#191970" points="527.3803,-36.229 536.3094,-30.5262 525.7729,-29.416 527.3803,-36.229"/>
</g>
<!-- Node7&#45;&gt;Node3 -->
<g id="edge12" class="edge">
<title>Node7&#45;&gt;Node3</title>
<path fill="none" stroke="#191970" d="M481.0555,-69.4178C493.0114,-70.9502 505.3574,-72.3897 517,-73.5 583.8181,-79.8721 660.2511,-83.8137 714.5241,-86.0474"/>
<polygon fill="#191970" stroke="#191970" points="714.6003,-89.5532 724.733,-86.4582 714.8818,-82.5589 714.6003,-89.5532"/>
</g>
<!-- Node7&#45;&gt;Node6 -->
<g id="edge11" class="edge">
<title>Node7&#45;&gt;Node6</title>
<path fill="none" stroke="#191970" d="M481.1106,-55.0903C535.6471,-51.3868 614.3128,-45.7148 683,-39.5 691.3675,-38.7429 700.1114,-37.8958 708.8155,-37.0167"/>
<polygon fill="#191970" stroke="#191970" points="709.3993,-40.4753 718.9902,-35.9736 708.6853,-33.5118 709.3993,-40.4753"/>
</g>
<!-- Node8 -->
<g id="node9" class="node">
<title>Node8</title>
<g id="a_node9"><a xlink:href="../../da/dce/class_render_data.html#ad8c590fd11eda06875112a74d318267f" target="_top" xlink:title="RenderData::normalize">
<polygon fill="none" stroke="#000000" points="541.5,-126 541.5,-145 658.5,-145 658.5,-126 541.5,-126"/>
<text text-anchor="middle" x="600" y="-133" font-family="Helvetica,sans-Serif" font-size="10.00" fill="#000000">RenderData::normalize</text>
</a>
</g>
</g>
<!-- Node7&#45;&gt;Node8 -->
<g id="edge9" class="edge">
<title>Node7&#45;&gt;Node8</title>
<path fill="none" stroke="#191970" d="M440.1162,-74.5829C460.6616,-85.8011 490.0396,-100.9335 517,-111.5 528.0176,-115.8181 540.127,-119.754 551.6088,-123.1333"/>
<polygon fill="#191970" stroke="#191970" points="550.9176,-126.5757 561.4942,-125.9552 552.8391,-119.8446 550.9176,-126.5757"/>
</g>
<!-- Node8&#45;&gt;Node5 -->
<g id="edge10" class="edge">
<title>Node8&#45;&gt;Node5</title>
<path fill="none" stroke="#191970" d="M658.8042,-135.5C719.8287,-135.5 815.7402,-135.5 884.1524,-135.5"/>
<polygon fill="#191970" stroke="#191970" points="884.4623,-139.0001 894.4623,-135.5 884.4623,-132.0001 884.4623,-139.0001"/>
</g>
</g>
</svg>
