<?xml version="1.0" encoding="UTF-8" standalone="no"?>
<!DOCTYPE svg PUBLIC "-//W3C//DTD SVG 1.1//EN"
 "http://www.w3.org/Graphics/SVG/1.1/DTD/svg11.dtd">
<!-- Generated by graphviz version 2.40.1 (20161225.0304)
 -->
<!-- Title: RenderData::setSphereDepth Pages: 1 -->
<!--zoomable 154 -->
<svg id="main" version="1.1" xmlns="http://www.w3.org/2000/svg" xmlns:xlink="http://www.w3.org/1999/xlink" xml:space="preserve" onload="init(evt)">
<style type="text/css"><![CDATA[
.edge:hover path { stroke: red; }
.edge:hover polygon { stroke: red; fill: red; }
]]></style>
<script type="text/javascript"><![CDATA[
var edges = document.getElementsByTagName('g');
if (edges && edges.length) {
  for (var i=0;i<edges.length;i++) {
    if (edges[i].id.substr(0,4)=='edge') {
      edges[i].setAttribute('class','edge');
    }
  }
}
]]></script>
        <defs>
                <circle id="rim" cx="0" cy="0" r="7"/>
                <circle id="rim2" cx="0" cy="0" r="3.5"/>
                <g id="zoomPlus">
                        <use xlink:href="#rim" fill="#404040">
                                <set attributeName="fill" to="#808080" begin="zoomplus.mouseover" end="zoomplus.mouseout"/>
                        </use>
                        <path d="M-4,0h8M0,-4v8" fill="none" stroke="white" stroke-width="1.5" pointer-events="none"/>
                </g>
                <g id="zoomMin">
                        <use xlink:href="#rim" fill="#404040">
                                <set attributeName="fill" to="#808080" begin="zoomminus.mouseover" end="zoomminus.mouseout"/>
                        </use>
                        <path d="M-4,0h8" fill="none" stroke="white" stroke-width="1.5" pointer-events="none"/>
                </g>
                <g id="dirArrow">
                        <path fill="none" stroke="white" stroke-width="1.5" d="M0,-3.0v7 M-2.5,-0.5L0,-3.0L2.5,-0.5"/>
                </g>
               <g id="resetDef">
                       <use xlink:href="#rim2" fill="#404040">
                               <set attributeName="fill" to="#808080" begin="reset.mouseover" end="reset.mouseout"/>
                       </use>
               </g>
        </defs>

<script type="text/javascript">
var viewWidth = 872;
var viewHeight = 154;
var sectionId = 'dynsection-15';
</script>
<script xlink:href="../../svgpan.js"/>
<svg id="graph" class="graph">
<g id="viewport">
<title>RenderData::setSphereDepth</title>
<!-- Node106 -->
<g id="node1" class="node">
<title>Node106</title>
<polygon fill="#bfbfbf" stroke="#000000" points="0,-49.5 0,-68.5 146,-68.5 146,-49.5 0,-49.5"/>
<text text-anchor="middle" x="73" y="-56.5" font-family="Helvetica,sans-Serif" font-size="10.00" fill="#000000">RenderData::setSphereDepth</text>
</g>
<!-- Node107 -->
<g id="node2" class="node">
<title>Node107</title>
<g id="a_node2"><a xlink:href="../../d9/dc6/class_main_window.html#a7bdf36376a7474c5218923ed66baa937" target="_top" xlink:title="MainWindow::changeTriangle\lDepth">
<polygon fill="none" stroke="#000000" points="544.5,-115 544.5,-145 689.5,-145 689.5,-115 544.5,-115"/>
<text text-anchor="start" x="552.5" y="-133" font-family="Helvetica,sans-Serif" font-size="10.00" fill="#000000">MainWindow::changeTriangle</text>
<text text-anchor="middle" x="617" y="-122" font-family="Helvetica,sans-Serif" font-size="10.00" fill="#000000">Depth</text>
</a>
</g>
</g>
<!-- Node106&#45;&gt;Node107 -->
<g id="edge1" class="edge">
<title>Node106&#45;&gt;Node107</title>
<path fill="none" stroke="#191970" d="M134.2321,-70.2671C149.7868,-72.9659 166.4877,-75.7225 182,-78 309.1755,-96.6717 458.0153,-113.3528 544.4919,-122.5343"/>
<polygon fill="#191970" stroke="#191970" points="134.6542,-66.7878 124.1999,-68.5077 133.4449,-73.6826 134.6542,-66.7878"/>
</g>
<!-- Node109 -->
<g id="node4" class="node">
<title>Node109</title>
<g id="a_node4"><a xlink:href="../../da/dce/class_render_data.html#ac161f29f7d6ae6fd3912e8af7bdccdfd" target="_top" xlink:title="RenderData::loadPointsFromFile">
<polygon fill="none" stroke="#000000" points="346,-11.5 346,-30.5 505,-30.5 505,-11.5 346,-11.5"/>
<text text-anchor="middle" x="425.5" y="-18.5" font-family="Helvetica,sans-Serif" font-size="10.00" fill="#000000">RenderData::loadPointsFromFile</text>
</a>
</g>
</g>
<!-- Node106&#45;&gt;Node109 -->
<g id="edge3" class="edge">
<title>Node106&#45;&gt;Node109</title>
<path fill="none" stroke="#191970" d="M131.6073,-47.734C147.8791,-44.8927 165.5858,-42.0663 182,-40 236.4817,-33.1417 298.1533,-28.3601 345.7992,-25.3091"/>
<polygon fill="#191970" stroke="#191970" points="130.9183,-44.3015 121.6856,-49.4983 132.1439,-51.1934 130.9183,-44.3015"/>
</g>
<!-- Node111 -->
<g id="node6" class="node">
<title>Node111</title>
<g id="a_node6"><a xlink:href="../../da/dce/class_render_data.html#a16b04b2437ea3fa034381a138cbf2f83" target="_top" xlink:title="Sets initial sphere depth to 3. ">
<polygon fill="none" stroke="#000000" points="182,-49.5 182,-68.5 310,-68.5 310,-49.5 182,-49.5"/>
<text text-anchor="middle" x="246" y="-56.5" font-family="Helvetica,sans-Serif" font-size="10.00" fill="#000000">RenderData::RenderData</text>
</a>
</g>
</g>
<!-- Node106&#45;&gt;Node111 -->
<g id="edge6" class="edge">
<title>Node106&#45;&gt;Node111</title>
<path fill="none" stroke="#191970" d="M156.2156,-59C164.853,-59 173.5342,-59 181.9139,-59"/>
<polygon fill="#191970" stroke="#191970" points="156.1169,-55.5001 146.1168,-59 156.1168,-62.5001 156.1169,-55.5001"/>
</g>
<!-- Node108 -->
<g id="node3" class="node">
<title>Node108</title>
<g id="a_node3"><a xlink:href="../../d9/dc6/class_main_window.html#a8b244be8b7b7db1b08de2a2acb9409db" target="_top" xlink:title="MainWindow::MainWindow">
<polygon fill="none" stroke="#000000" points="729,-57.5 729,-76.5 864,-76.5 864,-57.5 729,-57.5"/>
<text text-anchor="middle" x="796.5" y="-64.5" font-family="Helvetica,sans-Serif" font-size="10.00" fill="#000000">MainWindow::MainWindow</text>
</a>
</g>
</g>
<!-- Node107&#45;&gt;Node108 -->
<g id="edge2" class="edge">
<title>Node107&#45;&gt;Node108</title>
<path fill="none" stroke="#191970" d="M669.835,-111.4562C702.4352,-100.0144 742.9048,-85.8106 769.1974,-76.5825"/>
<polygon fill="#191970" stroke="#191970" points="668.2713,-108.2957 659.9947,-114.9099 670.5896,-114.9007 668.2713,-108.2957"/>
</g>
<!-- Node110 -->
<g id="node5" class="node">
<title>Node110</title>
<g id="a_node5"><a xlink:href="../../d9/dc6/class_main_window.html#a288b768c3c21a9171bdc56fe845ece8b" target="_top" xlink:title="MainWindow::openFile">
<polygon fill="none" stroke="#000000" points="559,-.5 559,-19.5 675,-19.5 675,-.5 559,-.5"/>
<text text-anchor="middle" x="617" y="-7.5" font-family="Helvetica,sans-Serif" font-size="10.00" fill="#000000">MainWindow::openFile</text>
</a>
</g>
</g>
<!-- Node109&#45;&gt;Node110 -->
<g id="edge4" class="edge">
<title>Node109&#45;&gt;Node110</title>
<path fill="none" stroke="#191970" d="M515.2307,-15.8458C530.0061,-14.997 544.9735,-14.1373 558.7179,-13.3478"/>
<polygon fill="#191970" stroke="#191970" points="514.8324,-12.3628 505.0496,-16.4306 515.2339,-19.3513 514.8324,-12.3628"/>
</g>
<!-- Node110&#45;&gt;Node108 -->
<g id="edge5" class="edge">
<title>Node110&#45;&gt;Node108</title>
<path fill="none" stroke="#191970" d="M668.5411,-22.0929C676.7628,-24.2492 685.1445,-26.5836 693,-29 720.6262,-37.4981 751.6714,-49.1919 772.4907,-57.3549"/>
<polygon fill="#191970" stroke="#191970" points="669.1935,-18.6471 658.6379,-19.5574 667.4573,-25.4284 669.1935,-18.6471"/>
</g>
<!-- Node112 -->
<g id="node7" class="node">
<title>Node112</title>
<g id="a_node7"><a xlink:href="../../da/dce/class_render_data.html#a1fffc72f3dd17ab052d4fb2f025ef5a0" target="_top" xlink:title="RenderData::getInstance">
<polygon fill="none" stroke="#000000" points="362.5,-49.5 362.5,-68.5 488.5,-68.5 488.5,-49.5 362.5,-49.5"/>
<text text-anchor="middle" x="425.5" y="-56.5" font-family="Helvetica,sans-Serif" font-size="10.00" fill="#000000">RenderData::getInstance</text>
</a>
</g>
</g>
<!-- Node111&#45;&gt;Node112 -->
<g id="edge7" class="edge">
<title>Node111&#45;&gt;Node112</title>
<path fill="none" stroke="#191970" d="M320.147,-59C334.1782,-59 348.7342,-59 362.3861,-59"/>
<polygon fill="#191970" stroke="#191970" points="320.0434,-55.5001 310.0434,-59 320.0434,-62.5001 320.0434,-55.5001"/>
</g>
<!-- Node112&#45;&gt;Node107 -->
<g id="edge9" class="edge">
<title>Node112&#45;&gt;Node107</title>
<path fill="none" stroke="#191970" d="M460.9156,-72.1306C493.5535,-84.2313 541.9749,-102.1839 576.2156,-114.8789"/>
<polygon fill="#191970" stroke="#191970" points="461.9196,-68.7701 451.3265,-68.5754 459.4861,-75.3335 461.9196,-68.7701"/>
</g>
<!-- Node112&#45;&gt;Node108 -->
<g id="edge8" class="edge">
<title>Node112&#45;&gt;Node108</title>
<path fill="none" stroke="#191970" d="M498.7832,-64.8422C512.7894,-65.7416 527.3409,-66.5275 541,-67 604.726,-69.2043 677.446,-68.9331 728.9661,-68.2714"/>
<polygon fill="#191970" stroke="#191970" points="498.9122,-61.3431 488.7015,-64.17 498.4464,-68.3276 498.9122,-61.3431"/>
</g>
<!-- Node112&#45;&gt;Node110 -->
<g id="edge10" class="edge">
<title>Node112&#45;&gt;Node110</title>
<path fill="none" stroke="#191970" d="M477.5229,-47.0564C486.703,-44.8095 496.1507,-42.407 505,-40 521.1437,-35.609 524.8793,-33.4748 541,-29 552.6635,-25.7625 565.4029,-22.4796 577.0605,-19.5742"/>
<polygon fill="#191970" stroke="#191970" points="476.6068,-43.677 467.7076,-49.4264 478.2498,-50.4815 476.6068,-43.677"/>
</g>
<!-- Node113 -->
<g id="node8" class="node">
<title>Node113</title>
<g id="a_node8"><a xlink:href="../../d9/dc6/class_main_window.html#a1cfcf14a3dbba8db45a2444a0fbe5a9f" target="_top" xlink:title="MainWindow::changeColorMap">
<polygon fill="none" stroke="#000000" points="541,-38.5 541,-57.5 693,-57.5 693,-38.5 541,-38.5"/>
<text text-anchor="middle" x="617" y="-45.5" font-family="Helvetica,sans-Serif" font-size="10.00" fill="#000000">MainWindow::changeColorMap</text>
</a>
</g>
</g>
<!-- Node112&#45;&gt;Node113 -->
<g id="edge11" class="edge">
<title>Node112&#45;&gt;Node113</title>
<path fill="none" stroke="#191970" d="M499.0571,-54.7748C512.7445,-53.9886 527.0722,-53.1656 540.8359,-52.375"/>
<polygon fill="#191970" stroke="#191970" points="498.5178,-51.2999 488.735,-55.3677 498.9193,-58.2884 498.5178,-51.2999"/>
</g>
<!-- Node113&#45;&gt;Node108 -->
<g id="edge12" class="edge">
<title>Node113&#45;&gt;Node108</title>
<path fill="none" stroke="#191970" d="M703.1793,-57.122C711.7781,-58.0322 720.4207,-58.947 728.7906,-59.833"/>
<polygon fill="#191970" stroke="#191970" points="703.4371,-53.6299 693.1242,-56.0577 702.7002,-60.591 703.4371,-53.6299"/>
</g>
</g>
</svg>
        <g id="navigator" transform="translate(0 0)" fill="#404254">
                <rect fill="#f2f5e9" fill-opacity="0.5" stroke="#606060" stroke-width=".5" x="0" y="0" width="60" height="60"/>
                <use id="zoomplus" xlink:href="#zoomPlus" x="17" y="9" onmousedown="handleZoom(evt,'in')"/>
                <use id="zoomminus" xlink:href="#zoomMin" x="42" y="9" onmousedown="handleZoom(evt,'out')"/>
                <use id="reset" xlink:href="#resetDef" x="30" y="36" onmousedown="handleReset()"/>
                <g id="arrowUp" xlink:href="#dirArrow" transform="translate(30 24)" onmousedown="handlePan(0,-1)">
                  <use xlink:href="#rim" fill="#404040">
                        <set attributeName="fill" to="#808080" begin="arrowUp.mouseover" end="arrowUp.mouseout"/>
                  </use>
                  <path fill="none" stroke="white" stroke-width="1.5" d="M0,-3.0v7 M-2.5,-0.5L0,-3.0L2.5,-0.5"/>
                </g>
                <g id="arrowRight" xlink:href="#dirArrow" transform="rotate(90) translate(36 -43)" onmousedown="handlePan(1,0)">
                  <use xlink:href="#rim" fill="#404040">
                        <set attributeName="fill" to="#808080" begin="arrowRight.mouseover" end="arrowRight.mouseout"/>
                  </use>
                  <path fill="none" stroke="white" stroke-width="1.5" d="M0,-3.0v7 M-2.5,-0.5L0,-3.0L2.5,-0.5"/>
                </g>
                <g id="arrowDown" xlink:href="#dirArrow" transform="rotate(180) translate(-30 -48)" onmousedown="handlePan(0,1)">
                  <use xlink:href="#rim" fill="#404040">
                        <set attributeName="fill" to="#808080" begin="arrowDown.mouseover" end="arrowDown.mouseout"/>
                  </use>
                  <path fill="none" stroke="white" stroke-width="1.5" d="M0,-3.0v7 M-2.5,-0.5L0,-3.0L2.5,-0.5"/>
                </g>
                <g id="arrowLeft" xlink:href="#dirArrow" transform="rotate(270) translate(-36 17)" onmousedown="handlePan(-1,0)">
                  <use xlink:href="#rim" fill="#404040">
                        <set attributeName="fill" to="#808080" begin="arrowLeft.mouseover" end="arrowLeft.mouseout"/>
                  </use>
                  <path fill="none" stroke="white" stroke-width="1.5" d="M0,-3.0v7 M-2.5,-0.5L0,-3.0L2.5,-0.5"/>
                </g>
        </g>
        <svg viewBox="0 0 15 15" width="100%" height="30px" preserveAspectRatio="xMaxYMin meet">
         <g id="arrow_out" transform="scale(0.3 0.3)">
          <a xlink:href="class_render_data_a8d5f7285d29dc9ca0f93fcf2b5826283_icgraph_org.svg" target="_base">
           <rect id="button" ry="5" rx="5" y="6" x="6" height="38" width="38"
                fill="#f2f5e9" fill-opacity="0.5" stroke="#606060" stroke-width="1.0"/>
           <path id="arrow"
             d="M 11.500037,31.436501 C 11.940474,20.09759 22.043105,11.32322 32.158766,21.979434 L 37.068811,17.246167 C 37.068811,17.246167 37.088388,32 37.088388,32 L 22.160133,31.978069 C 22.160133,31.978069 26.997745,27.140456 26.997745,27.140456 C 18.528582,18.264221 13.291696,25.230495 11.500037,31.436501 z"
             style="fill:#404040;"/>
          </a>
         </g>
        </svg>
</svg>
