<?xml version="1.0" encoding="UTF-8" standalone="no"?>
<!DOCTYPE svg PUBLIC "-//W3C//DTD SVG 1.1//EN"
 "http://www.w3.org/Graphics/SVG/1.1/DTD/svg11.dtd">
<!-- Generated by graphviz version 2.40.1 (20161225.0304)
 -->
<!-- Title: SphereWidget::updateSphereVertices Pages: 1 -->
<!--zoomable 88 -->
<svg id="main" version="1.1" xmlns="http://www.w3.org/2000/svg" xmlns:xlink="http://www.w3.org/1999/xlink" xml:space="preserve" onload="init(evt)">
<style type="text/css"><![CDATA[
.edge:hover path { stroke: red; }
.edge:hover polygon { stroke: red; fill: red; }
]]></style>
<script type="text/javascript"><![CDATA[
var edges = document.getElementsByTagName('g');
if (edges && edges.length) {
  for (var i=0;i<edges.length;i++) {
    if (edges[i].id.substr(0,4)=='edge') {
      edges[i].setAttribute('class','edge');
    }
  }
}
]]></script>
        <defs>
                <circle id="rim" cx="0" cy="0" r="7"/>
                <circle id="rim2" cx="0" cy="0" r="3.5"/>
                <g id="zoomPlus">
                        <use xlink:href="#rim" fill="#404040">
                                <set attributeName="fill" to="#808080" begin="zoomplus.mouseover" end="zoomplus.mouseout"/>
                        </use>
                        <path d="M-4,0h8M0,-4v8" fill="none" stroke="white" stroke-width="1.5" pointer-events="none"/>
                </g>
                <g id="zoomMin">
                        <use xlink:href="#rim" fill="#404040">
                                <set attributeName="fill" to="#808080" begin="zoomminus.mouseover" end="zoomminus.mouseout"/>
                        </use>
                        <path d="M-4,0h8" fill="none" stroke="white" stroke-width="1.5" pointer-events="none"/>
                </g>
                <g id="dirArrow">
                        <path fill="none" stroke="white" stroke-width="1.5" d="M0,-3.0v7 M-2.5,-0.5L0,-3.0L2.5,-0.5"/>
                </g>
               <g id="resetDef">
                       <use xlink:href="#rim2" fill="#404040">
                               <set attributeName="fill" to="#808080" begin="reset.mouseover" end="reset.mouseout"/>
                       </use>
               </g>
        </defs>

<script type="text/javascript">
var viewWidth = 885;
var viewHeight = 88;
var sectionId = 'dynsection-5';
</script>
<script xlink:href="../../svgpan.js"/>
<svg id="graph" class="graph">
<g id="viewport">
<title>SphereWidget::updateSphereVertices</title>
<!-- Node29 -->
<g id="node1" class="node">
<title>Node29</title>
<polygon fill="#bfbfbf" stroke="#000000" points="0,-24.5 0,-54.5 144,-54.5 144,-24.5 0,-24.5"/>
<text text-anchor="start" x="8" y="-42.5" font-family="Helvetica,sans-Serif" font-size="10.00" fill="#000000">SphereWidget::updateSphere</text>
<text text-anchor="middle" x="72" y="-31.5" font-family="Helvetica,sans-Serif" font-size="10.00" fill="#000000">Vertices</text>
</g>
<!-- Node30 -->
<g id="node2" class="node">
<title>Node30</title>
<g id="a_node2"><a xlink:href="../../da/dce/class_render_data.html#a2aff56e1742b853bcae6f251e258085e" target="_top" xlink:title="RenderData::getVerticesAt\lCurrentDepth">
<polygon fill="none" stroke="#000000" points="187,-49.5 187,-79.5 321,-79.5 321,-49.5 187,-49.5"/>
<text text-anchor="start" x="195" y="-67.5" font-family="Helvetica,sans-Serif" font-size="10.00" fill="#000000">RenderData::getVerticesAt</text>
<text text-anchor="middle" x="254" y="-56.5" font-family="Helvetica,sans-Serif" font-size="10.00" fill="#000000">CurrentDepth</text>
</a>
</g>
</g>
<!-- Node29&#45;&gt;Node30 -->
<g id="edge1" class="edge">
<title>Node29&#45;&gt;Node30</title>
<path fill="none" stroke="#191970" d="M144.1926,-49.4166C154.8723,-50.8836 165.9133,-52.4002 176.6921,-53.8808"/>
<polygon fill="#191970" stroke="#191970" points="176.5423,-57.393 186.9256,-55.2865 177.495,-50.4581 176.5423,-57.393"/>
</g>
<!-- Node31 -->
<g id="node3" class="node">
<title>Node31</title>
<g id="a_node3"><a xlink:href="../../df/dda/class_sphere_widget.html#a871c5252a7a218c5d405be5dfc3dbfa1" target="_top" xlink:title="SphereWidget::updateTriangle\lColor">
<polygon fill="none" stroke="#000000" points="180,-.5 180,-30.5 328,-30.5 328,-.5 180,-.5"/>
<text text-anchor="start" x="188" y="-18.5" font-family="Helvetica,sans-Serif" font-size="10.00" fill="#000000">SphereWidget::updateTriangle</text>
<text text-anchor="middle" x="254" y="-7.5" font-family="Helvetica,sans-Serif" font-size="10.00" fill="#000000">Color</text>
</a>
</g>
</g>
<!-- Node29&#45;&gt;Node31 -->
<g id="edge2" class="edge">
<title>Node29&#45;&gt;Node31</title>
<path fill="none" stroke="#191970" d="M144.1926,-29.9801C152.6098,-28.8701 161.2515,-27.7306 169.8123,-26.6017"/>
<polygon fill="#191970" stroke="#191970" points="170.3499,-30.0612 179.8065,-25.2838 169.4347,-23.1212 170.3499,-30.0612"/>
</g>
<!-- Node32 -->
<g id="node4" class="node">
<title>Node32</title>
<g id="a_node4"><a xlink:href="../../da/dce/class_render_data.html#a58fe3351334cd518b930dfe0a0aa8732" target="_top" xlink:title="RenderData::getColorsFor\lTriangles">
<polygon fill="none" stroke="#000000" points="364,-.5 364,-30.5 495,-30.5 495,-.5 364,-.5"/>
<text text-anchor="start" x="372" y="-18.5" font-family="Helvetica,sans-Serif" font-size="10.00" fill="#000000">RenderData::getColorsFor</text>
<text text-anchor="middle" x="429.5" y="-7.5" font-family="Helvetica,sans-Serif" font-size="10.00" fill="#000000">Triangles</text>
</a>
</g>
</g>
<!-- Node31&#45;&gt;Node32 -->
<g id="edge3" class="edge">
<title>Node31&#45;&gt;Node32</title>
<path fill="none" stroke="#191970" d="M328.1734,-15.5C336.62,-15.5 345.2386,-15.5 353.7059,-15.5"/>
<polygon fill="#191970" stroke="#191970" points="353.9373,-19.0001 363.9373,-15.5 353.9372,-12.0001 353.9373,-19.0001"/>
</g>
<!-- Node33 -->
<g id="node5" class="node">
<title>Node33</title>
<g id="a_node5"><a xlink:href="../../dc/d7c/struct_sphere_depth_data.html#ad151dd50ed037d91aecec6b285a3e342" target="_top" xlink:title="SphereDepthData::getMaxPoints\lPerTriangle">
<polygon fill="none" stroke="#000000" points="531,-.5 531,-30.5 692,-30.5 692,-.5 531,-.5"/>
<text text-anchor="start" x="539" y="-18.5" font-family="Helvetica,sans-Serif" font-size="10.00" fill="#000000">SphereDepthData::getMaxPoints</text>
<text text-anchor="middle" x="611.5" y="-7.5" font-family="Helvetica,sans-Serif" font-size="10.00" fill="#000000">PerTriangle</text>
</a>
</g>
</g>
<!-- Node32&#45;&gt;Node33 -->
<g id="edge4" class="edge">
<title>Node32&#45;&gt;Node33</title>
<path fill="none" stroke="#191970" d="M495.2062,-15.5C503.549,-15.5 512.2,-15.5 520.8468,-15.5"/>
<polygon fill="#191970" stroke="#191970" points="520.9768,-19.0001 530.9767,-15.5 520.9767,-12.0001 520.9768,-19.0001"/>
</g>
<!-- Node34 -->
<g id="node6" class="node">
<title>Node34</title>
<g id="a_node6"><a xlink:href="../../dc/d7c/struct_sphere_depth_data.html#a4cf92f63341fd72e6659dcd1501eb2ac" target="_top" xlink:title="SphereDepthData::updateMax\lPointsPerTriangle">
<polygon fill="none" stroke="#000000" points="728,-.5 728,-30.5 877,-30.5 877,-.5 728,-.5"/>
<text text-anchor="start" x="736" y="-18.5" font-family="Helvetica,sans-Serif" font-size="10.00" fill="#000000">SphereDepthData::updateMax</text>
<text text-anchor="middle" x="802.5" y="-7.5" font-family="Helvetica,sans-Serif" font-size="10.00" fill="#000000">PointsPerTriangle</text>
</a>
</g>
</g>
<!-- Node33&#45;&gt;Node34 -->
<g id="edge5" class="edge">
<title>Node33&#45;&gt;Node34</title>
<path fill="none" stroke="#191970" d="M692.2244,-15.5C700.6207,-15.5 709.1733,-15.5 717.6139,-15.5"/>
<polygon fill="#191970" stroke="#191970" points="717.836,-19.0001 727.8359,-15.5 717.8359,-12.0001 717.836,-19.0001"/>
</g>
</g>
</svg>
        <g id="navigator" transform="translate(0 0)" fill="#404254">
                <rect fill="#f2f5e9" fill-opacity="0.5" stroke="#606060" stroke-width=".5" x="0" y="0" width="60" height="60"/>
                <use id="zoomplus" xlink:href="#zoomPlus" x="17" y="9" onmousedown="handleZoom(evt,'in')"/>
                <use id="zoomminus" xlink:href="#zoomMin" x="42" y="9" onmousedown="handleZoom(evt,'out')"/>
                <use id="reset" xlink:href="#resetDef" x="30" y="36" onmousedown="handleReset()"/>
                <g id="arrowUp" xlink:href="#dirArrow" transform="translate(30 24)" onmousedown="handlePan(0,-1)">
                  <use xlink:href="#rim" fill="#404040">
                        <set attributeName="fill" to="#808080" begin="arrowUp.mouseover" end="arrowUp.mouseout"/>
                  </use>
                  <path fill="none" stroke="white" stroke-width="1.5" d="M0,-3.0v7 M-2.5,-0.5L0,-3.0L2.5,-0.5"/>
                </g>
                <g id="arrowRight" xlink:href="#dirArrow" transform="rotate(90) translate(36 -43)" onmousedown="handlePan(1,0)">
                  <use xlink:href="#rim" fill="#404040">
                        <set attributeName="fill" to="#808080" begin="arrowRight.mouseover" end="arrowRight.mouseout"/>
                  </use>
                  <path fill="none" stroke="white" stroke-width="1.5" d="M0,-3.0v7 M-2.5,-0.5L0,-3.0L2.5,-0.5"/>
                </g>
                <g id="arrowDown" xlink:href="#dirArrow" transform="rotate(180) translate(-30 -48)" onmousedown="handlePan(0,1)">
                  <use xlink:href="#rim" fill="#404040">
                        <set attributeName="fill" to="#808080" begin="arrowDown.mouseover" end="arrowDown.mouseout"/>
                  </use>
                  <path fill="none" stroke="white" stroke-width="1.5" d="M0,-3.0v7 M-2.5,-0.5L0,-3.0L2.5,-0.5"/>
                </g>
                <g id="arrowLeft" xlink:href="#dirArrow" transform="rotate(270) translate(-36 17)" onmousedown="handlePan(-1,0)">
                  <use xlink:href="#rim" fill="#404040">
                        <set attributeName="fill" to="#808080" begin="arrowLeft.mouseover" end="arrowLeft.mouseout"/>
                  </use>
                  <path fill="none" stroke="white" stroke-width="1.5" d="M0,-3.0v7 M-2.5,-0.5L0,-3.0L2.5,-0.5"/>
                </g>
        </g>
        <svg viewBox="0 0 15 15" width="100%" height="30px" preserveAspectRatio="xMaxYMin meet">
         <g id="arrow_out" transform="scale(0.3 0.3)">
          <a xlink:href="class_sphere_widget_a7d132800fb4d6b7b925c253679bb6445_cgraph_org.svg" target="_base">
           <rect id="button" ry="5" rx="5" y="6" x="6" height="38" width="38"
                fill="#f2f5e9" fill-opacity="0.5" stroke="#606060" stroke-width="1.0"/>
           <path id="arrow"
             d="M 11.500037,31.436501 C 11.940474,20.09759 22.043105,11.32322 32.158766,21.979434 L 37.068811,17.246167 C 37.068811,17.246167 37.088388,32 37.088388,32 L 22.160133,31.978069 C 22.160133,31.978069 26.997745,27.140456 26.997745,27.140456 C 18.528582,18.264221 13.291696,25.230495 11.500037,31.436501 z"
             style="fill:#404040;"/>
          </a>
         </g>
        </svg>
</svg>
