<?xml version="1.0" encoding="UTF-8" standalone="no"?>
<!DOCTYPE svg PUBLIC "-//W3C//DTD SVG 1.1//EN"
 "http://www.w3.org/Graphics/SVG/1.1/DTD/svg11.dtd">
<!-- Generated by graphviz version 2.40.1 (20161225.0304)
 -->
<!-- Title: SphereWidget::initializeGL Pages: 1 -->
<svg width="1053pt" height="88pt"
 viewBox="0.00 0.00 1053.00 88.00" xmlns="http://www.w3.org/2000/svg" xmlns:xlink="http://www.w3.org/1999/xlink">
<g id="graph0" class="graph" transform="scale(1 1) rotate(0) translate(4 84)">
<title>SphereWidget::initializeGL</title>
<!-- Node16 -->
<g id="node1" class="node">
<title>Node16</title>
<polygon fill="#bfbfbf" stroke="#000000" points="0,-28 0,-47 132,-47 132,-28 0,-28"/>
<text text-anchor="middle" x="66" y="-35" font-family="Helvetica,sans-Serif" font-size="10.00" fill="#000000">SphereWidget::initializeGL</text>
</g>
<!-- Node17 -->
<g id="node2" class="node">
<title>Node17</title>
<g id="a_node2"><a xlink:href="../../df/dda/class_sphere_widget.html#a7d132800fb4d6b7b925c253679bb6445" target="_top" xlink:title="SphereWidget::updateSphere\lVertices">
<polygon fill="none" stroke="#000000" points="168,-44.5 168,-74.5 312,-74.5 312,-44.5 168,-44.5"/>
<text text-anchor="start" x="176" y="-62.5" font-family="Helvetica,sans-Serif" font-size="10.00" fill="#000000">SphereWidget::updateSphere</text>
<text text-anchor="middle" x="240" y="-51.5" font-family="Helvetica,sans-Serif" font-size="10.00" fill="#000000">Vertices</text>
</a>
</g>
</g>
<!-- Node16&#45;&gt;Node17 -->
<g id="edge1" class="edge">
<title>Node16&#45;&gt;Node17</title>
<path fill="none" stroke="#191970" d="M132.2783,-45.88C140.6308,-46.9361 149.2538,-48.0263 157.8144,-49.1087"/>
<polygon fill="#191970" stroke="#191970" points="157.4552,-52.5911 167.8153,-50.3732 158.3333,-45.6464 157.4552,-52.5911"/>
</g>
<!-- Node19 -->
<g id="node4" class="node">
<title>Node19</title>
<g id="a_node4"><a xlink:href="../../df/dda/class_sphere_widget.html#a871c5252a7a218c5d405be5dfc3dbfa1" target="_top" xlink:title="SphereWidget::updateTriangle\lColor">
<polygon fill="none" stroke="#000000" points="348,-.5 348,-30.5 496,-30.5 496,-.5 348,-.5"/>
<text text-anchor="start" x="356" y="-18.5" font-family="Helvetica,sans-Serif" font-size="10.00" fill="#000000">SphereWidget::updateTriangle</text>
<text text-anchor="middle" x="422" y="-7.5" font-family="Helvetica,sans-Serif" font-size="10.00" fill="#000000">Color</text>
</a>
</g>
</g>
<!-- Node16&#45;&gt;Node19 -->
<g id="edge7" class="edge">
<title>Node16&#45;&gt;Node19</title>
<path fill="none" stroke="#191970" d="M132.1266,-33.4135C190.1263,-29.8293 274.7759,-24.5981 337.6402,-20.7132"/>
<polygon fill="#191970" stroke="#191970" points="338.1633,-24.1877 347.9283,-20.0775 337.7315,-17.201 338.1633,-24.1877"/>
</g>
<!-- Node18 -->
<g id="node3" class="node">
<title>Node18</title>
<g id="a_node3"><a xlink:href="../../da/dce/class_render_data.html#a2aff56e1742b853bcae6f251e258085e" target="_top" xlink:title="RenderData::getVerticesAt\lCurrentDepth">
<polygon fill="none" stroke="#000000" points="355,-49.5 355,-79.5 489,-79.5 489,-49.5 355,-49.5"/>
<text text-anchor="start" x="363" y="-67.5" font-family="Helvetica,sans-Serif" font-size="10.00" fill="#000000">RenderData::getVerticesAt</text>
<text text-anchor="middle" x="422" y="-56.5" font-family="Helvetica,sans-Serif" font-size="10.00" fill="#000000">CurrentDepth</text>
</a>
</g>
</g>
<!-- Node17&#45;&gt;Node18 -->
<g id="edge2" class="edge">
<title>Node17&#45;&gt;Node18</title>
<path fill="none" stroke="#191970" d="M312.1926,-61.4833C322.8723,-61.7767 333.9133,-62.08 344.6921,-62.3762"/>
<polygon fill="#191970" stroke="#191970" points="344.8332,-65.8813 354.9256,-62.6573 345.0255,-58.8839 344.8332,-65.8813"/>
</g>
<!-- Node17&#45;&gt;Node19 -->
<g id="edge3" class="edge">
<title>Node17&#45;&gt;Node19</title>
<path fill="none" stroke="#191970" d="M302.125,-44.4808C317.5603,-40.7492 334.232,-36.7186 350.0933,-32.884"/>
<polygon fill="#191970" stroke="#191970" points="350.9487,-36.2782 359.8462,-30.5262 349.3037,-29.4742 350.9487,-36.2782"/>
</g>
<!-- Node20 -->
<g id="node5" class="node">
<title>Node20</title>
<g id="a_node5"><a xlink:href="../../da/dce/class_render_data.html#a58fe3351334cd518b930dfe0a0aa8732" target="_top" xlink:title="RenderData::getColorsFor\lTriangles">
<polygon fill="none" stroke="#000000" points="532,-.5 532,-30.5 663,-30.5 663,-.5 532,-.5"/>
<text text-anchor="start" x="540" y="-18.5" font-family="Helvetica,sans-Serif" font-size="10.00" fill="#000000">RenderData::getColorsFor</text>
<text text-anchor="middle" x="597.5" y="-7.5" font-family="Helvetica,sans-Serif" font-size="10.00" fill="#000000">Triangles</text>
</a>
</g>
</g>
<!-- Node19&#45;&gt;Node20 -->
<g id="edge4" class="edge">
<title>Node19&#45;&gt;Node20</title>
<path fill="none" stroke="#191970" d="M496.1734,-15.5C504.62,-15.5 513.2386,-15.5 521.7059,-15.5"/>
<polygon fill="#191970" stroke="#191970" points="521.9373,-19.0001 531.9373,-15.5 521.9372,-12.0001 521.9373,-19.0001"/>
</g>
<!-- Node21 -->
<g id="node6" class="node">
<title>Node21</title>
<g id="a_node6"><a xlink:href="../../dc/d7c/struct_sphere_depth_data.html#ad151dd50ed037d91aecec6b285a3e342" target="_top" xlink:title="SphereDepthData::getMaxPoints\lPerTriangle">
<polygon fill="none" stroke="#000000" points="699,-.5 699,-30.5 860,-30.5 860,-.5 699,-.5"/>
<text text-anchor="start" x="707" y="-18.5" font-family="Helvetica,sans-Serif" font-size="10.00" fill="#000000">SphereDepthData::getMaxPoints</text>
<text text-anchor="middle" x="779.5" y="-7.5" font-family="Helvetica,sans-Serif" font-size="10.00" fill="#000000">PerTriangle</text>
</a>
</g>
</g>
<!-- Node20&#45;&gt;Node21 -->
<g id="edge5" class="edge">
<title>Node20&#45;&gt;Node21</title>
<path fill="none" stroke="#191970" d="M663.2062,-15.5C671.549,-15.5 680.2,-15.5 688.8468,-15.5"/>
<polygon fill="#191970" stroke="#191970" points="688.9768,-19.0001 698.9767,-15.5 688.9767,-12.0001 688.9768,-19.0001"/>
</g>
<!-- Node22 -->
<g id="node7" class="node">
<title>Node22</title>
<g id="a_node7"><a xlink:href="../../dc/d7c/struct_sphere_depth_data.html#a4cf92f63341fd72e6659dcd1501eb2ac" target="_top" xlink:title="SphereDepthData::updateMax\lPointsPerTriangle">
<polygon fill="none" stroke="#000000" points="896,-.5 896,-30.5 1045,-30.5 1045,-.5 896,-.5"/>
<text text-anchor="start" x="904" y="-18.5" font-family="Helvetica,sans-Serif" font-size="10.00" fill="#000000">SphereDepthData::updateMax</text>
<text text-anchor="middle" x="970.5" y="-7.5" font-family="Helvetica,sans-Serif" font-size="10.00" fill="#000000">PointsPerTriangle</text>
</a>
</g>
</g>
<!-- Node21&#45;&gt;Node22 -->
<g id="edge6" class="edge">
<title>Node21&#45;&gt;Node22</title>
<path fill="none" stroke="#191970" d="M860.2244,-15.5C868.6207,-15.5 877.1733,-15.5 885.6139,-15.5"/>
<polygon fill="#191970" stroke="#191970" points="885.836,-19.0001 895.8359,-15.5 885.8359,-12.0001 885.836,-19.0001"/>
</g>
</g>
</svg>
