<?xml version="1.0" encoding="UTF-8" standalone="no"?>
<!DOCTYPE svg PUBLIC "-//W3C//DTD SVG 1.1//EN"
 "http://www.w3.org/Graphics/SVG/1.1/DTD/svg11.dtd">
<!-- Generated by graphviz version 2.40.1 (20161225.0304)
 -->
<!-- Title: SphereWidget::~SphereWidget Pages: 1 -->
<svg width="1285pt" height="356pt"
 viewBox="0.00 0.00 1285.00 356.00" xmlns="http://www.w3.org/2000/svg" xmlns:xlink="http://www.w3.org/1999/xlink">
<g id="graph0" class="graph" transform="scale(1 1) rotate(0) translate(4 352)">
<title>SphereWidget::~SphereWidget</title>
<!-- Node1 -->
<g id="node1" class="node">
<title>Node1</title>
<polygon fill="#bfbfbf" stroke="#000000" points="0,-164.5 0,-183.5 152,-183.5 152,-164.5 0,-164.5"/>
<text text-anchor="middle" x="76" y="-171.5" font-family="Helvetica,sans-Serif" font-size="10.00" fill="#000000">SphereWidget::~SphereWidget</text>
</g>
<!-- Node2 -->
<g id="node2" class="node">
<title>Node2</title>
<g id="a_node2"><a xlink:href="../../df/dda/class_sphere_widget.html#a692ca1c1e7556f6abd7b5f6a49a2557c" target="_top" xlink:title="SphereWidget::updatePoints">
<polygon fill="none" stroke="#000000" points="199,-323.5 199,-342.5 340,-342.5 340,-323.5 199,-323.5"/>
<text text-anchor="middle" x="269.5" y="-330.5" font-family="Helvetica,sans-Serif" font-size="10.00" fill="#000000">SphereWidget::updatePoints</text>
</a>
</g>
</g>
<!-- Node1&#45;&gt;Node2 -->
<g id="edge1" class="edge">
<title>Node1&#45;&gt;Node2</title>
<path fill="none" stroke="#191970" d="M81.738,-183.7707C96.3728,-207.8696 137.5235,-270.676 188,-305 197.1879,-311.2478 207.9039,-316.227 218.4881,-320.1479"/>
<polygon fill="#191970" stroke="#191970" points="217.529,-323.5191 228.1236,-323.4573 219.8028,-316.8987 217.529,-323.5191"/>
</g>
<!-- Node4 -->
<g id="node4" class="node">
<title>Node4</title>
<g id="a_node4"><a xlink:href="../../df/dda/class_sphere_widget.html#a7d132800fb4d6b7b925c253679bb6445" target="_top" xlink:title="SphereWidget::updateSphere\lVertices">
<polygon fill="none" stroke="#000000" points="393.5,-279 393.5,-309 537.5,-309 537.5,-279 393.5,-279"/>
<text text-anchor="start" x="401.5" y="-297" font-family="Helvetica,sans-Serif" font-size="10.00" fill="#000000">SphereWidget::updateSphere</text>
<text text-anchor="middle" x="465.5" y="-286" font-family="Helvetica,sans-Serif" font-size="10.00" fill="#000000">Vertices</text>
</a>
</g>
</g>
<!-- Node1&#45;&gt;Node4 -->
<g id="edge3" class="edge">
<title>Node1&#45;&gt;Node4</title>
<path fill="none" stroke="#191970" d="M83.7223,-183.7199C100.321,-203.7984 141.6703,-249.5947 188,-269 249.9767,-294.9591 326.3992,-300.1074 383.3425,-299.3862"/>
<polygon fill="#191970" stroke="#191970" points="383.4495,-302.8849 393.3814,-299.196 383.3169,-295.8861 383.4495,-302.8849"/>
</g>
<!-- Node6 -->
<g id="node6" class="node">
<title>Node6</title>
<g id="a_node6"><a xlink:href="../../df/dda/class_sphere_widget.html#a871c5252a7a218c5d405be5dfc3dbfa1" target="_top" xlink:title="SphereWidget::updateTriangle\lColor">
<polygon fill="none" stroke="#000000" points="580,-232 580,-262 728,-262 728,-232 580,-232"/>
<text text-anchor="start" x="588" y="-250" font-family="Helvetica,sans-Serif" font-size="10.00" fill="#000000">SphereWidget::updateTriangle</text>
<text text-anchor="middle" x="654" y="-239" font-family="Helvetica,sans-Serif" font-size="10.00" fill="#000000">Color</text>
</a>
</g>
</g>
<!-- Node1&#45;&gt;Node6 -->
<g id="edge9" class="edge">
<title>Node1&#45;&gt;Node6</title>
<path fill="none" stroke="#191970" d="M128.6132,-183.5132C147.3281,-186.7412 168.5731,-190.2285 188,-193 321.2209,-212.0053 476.5978,-228.9727 570.0336,-238.6156"/>
<polygon fill="#191970" stroke="#191970" points="569.6909,-242.0987 579.9965,-239.6403 570.4071,-235.1355 569.6909,-242.0987"/>
</g>
<!-- Node10 -->
<g id="node10" class="node">
<title>Node10</title>
<g id="a_node10"><a xlink:href="../../df/dda/class_sphere_widget.html#a323d335cf261b7156da1a59aaf28c40c" target="_top" xlink:title="SphereWidget::initializeGL">
<polygon fill="none" stroke="#000000" points="203.5,-240.5 203.5,-259.5 335.5,-259.5 335.5,-240.5 203.5,-240.5"/>
<text text-anchor="middle" x="269.5" y="-247.5" font-family="Helvetica,sans-Serif" font-size="10.00" fill="#000000">SphereWidget::initializeGL</text>
</a>
</g>
</g>
<!-- Node1&#45;&gt;Node10 -->
<g id="edge10" class="edge">
<title>Node1&#45;&gt;Node10</title>
<path fill="none" stroke="#191970" d="M94.2679,-183.5067C116.1476,-194.6511 154.099,-213.2192 188,-226 199.1018,-230.1854 211.2733,-234.1101 222.7463,-237.5247"/>
<polygon fill="#191970" stroke="#191970" points="222.0249,-240.9598 232.6043,-240.3878 223.9773,-234.2375 222.0249,-240.9598"/>
</g>
<!-- Node11 -->
<g id="node11" class="node">
<title>Node11</title>
<g id="a_node11"><a xlink:href="../../df/dda/class_sphere_widget.html#aaf11c928f52c91d7f60317922df7ca73" target="_top" xlink:title="SphereWidget::resizeGL">
<polygon fill="none" stroke="#000000" points="208,-164.5 208,-183.5 331,-183.5 331,-164.5 208,-164.5"/>
<text text-anchor="middle" x="269.5" y="-171.5" font-family="Helvetica,sans-Serif" font-size="10.00" fill="#000000">SphereWidget::resizeGL</text>
</a>
</g>
</g>
<!-- Node1&#45;&gt;Node11 -->
<g id="edge13" class="edge">
<title>Node1&#45;&gt;Node11</title>
<path fill="none" stroke="#191970" d="M152.1986,-174C167.2362,-174 182.9682,-174 197.8492,-174"/>
<polygon fill="#191970" stroke="#191970" points="197.9966,-177.5001 207.9965,-174 197.9965,-170.5001 197.9966,-177.5001"/>
</g>
<!-- Node12 -->
<g id="node12" class="node">
<title>Node12</title>
<g id="a_node12"><a xlink:href="../../df/dda/class_sphere_widget.html#a122b798a2eb0c251f53671009abdf8c8" target="_top" xlink:title="SphereWidget::paintGL">
<polygon fill="none" stroke="#000000" points="210.5,-126.5 210.5,-145.5 328.5,-145.5 328.5,-126.5 210.5,-126.5"/>
<text text-anchor="middle" x="269.5" y="-133.5" font-family="Helvetica,sans-Serif" font-size="10.00" fill="#000000">SphereWidget::paintGL</text>
</a>
</g>
</g>
<!-- Node1&#45;&gt;Node12 -->
<g id="edge14" class="edge">
<title>Node1&#45;&gt;Node12</title>
<path fill="none" stroke="#191970" d="M124.8282,-164.411C151.0528,-159.261 183.5617,-152.8768 211.1162,-147.4656"/>
<polygon fill="#191970" stroke="#191970" points="211.8848,-150.8815 221.0229,-145.5201 210.5358,-144.0127 211.8848,-150.8815"/>
</g>
<!-- Node13 -->
<g id="node13" class="node">
<title>Node13</title>
<g id="a_node13"><a xlink:href="../../df/dda/class_sphere_widget.html#ac658d6e1cdc99280ecff045f92fe1ba3" target="_top" xlink:title="SphereWidget::mousePress\lEvent">
<polygon fill="none" stroke="#000000" points="200,-77 200,-107 339,-107 339,-77 200,-77"/>
<text text-anchor="start" x="208" y="-95" font-family="Helvetica,sans-Serif" font-size="10.00" fill="#000000">SphereWidget::mousePress</text>
<text text-anchor="middle" x="269.5" y="-84" font-family="Helvetica,sans-Serif" font-size="10.00" fill="#000000">Event</text>
</a>
</g>
</g>
<!-- Node1&#45;&gt;Node13 -->
<g id="edge15" class="edge">
<title>Node1&#45;&gt;Node13</title>
<path fill="none" stroke="#191970" d="M92.6502,-164.3715C114.161,-152.2045 153.007,-131.1474 188,-117 193.7629,-114.6701 199.8285,-112.4318 205.9424,-110.3178"/>
<polygon fill="#191970" stroke="#191970" points="207.1801,-113.5944 215.5531,-107.1026 204.9593,-106.956 207.1801,-113.5944"/>
</g>
<!-- Node14 -->
<g id="node14" class="node">
<title>Node14</title>
<g id="a_node14"><a xlink:href="../../df/dda/class_sphere_widget.html#aef63eed14a55be78015576296dce516e" target="_top" xlink:title="SphereWidget::mouseMoveEvent">
<polygon fill="none" stroke="#000000" points="188,-38.5 188,-57.5 351,-57.5 351,-38.5 188,-38.5"/>
<text text-anchor="middle" x="269.5" y="-45.5" font-family="Helvetica,sans-Serif" font-size="10.00" fill="#000000">SphereWidget::mouseMoveEvent</text>
</a>
</g>
</g>
<!-- Node1&#45;&gt;Node14 -->
<g id="edge16" class="edge">
<title>Node1&#45;&gt;Node14</title>
<path fill="none" stroke="#191970" d="M83.1842,-164.2348C99.3613,-142.9934 140.9292,-92.459 188,-67 192.2491,-64.7018 196.7693,-62.6801 201.4185,-60.9018"/>
<polygon fill="#191970" stroke="#191970" points="202.7732,-64.1373 211.0972,-57.5828 200.5026,-57.5158 202.7732,-64.1373"/>
</g>
<!-- Node15 -->
<g id="node15" class="node">
<title>Node15</title>
<g id="a_node15"><a xlink:href="../../df/dda/class_sphere_widget.html#aaecd84d746763a4bd6f46a6d55a36d84" target="_top" xlink:title="SphereWidget::wheelEvent">
<polygon fill="none" stroke="#000000" points="202,-.5 202,-19.5 337,-19.5 337,-.5 202,-.5"/>
<text text-anchor="middle" x="269.5" y="-7.5" font-family="Helvetica,sans-Serif" font-size="10.00" fill="#000000">SphereWidget::wheelEvent</text>
</a>
</g>
</g>
<!-- Node1&#45;&gt;Node15 -->
<g id="edge17" class="edge">
<title>Node1&#45;&gt;Node15</title>
<path fill="none" stroke="#191970" d="M80.4651,-164.3905C93.1886,-138.1337 132.3362,-64.7629 188,-29 191.1819,-26.9557 194.5594,-25.1307 198.0598,-23.5015"/>
<polygon fill="#191970" stroke="#191970" points="199.6221,-26.6444 207.5627,-19.6303 196.9812,-20.1617 199.6221,-26.6444"/>
</g>
<!-- Node3 -->
<g id="node3" class="node">
<title>Node3</title>
<g id="a_node3"><a xlink:href="../../da/dce/class_render_data.html#a24e60dcccd94c47c02e0e47f2ca7b5c2" target="_top" xlink:title="RenderData::getPointsAsVector">
<polygon fill="none" stroke="#000000" points="387,-328.5 387,-347.5 544,-347.5 544,-328.5 387,-328.5"/>
<text text-anchor="middle" x="465.5" y="-335.5" font-family="Helvetica,sans-Serif" font-size="10.00" fill="#000000">RenderData::getPointsAsVector</text>
</a>
</g>
</g>
<!-- Node2&#45;&gt;Node3 -->
<g id="edge2" class="edge">
<title>Node2&#45;&gt;Node3</title>
<path fill="none" stroke="#191970" d="M340.2605,-334.8051C352.0824,-335.1067 364.4787,-335.4229 376.6834,-335.7343"/>
<polygon fill="#191970" stroke="#191970" points="376.7874,-339.238 386.8734,-335.9942 376.9659,-332.2402 376.7874,-339.238"/>
</g>
<!-- Node5 -->
<g id="node5" class="node">
<title>Node5</title>
<g id="a_node5"><a xlink:href="../../da/dce/class_render_data.html#a2aff56e1742b853bcae6f251e258085e" target="_top" xlink:title="RenderData::getVerticesAt\lCurrentDepth">
<polygon fill="none" stroke="#000000" points="587,-281 587,-311 721,-311 721,-281 587,-281"/>
<text text-anchor="start" x="595" y="-299" font-family="Helvetica,sans-Serif" font-size="10.00" fill="#000000">RenderData::getVerticesAt</text>
<text text-anchor="middle" x="654" y="-288" font-family="Helvetica,sans-Serif" font-size="10.00" fill="#000000">CurrentDepth</text>
</a>
</g>
</g>
<!-- Node4&#45;&gt;Node5 -->
<g id="edge4" class="edge">
<title>Node4&#45;&gt;Node5</title>
<path fill="none" stroke="#191970" d="M537.5706,-294.7647C550.3643,-294.9004 563.736,-295.0423 576.6683,-295.1795"/>
<polygon fill="#191970" stroke="#191970" points="576.8895,-298.682 586.9261,-295.2883 576.9638,-291.6823 576.8895,-298.682"/>
</g>
<!-- Node4&#45;&gt;Node6 -->
<g id="edge5" class="edge">
<title>Node4&#45;&gt;Node6</title>
<path fill="none" stroke="#191970" d="M525.6608,-278.9997C544.1948,-274.3785 564.7613,-269.2505 583.9027,-264.4778"/>
<polygon fill="#191970" stroke="#191970" points="584.908,-267.8344 593.7642,-262.019 583.2144,-261.0424 584.908,-267.8344"/>
</g>
<!-- Node7 -->
<g id="node7" class="node">
<title>Node7</title>
<g id="a_node7"><a xlink:href="../../da/dce/class_render_data.html#a58fe3351334cd518b930dfe0a0aa8732" target="_top" xlink:title="RenderData::getColorsFor\lTriangles">
<polygon fill="none" stroke="#000000" points="764,-232 764,-262 895,-262 895,-232 764,-232"/>
<text text-anchor="start" x="772" y="-250" font-family="Helvetica,sans-Serif" font-size="10.00" fill="#000000">RenderData::getColorsFor</text>
<text text-anchor="middle" x="829.5" y="-239" font-family="Helvetica,sans-Serif" font-size="10.00" fill="#000000">Triangles</text>
</a>
</g>
</g>
<!-- Node6&#45;&gt;Node7 -->
<g id="edge6" class="edge">
<title>Node6&#45;&gt;Node7</title>
<path fill="none" stroke="#191970" d="M728.1734,-247C736.62,-247 745.2386,-247 753.7059,-247"/>
<polygon fill="#191970" stroke="#191970" points="753.9373,-250.5001 763.9373,-247 753.9372,-243.5001 753.9373,-250.5001"/>
</g>
<!-- Node8 -->
<g id="node8" class="node">
<title>Node8</title>
<g id="a_node8"><a xlink:href="../../dc/d7c/struct_sphere_depth_data.html#ad151dd50ed037d91aecec6b285a3e342" target="_top" xlink:title="SphereDepthData::getMaxPoints\lPerTriangle">
<polygon fill="none" stroke="#000000" points="931,-232 931,-262 1092,-262 1092,-232 931,-232"/>
<text text-anchor="start" x="939" y="-250" font-family="Helvetica,sans-Serif" font-size="10.00" fill="#000000">SphereDepthData::getMaxPoints</text>
<text text-anchor="middle" x="1011.5" y="-239" font-family="Helvetica,sans-Serif" font-size="10.00" fill="#000000">PerTriangle</text>
</a>
</g>
</g>
<!-- Node7&#45;&gt;Node8 -->
<g id="edge7" class="edge">
<title>Node7&#45;&gt;Node8</title>
<path fill="none" stroke="#191970" d="M895.2062,-247C903.549,-247 912.2,-247 920.8468,-247"/>
<polygon fill="#191970" stroke="#191970" points="920.9768,-250.5001 930.9767,-247 920.9767,-243.5001 920.9768,-250.5001"/>
</g>
<!-- Node9 -->
<g id="node9" class="node">
<title>Node9</title>
<g id="a_node9"><a xlink:href="../../dc/d7c/struct_sphere_depth_data.html#a4cf92f63341fd72e6659dcd1501eb2ac" target="_top" xlink:title="SphereDepthData::updateMax\lPointsPerTriangle">
<polygon fill="none" stroke="#000000" points="1128,-232 1128,-262 1277,-262 1277,-232 1128,-232"/>
<text text-anchor="start" x="1136" y="-250" font-family="Helvetica,sans-Serif" font-size="10.00" fill="#000000">SphereDepthData::updateMax</text>
<text text-anchor="middle" x="1202.5" y="-239" font-family="Helvetica,sans-Serif" font-size="10.00" fill="#000000">PointsPerTriangle</text>
</a>
</g>
</g>
<!-- Node8&#45;&gt;Node9 -->
<g id="edge8" class="edge">
<title>Node8&#45;&gt;Node9</title>
<path fill="none" stroke="#191970" d="M1092.2244,-247C1100.6207,-247 1109.1733,-247 1117.6139,-247"/>
<polygon fill="#191970" stroke="#191970" points="1117.836,-250.5001 1127.8359,-247 1117.8359,-243.5001 1117.836,-250.5001"/>
</g>
<!-- Node10&#45;&gt;Node4 -->
<g id="edge11" class="edge">
<title>Node10&#45;&gt;Node4</title>
<path fill="none" stroke="#191970" d="M312.0291,-259.5473C334.3919,-264.5676 362.5008,-270.8777 388.532,-276.7215"/>
<polygon fill="#191970" stroke="#191970" points="387.8668,-280.1592 398.3907,-278.9346 389.4001,-273.3292 387.8668,-280.1592"/>
</g>
<!-- Node10&#45;&gt;Node6 -->
<g id="edge12" class="edge">
<title>Node10&#45;&gt;Node6</title>
<path fill="none" stroke="#191970" d="M335.5979,-249.4843C400.3698,-248.9789 499.3468,-248.2067 569.7375,-247.6574"/>
<polygon fill="#191970" stroke="#191970" points="569.9358,-251.1561 579.9081,-247.5781 569.8811,-244.1563 569.9358,-251.1561"/>
</g>
</g>
</svg>
