<?xml version="1.0" encoding="UTF-8" standalone="no"?>
<!DOCTYPE svg PUBLIC "-//W3C//DTD SVG 1.1//EN"
 "http://www.w3.org/Graphics/SVG/1.1/DTD/svg11.dtd">
<!-- Generated by graphviz version 2.40.1 (20161225.0304)
 -->
<!-- Title: SphereWidget::updateTriangleColor Pages: 1 -->
<!--zoomable 92 -->
<svg id="main" version="1.1" xmlns="http://www.w3.org/2000/svg" xmlns:xlink="http://www.w3.org/1999/xlink" xml:space="preserve" onload="init(evt)">
<style type="text/css"><![CDATA[
.edge:hover path { stroke: red; }
.edge:hover polygon { stroke: red; fill: red; }
]]></style>
<script type="text/javascript"><![CDATA[
var edges = document.getElementsByTagName('g');
if (edges && edges.length) {
  for (var i=0;i<edges.length;i++) {
    if (edges[i].id.substr(0,4)=='edge') {
      edges[i].setAttribute('class','edge');
    }
  }
}
]]></script>
        <defs>
                <circle id="rim" cx="0" cy="0" r="7"/>
                <circle id="rim2" cx="0" cy="0" r="3.5"/>
                <g id="zoomPlus">
                        <use xlink:href="#rim" fill="#404040">
                                <set attributeName="fill" to="#808080" begin="zoomplus.mouseover" end="zoomplus.mouseout"/>
                        </use>
                        <path d="M-4,0h8M0,-4v8" fill="none" stroke="white" stroke-width="1.5" pointer-events="none"/>
                </g>
                <g id="zoomMin">
                        <use xlink:href="#rim" fill="#404040">
                                <set attributeName="fill" to="#808080" begin="zoomminus.mouseover" end="zoomminus.mouseout"/>
                        </use>
                        <path d="M-4,0h8" fill="none" stroke="white" stroke-width="1.5" pointer-events="none"/>
                </g>
                <g id="dirArrow">
                        <path fill="none" stroke="white" stroke-width="1.5" d="M0,-3.0v7 M-2.5,-0.5L0,-3.0L2.5,-0.5"/>
                </g>
               <g id="resetDef">
                       <use xlink:href="#rim2" fill="#404040">
                               <set attributeName="fill" to="#808080" begin="reset.mouseover" end="reset.mouseout"/>
                       </use>
               </g>
        </defs>

<script type="text/javascript">
var viewWidth = 692;
var viewHeight = 92;
var sectionId = 'dynsection-9';
</script>
<script xlink:href="../../svgpan.js"/>
<svg id="graph" class="graph">
<g id="viewport">
<title>SphereWidget::updateTriangleColor</title>
<!-- Node17 -->
<g id="node1" class="node">
<title>Node17</title>
<polygon fill="#bfbfbf" stroke="#000000" points="0,-44.5 0,-74.5 148,-74.5 148,-44.5 0,-44.5"/>
<text text-anchor="start" x="8" y="-62.5" font-family="Helvetica,sans-Serif" font-size="10.00" fill="#000000">SphereWidget::updateTriangle</text>
<text text-anchor="middle" x="74" y="-51.5" font-family="Helvetica,sans-Serif" font-size="10.00" fill="#000000">Color</text>
</g>
<!-- Node18 -->
<g id="node2" class="node">
<title>Node18</title>
<g id="a_node2"><a xlink:href="../../df/dda/class_sphere_widget.html#a323d335cf261b7156da1a59aaf28c40c" target="_top" xlink:title="SphereWidget::initializeGL">
<polygon fill="none" stroke="#000000" points="364,-49 364,-68 496,-68 496,-49 364,-49"/>
<text text-anchor="middle" x="430" y="-56" font-family="Helvetica,sans-Serif" font-size="10.00" fill="#000000">SphereWidget::initializeGL</text>
</a>
</g>
</g>
<!-- Node17&#45;&gt;Node18 -->
<g id="edge1" class="edge">
<title>Node17&#45;&gt;Node18</title>
<path fill="none" stroke="#191970" d="M158.4893,-59.2627C221.3831,-59.086 306.0286,-58.8482 363.9917,-58.6854"/>
<polygon fill="#191970" stroke="#191970" points="158.186,-55.7634 148.1959,-59.2916 158.2058,-62.7634 158.186,-55.7634"/>
</g>
<!-- Node19 -->
<g id="node3" class="node">
<title>Node19</title>
<g id="a_node3"><a xlink:href="../../df/dda/class_sphere_widget.html#a1766e5d68f4c57f52d6b1ee40cc0326c" target="_top" xlink:title="SphereWidget::~SphereWidget">
<polygon fill="none" stroke="#000000" points="532,-49 532,-68 684,-68 684,-49 532,-49"/>
<text text-anchor="middle" x="608" y="-56" font-family="Helvetica,sans-Serif" font-size="10.00" fill="#000000">SphereWidget::~SphereWidget</text>
</a>
</g>
</g>
<!-- Node17&#45;&gt;Node19 -->
<g id="edge6" class="edge">
<title>Node17&#45;&gt;Node19</title>
<path fill="none" stroke="#191970" d="M158.2979,-71.1389C166.966,-72.0629 175.6519,-72.8777 184,-73.5 322.2944,-83.8089 357.8112,-89.1382 496,-77.5 518.011,-75.6462 542.1999,-71.7778 562.4479,-68.0123"/>
<polygon fill="#191970" stroke="#191970" points="158.4779,-67.6374 148.1519,-70.009 157.7031,-74.5944 158.4779,-67.6374"/>
</g>
<!-- Node20 -->
<g id="node4" class="node">
<title>Node20</title>
<g id="a_node4"><a xlink:href="../../df/dda/class_sphere_widget.html#a7d132800fb4d6b7b925c253679bb6445" target="_top" xlink:title="SphereWidget::updateSphere\lVertices">
<polygon fill="none" stroke="#000000" points="184,-.5 184,-30.5 328,-30.5 328,-.5 184,-.5"/>
<text text-anchor="start" x="192" y="-18.5" font-family="Helvetica,sans-Serif" font-size="10.00" fill="#000000">SphereWidget::updateSphere</text>
<text text-anchor="middle" x="256" y="-7.5" font-family="Helvetica,sans-Serif" font-size="10.00" fill="#000000">Vertices</text>
</a>
</g>
</g>
<!-- Node17&#45;&gt;Node20 -->
<g id="edge3" class="edge">
<title>Node17&#45;&gt;Node20</title>
<path fill="none" stroke="#191970" d="M145.8771,-42.1231C161.7374,-38.2888 178.4094,-34.2582 193.8462,-30.5262"/>
<polygon fill="#191970" stroke="#191970" points="145.0225,-38.7288 136.125,-44.4808 146.6675,-45.5328 145.0225,-38.7288"/>
</g>
<!-- Node18&#45;&gt;Node19 -->
<g id="edge2" class="edge">
<title>Node18&#45;&gt;Node19</title>
<path fill="none" stroke="#191970" d="M506.2726,-58.5C514.753,-58.5 523.3909,-58.5 531.8696,-58.5"/>
<polygon fill="#191970" stroke="#191970" points="506.0277,-55.0001 496.0277,-58.5 506.0276,-62.0001 506.0277,-55.0001"/>
</g>
<!-- Node20&#45;&gt;Node18 -->
<g id="edge4" class="edge">
<title>Node20&#45;&gt;Node18</title>
<path fill="none" stroke="#191970" d="M326.5813,-32.9425C348.7485,-38.4206 372.3914,-44.2634 391.4681,-48.9777"/>
<polygon fill="#191970" stroke="#191970" points="327.4044,-29.5407 316.8568,-30.5393 325.725,-36.3363 327.4044,-29.5407"/>
</g>
<!-- Node20&#45;&gt;Node19 -->
<g id="edge5" class="edge">
<title>Node20&#45;&gt;Node19</title>
<path fill="none" stroke="#191970" d="M338.0978,-22.3101C384.5313,-26.5123 443.6116,-32.4453 496,-39.5 515.7413,-42.1584 537.3388,-45.6766 556.2551,-48.9624"/>
<polygon fill="#191970" stroke="#191970" points="338.3609,-18.8198 328.0884,-21.4133 337.7362,-25.7918 338.3609,-18.8198"/>
</g>
</g>
</svg>
        <g id="navigator" transform="translate(0 0)" fill="#404254">
                <rect fill="#f2f5e9" fill-opacity="0.5" stroke="#606060" stroke-width=".5" x="0" y="0" width="60" height="60"/>
                <use id="zoomplus" xlink:href="#zoomPlus" x="17" y="9" onmousedown="handleZoom(evt,'in')"/>
                <use id="zoomminus" xlink:href="#zoomMin" x="42" y="9" onmousedown="handleZoom(evt,'out')"/>
                <use id="reset" xlink:href="#resetDef" x="30" y="36" onmousedown="handleReset()"/>
                <g id="arrowUp" xlink:href="#dirArrow" transform="translate(30 24)" onmousedown="handlePan(0,-1)">
                  <use xlink:href="#rim" fill="#404040">
                        <set attributeName="fill" to="#808080" begin="arrowUp.mouseover" end="arrowUp.mouseout"/>
                  </use>
                  <path fill="none" stroke="white" stroke-width="1.5" d="M0,-3.0v7 M-2.5,-0.5L0,-3.0L2.5,-0.5"/>
                </g>
                <g id="arrowRight" xlink:href="#dirArrow" transform="rotate(90) translate(36 -43)" onmousedown="handlePan(1,0)">
                  <use xlink:href="#rim" fill="#404040">
                        <set attributeName="fill" to="#808080" begin="arrowRight.mouseover" end="arrowRight.mouseout"/>
                  </use>
                  <path fill="none" stroke="white" stroke-width="1.5" d="M0,-3.0v7 M-2.5,-0.5L0,-3.0L2.5,-0.5"/>
                </g>
                <g id="arrowDown" xlink:href="#dirArrow" transform="rotate(180) translate(-30 -48)" onmousedown="handlePan(0,1)">
                  <use xlink:href="#rim" fill="#404040">
                        <set attributeName="fill" to="#808080" begin="arrowDown.mouseover" end="arrowDown.mouseout"/>
                  </use>
                  <path fill="none" stroke="white" stroke-width="1.5" d="M0,-3.0v7 M-2.5,-0.5L0,-3.0L2.5,-0.5"/>
                </g>
                <g id="arrowLeft" xlink:href="#dirArrow" transform="rotate(270) translate(-36 17)" onmousedown="handlePan(-1,0)">
                  <use xlink:href="#rim" fill="#404040">
                        <set attributeName="fill" to="#808080" begin="arrowLeft.mouseover" end="arrowLeft.mouseout"/>
                  </use>
                  <path fill="none" stroke="white" stroke-width="1.5" d="M0,-3.0v7 M-2.5,-0.5L0,-3.0L2.5,-0.5"/>
                </g>
        </g>
        <svg viewBox="0 0 15 15" width="100%" height="30px" preserveAspectRatio="xMaxYMin meet">
         <g id="arrow_out" transform="scale(0.3 0.3)">
          <a xlink:href="class_sphere_widget_a871c5252a7a218c5d405be5dfc3dbfa1_icgraph_org.svg" target="_base">
           <rect id="button" ry="5" rx="5" y="6" x="6" height="38" width="38"
                fill="#f2f5e9" fill-opacity="0.5" stroke="#606060" stroke-width="1.0"/>
           <path id="arrow"
             d="M 11.500037,31.436501 C 11.940474,20.09759 22.043105,11.32322 32.158766,21.979434 L 37.068811,17.246167 C 37.068811,17.246167 37.088388,32 37.088388,32 L 22.160133,31.978069 C 22.160133,31.978069 26.997745,27.140456 26.997745,27.140456 C 18.528582,18.264221 13.291696,25.230495 11.500037,31.436501 z"
             style="fill:#404040;"/>
          </a>
         </g>
        </svg>
</svg>
