<?xml version="1.0" encoding="UTF-8" standalone="no"?>
<!DOCTYPE svg PUBLIC "-//W3C//DTD SVG 1.1//EN"
 "http://www.w3.org/Graphics/SVG/1.1/DTD/svg11.dtd">
<!-- Generated by graphviz version 2.40.1 (20161225.0304)
 -->
<!-- Title: SphereWidget::updateTriangleColor Pages: 1 -->
<svg width="692pt" height="92pt"
 viewBox="0.00 0.00 692.00 92.31" xmlns="http://www.w3.org/2000/svg" xmlns:xlink="http://www.w3.org/1999/xlink">
<g id="graph0" class="graph" transform="scale(1 1) rotate(0) translate(4 88.3133)">
<title>SphereWidget::updateTriangleColor</title>
<!-- Node17 -->
<g id="node1" class="node">
<title>Node17</title>
<polygon fill="#bfbfbf" stroke="#000000" points="0,-44.5 0,-74.5 148,-74.5 148,-44.5 0,-44.5"/>
<text text-anchor="start" x="8" y="-62.5" font-family="Helvetica,sans-Serif" font-size="10.00" fill="#000000">SphereWidget::updateTriangle</text>
<text text-anchor="middle" x="74" y="-51.5" font-family="Helvetica,sans-Serif" font-size="10.00" fill="#000000">Color</text>
</g>
<!-- Node18 -->
<g id="node2" class="node">
<title>Node18</title>
<g id="a_node2"><a xlink:href="../../df/dda/class_sphere_widget.html#a323d335cf261b7156da1a59aaf28c40c" target="_top" xlink:title="SphereWidget::initializeGL">
<polygon fill="none" stroke="#000000" points="364,-49 364,-68 496,-68 496,-49 364,-49"/>
<text text-anchor="middle" x="430" y="-56" font-family="Helvetica,sans-Serif" font-size="10.00" fill="#000000">SphereWidget::initializeGL</text>
</a>
</g>
</g>
<!-- Node17&#45;&gt;Node18 -->
<g id="edge1" class="edge">
<title>Node17&#45;&gt;Node18</title>
<path fill="none" stroke="#191970" d="M158.4893,-59.2627C221.3831,-59.086 306.0286,-58.8482 363.9917,-58.6854"/>
<polygon fill="#191970" stroke="#191970" points="158.186,-55.7634 148.1959,-59.2916 158.2058,-62.7634 158.186,-55.7634"/>
</g>
<!-- Node19 -->
<g id="node3" class="node">
<title>Node19</title>
<g id="a_node3"><a xlink:href="../../df/dda/class_sphere_widget.html#a1766e5d68f4c57f52d6b1ee40cc0326c" target="_top" xlink:title="SphereWidget::~SphereWidget">
<polygon fill="none" stroke="#000000" points="532,-49 532,-68 684,-68 684,-49 532,-49"/>
<text text-anchor="middle" x="608" y="-56" font-family="Helvetica,sans-Serif" font-size="10.00" fill="#000000">SphereWidget::~SphereWidget</text>
</a>
</g>
</g>
<!-- Node17&#45;&gt;Node19 -->
<g id="edge6" class="edge">
<title>Node17&#45;&gt;Node19</title>
<path fill="none" stroke="#191970" d="M158.2979,-71.1389C166.966,-72.0629 175.6519,-72.8777 184,-73.5 322.2944,-83.8089 357.8112,-89.1382 496,-77.5 518.011,-75.6462 542.1999,-71.7778 562.4479,-68.0123"/>
<polygon fill="#191970" stroke="#191970" points="158.4779,-67.6374 148.1519,-70.009 157.7031,-74.5944 158.4779,-67.6374"/>
</g>
<!-- Node20 -->
<g id="node4" class="node">
<title>Node20</title>
<g id="a_node4"><a xlink:href="../../df/dda/class_sphere_widget.html#a7d132800fb4d6b7b925c253679bb6445" target="_top" xlink:title="SphereWidget::updateSphere\lVertices">
<polygon fill="none" stroke="#000000" points="184,-.5 184,-30.5 328,-30.5 328,-.5 184,-.5"/>
<text text-anchor="start" x="192" y="-18.5" font-family="Helvetica,sans-Serif" font-size="10.00" fill="#000000">SphereWidget::updateSphere</text>
<text text-anchor="middle" x="256" y="-7.5" font-family="Helvetica,sans-Serif" font-size="10.00" fill="#000000">Vertices</text>
</a>
</g>
</g>
<!-- Node17&#45;&gt;Node20 -->
<g id="edge3" class="edge">
<title>Node17&#45;&gt;Node20</title>
<path fill="none" stroke="#191970" d="M145.8771,-42.1231C161.7374,-38.2888 178.4094,-34.2582 193.8462,-30.5262"/>
<polygon fill="#191970" stroke="#191970" points="145.0225,-38.7288 136.125,-44.4808 146.6675,-45.5328 145.0225,-38.7288"/>
</g>
<!-- Node18&#45;&gt;Node19 -->
<g id="edge2" class="edge">
<title>Node18&#45;&gt;Node19</title>
<path fill="none" stroke="#191970" d="M506.2726,-58.5C514.753,-58.5 523.3909,-58.5 531.8696,-58.5"/>
<polygon fill="#191970" stroke="#191970" points="506.0277,-55.0001 496.0277,-58.5 506.0276,-62.0001 506.0277,-55.0001"/>
</g>
<!-- Node20&#45;&gt;Node18 -->
<g id="edge4" class="edge">
<title>Node20&#45;&gt;Node18</title>
<path fill="none" stroke="#191970" d="M326.5813,-32.9425C348.7485,-38.4206 372.3914,-44.2634 391.4681,-48.9777"/>
<polygon fill="#191970" stroke="#191970" points="327.4044,-29.5407 316.8568,-30.5393 325.725,-36.3363 327.4044,-29.5407"/>
</g>
<!-- Node20&#45;&gt;Node19 -->
<g id="edge5" class="edge">
<title>Node20&#45;&gt;Node19</title>
<path fill="none" stroke="#191970" d="M338.0978,-22.3101C384.5313,-26.5123 443.6116,-32.4453 496,-39.5 515.7413,-42.1584 537.3388,-45.6766 556.2551,-48.9624"/>
<polygon fill="#191970" stroke="#191970" points="338.3609,-18.8198 328.0884,-21.4133 337.7362,-25.7918 338.3609,-18.8198"/>
</g>
</g>
</svg>
