<?xml version="1.0" encoding="UTF-8" standalone="no"?>
<!DOCTYPE svg PUBLIC "-//W3C//DTD SVG 1.1//EN"
 "http://www.w3.org/Graphics/SVG/1.1/DTD/svg11.dtd">
<!-- Generated by graphviz version 2.40.1 (20161225.0304)
 -->
<!-- Title: renderdata.h Pages: 1 -->
<svg width="928pt" height="162pt"
 viewBox="0.00 0.00 927.50 162.00" xmlns="http://www.w3.org/2000/svg" xmlns:xlink="http://www.w3.org/1999/xlink">
<g id="graph0" class="graph" transform="scale(1 1) rotate(0) translate(4 158)">
<title>renderdata.h</title>
<!-- Node0 -->
<g id="node1" class="node">
<title>Node0</title>
<polygon fill="#bfbfbf" stroke="#000000" points="266,-134.5 266,-153.5 337,-153.5 337,-134.5 266,-134.5"/>
<text text-anchor="middle" x="301.5" y="-141.5" font-family="Helvetica,sans-Serif" font-size="10.00" fill="#000000">renderdata.h</text>
</g>
<!-- Node1 -->
<g id="node2" class="node">
<title>Node1</title>
<polygon fill="none" stroke="#bfbfbf" points="0,-73 0,-92 29,-92 29,-73 0,-73"/>
<text text-anchor="middle" x="14.5" y="-80" font-family="Helvetica,sans-Serif" font-size="10.00" fill="#000000">list</text>
</g>
<!-- Node0&#45;&gt;Node1 -->
<g id="edge1" class="edge">
<title>Node0&#45;&gt;Node1</title>
<path fill="none" stroke="#191970" d="M265.9788,-141.2177C215.3952,-136.4678 120.2354,-124.5968 43.5,-98 41.8313,-97.4216 40.1423,-96.7566 38.4624,-96.0345"/>
<polygon fill="#191970" stroke="#191970" points="39.6647,-92.7264 29.1438,-91.4773 36.5895,-99.0147 39.6647,-92.7264"/>
</g>
<!-- Node2 -->
<g id="node3" class="node">
<title>Node2</title>
<polygon fill="none" stroke="#bfbfbf" points=".5,-6 .5,-25 44.5,-25 44.5,-6 .5,-6"/>
<text text-anchor="middle" x="22.5" y="-13" font-family="Helvetica,sans-Serif" font-size="10.00" fill="#000000">vector</text>
</g>
<!-- Node0&#45;&gt;Node2 -->
<g id="edge2" class="edge">
<title>Node0&#45;&gt;Node2</title>
<path fill="none" stroke="#191970" d="M265.9853,-138.8497C214.7621,-130.9641 123.1451,-115.0138 94.5,-98 67.7936,-82.1376 45.8474,-52.9154 33.4644,-33.8494"/>
<polygon fill="#191970" stroke="#191970" points="36.3032,-31.7878 28.0302,-25.1689 30.3699,-35.5022 36.3032,-31.7878"/>
</g>
<!-- Node3 -->
<g id="node4" class="node">
<title>Node3</title>
<polygon fill="none" stroke="#bfbfbf" points="278,-73 278,-92 325,-92 325,-73 278,-73"/>
<text text-anchor="middle" x="301.5" y="-80" font-family="Helvetica,sans-Serif" font-size="10.00" fill="#000000">math.h</text>
</g>
<!-- Node0&#45;&gt;Node3 -->
<g id="edge3" class="edge">
<title>Node0&#45;&gt;Node3</title>
<path fill="none" stroke="#191970" d="M301.5,-134.3906C301.5,-125.8657 301.5,-113.1392 301.5,-102.4235"/>
<polygon fill="#191970" stroke="#191970" points="305.0001,-102.2448 301.5,-92.2449 298.0001,-102.2449 305.0001,-102.2448"/>
</g>
<!-- Node4 -->
<g id="node5" class="node">
<title>Node4</title>
<polygon fill="none" stroke="#bfbfbf" points="63,-6 63,-25 128,-25 128,-6 63,-6"/>
<text text-anchor="middle" x="95.5" y="-13" font-family="Helvetica,sans-Serif" font-size="10.00" fill="#000000">QVector3D</text>
</g>
<!-- Node0&#45;&gt;Node4 -->
<g id="edge4" class="edge">
<title>Node0&#45;&gt;Node4</title>
<path fill="none" stroke="#191970" d="M265.633,-139.5789C217.6919,-132.9463 136.3272,-118.9235 115.5,-98 99.0636,-81.4876 95.3002,-53.9087 94.8259,-35.2276"/>
<polygon fill="#191970" stroke="#191970" points="98.326,-35.179 94.8635,-25.1659 91.326,-35.1527 98.326,-35.179"/>
</g>
<!-- Node5 -->
<g id="node6" class="node">
<title>Node5</title>
<polygon fill="none" stroke="#bfbfbf" points="343.5,-73 343.5,-92 393.5,-92 393.5,-73 343.5,-73"/>
<text text-anchor="middle" x="368.5" y="-80" font-family="Helvetica,sans-Serif" font-size="10.00" fill="#000000">QString</text>
</g>
<!-- Node0&#45;&gt;Node5 -->
<g id="edge5" class="edge">
<title>Node0&#45;&gt;Node5</title>
<path fill="none" stroke="#191970" d="M311.9688,-134.3906C322.2337,-124.9683 338.0903,-110.4134 350.4006,-99.1137"/>
<polygon fill="#191970" stroke="#191970" points="352.8834,-101.5856 357.8837,-92.2449 348.1499,-96.4287 352.8834,-101.5856"/>
</g>
<!-- Node6 -->
<g id="node7" class="node">
<title>Node6</title>
<polygon fill="none" stroke="#bfbfbf" points="411.5,-73 411.5,-92 457.5,-92 457.5,-73 411.5,-73"/>
<text text-anchor="middle" x="434.5" y="-80" font-family="Helvetica,sans-Serif" font-size="10.00" fill="#000000">cnpy.h</text>
</g>
<!-- Node0&#45;&gt;Node6 -->
<g id="edge6" class="edge">
<title>Node0&#45;&gt;Node6</title>
<path fill="none" stroke="#191970" d="M322.8478,-134.4539C343.3365,-125.2503 375.121,-110.8635 402.5,-98 403.5057,-97.5275 404.5281,-97.0448 405.56,-96.5557"/>
<polygon fill="#191970" stroke="#191970" points="407.3959,-99.5573 414.9043,-92.0824 404.3733,-93.2435 407.3959,-99.5573"/>
</g>
<!-- Node7 -->
<g id="node8" class="node">
<title>Node7</title>
<polygon fill="none" stroke="#bfbfbf" points="476,-67.5 476,-97.5 617,-97.5 617,-67.5 476,-67.5"/>
<text text-anchor="start" x="484" y="-85.5" font-family="Helvetica,sans-Serif" font-size="10.00" fill="#000000">../external&#45;libraries</text>
<text text-anchor="middle" x="546.5" y="-74.5" font-family="Helvetica,sans-Serif" font-size="10.00" fill="#000000">/glm&#45;master/glm/mat3x3.hpp</text>
</g>
<!-- Node0&#45;&gt;Node7 -->
<g id="edge7" class="edge">
<title>Node0&#45;&gt;Node7</title>
<path fill="none" stroke="#191970" d="M337.1251,-135.0574C373.5997,-125.9015 431.2452,-111.4313 476.8234,-99.9902"/>
<polygon fill="#191970" stroke="#191970" points="477.8014,-103.3534 486.6483,-97.524 476.097,-96.5641 477.8014,-103.3534"/>
</g>
<!-- Node8 -->
<g id="node9" class="node">
<title>Node8</title>
<polygon fill="none" stroke="#bfbfbf" points="635.5,-67.5 635.5,-97.5 771.5,-97.5 771.5,-67.5 635.5,-67.5"/>
<text text-anchor="start" x="643.5" y="-85.5" font-family="Helvetica,sans-Serif" font-size="10.00" fill="#000000">../external&#45;libraries</text>
<text text-anchor="middle" x="703.5" y="-74.5" font-family="Helvetica,sans-Serif" font-size="10.00" fill="#000000">/glm&#45;master/glm/matrix.hpp</text>
</g>
<!-- Node0&#45;&gt;Node8 -->
<g id="edge8" class="edge">
<title>Node0&#45;&gt;Node8</title>
<path fill="none" stroke="#191970" d="M337.1929,-139.6367C395.3771,-132.3745 514.5004,-116.8837 625.1145,-98.1839"/>
<polygon fill="#191970" stroke="#191970" points="625.8345,-101.6118 635.1047,-96.4821 624.659,-94.7112 625.8345,-101.6118"/>
</g>
<!-- Node9 -->
<g id="node10" class="node">
<title>Node9</title>
<polygon fill="none" stroke="#bfbfbf" points="789.5,-67.5 789.5,-97.5 919.5,-97.5 919.5,-67.5 789.5,-67.5"/>
<text text-anchor="start" x="797.5" y="-85.5" font-family="Helvetica,sans-Serif" font-size="10.00" fill="#000000">../external&#45;libraries</text>
<text text-anchor="middle" x="854.5" y="-74.5" font-family="Helvetica,sans-Serif" font-size="10.00" fill="#000000">/glm&#45;master/glm/vec3.hpp</text>
</g>
<!-- Node0&#45;&gt;Node9 -->
<g id="edge9" class="edge">
<title>Node0&#45;&gt;Node9</title>
<path fill="none" stroke="#191970" d="M337.1197,-141.9333C415.3533,-137.1041 608.2017,-123.6158 779.2646,-98.0871"/>
<polygon fill="#191970" stroke="#191970" points="779.836,-101.5405 789.2013,-96.5867 778.7908,-94.619 779.836,-101.5405"/>
</g>
<!-- Node10 -->
<g id="node11" class="node">
<title>Node10</title>
<polygon fill="none" stroke="#bfbfbf" points="221,-.5 221,-30.5 328,-30.5 328,-.5 221,-.5"/>
<text text-anchor="start" x="229" y="-18.5" font-family="Helvetica,sans-Serif" font-size="10.00" fill="#000000">resources/colormaps</text>
<text text-anchor="middle" x="274.5" y="-7.5" font-family="Helvetica,sans-Serif" font-size="10.00" fill="#000000">_matplotlib.h</text>
</g>
<!-- Node0&#45;&gt;Node10 -->
<g id="edge10" class="edge">
<title>Node0&#45;&gt;Node10</title>
<path fill="none" stroke="#191970" d="M292.1382,-134.3788C284.3766,-125.6808 273.925,-112.1096 269.5,-98 263.6881,-79.4681 265.4196,-57.4703 268.3425,-40.852"/>
<polygon fill="#191970" stroke="#191970" points="271.8239,-41.293 270.3681,-30.7987 264.9618,-39.9104 271.8239,-41.293"/>
</g>
<!-- Node11 -->
<g id="node12" class="node">
<title>Node11</title>
<g id="a_node12"><a xlink:href="../../d1/db2/spheredepthdata_8h.html" target="_top" xlink:title="spheredepthdata.h">
<polygon fill="none" stroke="#000000" points="124,-73 124,-92 221,-92 221,-73 124,-73"/>
<text text-anchor="middle" x="172.5" y="-80" font-family="Helvetica,sans-Serif" font-size="10.00" fill="#000000">spheredepthdata.h</text>
</a>
</g>
</g>
<!-- Node0&#45;&gt;Node11 -->
<g id="edge11" class="edge">
<title>Node0&#45;&gt;Node11</title>
<path fill="none" stroke="#191970" d="M281.3438,-134.3906C259.949,-124.1908 225.938,-107.9763 201.6298,-96.3875"/>
<polygon fill="#191970" stroke="#191970" points="203.0476,-93.186 192.5147,-92.0419 200.0352,-99.5047 203.0476,-93.186"/>
</g>
<!-- Node11&#45;&gt;Node2 -->
<g id="edge12" class="edge">
<title>Node11&#45;&gt;Node2</title>
<path fill="none" stroke="#191970" d="M149.52,-72.9985C125.4294,-62.9346 86.5562,-46.4027 53.5,-31 52.491,-30.5298 51.4659,-30.0467 50.4324,-29.5549"/>
<polygon fill="#191970" stroke="#191970" points="51.6296,-26.2449 41.1068,-25.0117 48.5638,-32.5379 51.6296,-26.2449"/>
</g>
<!-- Node11&#45;&gt;Node4 -->
<g id="edge14" class="edge">
<title>Node11&#45;&gt;Node4</title>
<path fill="none" stroke="#191970" d="M161.4678,-72.9005C149.1172,-62.1539 128.8977,-44.5603 114.0943,-31.6794"/>
<polygon fill="#191970" stroke="#191970" points="116.3532,-29.0055 106.5118,-25.0817 111.7582,-34.2863 116.3532,-29.0055"/>
</g>
<!-- Node11&#45;&gt;Node10 -->
<g id="edge15" class="edge">
<title>Node11&#45;&gt;Node10</title>
<path fill="none" stroke="#191970" d="M187.1141,-72.9005C201.6658,-63.3421 224.4638,-48.3669 243.1252,-36.1089"/>
<polygon fill="#191970" stroke="#191970" points="245.1945,-38.9373 251.631,-30.5218 241.3513,-33.0866 245.1945,-38.9373"/>
</g>
<!-- Node12 -->
<g id="node13" class="node">
<title>Node12</title>
<polygon fill="none" stroke="#bfbfbf" points="146.5,-6 146.5,-25 202.5,-25 202.5,-6 146.5,-6"/>
<text text-anchor="middle" x="174.5" y="-13" font-family="Helvetica,sans-Serif" font-size="10.00" fill="#000000">algorithm</text>
</g>
<!-- Node11&#45;&gt;Node12 -->
<g id="edge13" class="edge">
<title>Node11&#45;&gt;Node12</title>
<path fill="none" stroke="#191970" d="M172.7866,-72.9005C173.0776,-63.149 173.537,-47.7597 173.9069,-35.3695"/>
<polygon fill="#191970" stroke="#191970" points="177.414,-35.1817 174.214,-25.0817 170.4171,-34.9727 177.414,-35.1817"/>
</g>
</g>
</svg>
