<?xml version="1.0" encoding="UTF-8" standalone="no"?>
<!DOCTYPE svg PUBLIC "-//W3C//DTD SVG 1.1//EN"
 "http://www.w3.org/Graphics/SVG/1.1/DTD/svg11.dtd">
<!-- Generated by graphviz version 2.40.1 (20161225.0304)
 -->
<!-- Title: mainwindow.h Pages: 1 -->
<!--zoomable 274 -->
<svg id="main" version="1.1" xmlns="http://www.w3.org/2000/svg" xmlns:xlink="http://www.w3.org/1999/xlink" xml:space="preserve" onload="init(evt)">
<style type="text/css"><![CDATA[
.edge:hover path { stroke: red; }
.edge:hover polygon { stroke: red; fill: red; }
]]></style>
<script type="text/javascript"><![CDATA[
var edges = document.getElementsByTagName('g');
if (edges && edges.length) {
  for (var i=0;i<edges.length;i++) {
    if (edges[i].id.substr(0,4)=='edge') {
      edges[i].setAttribute('class','edge');
    }
  }
}
]]></script>
        <defs>
                <circle id="rim" cx="0" cy="0" r="7"/>
                <circle id="rim2" cx="0" cy="0" r="3.5"/>
                <g id="zoomPlus">
                        <use xlink:href="#rim" fill="#404040">
                                <set attributeName="fill" to="#808080" begin="zoomplus.mouseover" end="zoomplus.mouseout"/>
                        </use>
                        <path d="M-4,0h8M0,-4v8" fill="none" stroke="white" stroke-width="1.5" pointer-events="none"/>
                </g>
                <g id="zoomMin">
                        <use xlink:href="#rim" fill="#404040">
                                <set attributeName="fill" to="#808080" begin="zoomminus.mouseover" end="zoomminus.mouseout"/>
                        </use>
                        <path d="M-4,0h8" fill="none" stroke="white" stroke-width="1.5" pointer-events="none"/>
                </g>
                <g id="dirArrow">
                        <path fill="none" stroke="white" stroke-width="1.5" d="M0,-3.0v7 M-2.5,-0.5L0,-3.0L2.5,-0.5"/>
                </g>
               <g id="resetDef">
                       <use xlink:href="#rim2" fill="#404040">
                               <set attributeName="fill" to="#808080" begin="reset.mouseover" end="reset.mouseout"/>
                       </use>
               </g>
        </defs>

<script type="text/javascript">
var viewWidth = 1239;
var viewHeight = 274;
var sectionId = 'dynsection-0';
</script>
<script xlink:href="../../svgpan.js"/>
<svg id="graph" class="graph">
<g id="viewport">
<title>mainwindow.h</title>
<!-- Node0 -->
<g id="node1" class="node">
<title>Node0</title>
<polygon fill="#bfbfbf" stroke="#000000" points="603,-246.5 603,-265.5 682,-265.5 682,-246.5 603,-246.5"/>
<text text-anchor="middle" x="642.5" y="-253.5" font-family="Helvetica,sans-Serif" font-size="10.00" fill="#000000">mainwindow.h</text>
</g>
<!-- Node1 -->
<g id="node2" class="node">
<title>Node1</title>
<polygon fill="none" stroke="#bfbfbf" points="0,-.5 0,-30.5 107,-30.5 107,-.5 0,-.5"/>
<text text-anchor="start" x="8" y="-18.5" font-family="Helvetica,sans-Serif" font-size="10.00" fill="#000000">resources/colormaps</text>
<text text-anchor="middle" x="53.5" y="-7.5" font-family="Helvetica,sans-Serif" font-size="10.00" fill="#000000">_matplotlib.h</text>
</g>
<!-- Node0&#45;&gt;Node1 -->
<g id="edge1" class="edge">
<title>Node0&#45;&gt;Node1</title>
<path fill="none" stroke="#191970" d="M602.5955,-251.1491C482.787,-235.7173 130.1191,-183.6739 59.5,-98 46.5801,-82.3259 46.1056,-58.7868 48.2679,-40.8588"/>
<polygon fill="#191970" stroke="#191970" points="51.7544,-41.2145 49.8192,-30.7979 44.8361,-40.1477 51.7544,-41.2145"/>
</g>
<!-- Node2 -->
<g id="node3" class="node">
<title>Node2</title>
<polygon fill="none" stroke="#bfbfbf" points="880.5,-190.5 880.5,-209.5 960.5,-209.5 960.5,-190.5 880.5,-190.5"/>
<text text-anchor="middle" x="920.5" y="-197.5" font-family="Helvetica,sans-Serif" font-size="10.00" fill="#000000">QMainWindow</text>
</g>
<!-- Node0&#45;&gt;Node2 -->
<g id="edge2" class="edge">
<title>Node0&#45;&gt;Node2</title>
<path fill="none" stroke="#191970" d="M682.2226,-248.0594C725.8464,-239.3304 798.2517,-224.8171 870.2388,-210.2511"/>
<polygon fill="#191970" stroke="#191970" points="871.284,-213.6106 880.3907,-208.196 869.8951,-206.7498 871.284,-213.6106"/>
</g>
<!-- Node3 -->
<g id="node4" class="node">
<title>Node3</title>
<polygon fill="none" stroke="#bfbfbf" points="597,-134.5 597,-153.5 688,-153.5 688,-134.5 597,-134.5"/>
<text text-anchor="middle" x="642.5" y="-141.5" font-family="Helvetica,sans-Serif" font-size="10.00" fill="#000000">QOpenGLWidget</text>
</g>
<!-- Node0&#45;&gt;Node3 -->
<g id="edge3" class="edge">
<title>Node0&#45;&gt;Node3</title>
<path fill="none" stroke="#191970" d="M642.5,-246.4509C642.5,-228.184 642.5,-187.9553 642.5,-163.6976"/>
<polygon fill="#191970" stroke="#191970" points="646.0001,-163.5249 642.5,-153.5249 639.0001,-163.5249 646.0001,-163.5249"/>
</g>
<!-- Node4 -->
<g id="node5" class="node">
<title>Node4</title>
<g id="a_node5"><a xlink:href="../../d8/db9/spherewidget_8h.html" target="_top" xlink:title="spherewidget.h">
<polygon fill="none" stroke="#000000" points="779,-190.5 779,-209.5 862,-209.5 862,-190.5 779,-190.5"/>
<text text-anchor="middle" x="820.5" y="-197.5" font-family="Helvetica,sans-Serif" font-size="10.00" fill="#000000">spherewidget.h</text>
</a>
</g>
</g>
<!-- Node0&#45;&gt;Node4 -->
<g id="edge4" class="edge">
<title>Node0&#45;&gt;Node4</title>
<path fill="none" stroke="#191970" d="M673.0993,-246.3733C702.8261,-237.021 748.1159,-222.7725 780.6456,-212.5385"/>
<polygon fill="#191970" stroke="#191970" points="781.8113,-215.8409 790.3,-209.5011 779.7105,-209.1636 781.8113,-215.8409"/>
</g>
<!-- Node11 -->
<g id="node12" class="node">
<title>Node11</title>
<g id="a_node12"><a xlink:href="../../db/d32/renderdata_8h.html" target="_top" xlink:title="renderdata.h">
<polygon fill="none" stroke="#000000" points="508,-134.5 508,-153.5 579,-153.5 579,-134.5 508,-134.5"/>
<text text-anchor="middle" x="543.5" y="-141.5" font-family="Helvetica,sans-Serif" font-size="10.00" fill="#000000">renderdata.h</text>
</a>
</g>
</g>
<!-- Node0&#45;&gt;Node11 -->
<g id="edge29" class="edge">
<title>Node0&#45;&gt;Node11</title>
<path fill="none" stroke="#191970" d="M634.0593,-246.4509C617.3281,-227.5227 579.7535,-185.014 558.6398,-161.1279"/>
<polygon fill="#191970" stroke="#191970" points="561.1646,-158.6994 551.9193,-153.5249 555.9198,-163.3354 561.1646,-158.6994"/>
</g>
<!-- Node4&#45;&gt;Node3 -->
<g id="edge5" class="edge">
<title>Node4&#45;&gt;Node3</title>
<path fill="none" stroke="#191970" d="M789.9007,-190.3733C760.1739,-181.021 714.8841,-166.7725 682.3544,-156.5385"/>
<polygon fill="#191970" stroke="#191970" points="683.2895,-153.1636 672.7,-153.5011 681.1887,-159.8409 683.2895,-153.1636"/>
</g>
<!-- Node5 -->
<g id="node6" class="node">
<title>Node5</title>
<polygon fill="none" stroke="#bfbfbf" points="1031,-134.5 1031,-153.5 1134,-153.5 1134,-134.5 1031,-134.5"/>
<text text-anchor="middle" x="1082.5" y="-141.5" font-family="Helvetica,sans-Serif" font-size="10.00" fill="#000000">QOpenGLFunctions</text>
</g>
<!-- Node4&#45;&gt;Node5 -->
<g id="edge6" class="edge">
<title>Node4&#45;&gt;Node5</title>
<path fill="none" stroke="#191970" d="M862.0147,-191.1266C906.8316,-181.5474 978.415,-166.2472 1027.796,-155.6925"/>
<polygon fill="#191970" stroke="#191970" points="1028.6225,-159.095 1037.67,-153.582 1027.1593,-152.2496 1028.6225,-159.095"/>
</g>
<!-- Node6 -->
<g id="node7" class="node">
<title>Node6</title>
<polygon fill="none" stroke="#bfbfbf" points="1152,-134.5 1152,-153.5 1231,-153.5 1231,-134.5 1152,-134.5"/>
<text text-anchor="middle" x="1191.5" y="-141.5" font-family="Helvetica,sans-Serif" font-size="10.00" fill="#000000">QMouseEvent</text>
</g>
<!-- Node4&#45;&gt;Node6 -->
<g id="edge7" class="edge">
<title>Node4&#45;&gt;Node6</title>
<path fill="none" stroke="#191970" d="M862.2105,-191.6028C865.35,-191.0377 868.4727,-190.4966 871.5,-190 988.6617,-170.7792 1021.5635,-174.245 1142.0097,-154.1568"/>
<polygon fill="#191970" stroke="#191970" points="1142.7132,-157.5876 1151.9912,-152.472 1141.5481,-150.6853 1142.7132,-157.5876"/>
</g>
<!-- Node7 -->
<g id="node8" class="node">
<title>Node7</title>
<polygon fill="none" stroke="#bfbfbf" points="706.5,-134.5 706.5,-153.5 792.5,-153.5 792.5,-134.5 706.5,-134.5"/>
<text text-anchor="middle" x="749.5" y="-141.5" font-family="Helvetica,sans-Serif" font-size="10.00" fill="#000000">QOpenGLBuffer</text>
</g>
<!-- Node4&#45;&gt;Node7 -->
<g id="edge8" class="edge">
<title>Node4&#45;&gt;Node7</title>
<path fill="none" stroke="#191970" d="M808.1327,-190.2455C797.5446,-181.8943 782.0936,-169.7076 769.7107,-159.9408"/>
<polygon fill="#191970" stroke="#191970" points="771.7447,-157.0875 761.7255,-153.6427 767.4097,-162.5837 771.7447,-157.0875"/>
</g>
<!-- Node8 -->
<g id="node9" class="node">
<title>Node8</title>
<polygon fill="none" stroke="#bfbfbf" points="876.5,-6 876.5,-25 920.5,-25 920.5,-6 876.5,-6"/>
<text text-anchor="middle" x="898.5" y="-13" font-family="Helvetica,sans-Serif" font-size="10.00" fill="#000000">vector</text>
</g>
<!-- Node4&#45;&gt;Node8 -->
<g id="edge9" class="edge">
<title>Node4&#45;&gt;Node8</title>
<path fill="none" stroke="#191970" d="M862.3985,-190.9211C908.1779,-180.5805 976.0471,-163.8472 983.5,-154 1006.8349,-123.1683 1002.4784,-100.6887 983.5,-67 972.1777,-46.9017 949.4984,-33.7497 930.4125,-25.7703"/>
<polygon fill="#191970" stroke="#191970" points="931.4275,-22.4101 920.8385,-22.0598 928.8979,-28.9371 931.4275,-22.4101"/>
</g>
<!-- Node9 -->
<g id="node10" class="node">
<title>Node9</title>
<polygon fill="none" stroke="#bfbfbf" points="927,-73 927,-92 974,-92 974,-73 927,-73"/>
<text text-anchor="middle" x="950.5" y="-80" font-family="Helvetica,sans-Serif" font-size="10.00" fill="#000000">math.h</text>
</g>
<!-- Node4&#45;&gt;Node9 -->
<g id="edge10" class="edge">
<title>Node4&#45;&gt;Node9</title>
<path fill="none" stroke="#191970" d="M821.0117,-190.3111C822.2367,-176.3035 826.3938,-150.2932 840.5,-134 846.0266,-127.6166 887.6957,-109.0618 918.1191,-96.0643"/>
<polygon fill="#191970" stroke="#191970" points="919.7057,-99.193 927.5415,-92.0621 916.9691,-92.7501 919.7057,-99.193"/>
</g>
<!-- Node10 -->
<g id="node11" class="node">
<title>Node10</title>
<polygon fill="none" stroke="#bfbfbf" points="849,-134.5 849,-153.5 902,-153.5 902,-134.5 849,-134.5"/>
<text text-anchor="middle" x="875.5" y="-141.5" font-family="Helvetica,sans-Serif" font-size="10.00" fill="#000000">GL/glu.h</text>
</g>
<!-- Node4&#45;&gt;Node10 -->
<g id="edge11" class="edge">
<title>Node4&#45;&gt;Node10</title>
<path fill="none" stroke="#191970" d="M830.0803,-190.2455C838.0458,-182.1352 849.5641,-170.4075 859.0079,-160.7919"/>
<polygon fill="#191970" stroke="#191970" points="861.5195,-163.2297 866.0295,-153.6427 856.5253,-158.3247 861.5195,-163.2297"/>
</g>
<!-- Node4&#45;&gt;Node11 -->
<g id="edge12" class="edge">
<title>Node4&#45;&gt;Node11</title>
<path fill="none" stroke="#191970" d="M778.758,-192.1315C734.1729,-183.6443 661.1807,-169.5134 589.1733,-154.3158"/>
<polygon fill="#191970" stroke="#191970" points="589.5307,-150.8139 579.0224,-152.1648 588.0796,-157.6618 589.5307,-150.8139"/>
</g>
<!-- Node21 -->
<g id="node22" class="node">
<title>Node21</title>
<polygon fill="none" stroke="#bfbfbf" points="920.5,-134.5 920.5,-153.5 974.5,-153.5 974.5,-134.5 920.5,-134.5"/>
<text text-anchor="middle" x="947.5" y="-141.5" font-family="Helvetica,sans-Serif" font-size="10.00" fill="#000000">iostream</text>
</g>
<!-- Node4&#45;&gt;Node21 -->
<g id="edge28" class="edge">
<title>Node4&#45;&gt;Node21</title>
<path fill="none" stroke="#191970" d="M842.3321,-190.3733C862.8103,-181.3435 893.6399,-167.7494 916.6319,-157.6111"/>
<polygon fill="#191970" stroke="#191970" points="918.215,-160.7383 925.9528,-153.5011 915.3907,-154.3333 918.215,-160.7383"/>
</g>
<!-- Node11&#45;&gt;Node1 -->
<g id="edge22" class="edge">
<title>Node11&#45;&gt;Node1</title>
<path fill="none" stroke="#191970" d="M507.9586,-142.5766C406.0291,-138.2005 117.8678,-123.6637 84.5,-98 66.8783,-84.4469 59.2735,-59.7036 55.9916,-40.8377"/>
<polygon fill="#191970" stroke="#191970" points="59.4364,-40.2029 54.5462,-30.8042 52.5079,-41.2011 59.4364,-40.2029"/>
</g>
<!-- Node11&#45;&gt;Node8 -->
<g id="edge14" class="edge">
<title>Node11&#45;&gt;Node8</title>
<path fill="none" stroke="#191970" d="M579.4626,-135.5393C582.1765,-134.989 584.8781,-134.4685 587.5,-134 648.1715,-123.1587 813.2404,-135.0413 862.5,-98 882.5464,-82.9259 891.607,-54.325 895.5774,-35.0838"/>
<polygon fill="#191970" stroke="#191970" points="899.0639,-35.4683 897.3714,-25.0095 892.1723,-34.241 899.0639,-35.4683"/>
</g>
<!-- Node11&#45;&gt;Node9 -->
<g id="edge15" class="edge">
<title>Node11&#45;&gt;Node9</title>
<path fill="none" stroke="#191970" d="M579.4524,-135.4805C582.1686,-134.9438 584.8736,-134.4425 587.5,-134 730.8085,-109.8575 771.6472,-133.7866 912.5,-98 915.1284,-97.3322 917.8153,-96.5203 920.4851,-95.622"/>
<polygon fill="#191970" stroke="#191970" points="921.7988,-98.8676 929.9445,-92.0928 919.3519,-92.3092 921.7988,-98.8676"/>
</g>
<!-- Node12 -->
<g id="node13" class="node">
<title>Node12</title>
<polygon fill="none" stroke="#bfbfbf" points="209,-73 209,-92 238,-92 238,-73 209,-73"/>
<text text-anchor="middle" x="223.5" y="-80" font-family="Helvetica,sans-Serif" font-size="10.00" fill="#000000">list</text>
</g>
<!-- Node11&#45;&gt;Node12 -->
<g id="edge13" class="edge">
<title>Node11&#45;&gt;Node12</title>
<path fill="none" stroke="#191970" d="M507.8573,-140.343C439.9468,-133.0673 294.5831,-115.9271 247.5,-98 246.6482,-97.6757 245.7951,-97.3181 244.9452,-96.9336"/>
<polygon fill="#191970" stroke="#191970" points="246.6154,-93.8578 236.1707,-92.0809 243.2277,-99.9834 246.6154,-93.8578"/>
</g>
<!-- Node13 -->
<g id="node14" class="node">
<title>Node13</title>
<polygon fill="none" stroke="#bfbfbf" points="491,-6 491,-25 556,-25 556,-6 491,-6"/>
<text text-anchor="middle" x="523.5" y="-13" font-family="Helvetica,sans-Serif" font-size="10.00" fill="#000000">QVector3D</text>
</g>
<!-- Node11&#45;&gt;Node13 -->
<g id="edge16" class="edge">
<title>Node11&#45;&gt;Node13</title>
<path fill="none" stroke="#191970" d="M579.4683,-135.5707C582.1809,-135.0131 584.8806,-134.4824 587.5,-134 702.3191,-112.853 917.1688,-155.9092 841.5,-67 823.8369,-46.2462 648.7255,-27.2409 566.1615,-19.3525"/>
<polygon fill="#191970" stroke="#191970" points="566.3799,-15.8577 556.0951,-18.4021 565.7218,-22.8267 566.3799,-15.8577"/>
</g>
<!-- Node14 -->
<g id="node15" class="node">
<title>Node14</title>
<polygon fill="none" stroke="#bfbfbf" points="256.5,-73 256.5,-92 306.5,-92 306.5,-73 256.5,-73"/>
<text text-anchor="middle" x="281.5" y="-80" font-family="Helvetica,sans-Serif" font-size="10.00" fill="#000000">QString</text>
</g>
<!-- Node11&#45;&gt;Node14 -->
<g id="edge17" class="edge">
<title>Node11&#45;&gt;Node14</title>
<path fill="none" stroke="#191970" d="M507.7032,-139.3651C462.249,-132.8954 381.764,-119.4755 315.5,-98 313.6486,-97.4 311.7643,-96.7277 309.88,-96.0084"/>
<polygon fill="#191970" stroke="#191970" points="311.1901,-92.7626 300.6138,-92.1362 308.4911,-99.2214 311.1901,-92.7626"/>
</g>
<!-- Node15 -->
<g id="node16" class="node">
<title>Node15</title>
<polygon fill="none" stroke="#bfbfbf" points="324.5,-73 324.5,-92 370.5,-92 370.5,-73 324.5,-73"/>
<text text-anchor="middle" x="347.5" y="-80" font-family="Helvetica,sans-Serif" font-size="10.00" fill="#000000">cnpy.h</text>
</g>
<!-- Node11&#45;&gt;Node15 -->
<g id="edge18" class="edge">
<title>Node11&#45;&gt;Node15</title>
<path fill="none" stroke="#191970" d="M507.7235,-135.9102C474.1,-127.8538 422.6367,-114.3485 379.5,-98 378.093,-97.4668 376.6638,-96.8945 375.2295,-96.2956"/>
<polygon fill="#191970" stroke="#191970" points="376.4237,-92.995 365.868,-92.0852 373.5523,-99.3791 376.4237,-92.995"/>
</g>
<!-- Node16 -->
<g id="node17" class="node">
<title>Node16</title>
<polygon fill="none" stroke="#bfbfbf" points="389,-67.5 389,-97.5 530,-97.5 530,-67.5 389,-67.5"/>
<text text-anchor="start" x="397" y="-85.5" font-family="Helvetica,sans-Serif" font-size="10.00" fill="#000000">../external&#45;libraries</text>
<text text-anchor="middle" x="459.5" y="-74.5" font-family="Helvetica,sans-Serif" font-size="10.00" fill="#000000">/glm&#45;master/glm/mat3x3.hpp</text>
</g>
<!-- Node11&#45;&gt;Node16 -->
<g id="edge19" class="edge">
<title>Node11&#45;&gt;Node16</title>
<path fill="none" stroke="#191970" d="M530.375,-134.3906C519.1119,-126.1444 502.4791,-113.9669 488.1566,-103.4807"/>
<polygon fill="#191970" stroke="#191970" points="490.185,-100.628 480.0487,-97.5446 486.0498,-106.276 490.185,-100.628"/>
</g>
<!-- Node17 -->
<g id="node18" class="node">
<title>Node17</title>
<polygon fill="none" stroke="#bfbfbf" points="548.5,-67.5 548.5,-97.5 684.5,-97.5 684.5,-67.5 548.5,-67.5"/>
<text text-anchor="start" x="556.5" y="-85.5" font-family="Helvetica,sans-Serif" font-size="10.00" fill="#000000">../external&#45;libraries</text>
<text text-anchor="middle" x="616.5" y="-74.5" font-family="Helvetica,sans-Serif" font-size="10.00" fill="#000000">/glm&#45;master/glm/matrix.hpp</text>
</g>
<!-- Node11&#45;&gt;Node17 -->
<g id="edge20" class="edge">
<title>Node11&#45;&gt;Node17</title>
<path fill="none" stroke="#191970" d="M554.9063,-134.3906C564.5115,-126.2986 578.6104,-114.4207 590.896,-104.0705"/>
<polygon fill="#191970" stroke="#191970" points="593.2495,-106.6643 598.6422,-97.5446 588.7394,-101.3109 593.2495,-106.6643"/>
</g>
<!-- Node18 -->
<g id="node19" class="node">
<title>Node18</title>
<polygon fill="none" stroke="#bfbfbf" points="702.5,-67.5 702.5,-97.5 832.5,-97.5 832.5,-67.5 702.5,-67.5"/>
<text text-anchor="start" x="710.5" y="-85.5" font-family="Helvetica,sans-Serif" font-size="10.00" fill="#000000">../external&#45;libraries</text>
<text text-anchor="middle" x="767.5" y="-74.5" font-family="Helvetica,sans-Serif" font-size="10.00" fill="#000000">/glm&#45;master/glm/vec3.hpp</text>
</g>
<!-- Node11&#45;&gt;Node18 -->
<g id="edge21" class="edge">
<title>Node11&#45;&gt;Node18</title>
<path fill="none" stroke="#191970" d="M578.5,-134.3906C611.6929,-125.2774 662.3741,-111.3627 702.9013,-100.2358"/>
<polygon fill="#191970" stroke="#191970" points="703.987,-103.5673 712.7034,-97.5446 702.1336,-96.8171 703.987,-103.5673"/>
</g>
<!-- Node19 -->
<g id="node20" class="node">
<title>Node19</title>
<g id="a_node20"><a xlink:href="../../d1/db2/spheredepthdata_8h.html" target="_top" xlink:title="spheredepthdata.h">
<polygon fill="none" stroke="#000000" points="94,-73 94,-92 191,-92 191,-73 94,-73"/>
<text text-anchor="middle" x="142.5" y="-80" font-family="Helvetica,sans-Serif" font-size="10.00" fill="#000000">spheredepthdata.h</text>
</a>
</g>
</g>
<!-- Node11&#45;&gt;Node19 -->
<g id="edge23" class="edge">
<title>Node11&#45;&gt;Node19</title>
<path fill="none" stroke="#191970" d="M507.5846,-140.7805C444.7198,-134.7938 310.832,-120.4778 199.5,-98 194.5382,-96.9982 189.3708,-95.8065 184.2615,-94.5354"/>
<polygon fill="#191970" stroke="#191970" points="185.1355,-91.1463 174.577,-92.0221 183.3771,-97.9219 185.1355,-91.1463"/>
</g>
<!-- Node19&#45;&gt;Node1 -->
<g id="edge27" class="edge">
<title>Node19&#45;&gt;Node1</title>
<path fill="none" stroke="#191970" d="M129.7485,-72.9005C117.2238,-63.4718 97.6978,-48.7725 81.5411,-36.6096"/>
<polygon fill="#191970" stroke="#191970" points="83.5486,-33.7399 73.4543,-30.5218 79.3385,-39.3324 83.5486,-33.7399"/>
</g>
<!-- Node19&#45;&gt;Node8 -->
<g id="edge24" class="edge">
<title>Node19&#45;&gt;Node8</title>
<path fill="none" stroke="#191970" d="M173.3204,-72.9602C181.7377,-70.6735 190.9081,-68.4707 199.5,-67 330.3462,-44.6031 745.9151,-22.9736 865.8207,-17.0728"/>
<polygon fill="#191970" stroke="#191970" points="866.3514,-20.5511 876.1684,-16.5666 866.0093,-13.5595 866.3514,-20.5511"/>
</g>
<!-- Node19&#45;&gt;Node13 -->
<g id="edge26" class="edge">
<title>Node19&#45;&gt;Node13</title>
<path fill="none" stroke="#191970" d="M175.2062,-72.9571C183.1187,-70.8286 191.579,-68.7013 199.5,-67 299.2544,-45.5742 418.0498,-28.9168 480.3931,-20.8456"/>
<polygon fill="#191970" stroke="#191970" points="481.1585,-24.2761 490.6316,-19.5317 480.2675,-17.3331 481.1585,-24.2761"/>
</g>
<!-- Node20 -->
<g id="node21" class="node">
<title>Node20</title>
<polygon fill="none" stroke="#bfbfbf" points="125.5,-6 125.5,-25 181.5,-25 181.5,-6 125.5,-6"/>
<text text-anchor="middle" x="153.5" y="-13" font-family="Helvetica,sans-Serif" font-size="10.00" fill="#000000">algorithm</text>
</g>
<!-- Node19&#45;&gt;Node20 -->
<g id="edge25" class="edge">
<title>Node19&#45;&gt;Node20</title>
<path fill="none" stroke="#191970" d="M144.076,-72.9005C145.6934,-63.0495 148.2553,-47.4451 150.3,-34.9912"/>
<polygon fill="#191970" stroke="#191970" points="153.7605,-35.5166 151.9269,-25.0817 146.8529,-34.3825 153.7605,-35.5166"/>
</g>
</g>
</svg>
        <g id="navigator" transform="translate(0 0)" fill="#404254">
                <rect fill="#f2f5e9" fill-opacity="0.5" stroke="#606060" stroke-width=".5" x="0" y="0" width="60" height="60"/>
                <use id="zoomplus" xlink:href="#zoomPlus" x="17" y="9" onmousedown="handleZoom(evt,'in')"/>
                <use id="zoomminus" xlink:href="#zoomMin" x="42" y="9" onmousedown="handleZoom(evt,'out')"/>
                <use id="reset" xlink:href="#resetDef" x="30" y="36" onmousedown="handleReset()"/>
                <g id="arrowUp" xlink:href="#dirArrow" transform="translate(30 24)" onmousedown="handlePan(0,-1)">
                  <use xlink:href="#rim" fill="#404040">
                        <set attributeName="fill" to="#808080" begin="arrowUp.mouseover" end="arrowUp.mouseout"/>
                  </use>
                  <path fill="none" stroke="white" stroke-width="1.5" d="M0,-3.0v7 M-2.5,-0.5L0,-3.0L2.5,-0.5"/>
                </g>
                <g id="arrowRight" xlink:href="#dirArrow" transform="rotate(90) translate(36 -43)" onmousedown="handlePan(1,0)">
                  <use xlink:href="#rim" fill="#404040">
                        <set attributeName="fill" to="#808080" begin="arrowRight.mouseover" end="arrowRight.mouseout"/>
                  </use>
                  <path fill="none" stroke="white" stroke-width="1.5" d="M0,-3.0v7 M-2.5,-0.5L0,-3.0L2.5,-0.5"/>
                </g>
                <g id="arrowDown" xlink:href="#dirArrow" transform="rotate(180) translate(-30 -48)" onmousedown="handlePan(0,1)">
                  <use xlink:href="#rim" fill="#404040">
                        <set attributeName="fill" to="#808080" begin="arrowDown.mouseover" end="arrowDown.mouseout"/>
                  </use>
                  <path fill="none" stroke="white" stroke-width="1.5" d="M0,-3.0v7 M-2.5,-0.5L0,-3.0L2.5,-0.5"/>
                </g>
                <g id="arrowLeft" xlink:href="#dirArrow" transform="rotate(270) translate(-36 17)" onmousedown="handlePan(-1,0)">
                  <use xlink:href="#rim" fill="#404040">
                        <set attributeName="fill" to="#808080" begin="arrowLeft.mouseover" end="arrowLeft.mouseout"/>
                  </use>
                  <path fill="none" stroke="white" stroke-width="1.5" d="M0,-3.0v7 M-2.5,-0.5L0,-3.0L2.5,-0.5"/>
                </g>
        </g>
        <svg viewBox="0 0 15 15" width="100%" height="30px" preserveAspectRatio="xMaxYMin meet">
         <g id="arrow_out" transform="scale(0.3 0.3)">
          <a xlink:href="mainwindow_8h__incl_org.svg" target="_base">
           <rect id="button" ry="5" rx="5" y="6" x="6" height="38" width="38"
                fill="#f2f5e9" fill-opacity="0.5" stroke="#606060" stroke-width="1.0"/>
           <path id="arrow"
             d="M 11.500037,31.436501 C 11.940474,20.09759 22.043105,11.32322 32.158766,21.979434 L 37.068811,17.246167 C 37.068811,17.246167 37.088388,32 37.088388,32 L 22.160133,31.978069 C 22.160133,31.978069 26.997745,27.140456 26.997745,27.140456 C 18.528582,18.264221 13.291696,25.230495 11.500037,31.436501 z"
             style="fill:#404040;"/>
          </a>
         </g>
        </svg>
</svg>
