<?xml version="1.0" encoding="UTF-8" standalone="no"?>
<!DOCTYPE svg PUBLIC "-//W3C//DTD SVG 1.1//EN"
 "http://www.w3.org/Graphics/SVG/1.1/DTD/svg11.dtd">
<!-- Generated by graphviz version 2.40.1 (20161225.0304)
 -->
<!-- Title: RenderData Pages: 1 -->
<svg width="541pt" height="369pt"
 viewBox="0.00 0.00 541.00 369.00" xmlns="http://www.w3.org/2000/svg" xmlns:xlink="http://www.w3.org/1999/xlink">
<g id="graph0" class="graph" transform="scale(1 1) rotate(0) translate(4 365)">
<title>RenderData</title>
<!-- Node1 -->
<g id="node1" class="node">
<title>Node1</title>
<polygon fill="#bfbfbf" stroke="#000000" points="157.5,-.5 157.5,-244.5 332.5,-244.5 332.5,-.5 157.5,-.5"/>
<text text-anchor="middle" x="245" y="-232.5" font-family="Helvetica,sans-Serif" font-size="10.00" fill="#000000">RenderData</text>
<polyline fill="none" stroke="#000000" points="157.5,-225.5 332.5,-225.5 "/>
<text text-anchor="middle" x="245" y="-213.5" font-family="Helvetica,sans-Serif" font-size="10.00" fill="#000000"> </text>
<polyline fill="none" stroke="#000000" points="157.5,-206.5 332.5,-206.5 "/>
<text text-anchor="start" x="165.5" y="-194.5" font-family="Helvetica,sans-Serif" font-size="10.00" fill="#000000">+ getColorsForTriangles()</text>
<text text-anchor="start" x="165.5" y="-183.5" font-family="Helvetica,sans-Serif" font-size="10.00" fill="#000000">+ getPointsAsVector()</text>
<text text-anchor="start" x="165.5" y="-172.5" font-family="Helvetica,sans-Serif" font-size="10.00" fill="#000000">+ getVerticesAtCurrentDepth()</text>
<text text-anchor="start" x="165.5" y="-161.5" font-family="Helvetica,sans-Serif" font-size="10.00" fill="#000000">+ setSphereDepth()</text>
<text text-anchor="start" x="165.5" y="-150.5" font-family="Helvetica,sans-Serif" font-size="10.00" fill="#000000">+ setColorMap()</text>
<text text-anchor="start" x="165.5" y="-139.5" font-family="Helvetica,sans-Serif" font-size="10.00" fill="#000000">+ loadPointsFromFile()</text>
<text text-anchor="start" x="165.5" y="-128.5" font-family="Helvetica,sans-Serif" font-size="10.00" fill="#000000">+ getInstance()</text>
<text text-anchor="start" x="165.5" y="-117.5" font-family="Helvetica,sans-Serif" font-size="10.00" fill="#000000">&#45; RenderData()</text>
<text text-anchor="start" x="165.5" y="-106.5" font-family="Helvetica,sans-Serif" font-size="10.00" fill="#000000">&#45; RenderData()</text>
<text text-anchor="start" x="165.5" y="-95.5" font-family="Helvetica,sans-Serif" font-size="10.00" fill="#000000">&#45; generateIcosahedronAtDepthZero()</text>
<text text-anchor="start" x="165.5" y="-84.5" font-family="Helvetica,sans-Serif" font-size="10.00" fill="#000000">&#45; calculateNextSubdivision()</text>
<text text-anchor="start" x="165.5" y="-73.5" font-family="Helvetica,sans-Serif" font-size="10.00" fill="#000000">&#45; filterPointsForTriangle()</text>
<text text-anchor="start" x="165.5" y="-62.5" font-family="Helvetica,sans-Serif" font-size="10.00" fill="#000000">&#45; getTransformationMatrix()</text>
<text text-anchor="start" x="165.5" y="-51.5" font-family="Helvetica,sans-Serif" font-size="10.00" fill="#000000">&#45; insertTriangleIntoVertices</text>
<text text-anchor="start" x="165.5" y="-40.5" font-family="Helvetica,sans-Serif" font-size="10.00" fill="#000000">Vector()</text>
<text text-anchor="start" x="165.5" y="-29.5" font-family="Helvetica,sans-Serif" font-size="10.00" fill="#000000">&#45; normalize()</text>
<text text-anchor="start" x="165.5" y="-18.5" font-family="Helvetica,sans-Serif" font-size="10.00" fill="#000000">&#45; pointInFirstQuadrantAfter</text>
<text text-anchor="start" x="165.5" y="-7.5" font-family="Helvetica,sans-Serif" font-size="10.00" fill="#000000">Transformation()</text>
</g>
<!-- Node1&#45;&gt;Node1 -->
<g id="edge4" class="edge">
<title>Node1&#45;&gt;Node1</title>
<path fill="none" stroke="#404040" d="M332.718,-146.1841C343.4587,-141.9435 350.5,-134.0488 350.5,-122.5 350.5,-115.282 347.7495,-109.4914 343.0644,-105.1281"/>
<polygon fill="none" stroke="#404040" points="342.9621,-105.0657 335.7568,-105.3555 332.718,-98.8159 339.9233,-98.5261 342.9621,-105.0657"/>
<text text-anchor="middle" x="375" y="-120" font-family="Helvetica,sans-Serif" font-size="10.00" fill="#000000"> &#45;_instance</text>
</g>
<!-- Node2 -->
<g id="node2" class="node">
<title>Node2</title>
<polygon fill="none" stroke="#bfbfbf" points="0,-298 0,-355 140,-355 140,-298 0,-298"/>
<text text-anchor="middle" x="70" y="-343" font-family="Helvetica,sans-Serif" font-size="10.00" fill="#000000">vector&lt; SphereDepthData &gt;</text>
<polyline fill="none" stroke="#bfbfbf" points="0,-336 140,-336 "/>
<text text-anchor="middle" x="70" y="-324" font-family="Helvetica,sans-Serif" font-size="10.00" fill="#000000"> </text>
<polyline fill="none" stroke="#bfbfbf" points="0,-317 140,-317 "/>
<text text-anchor="middle" x="70" y="-305" font-family="Helvetica,sans-Serif" font-size="10.00" fill="#000000"> </text>
</g>
<!-- Node2&#45;&gt;Node1 -->
<g id="edge1" class="edge">
<title>Node2&#45;&gt;Node1</title>
<path fill="none" stroke="#404040" d="M94.7021,-297.7045C109.341,-280.6397 128.9363,-257.7972 149.1316,-234.2551"/>
<polygon fill="none" stroke="#404040" points="149.3824,-233.9628 150.253,-226.8044 157.1956,-224.8549 156.325,-232.0132 149.3824,-233.9628"/>
<text text-anchor="middle" x="141.5" y="-266" font-family="Helvetica,sans-Serif" font-size="10.00" fill="#000000"> &#45;spheres</text>
</g>
<!-- Node3 -->
<g id="node3" class="node">
<title>Node3</title>
<polygon fill="none" stroke="#bfbfbf" points="158.5,-298 158.5,-355 193.5,-355 193.5,-298 158.5,-298"/>
<text text-anchor="middle" x="176" y="-343" font-family="Helvetica,sans-Serif" font-size="10.00" fill="#000000">float</text>
<polyline fill="none" stroke="#bfbfbf" points="158.5,-336 193.5,-336 "/>
<text text-anchor="middle" x="176" y="-324" font-family="Helvetica,sans-Serif" font-size="10.00" fill="#000000"> </text>
<polyline fill="none" stroke="#bfbfbf" points="158.5,-317 193.5,-317 "/>
<text text-anchor="middle" x="176" y="-305" font-family="Helvetica,sans-Serif" font-size="10.00" fill="#000000"> </text>
</g>
<!-- Node3&#45;&gt;Node1 -->
<g id="edge2" class="edge">
<title>Node3&#45;&gt;Node1</title>
<path fill="none" stroke="#404040" d="M184.2034,-297.9541C187.4436,-286.9863 191.2773,-274.3738 195,-263 195.7399,-260.7393 196.4912,-258.4599 197.2519,-256.166"/>
<polygon fill="none" stroke="#404040" points="197.3159,-255.9749 195.4285,-249.0151 201.1269,-244.5961 203.0143,-251.5558 197.3159,-255.9749"/>
<text text-anchor="middle" x="218" y="-266" font-family="Helvetica,sans-Serif" font-size="10.00" fill="#000000"> &#45;colorMap</text>
</g>
<!-- Node4 -->
<g id="node4" class="node">
<title>Node4</title>
<polygon fill="none" stroke="#bfbfbf" points="226,-298 226,-355 264,-355 264,-298 226,-298"/>
<text text-anchor="middle" x="245" y="-343" font-family="Helvetica,sans-Serif" font-size="10.00" fill="#000000">short</text>
<polyline fill="none" stroke="#bfbfbf" points="226,-336 264,-336 "/>
<text text-anchor="middle" x="245" y="-324" font-family="Helvetica,sans-Serif" font-size="10.00" fill="#000000"> </text>
<polyline fill="none" stroke="#bfbfbf" points="226,-317 264,-317 "/>
<text text-anchor="middle" x="245" y="-305" font-family="Helvetica,sans-Serif" font-size="10.00" fill="#000000"> </text>
</g>
<!-- Node4&#45;&gt;Node1 -->
<g id="edge3" class="edge">
<title>Node4&#45;&gt;Node1</title>
<path fill="none" stroke="#404040" d="M245,-297.7045C245,-286.265 245,-272.2292 245,-257.1268"/>
<polygon fill="none" stroke="#404040" points="245.0001,-256.8155 241,-250.8155 245,-244.8155 249,-250.8155 245.0001,-256.8155"/>
<text text-anchor="middle" x="292" y="-266" font-family="Helvetica,sans-Serif" font-size="10.00" fill="#000000"> &#45;currentSphereDepth</text>
</g>
<!-- Node5 -->
<g id="node5" class="node">
<title>Node5</title>
<polygon fill="none" stroke="#bfbfbf" points="312.5,-292.5 312.5,-360.5 411.5,-360.5 411.5,-292.5 312.5,-292.5"/>
<text text-anchor="start" x="320.5" y="-348.5" font-family="Helvetica,sans-Serif" font-size="10.00" fill="#000000">vector&lt; std::vector</text>
<text text-anchor="middle" x="362" y="-337.5" font-family="Helvetica,sans-Serif" font-size="10.00" fill="#000000">&lt; float &gt; &gt;</text>
<polyline fill="none" stroke="#bfbfbf" points="312.5,-330.5 411.5,-330.5 "/>
<text text-anchor="middle" x="362" y="-318.5" font-family="Helvetica,sans-Serif" font-size="10.00" fill="#000000"> </text>
<polyline fill="none" stroke="#bfbfbf" points="312.5,-311.5 411.5,-311.5 "/>
<text text-anchor="middle" x="362" y="-299.5" font-family="Helvetica,sans-Serif" font-size="10.00" fill="#000000"> </text>
</g>
<!-- Node5&#45;&gt;Node1 -->
<g id="edge5" class="edge">
<title>Node5&#45;&gt;Node1</title>
<path fill="none" stroke="#404040" d="M351.9484,-292.214C348.6307,-282.5541 344.5951,-272.1814 340,-263 338.7213,-260.445 337.403,-257.8819 336.0501,-255.3149"/>
<polygon fill="none" stroke="#404040" points="336.0381,-255.2927 329.6575,-251.9329 330.3048,-244.7508 336.6854,-248.1107 336.0381,-255.2927"/>
<text text-anchor="middle" x="394" y="-266" font-family="Helvetica,sans-Serif" font-size="10.00" fill="#000000"> &#45;sphereBorderVertices</text>
</g>
<!-- Node6 -->
<g id="node6" class="node">
<title>Node6</title>
<polygon fill="none" stroke="#bfbfbf" points="437,-298 437,-355 533,-355 533,-298 437,-298"/>
<text text-anchor="middle" x="485" y="-343" font-family="Helvetica,sans-Serif" font-size="10.00" fill="#000000">list&lt; QVector3D &gt;</text>
<polyline fill="none" stroke="#bfbfbf" points="437,-336 533,-336 "/>
<text text-anchor="middle" x="485" y="-324" font-family="Helvetica,sans-Serif" font-size="10.00" fill="#000000"> </text>
<polyline fill="none" stroke="#bfbfbf" points="437,-317 533,-317 "/>
<text text-anchor="middle" x="485" y="-305" font-family="Helvetica,sans-Serif" font-size="10.00" fill="#000000"> </text>
</g>
<!-- Node6&#45;&gt;Node1 -->
<g id="edge6" class="edge">
<title>Node6&#45;&gt;Node1</title>
<path fill="none" stroke="#404040" d="M471.753,-297.8314C465.5537,-286.2366 457.4441,-273.2093 448,-263 417.8673,-230.4258 378.9059,-201.2196 343.1849,-177.9848"/>
<polygon fill="none" stroke="#404040" points="342.8195,-177.751 335.6097,-177.8849 332.7129,-171.2812 339.9228,-171.1472 342.8195,-177.751"/>
<text text-anchor="middle" x="472.5" y="-266" font-family="Helvetica,sans-Serif" font-size="10.00" fill="#000000"> &#45;points</text>
</g>
</g>
</svg>
