<?xml version="1.0" encoding="UTF-8" standalone="no"?>
<!DOCTYPE svg PUBLIC "-//W3C//DTD SVG 1.1//EN"
 "http://www.w3.org/Graphics/SVG/1.1/DTD/svg11.dtd">
<!-- Generated by graphviz version 2.40.1 (20161225.0304)
 -->
<!-- Title: spherewidget.h Pages: 1 -->
<svg width="1109pt" height="218pt"
 viewBox="0.00 0.00 1108.50 218.00" xmlns="http://www.w3.org/2000/svg" xmlns:xlink="http://www.w3.org/1999/xlink">
<g id="graph0" class="graph" transform="scale(1 1) rotate(0) translate(4 214)">
<title>spherewidget.h</title>
<!-- Node0 -->
<g id="node1" class="node">
<title>Node0</title>
<polygon fill="#bfbfbf" stroke="#000000" points="564,-190.5 564,-209.5 647,-209.5 647,-190.5 564,-190.5"/>
<text text-anchor="middle" x="605.5" y="-197.5" font-family="Helvetica,sans-Serif" font-size="10.00" fill="#000000">spherewidget.h</text>
</g>
<!-- Node1 -->
<g id="node2" class="node">
<title>Node1</title>
<polygon fill="none" stroke="#bfbfbf" points="164,-134.5 164,-153.5 255,-153.5 255,-134.5 164,-134.5"/>
<text text-anchor="middle" x="209.5" y="-141.5" font-family="Helvetica,sans-Serif" font-size="10.00" fill="#000000">QOpenGLWidget</text>
</g>
<!-- Node0&#45;&gt;Node1 -->
<g id="edge1" class="edge">
<title>Node0&#45;&gt;Node1</title>
<path fill="none" stroke="#191970" d="M563.8127,-195.0669C501.132,-187.5018 378.6564,-172.1485 265.0471,-154.1919"/>
<polygon fill="#191970" stroke="#191970" points="265.5635,-150.7301 255.1377,-152.6153 264.4635,-157.6431 265.5635,-150.7301"/>
</g>
<!-- Node2 -->
<g id="node3" class="node">
<title>Node2</title>
<polygon fill="none" stroke="#bfbfbf" points="273,-134.5 273,-153.5 376,-153.5 376,-134.5 273,-134.5"/>
<text text-anchor="middle" x="324.5" y="-141.5" font-family="Helvetica,sans-Serif" font-size="10.00" fill="#000000">QOpenGLFunctions</text>
</g>
<!-- Node0&#45;&gt;Node2 -->
<g id="edge2" class="edge">
<title>Node0&#45;&gt;Node2</title>
<path fill="none" stroke="#191970" d="M563.7349,-191.6767C515.7626,-182.1164 436.7376,-166.3676 382.7384,-155.6062"/>
<polygon fill="#191970" stroke="#191970" points="383.1159,-152.1127 372.6247,-153.5907 381.7477,-158.9777 383.1159,-152.1127"/>
</g>
<!-- Node3 -->
<g id="node4" class="node">
<title>Node3</title>
<polygon fill="none" stroke="#bfbfbf" points="394,-134.5 394,-153.5 473,-153.5 473,-134.5 394,-134.5"/>
<text text-anchor="middle" x="433.5" y="-141.5" font-family="Helvetica,sans-Serif" font-size="10.00" fill="#000000">QMouseEvent</text>
</g>
<!-- Node0&#45;&gt;Node3 -->
<g id="edge3" class="edge">
<title>Node0&#45;&gt;Node3</title>
<path fill="none" stroke="#191970" d="M575.9321,-190.3733C547.3312,-181.0613 503.8212,-166.8953 472.4181,-156.671"/>
<polygon fill="#191970" stroke="#191970" points="473.2743,-153.269 462.682,-153.5011 471.1072,-159.9251 473.2743,-153.269"/>
</g>
<!-- Node4 -->
<g id="node5" class="node">
<title>Node4</title>
<polygon fill="none" stroke="#bfbfbf" points="491.5,-134.5 491.5,-153.5 577.5,-153.5 577.5,-134.5 491.5,-134.5"/>
<text text-anchor="middle" x="534.5" y="-141.5" font-family="Helvetica,sans-Serif" font-size="10.00" fill="#000000">QOpenGLBuffer</text>
</g>
<!-- Node0&#45;&gt;Node4 -->
<g id="edge4" class="edge">
<title>Node0&#45;&gt;Node4</title>
<path fill="none" stroke="#191970" d="M593.1327,-190.2455C582.5446,-181.8943 567.0936,-169.7076 554.7107,-159.9408"/>
<polygon fill="#191970" stroke="#191970" points="556.7447,-157.0875 546.7255,-153.6427 552.4097,-162.5837 556.7447,-157.0875"/>
</g>
<!-- Node5 -->
<g id="node6" class="node">
<title>Node5</title>
<polygon fill="none" stroke="#bfbfbf" points="902.5,-6 902.5,-25 946.5,-25 946.5,-6 902.5,-6"/>
<text text-anchor="middle" x="924.5" y="-13" font-family="Helvetica,sans-Serif" font-size="10.00" fill="#000000">vector</text>
</g>
<!-- Node0&#45;&gt;Node5 -->
<g id="edge5" class="edge">
<title>Node0&#45;&gt;Node5</title>
<path fill="none" stroke="#191970" d="M647.1572,-191.8708C723.0027,-176.197 879.0053,-139.6441 913.5,-98 927.9268,-80.5831 928.8246,-53.6249 927.3437,-35.3028"/>
<polygon fill="#191970" stroke="#191970" points="930.8009,-34.7236 926.2139,-25.1732 923.844,-35.4996 930.8009,-34.7236"/>
</g>
<!-- Node6 -->
<g id="node7" class="node">
<title>Node6</title>
<polygon fill="none" stroke="#bfbfbf" points="0,-73 0,-92 47,-92 47,-73 0,-73"/>
<text text-anchor="middle" x="23.5" y="-80" font-family="Helvetica,sans-Serif" font-size="10.00" fill="#000000">math.h</text>
</g>
<!-- Node0&#45;&gt;Node6 -->
<g id="edge6" class="edge">
<title>Node0&#45;&gt;Node6</title>
<path fill="none" stroke="#191970" d="M605.8878,-190.0609C605.8652,-175.2391 603.3857,-147.6313 586.5,-134 540.5729,-96.9244 113.6387,-112.8011 56.5,-98 54.5239,-97.4881 52.522,-96.8592 50.5321,-96.1509"/>
<polygon fill="#191970" stroke="#191970" points="51.4353,-92.7357 40.8583,-92.1217 48.7439,-99.1976 51.4353,-92.7357"/>
</g>
<!-- Node7 -->
<g id="node8" class="node">
<title>Node7</title>
<polygon fill="none" stroke="#bfbfbf" points="975,-134.5 975,-153.5 1028,-153.5 1028,-134.5 975,-134.5"/>
<text text-anchor="middle" x="1001.5" y="-141.5" font-family="Helvetica,sans-Serif" font-size="10.00" fill="#000000">GL/glu.h</text>
</g>
<!-- Node0&#45;&gt;Node7 -->
<g id="edge7" class="edge">
<title>Node0&#45;&gt;Node7</title>
<path fill="none" stroke="#191970" d="M647.2699,-196.0968C713.8704,-189.5352 848.0804,-174.9272 960.5,-154 961.9406,-153.7318 963.4063,-153.4445 964.8845,-153.1427"/>
<polygon fill="#191970" stroke="#191970" points="965.6695,-156.5538 974.6855,-150.9894 964.1673,-149.7169 965.6695,-156.5538"/>
</g>
<!-- Node8 -->
<g id="node9" class="node">
<title>Node8</title>
<g id="a_node9"><a xlink:href="../../db/d32/renderdata_8h.html" target="_top" xlink:title="renderdata.h">
<polygon fill="none" stroke="#000000" points="634,-134.5 634,-153.5 705,-153.5 705,-134.5 634,-134.5"/>
<text text-anchor="middle" x="669.5" y="-141.5" font-family="Helvetica,sans-Serif" font-size="10.00" fill="#000000">renderdata.h</text>
</a>
</g>
</g>
<!-- Node0&#45;&gt;Node8 -->
<g id="edge8" class="edge">
<title>Node0&#45;&gt;Node8</title>
<path fill="none" stroke="#191970" d="M616.6479,-190.2455C626.0087,-182.0549 639.5858,-170.1749 650.6349,-160.5069"/>
<polygon fill="#191970" stroke="#191970" points="653.2588,-162.8618 658.4798,-153.6427 648.6492,-157.5937 653.2588,-162.8618"/>
</g>
<!-- Node19 -->
<g id="node20" class="node">
<title>Node19</title>
<polygon fill="none" stroke="#bfbfbf" points="1046.5,-134.5 1046.5,-153.5 1100.5,-153.5 1100.5,-134.5 1046.5,-134.5"/>
<text text-anchor="middle" x="1073.5" y="-141.5" font-family="Helvetica,sans-Serif" font-size="10.00" fill="#000000">iostream</text>
</g>
<!-- Node0&#45;&gt;Node19 -->
<g id="edge24" class="edge">
<title>Node0&#45;&gt;Node19</title>
<path fill="none" stroke="#191970" d="M647.2356,-197.8483C722.9778,-193.4488 888.1687,-181.5814 1036.3035,-153.9484"/>
<polygon fill="#191970" stroke="#191970" points="1037.3129,-157.3195 1046.4862,-152.0186 1036.0094,-150.4419 1037.3129,-157.3195"/>
</g>
<!-- Node8&#45;&gt;Node5 -->
<g id="edge10" class="edge">
<title>Node8&#45;&gt;Node5</title>
<path fill="none" stroke="#191970" d="M705.3363,-140.5392C760.2462,-134.5837 861.764,-120.7912 889.5,-98 908.6929,-82.2289 917.5596,-54.0389 921.5149,-35.0558"/>
<polygon fill="#191970" stroke="#191970" points="924.9787,-35.5699 923.3172,-25.1062 918.0907,-34.3222 924.9787,-35.5699"/>
</g>
<!-- Node8&#45;&gt;Node6 -->
<g id="edge11" class="edge">
<title>Node8&#45;&gt;Node6</title>
<path fill="none" stroke="#191970" d="M633.8171,-136.2612C629.0206,-135.3978 624.1518,-134.6111 619.5,-134 370.9029,-101.3408 299.3462,-160.393 56.5,-98 54.5229,-97.492 52.5202,-96.8661 50.5298,-96.1599"/>
<polygon fill="#191970" stroke="#191970" points="51.4321,-92.7445 40.8547,-92.1355 48.7437,-99.2077 51.4321,-92.7445"/>
</g>
<!-- Node9 -->
<g id="node10" class="node">
<title>Node9</title>
<polygon fill="none" stroke="#bfbfbf" points="736,-73 736,-92 765,-92 765,-73 736,-73"/>
<text text-anchor="middle" x="750.5" y="-80" font-family="Helvetica,sans-Serif" font-size="10.00" fill="#000000">list</text>
</g>
<!-- Node8&#45;&gt;Node9 -->
<g id="edge9" class="edge">
<title>Node8&#45;&gt;Node9</title>
<path fill="none" stroke="#191970" d="M682.1563,-134.3906C694.8768,-124.7324 714.7004,-109.6812 729.7284,-98.271"/>
<polygon fill="#191970" stroke="#191970" points="732.0846,-100.8766 737.9326,-92.0419 727.8516,-95.3015 732.0846,-100.8766"/>
</g>
<!-- Node10 -->
<g id="node11" class="node">
<title>Node10</title>
<polygon fill="none" stroke="#bfbfbf" points="620,-6 620,-25 685,-25 685,-6 620,-6"/>
<text text-anchor="middle" x="652.5" y="-13" font-family="Helvetica,sans-Serif" font-size="10.00" fill="#000000">QVector3D</text>
</g>
<!-- Node8&#45;&gt;Node10 -->
<g id="edge12" class="edge">
<title>Node8&#45;&gt;Node10</title>
<path fill="none" stroke="#191970" d="M668.2222,-134.3416C665.4533,-113.4114 658.8507,-63.504 655.1428,-35.4762"/>
<polygon fill="#191970" stroke="#191970" points="658.574,-34.725 653.7926,-25.2705 651.6344,-35.6432 658.574,-34.725"/>
</g>
<!-- Node11 -->
<g id="node12" class="node">
<title>Node11</title>
<polygon fill="none" stroke="#bfbfbf" points="65.5,-73 65.5,-92 115.5,-92 115.5,-73 65.5,-73"/>
<text text-anchor="middle" x="90.5" y="-80" font-family="Helvetica,sans-Serif" font-size="10.00" fill="#000000">QString</text>
</g>
<!-- Node8&#45;&gt;Node11 -->
<g id="edge13" class="edge">
<title>Node8&#45;&gt;Node11</title>
<path fill="none" stroke="#191970" d="M633.812,-136.2996C629.0163,-135.4301 624.1491,-134.6315 619.5,-134 400.9259,-104.3125 338.2146,-152.6084 124.5,-98 122.3041,-97.4389 120.0743,-96.7423 117.8607,-95.9575"/>
<polygon fill="#191970" stroke="#191970" points="118.997,-92.641 108.416,-92.1004 116.3504,-99.1214 118.997,-92.641"/>
</g>
<!-- Node12 -->
<g id="node13" class="node">
<title>Node12</title>
<polygon fill="none" stroke="#bfbfbf" points="133.5,-73 133.5,-92 179.5,-92 179.5,-73 133.5,-73"/>
<text text-anchor="middle" x="156.5" y="-80" font-family="Helvetica,sans-Serif" font-size="10.00" fill="#000000">cnpy.h</text>
</g>
<!-- Node8&#45;&gt;Node12 -->
<g id="edge14" class="edge">
<title>Node8&#45;&gt;Node12</title>
<path fill="none" stroke="#191970" d="M633.8055,-136.3466C629.0108,-135.4696 624.1457,-134.6564 619.5,-134 429.1679,-107.1073 373.9013,-148.7532 188.5,-98 186.5799,-97.4744 184.6357,-96.8352 182.7039,-96.1194"/>
<polygon fill="#191970" stroke="#191970" points="183.8871,-92.8181 173.3185,-92.0732 181.1158,-99.2462 183.8871,-92.8181"/>
</g>
<!-- Node13 -->
<g id="node14" class="node">
<title>Node13</title>
<polygon fill="none" stroke="#bfbfbf" points="198,-67.5 198,-97.5 339,-97.5 339,-67.5 198,-67.5"/>
<text text-anchor="start" x="206" y="-85.5" font-family="Helvetica,sans-Serif" font-size="10.00" fill="#000000">../external&#45;libraries</text>
<text text-anchor="middle" x="268.5" y="-74.5" font-family="Helvetica,sans-Serif" font-size="10.00" fill="#000000">/glm&#45;master/glm/mat3x3.hpp</text>
</g>
<!-- Node8&#45;&gt;Node13 -->
<g id="edge15" class="edge">
<title>Node8&#45;&gt;Node13</title>
<path fill="none" stroke="#191970" d="M633.7727,-136.5598C628.9833,-135.6488 624.1283,-134.7694 619.5,-134 502.8026,-114.6004 470.1253,-117.3965 349.1553,-98.0421"/>
<polygon fill="#191970" stroke="#191970" points="349.5603,-94.5622 339.1296,-96.4201 348.4422,-101.4724 349.5603,-94.5622"/>
</g>
<!-- Node14 -->
<g id="node15" class="node">
<title>Node14</title>
<polygon fill="none" stroke="#bfbfbf" points="357.5,-67.5 357.5,-97.5 493.5,-97.5 493.5,-67.5 357.5,-67.5"/>
<text text-anchor="start" x="365.5" y="-85.5" font-family="Helvetica,sans-Serif" font-size="10.00" fill="#000000">../external&#45;libraries</text>
<text text-anchor="middle" x="425.5" y="-74.5" font-family="Helvetica,sans-Serif" font-size="10.00" fill="#000000">/glm&#45;master/glm/matrix.hpp</text>
</g>
<!-- Node8&#45;&gt;Node14 -->
<g id="edge16" class="edge">
<title>Node8&#45;&gt;Node14</title>
<path fill="none" stroke="#191970" d="M633.759,-134.9915C597.5026,-125.8531 540.4368,-111.4697 495.2024,-100.0684"/>
<polygon fill="#191970" stroke="#191970" points="496.0013,-96.6604 485.4491,-97.6101 494.2904,-103.4481 496.0013,-96.6604"/>
</g>
<!-- Node15 -->
<g id="node16" class="node">
<title>Node15</title>
<polygon fill="none" stroke="#bfbfbf" points="511.5,-67.5 511.5,-97.5 641.5,-97.5 641.5,-67.5 511.5,-67.5"/>
<text text-anchor="start" x="519.5" y="-85.5" font-family="Helvetica,sans-Serif" font-size="10.00" fill="#000000">../external&#45;libraries</text>
<text text-anchor="middle" x="576.5" y="-74.5" font-family="Helvetica,sans-Serif" font-size="10.00" fill="#000000">/glm&#45;master/glm/vec3.hpp</text>
</g>
<!-- Node8&#45;&gt;Node15 -->
<g id="edge17" class="edge">
<title>Node8&#45;&gt;Node15</title>
<path fill="none" stroke="#191970" d="M654.9688,-134.3906C642.3823,-126.0673 623.7393,-113.7389 607.783,-103.1872"/>
<polygon fill="#191970" stroke="#191970" points="609.5221,-100.1411 599.2504,-97.5446 605.6609,-105.98 609.5221,-100.1411"/>
</g>
<!-- Node16 -->
<g id="node17" class="node">
<title>Node16</title>
<polygon fill="none" stroke="#bfbfbf" points="703,-.5 703,-30.5 810,-30.5 810,-.5 703,-.5"/>
<text text-anchor="start" x="711" y="-18.5" font-family="Helvetica,sans-Serif" font-size="10.00" fill="#000000">resources/colormaps</text>
<text text-anchor="middle" x="756.5" y="-7.5" font-family="Helvetica,sans-Serif" font-size="10.00" fill="#000000">_matplotlib.h</text>
</g>
<!-- Node8&#45;&gt;Node16 -->
<g id="edge18" class="edge">
<title>Node8&#45;&gt;Node16</title>
<path fill="none" stroke="#191970" d="M676.0391,-134.3416C689.5892,-114.328 721.0775,-67.8194 740.4,-39.2799"/>
<polygon fill="#191970" stroke="#191970" points="743.4997,-40.9445 746.2079,-30.7016 737.7032,-37.02 743.4997,-40.9445"/>
</g>
<!-- Node17 -->
<g id="node18" class="node">
<title>Node17</title>
<g id="a_node18"><a xlink:href="../../d1/db2/spheredepthdata_8h.html" target="_top" xlink:title="spheredepthdata.h">
<polygon fill="none" stroke="#000000" points="783,-73 783,-92 880,-92 880,-73 783,-73"/>
<text text-anchor="middle" x="831.5" y="-80" font-family="Helvetica,sans-Serif" font-size="10.00" fill="#000000">spheredepthdata.h</text>
</a>
</g>
</g>
<!-- Node8&#45;&gt;Node17 -->
<g id="edge19" class="edge">
<title>Node8&#45;&gt;Node17</title>
<path fill="none" stroke="#191970" d="M694.8125,-134.3906C722.2747,-123.9652 766.2895,-107.2559 796.9263,-95.6252"/>
<polygon fill="#191970" stroke="#191970" points="798.2585,-98.8633 806.3652,-92.0419 795.774,-92.319 798.2585,-98.8633"/>
</g>
<!-- Node17&#45;&gt;Node5 -->
<g id="edge20" class="edge">
<title>Node17&#45;&gt;Node5</title>
<path fill="none" stroke="#191970" d="M844.8246,-72.9005C860.0178,-61.9549 885.0703,-43.9064 903.0284,-30.9688"/>
<polygon fill="#191970" stroke="#191970" points="905.1323,-33.7668 911.2001,-25.0817 901.0405,-28.0872 905.1323,-33.7668"/>
</g>
<!-- Node17&#45;&gt;Node10 -->
<g id="edge22" class="edge">
<title>Node17&#45;&gt;Node10</title>
<path fill="none" stroke="#191970" d="M805.7995,-72.9461C778.0757,-62.6313 732.6407,-45.7019 693.5,-31 691.4163,-30.2173 689.2735,-29.4112 687.1123,-28.5971"/>
<polygon fill="#191970" stroke="#191970" points="688.2374,-25.2808 677.6457,-25.0256 685.7665,-31.8302 688.2374,-25.2808"/>
</g>
<!-- Node17&#45;&gt;Node16 -->
<g id="edge23" class="edge">
<title>Node17&#45;&gt;Node16</title>
<path fill="none" stroke="#191970" d="M820.7543,-72.9005C810.3935,-63.6448 794.3471,-49.3101 780.8824,-37.2816"/>
<polygon fill="#191970" stroke="#191970" points="783.1048,-34.5738 773.3154,-30.5218 778.4413,-39.7941 783.1048,-34.5738"/>
</g>
<!-- Node18 -->
<g id="node19" class="node">
<title>Node18</title>
<polygon fill="none" stroke="#bfbfbf" points="828.5,-6 828.5,-25 884.5,-25 884.5,-6 828.5,-6"/>
<text text-anchor="middle" x="856.5" y="-13" font-family="Helvetica,sans-Serif" font-size="10.00" fill="#000000">algorithm</text>
</g>
<!-- Node17&#45;&gt;Node18 -->
<g id="edge21" class="edge">
<title>Node17&#45;&gt;Node18</title>
<path fill="none" stroke="#191970" d="M835.0819,-72.9005C838.7948,-62.95 844.698,-47.1292 849.3676,-34.6147"/>
<polygon fill="#191970" stroke="#191970" points="852.7079,-35.6743 852.9248,-25.0817 846.1496,-33.2271 852.7079,-35.6743"/>
</g>
</g>
</svg>
