<?xml version="1.0" encoding="UTF-8" standalone="no"?>
<!DOCTYPE svg PUBLIC "-//W3C//DTD SVG 1.1//EN"
 "http://www.w3.org/Graphics/SVG/1.1/DTD/svg11.dtd">
<!-- Generated by graphviz version 2.40.1 (20161225.0304)
 -->
<!-- Title: MainWindow Pages: 1 -->
<svg width="488pt" height="738pt"
 viewBox="0.00 0.00 487.50 738.00" xmlns="http://www.w3.org/2000/svg" xmlns:xlink="http://www.w3.org/1999/xlink">
<g id="graph0" class="graph" transform="scale(1 1) rotate(0) translate(4 734)">
<title>MainWindow</title>
<!-- Node2 -->
<g id="node1" class="node">
<title>Node2</title>
<polygon fill="#bfbfbf" stroke="#000000" points="18,-.5 18,-101.5 142,-101.5 142,-.5 18,-.5"/>
<text text-anchor="middle" x="80" y="-89.5" font-family="Helvetica,sans-Serif" font-size="10.00" fill="#000000">MainWindow</text>
<polyline fill="none" stroke="#000000" points="18,-82.5 142,-82.5 "/>
<text text-anchor="start" x="26" y="-70.5" font-family="Helvetica,sans-Serif" font-size="10.00" fill="#000000">&#45; ui</text>
<polyline fill="none" stroke="#000000" points="18,-63.5 142,-63.5 "/>
<text text-anchor="start" x="26" y="-51.5" font-family="Helvetica,sans-Serif" font-size="10.00" fill="#000000">+ MainWindow()</text>
<text text-anchor="start" x="26" y="-40.5" font-family="Helvetica,sans-Serif" font-size="10.00" fill="#000000">+ ~MainWindow()</text>
<text text-anchor="start" x="26" y="-29.5" font-family="Helvetica,sans-Serif" font-size="10.00" fill="#000000">+ changeTriangleDepth()</text>
<text text-anchor="start" x="26" y="-18.5" font-family="Helvetica,sans-Serif" font-size="10.00" fill="#000000">+ openFile()</text>
<text text-anchor="start" x="26" y="-7.5" font-family="Helvetica,sans-Serif" font-size="10.00" fill="#000000">+ changeColorMap()</text>
</g>
<!-- Node3 -->
<g id="node2" class="node">
<title>Node3</title>
<polygon fill="none" stroke="#bfbfbf" points="0,-243 0,-300 80,-300 80,-243 0,-243"/>
<text text-anchor="middle" x="40" y="-288" font-family="Helvetica,sans-Serif" font-size="10.00" fill="#000000">QMainWindow</text>
<polyline fill="none" stroke="#bfbfbf" points="0,-281 80,-281 "/>
<text text-anchor="middle" x="40" y="-269" font-family="Helvetica,sans-Serif" font-size="10.00" fill="#000000"> </text>
<polyline fill="none" stroke="#bfbfbf" points="0,-262 80,-262 "/>
<text text-anchor="middle" x="40" y="-250" font-family="Helvetica,sans-Serif" font-size="10.00" fill="#000000"> </text>
</g>
<!-- Node3&#45;&gt;Node2 -->
<g id="edge1" class="edge">
<title>Node3&#45;&gt;Node2</title>
<path fill="none" stroke="#191970" d="M47.0833,-232.4531C53.6876,-196.0471 63.5757,-141.5387 70.7902,-101.7688"/>
<polygon fill="none" stroke="#191970" points="43.5705,-232.2093 45.2293,-242.6735 50.4581,-233.4588 43.5705,-232.2093"/>
</g>
<!-- Node4 -->
<g id="node3" class="node">
<title>Node4</title>
<g id="a_node3"><a xlink:href="class_sphere_widget.html" target="_top" xlink:title="{SphereWidget\n|&#45; m_lastPosition\l&#45; m_position\l&#45; m_rotation\l&#45; m_fovy\l&#45; aspectRatioWidthToHeight\l&#45; vbo_points\l&#45; vbo_sphereVertices\l&#45; vbo_vertexColors\l|+ SphereWidget()\l+ ~SphereWidget()\l+ updatePoints()\l+ updateSphereVertices()\l+ updateTriangleColor()\l# initializeGL()\l# resizeGL()\l# paintGL()\l# mousePressEvent()\l# mouseMoveEvent()\l# wheelEvent()\l}">
<polygon fill="none" stroke="#000000" points="98,-149.5 98,-393.5 238,-393.5 238,-149.5 98,-149.5"/>
<text text-anchor="middle" x="168" y="-381.5" font-family="Helvetica,sans-Serif" font-size="10.00" fill="#000000">SphereWidget</text>
<polyline fill="none" stroke="#000000" points="98,-374.5 238,-374.5 "/>
<text text-anchor="start" x="106" y="-362.5" font-family="Helvetica,sans-Serif" font-size="10.00" fill="#000000">&#45; m_lastPosition</text>
<text text-anchor="start" x="106" y="-351.5" font-family="Helvetica,sans-Serif" font-size="10.00" fill="#000000">&#45; m_position</text>
<text text-anchor="start" x="106" y="-340.5" font-family="Helvetica,sans-Serif" font-size="10.00" fill="#000000">&#45; m_rotation</text>
<text text-anchor="start" x="106" y="-329.5" font-family="Helvetica,sans-Serif" font-size="10.00" fill="#000000">&#45; m_fovy</text>
<text text-anchor="start" x="106" y="-318.5" font-family="Helvetica,sans-Serif" font-size="10.00" fill="#000000">&#45; aspectRatioWidthToHeight</text>
<text text-anchor="start" x="106" y="-307.5" font-family="Helvetica,sans-Serif" font-size="10.00" fill="#000000">&#45; vbo_points</text>
<text text-anchor="start" x="106" y="-296.5" font-family="Helvetica,sans-Serif" font-size="10.00" fill="#000000">&#45; vbo_sphereVertices</text>
<text text-anchor="start" x="106" y="-285.5" font-family="Helvetica,sans-Serif" font-size="10.00" fill="#000000">&#45; vbo_vertexColors</text>
<polyline fill="none" stroke="#000000" points="98,-278.5 238,-278.5 "/>
<text text-anchor="start" x="106" y="-266.5" font-family="Helvetica,sans-Serif" font-size="10.00" fill="#000000">+ SphereWidget()</text>
<text text-anchor="start" x="106" y="-255.5" font-family="Helvetica,sans-Serif" font-size="10.00" fill="#000000">+ ~SphereWidget()</text>
<text text-anchor="start" x="106" y="-244.5" font-family="Helvetica,sans-Serif" font-size="10.00" fill="#000000">+ updatePoints()</text>
<text text-anchor="start" x="106" y="-233.5" font-family="Helvetica,sans-Serif" font-size="10.00" fill="#000000">+ updateSphereVertices()</text>
<text text-anchor="start" x="106" y="-222.5" font-family="Helvetica,sans-Serif" font-size="10.00" fill="#000000">+ updateTriangleColor()</text>
<text text-anchor="start" x="106" y="-211.5" font-family="Helvetica,sans-Serif" font-size="10.00" fill="#000000"># initializeGL()</text>
<text text-anchor="start" x="106" y="-200.5" font-family="Helvetica,sans-Serif" font-size="10.00" fill="#000000"># resizeGL()</text>
<text text-anchor="start" x="106" y="-189.5" font-family="Helvetica,sans-Serif" font-size="10.00" fill="#000000"># paintGL()</text>
<text text-anchor="start" x="106" y="-178.5" font-family="Helvetica,sans-Serif" font-size="10.00" fill="#000000"># mousePressEvent()</text>
<text text-anchor="start" x="106" y="-167.5" font-family="Helvetica,sans-Serif" font-size="10.00" fill="#000000"># mouseMoveEvent()</text>
<text text-anchor="start" x="106" y="-156.5" font-family="Helvetica,sans-Serif" font-size="10.00" fill="#000000"># wheelEvent()</text>
</a>
</g>
</g>
<!-- Node4&#45;&gt;Node2 -->
<g id="edge2" class="edge">
<title>Node4&#45;&gt;Node2</title>
<path fill="none" stroke="#404040" d="M119.2388,-149.3199C114.2124,-136.7255 109.27,-124.3413 104.6779,-112.835"/>
<polygon fill="none" stroke="#404040" points="104.6605,-112.7913 98.7214,-108.7013 100.2125,-101.6461 106.1516,-105.736 104.6605,-112.7913"/>
<text text-anchor="middle" x="144.5" y="-123" font-family="Helvetica,sans-Serif" font-size="10.00" fill="#000000"> &#45;sphereWidget</text>
</g>
<!-- Node5 -->
<g id="node4" class="node">
<title>Node5</title>
<polygon fill="none" stroke="#bfbfbf" points="7.5,-557 7.5,-614 98.5,-614 98.5,-557 7.5,-557"/>
<text text-anchor="middle" x="53" y="-602" font-family="Helvetica,sans-Serif" font-size="10.00" fill="#000000">QOpenGLWidget</text>
<polyline fill="none" stroke="#bfbfbf" points="7.5,-595 98.5,-595 "/>
<text text-anchor="middle" x="53" y="-583" font-family="Helvetica,sans-Serif" font-size="10.00" fill="#000000"> </text>
<polyline fill="none" stroke="#bfbfbf" points="7.5,-576 98.5,-576 "/>
<text text-anchor="middle" x="53" y="-564" font-family="Helvetica,sans-Serif" font-size="10.00" fill="#000000"> </text>
</g>
<!-- Node5&#45;&gt;Node4 -->
<g id="edge3" class="edge">
<title>Node5&#45;&gt;Node4</title>
<path fill="none" stroke="#191970" d="M67.0511,-547.1343C81.0196,-508.9942 103.1928,-448.4517 123.2048,-393.8103"/>
<polygon fill="none" stroke="#191970" points="63.6629,-546.2084 63.5103,-556.8022 70.236,-548.6158 63.6629,-546.2084"/>
</g>
<!-- Node6 -->
<g id="node5" class="node">
<title>Node6</title>
<polygon fill="none" stroke="#bfbfbf" points="116.5,-557 116.5,-614 219.5,-614 219.5,-557 116.5,-557"/>
<text text-anchor="middle" x="168" y="-602" font-family="Helvetica,sans-Serif" font-size="10.00" fill="#000000">QOpenGLFunctions</text>
<polyline fill="none" stroke="#bfbfbf" points="116.5,-595 219.5,-595 "/>
<text text-anchor="middle" x="168" y="-583" font-family="Helvetica,sans-Serif" font-size="10.00" fill="#000000"> </text>
<polyline fill="none" stroke="#bfbfbf" points="116.5,-576 219.5,-576 "/>
<text text-anchor="middle" x="168" y="-564" font-family="Helvetica,sans-Serif" font-size="10.00" fill="#000000"> </text>
</g>
<!-- Node6&#45;&gt;Node4 -->
<g id="edge4" class="edge">
<title>Node6&#45;&gt;Node4</title>
<path fill="none" stroke="#006400" d="M168,-546.6462C168,-508.479 168,-448.2192 168,-393.8103"/>
<polygon fill="none" stroke="#006400" points="164.5001,-546.8022 168,-556.8022 171.5001,-546.8022 164.5001,-546.8022"/>
</g>
<!-- Node7 -->
<g id="node6" class="node">
<title>Node7</title>
<g id="a_node6"><a xlink:href="class_render_data.html" target="_top" xlink:title="Singleton that stores and calculates all logical application data. ">
<polygon fill="none" stroke="#000000" points="237.5,-441.5 237.5,-729.5 412.5,-729.5 412.5,-441.5 237.5,-441.5"/>
<text text-anchor="middle" x="325" y="-717.5" font-family="Helvetica,sans-Serif" font-size="10.00" fill="#000000">RenderData</text>
<polyline fill="none" stroke="#000000" points="237.5,-710.5 412.5,-710.5 "/>
<text text-anchor="start" x="245.5" y="-698.5" font-family="Helvetica,sans-Serif" font-size="10.00" fill="#000000">&#45; points</text>
<text text-anchor="start" x="245.5" y="-687.5" font-family="Helvetica,sans-Serif" font-size="10.00" fill="#000000">&#45; spheres</text>
<text text-anchor="start" x="245.5" y="-676.5" font-family="Helvetica,sans-Serif" font-size="10.00" fill="#000000">&#45; sphereBorderVertices</text>
<text text-anchor="start" x="245.5" y="-665.5" font-family="Helvetica,sans-Serif" font-size="10.00" fill="#000000">&#45; currentSphereDepth</text>
<text text-anchor="start" x="245.5" y="-654.5" font-family="Helvetica,sans-Serif" font-size="10.00" fill="#000000">&#45; colorMap</text>
<polyline fill="none" stroke="#000000" points="237.5,-647.5 412.5,-647.5 "/>
<text text-anchor="start" x="245.5" y="-635.5" font-family="Helvetica,sans-Serif" font-size="10.00" fill="#000000">+ getColorsForTriangles()</text>
<text text-anchor="start" x="245.5" y="-624.5" font-family="Helvetica,sans-Serif" font-size="10.00" fill="#000000">+ getPointsAsVector()</text>
<text text-anchor="start" x="245.5" y="-613.5" font-family="Helvetica,sans-Serif" font-size="10.00" fill="#000000">+ getVerticesAtCurrentDepth()</text>
<text text-anchor="start" x="245.5" y="-602.5" font-family="Helvetica,sans-Serif" font-size="10.00" fill="#000000">+ setSphereDepth()</text>
<text text-anchor="start" x="245.5" y="-591.5" font-family="Helvetica,sans-Serif" font-size="10.00" fill="#000000">+ setColorMap()</text>
<text text-anchor="start" x="245.5" y="-580.5" font-family="Helvetica,sans-Serif" font-size="10.00" fill="#000000">+ loadPointsFromFile()</text>
<text text-anchor="start" x="245.5" y="-569.5" font-family="Helvetica,sans-Serif" font-size="10.00" fill="#000000">+ getInstance()</text>
<text text-anchor="start" x="245.5" y="-558.5" font-family="Helvetica,sans-Serif" font-size="10.00" fill="#000000">&#45; RenderData()</text>
<text text-anchor="start" x="245.5" y="-547.5" font-family="Helvetica,sans-Serif" font-size="10.00" fill="#000000">&#45; RenderData()</text>
<text text-anchor="start" x="245.5" y="-536.5" font-family="Helvetica,sans-Serif" font-size="10.00" fill="#000000">&#45; generateIcosahedronAtDepthZero()</text>
<text text-anchor="start" x="245.5" y="-525.5" font-family="Helvetica,sans-Serif" font-size="10.00" fill="#000000">&#45; calculateNextSubdivision()</text>
<text text-anchor="start" x="245.5" y="-514.5" font-family="Helvetica,sans-Serif" font-size="10.00" fill="#000000">&#45; filterPointsForTriangle()</text>
<text text-anchor="start" x="245.5" y="-503.5" font-family="Helvetica,sans-Serif" font-size="10.00" fill="#000000">&#45; getTransformationMatrix()</text>
<text text-anchor="start" x="245.5" y="-492.5" font-family="Helvetica,sans-Serif" font-size="10.00" fill="#000000">&#45; insertTriangleIntoVertices</text>
<text text-anchor="start" x="245.5" y="-481.5" font-family="Helvetica,sans-Serif" font-size="10.00" fill="#000000">Vector()</text>
<text text-anchor="start" x="245.5" y="-470.5" font-family="Helvetica,sans-Serif" font-size="10.00" fill="#000000">&#45; normalize()</text>
<text text-anchor="start" x="245.5" y="-459.5" font-family="Helvetica,sans-Serif" font-size="10.00" fill="#000000">&#45; pointInFirstQuadrantAfter</text>
<text text-anchor="start" x="245.5" y="-448.5" font-family="Helvetica,sans-Serif" font-size="10.00" fill="#000000">Transformation()</text>
</a>
</g>
</g>
<!-- Node7&#45;&gt;Node4 -->
<g id="edge5" class="edge">
<title>Node7&#45;&gt;Node4</title>
<path fill="none" stroke="#404040" d="M252.933,-441.3661C246.823,-429.146 240.6606,-416.8213 234.5953,-404.6907"/>
<polygon fill="none" stroke="#404040" points="234.4234,-404.3466 228.1623,-400.7689 229.0567,-393.6135 235.3178,-397.1912 234.4234,-404.3466"/>
<text text-anchor="middle" x="268.5" y="-415" font-family="Helvetica,sans-Serif" font-size="10.00" fill="#000000"> &#45;renderData</text>
</g>
<!-- Node7&#45;&gt;Node7 -->
<g id="edge6" class="edge">
<title>Node7&#45;&gt;Node7</title>
<path fill="none" stroke="#404040" d="M412.718,-612.753C423.4587,-607.8734 430.5,-598.7891 430.5,-585.5 430.5,-576.9867 427.6103,-570.199 422.7094,-565.137"/>
<polygon fill="none" stroke="#404040" points="422.5969,-565.0594 415.3867,-564.9462 412.718,-558.247 419.9283,-558.3603 422.5969,-565.0594"/>
<text text-anchor="middle" x="455" y="-583" font-family="Helvetica,sans-Serif" font-size="10.00" fill="#000000"> &#45;_instance</text>
</g>
</g>
</svg>
