<?xml version="1.0" encoding="UTF-8" standalone="no"?>
<!DOCTYPE svg PUBLIC "-//W3C//DTD SVG 1.1//EN"
 "http://www.w3.org/Graphics/SVG/1.1/DTD/svg11.dtd">
<!-- Generated by graphviz version 2.40.1 (20161225.0304)
 -->
<!-- Title: resources/colormaps_matplotlib.h Pages: 1 -->
<svg width="309pt" height="319pt"
 viewBox="0.00 0.00 308.50 319.00" xmlns="http://www.w3.org/2000/svg" xmlns:xlink="http://www.w3.org/1999/xlink">
<g id="graph0" class="graph" transform="scale(1 1) rotate(0) translate(4 315)">
<title>resources/colormaps_matplotlib.h</title>
<!-- Node2 -->
<g id="node1" class="node">
<title>Node2</title>
<polygon fill="#bfbfbf" stroke="#000000" points="49.5,-280.5 49.5,-310.5 156.5,-310.5 156.5,-280.5 49.5,-280.5"/>
<text text-anchor="start" x="57.5" y="-298.5" font-family="Helvetica,sans-Serif" font-size="10.00" fill="#000000">resources/colormaps</text>
<text text-anchor="middle" x="103" y="-287.5" font-family="Helvetica,sans-Serif" font-size="10.00" fill="#000000">_matplotlib.h</text>
</g>
<!-- Node3 -->
<g id="node2" class="node">
<title>Node3</title>
<g id="a_node2"><a xlink:href="mainwindow_8h.html" target="_top" xlink:title="mainwindow.h">
<polygon fill="none" stroke="#000000" points="33.5,-56.5 33.5,-75.5 112.5,-75.5 112.5,-56.5 33.5,-56.5"/>
<text text-anchor="middle" x="73" y="-63.5" font-family="Helvetica,sans-Serif" font-size="10.00" fill="#000000">mainwindow.h</text>
</a>
</g>
</g>
<!-- Node2&#45;&gt;Node3 -->
<g id="edge1" class="edge">
<title>Node2&#45;&gt;Node3</title>
<path fill="none" stroke="#191970" d="M99.7239,-270.4378C93.1696,-220.2974 78.6941,-109.5598 74.2939,-75.8981"/>
<polygon fill="#191970" stroke="#191970" points="96.2649,-270.9799 101.0316,-280.4419 103.2058,-270.0725 96.2649,-270.9799"/>
</g>
<!-- Node6 -->
<g id="node5" class="node">
<title>Node6</title>
<g id="a_node5"><a xlink:href="renderdata_8h.html" target="_top" xlink:title="renderdata.h">
<polygon fill="none" stroke="#000000" points="102.5,-168.5 102.5,-187.5 173.5,-187.5 173.5,-168.5 102.5,-168.5"/>
<text text-anchor="middle" x="138" y="-175.5" font-family="Helvetica,sans-Serif" font-size="10.00" fill="#000000">renderdata.h</text>
</a>
</g>
</g>
<!-- Node2&#45;&gt;Node6 -->
<g id="edge4" class="edge">
<title>Node2&#45;&gt;Node6</title>
<path fill="none" stroke="#191970" d="M109.674,-270.6437C113.4449,-256.8597 118.3272,-239.4343 123,-224 126.7971,-211.4582 131.5365,-197.1202 134.6598,-187.8323"/>
<polygon fill="#191970" stroke="#191970" points="106.2727,-269.8135 107.0288,-280.3813 113.0279,-271.6486 106.2727,-269.8135"/>
</g>
<!-- Node10 -->
<g id="node9" class="node">
<title>Node10</title>
<g id="a_node9"><a xlink:href="spheredepthdata_8h.html" target="_top" xlink:title="spheredepthdata.h">
<polygon fill="none" stroke="#000000" points="131.5,-224.5 131.5,-243.5 228.5,-243.5 228.5,-224.5 131.5,-224.5"/>
<text text-anchor="middle" x="180" y="-231.5" font-family="Helvetica,sans-Serif" font-size="10.00" fill="#000000">spheredepthdata.h</text>
</a>
</g>
</g>
<!-- Node2&#45;&gt;Node10 -->
<g id="edge10" class="edge">
<title>Node2&#45;&gt;Node10</title>
<path fill="none" stroke="#191970" d="M130.1164,-273.8421C142.9232,-263.6133 157.5764,-251.9097 167.6713,-243.8469"/>
<polygon fill="#191970" stroke="#191970" points="127.6631,-271.3222 122.0337,-280.2977 132.0316,-276.7917 127.6631,-271.3222"/>
</g>
<!-- Node4 -->
<g id="node3" class="node">
<title>Node4</title>
<g id="a_node3"><a xlink:href="main_8cpp.html" target="_top" xlink:title="main.cpp">
<polygon fill="none" stroke="#000000" points="0,-.5 0,-19.5 56,-19.5 56,-.5 0,-.5"/>
<text text-anchor="middle" x="28" y="-7.5" font-family="Helvetica,sans-Serif" font-size="10.00" fill="#000000">main.cpp</text>
</a>
</g>
</g>
<!-- Node3&#45;&gt;Node4 -->
<g id="edge2" class="edge">
<title>Node3&#45;&gt;Node4</title>
<path fill="none" stroke="#191970" d="M58.7054,-48.2112C51.1004,-38.7472 42.0462,-27.4797 35.7486,-19.6427"/>
<polygon fill="#191970" stroke="#191970" points="56.1694,-50.6428 65.1616,-56.2455 61.6259,-46.2581 56.1694,-50.6428"/>
</g>
<!-- Node5 -->
<g id="node4" class="node">
<title>Node5</title>
<g id="a_node4"><a xlink:href="mainwindow_8cpp.html" target="_top" xlink:title="mainwindow.cpp">
<polygon fill="none" stroke="#000000" points="74.5,-.5 74.5,-19.5 163.5,-19.5 163.5,-.5 74.5,-.5"/>
<text text-anchor="middle" x="119" y="-7.5" font-family="Helvetica,sans-Serif" font-size="10.00" fill="#000000">mainwindow.cpp</text>
</a>
</g>
</g>
<!-- Node3&#45;&gt;Node5 -->
<g id="edge3" class="edge">
<title>Node3&#45;&gt;Node5</title>
<path fill="none" stroke="#191970" d="M87.3747,-48.5004C95.1971,-38.9775 104.576,-27.5596 111.0792,-19.6427"/>
<polygon fill="#191970" stroke="#191970" points="84.6555,-46.2967 81.0126,-56.2455 90.0646,-50.7399 84.6555,-46.2967"/>
</g>
<!-- Node6&#45;&gt;Node3 -->
<g id="edge8" class="edge">
<title>Node6&#45;&gt;Node3</title>
<path fill="none" stroke="#191970" d="M126.0677,-159.6631C120.7231,-151.3012 114.4179,-141.2274 109,-132 97.3688,-112.1907 84.7149,-88.4238 77.942,-75.5041"/>
<polygon fill="#191970" stroke="#191970" points="123.2362,-161.7306 131.5954,-168.2401 129.1202,-157.9385 123.2362,-161.7306"/>
</g>
<!-- Node7 -->
<g id="node6" class="node">
<title>Node7</title>
<g id="a_node6"><a xlink:href="spherewidget_8h.html" target="_top" xlink:title="spherewidget.h">
<polygon fill="none" stroke="#000000" points="118.5,-112.5 118.5,-131.5 201.5,-131.5 201.5,-112.5 118.5,-112.5"/>
<text text-anchor="middle" x="160" y="-119.5" font-family="Helvetica,sans-Serif" font-size="10.00" fill="#000000">spherewidget.h</text>
</a>
</g>
</g>
<!-- Node6&#45;&gt;Node7 -->
<g id="edge5" class="edge">
<title>Node6&#45;&gt;Node7</title>
<path fill="none" stroke="#191970" d="M145.5628,-158.7493C149.1546,-149.6064 153.2901,-139.0798 156.2118,-131.6427"/>
<polygon fill="#191970" stroke="#191970" points="142.2311,-157.6582 141.8321,-168.2455 148.7463,-160.2178 142.2311,-157.6582"/>
</g>
<!-- Node9 -->
<g id="node8" class="node">
<title>Node9</title>
<g id="a_node8"><a xlink:href="renderdata_8cpp.html" target="_top" xlink:title="renderdata.cpp">
<polygon fill="none" stroke="#000000" points="219.5,-112.5 219.5,-131.5 300.5,-131.5 300.5,-112.5 219.5,-112.5"/>
<text text-anchor="middle" x="260" y="-119.5" font-family="Helvetica,sans-Serif" font-size="10.00" fill="#000000">renderdata.cpp</text>
</a>
</g>
</g>
<!-- Node6&#45;&gt;Node9 -->
<g id="edge9" class="edge">
<title>Node6&#45;&gt;Node9</title>
<path fill="none" stroke="#191970" d="M168.2584,-164.1109C190.3819,-153.9559 219.8094,-140.4482 239.3011,-131.5011"/>
<polygon fill="#191970" stroke="#191970" points="166.6007,-161.0206 158.9725,-168.3733 169.521,-167.3824 166.6007,-161.0206"/>
</g>
<!-- Node7&#45;&gt;Node3 -->
<g id="edge6" class="edge">
<title>Node7&#45;&gt;Node3</title>
<path fill="none" stroke="#191970" d="M136.3375,-106.769C120.9209,-96.8456 101.274,-84.1994 87.9806,-75.6427"/>
<polygon fill="#191970" stroke="#191970" points="134.5427,-109.7761 144.8458,-112.2455 138.3315,-103.89 134.5427,-109.7761"/>
</g>
<!-- Node8 -->
<g id="node7" class="node">
<title>Node8</title>
<g id="a_node7"><a xlink:href="spherewidget_8cpp.html" target="_top" xlink:title="spherewidget.cpp">
<polygon fill="none" stroke="#000000" points="130.5,-56.5 130.5,-75.5 223.5,-75.5 223.5,-56.5 130.5,-56.5"/>
<text text-anchor="middle" x="177" y="-63.5" font-family="Helvetica,sans-Serif" font-size="10.00" fill="#000000">spherewidget.cpp</text>
</a>
</g>
</g>
<!-- Node7&#45;&gt;Node8 -->
<g id="edge7" class="edge">
<title>Node7&#45;&gt;Node8</title>
<path fill="none" stroke="#191970" d="M165.9337,-102.4538C168.6881,-93.3803 171.8393,-82.9998 174.0728,-75.6427"/>
<polygon fill="#191970" stroke="#191970" points="162.517,-101.66 162.9612,-112.2455 169.2151,-103.6934 162.517,-101.66"/>
</g>
<!-- Node10&#45;&gt;Node6 -->
<g id="edge11" class="edge">
<title>Node10&#45;&gt;Node6</title>
<path fill="none" stroke="#191970" d="M166.6584,-216.2112C159.5604,-206.7472 151.1097,-195.4797 145.232,-187.6427"/>
<polygon fill="#191970" stroke="#191970" points="163.8841,-218.3455 172.6842,-224.2455 169.4841,-214.1455 163.8841,-218.3455"/>
</g>
<!-- Node11 -->
<g id="node10" class="node">
<title>Node11</title>
<g id="a_node10"><a xlink:href="spheredepthdata_8cpp.html" target="_top" xlink:title="spheredepthdata.cpp">
<polygon fill="none" stroke="#000000" points="191.5,-168.5 191.5,-187.5 298.5,-187.5 298.5,-168.5 191.5,-168.5"/>
<text text-anchor="middle" x="245" y="-175.5" font-family="Helvetica,sans-Serif" font-size="10.00" fill="#000000">spheredepthdata.cpp</text>
</a>
</g>
</g>
<!-- Node10&#45;&gt;Node11 -->
<g id="edge12" class="edge">
<title>Node10&#45;&gt;Node11</title>
<path fill="none" stroke="#191970" d="M198.9835,-217.645C210.2879,-207.9058 224.247,-195.8795 233.8076,-187.6427"/>
<polygon fill="#191970" stroke="#191970" points="196.6138,-215.0668 191.3221,-224.2455 201.1827,-220.3701 196.6138,-215.0668"/>
</g>
</g>
</svg>
