<?xml version="1.0" encoding="UTF-8" standalone="no"?>
<!DOCTYPE svg PUBLIC "-//W3C//DTD SVG 1.1//EN"
 "http://www.w3.org/Graphics/SVG/1.1/DTD/svg11.dtd">
<!-- Generated by graphviz version 2.40.1 (20161225.0304)
 -->
<!-- Title: Graphical Class Hierarchy Pages: 1 -->
<svg width="225pt" height="66pt"
 viewBox="0.00 0.00 225.00 66.00" xmlns="http://www.w3.org/2000/svg" xmlns:xlink="http://www.w3.org/1999/xlink">
<g id="graph0" class="graph" transform="scale(1 1) rotate(0) translate(4 62)">
<title>Graphical Class Hierarchy</title>
<!-- Node4 -->
<g id="node1" class="node">
<title>Node4</title>
<polygon fill="none" stroke="#bfbfbf" points="0,-38.5 0,-57.5 103,-57.5 103,-38.5 0,-38.5"/>
<text text-anchor="middle" x="51.5" y="-45.5" font-family="Helvetica,sans-Serif" font-size="10.00" fill="#000000">QOpenGLFunctions</text>
</g>
<!-- Node0 -->
<g id="node2" class="node">
<title>Node0</title>
<g id="a_node2"><a xlink:href="class_sphere_widget.html" target="_top" xlink:title="SphereWidget">
<polygon fill="none" stroke="#000000" points="139,-19.5 139,-38.5 217,-38.5 217,-19.5 139,-19.5"/>
<text text-anchor="middle" x="178" y="-26.5" font-family="Helvetica,sans-Serif" font-size="10.00" fill="#000000">SphereWidget</text>
</a>
</g>
</g>
<!-- Node4&#45;&gt;Node0 -->
<g id="edge1" class="edge">
<title>Node4&#45;&gt;Node0</title>
<path fill="none" stroke="#006400" d="M113.4277,-38.6986C122.0862,-37.3981 130.7778,-36.0927 138.8531,-34.8798"/>
<polygon fill="#006400" stroke="#006400" points="112.6866,-35.2706 103.3174,-40.2172 113.7264,-42.1929 112.6866,-35.2706"/>
</g>
<!-- Node2 -->
<g id="node3" class="node">
<title>Node2</title>
<polygon fill="none" stroke="#bfbfbf" points="6,-.5 6,-19.5 97,-19.5 97,-.5 6,-.5"/>
<text text-anchor="middle" x="51.5" y="-7.5" font-family="Helvetica,sans-Serif" font-size="10.00" fill="#000000">QOpenGLWidget</text>
</g>
<!-- Node2&#45;&gt;Node0 -->
<g id="edge2" class="edge">
<title>Node2&#45;&gt;Node0</title>
<path fill="none" stroke="#191970" d="M107.2091,-18.3674C117.8137,-19.9602 128.7051,-21.596 138.668,-23.0924"/>
<polygon fill="#191970" stroke="#191970" points="107.5784,-14.8837 97.1694,-16.8594 106.5386,-21.806 107.5784,-14.8837"/>
</g>
</g>
</svg>
