<?xml version="1.0" encoding="UTF-8" standalone="no"?>
<!DOCTYPE svg PUBLIC "-//W3C//DTD SVG 1.1//EN"
 "http://www.w3.org/Graphics/SVG/1.1/DTD/svg11.dtd">
<!-- Generated by graphviz version 2.40.1 (20161225.0304)
 -->
<!-- Title: mainwindow.h Pages: 1 -->
<!--zoomable 330 -->
<svg id="main" version="1.1" xmlns="http://www.w3.org/2000/svg" xmlns:xlink="http://www.w3.org/1999/xlink" xml:space="preserve" onload="init(evt)">
<style type="text/css"><![CDATA[
.edge:hover path { stroke: red; }
.edge:hover polygon { stroke: red; fill: red; }
]]></style>
<script type="text/javascript"><![CDATA[
var edges = document.getElementsByTagName('g');
if (edges && edges.length) {
  for (var i=0;i<edges.length;i++) {
    if (edges[i].id.substr(0,4)=='edge') {
      edges[i].setAttribute('class','edge');
    }
  }
}
]]></script>
        <defs>
                <circle id="rim" cx="0" cy="0" r="7"/>
                <circle id="rim2" cx="0" cy="0" r="3.5"/>
                <g id="zoomPlus">
                        <use xlink:href="#rim" fill="#404040">
                                <set attributeName="fill" to="#808080" begin="zoomplus.mouseover" end="zoomplus.mouseout"/>
                        </use>
                        <path d="M-4,0h8M0,-4v8" fill="none" stroke="white" stroke-width="1.5" pointer-events="none"/>
                </g>
                <g id="zoomMin">
                        <use xlink:href="#rim" fill="#404040">
                                <set attributeName="fill" to="#808080" begin="zoomminus.mouseover" end="zoomminus.mouseout"/>
                        </use>
                        <path d="M-4,0h8" fill="none" stroke="white" stroke-width="1.5" pointer-events="none"/>
                </g>
                <g id="dirArrow">
                        <path fill="none" stroke="white" stroke-width="1.5" d="M0,-3.0v7 M-2.5,-0.5L0,-3.0L2.5,-0.5"/>
                </g>
               <g id="resetDef">
                       <use xlink:href="#rim2" fill="#404040">
                               <set attributeName="fill" to="#808080" begin="reset.mouseover" end="reset.mouseout"/>
                       </use>
               </g>
        </defs>

<script type="text/javascript">
var viewWidth = 1239;
var viewHeight = 330;
var sectionId = 'dynsection-0';
</script>
<script xlink:href="svgpan.js"/>
<svg id="graph" class="graph">
<g id="viewport">
<title>mainwindow.h</title>
<!-- Node0 -->
<g id="node1" class="node">
<title>Node0</title>
<polygon fill="#bfbfbf" stroke="#000000" points="603,-302.5 603,-321.5 682,-321.5 682,-302.5 603,-302.5"/>
<text text-anchor="middle" x="642.5" y="-309.5" font-family="Helvetica,sans-Serif" font-size="10.00" fill="#000000">mainwindow.h</text>
</g>
<!-- Node1 -->
<g id="node2" class="node">
<title>Node1</title>
<g id="a_node2"><a xlink:href="colormaps__matplotlib_8h.html" target="_top" xlink:title="resources/colormaps\l_matplotlib.h">
<polygon fill="none" stroke="#000000" points="0,-56.5 0,-86.5 107,-86.5 107,-56.5 0,-56.5"/>
<text text-anchor="start" x="8" y="-74.5" font-family="Helvetica,sans-Serif" font-size="10.00" fill="#000000">resources/colormaps</text>
<text text-anchor="middle" x="53.5" y="-63.5" font-family="Helvetica,sans-Serif" font-size="10.00" fill="#000000">_matplotlib.h</text>
</a>
</g>
</g>
<!-- Node0&#45;&gt;Node1 -->
<g id="edge1" class="edge">
<title>Node0&#45;&gt;Node1</title>
<path fill="none" stroke="#191970" d="M602.5955,-307.1491C482.787,-291.7173 130.1191,-239.6739 59.5,-154 46.5801,-138.3259 46.1056,-114.7868 48.2679,-96.8588"/>
<polygon fill="#191970" stroke="#191970" points="51.7544,-97.2145 49.8192,-86.7979 44.8361,-96.1477 51.7544,-97.2145"/>
</g>
<!-- Node3 -->
<g id="node4" class="node">
<title>Node3</title>
<polygon fill="none" stroke="#bfbfbf" points="880.5,-246.5 880.5,-265.5 960.5,-265.5 960.5,-246.5 880.5,-246.5"/>
<text text-anchor="middle" x="920.5" y="-253.5" font-family="Helvetica,sans-Serif" font-size="10.00" fill="#000000">QMainWindow</text>
</g>
<!-- Node0&#45;&gt;Node3 -->
<g id="edge3" class="edge">
<title>Node0&#45;&gt;Node3</title>
<path fill="none" stroke="#191970" d="M682.2226,-304.0594C725.8464,-295.3304 798.2517,-280.8171 870.2388,-266.2511"/>
<polygon fill="#191970" stroke="#191970" points="871.284,-269.6106 880.3907,-264.196 869.8951,-262.7498 871.284,-269.6106"/>
</g>
<!-- Node4 -->
<g id="node5" class="node">
<title>Node4</title>
<polygon fill="none" stroke="#bfbfbf" points="597,-190.5 597,-209.5 688,-209.5 688,-190.5 597,-190.5"/>
<text text-anchor="middle" x="642.5" y="-197.5" font-family="Helvetica,sans-Serif" font-size="10.00" fill="#000000">QOpenGLWidget</text>
</g>
<!-- Node0&#45;&gt;Node4 -->
<g id="edge4" class="edge">
<title>Node0&#45;&gt;Node4</title>
<path fill="none" stroke="#191970" d="M642.5,-302.4509C642.5,-284.184 642.5,-243.9553 642.5,-219.6976"/>
<polygon fill="#191970" stroke="#191970" points="646.0001,-219.5249 642.5,-209.5249 639.0001,-219.5249 646.0001,-219.5249"/>
</g>
<!-- Node5 -->
<g id="node6" class="node">
<title>Node5</title>
<g id="a_node6"><a xlink:href="spherewidget_8h.html" target="_top" xlink:title="spherewidget.h">
<polygon fill="none" stroke="#000000" points="779,-246.5 779,-265.5 862,-265.5 862,-246.5 779,-246.5"/>
<text text-anchor="middle" x="820.5" y="-253.5" font-family="Helvetica,sans-Serif" font-size="10.00" fill="#000000">spherewidget.h</text>
</a>
</g>
</g>
<!-- Node0&#45;&gt;Node5 -->
<g id="edge5" class="edge">
<title>Node0&#45;&gt;Node5</title>
<path fill="none" stroke="#191970" d="M673.0993,-302.3733C702.8261,-293.021 748.1159,-278.7725 780.6456,-268.5385"/>
<polygon fill="#191970" stroke="#191970" points="781.8113,-271.8409 790.3,-265.5011 779.7105,-265.1636 781.8113,-271.8409"/>
</g>
<!-- Node12 -->
<g id="node13" class="node">
<title>Node12</title>
<g id="a_node13"><a xlink:href="renderdata_8h.html" target="_top" xlink:title="renderdata.h">
<polygon fill="none" stroke="#000000" points="508,-190.5 508,-209.5 579,-209.5 579,-190.5 508,-190.5"/>
<text text-anchor="middle" x="543.5" y="-197.5" font-family="Helvetica,sans-Serif" font-size="10.00" fill="#000000">renderdata.h</text>
</a>
</g>
</g>
<!-- Node0&#45;&gt;Node12 -->
<g id="edge30" class="edge">
<title>Node0&#45;&gt;Node12</title>
<path fill="none" stroke="#191970" d="M634.0593,-302.4509C617.3281,-283.5227 579.7535,-241.014 558.6398,-217.1279"/>
<polygon fill="#191970" stroke="#191970" points="561.1646,-214.6994 551.9193,-209.5249 555.9198,-219.3354 561.1646,-214.6994"/>
</g>
<!-- Node2 -->
<g id="node3" class="node">
<title>Node2</title>
<polygon fill="none" stroke="#bfbfbf" points="12,-.5 12,-19.5 95,-19.5 95,-.5 12,-.5"/>
<text text-anchor="middle" x="53.5" y="-7.5" font-family="Helvetica,sans-Serif" font-size="10.00" fill="#000000">unordered_map</text>
</g>
<!-- Node1&#45;&gt;Node2 -->
<g id="edge2" class="edge">
<title>Node1&#45;&gt;Node2</title>
<path fill="none" stroke="#191970" d="M53.5,-56.2977C53.5,-48.3834 53.5,-38.6043 53.5,-30.0759"/>
<polygon fill="#191970" stroke="#191970" points="57.0001,-29.8469 53.5,-19.8469 50.0001,-29.847 57.0001,-29.8469"/>
</g>
<!-- Node5&#45;&gt;Node4 -->
<g id="edge6" class="edge">
<title>Node5&#45;&gt;Node4</title>
<path fill="none" stroke="#191970" d="M789.9007,-246.3733C760.1739,-237.021 714.8841,-222.7725 682.3544,-212.5385"/>
<polygon fill="#191970" stroke="#191970" points="683.2895,-209.1636 672.7,-209.5011 681.1887,-215.8409 683.2895,-209.1636"/>
</g>
<!-- Node6 -->
<g id="node7" class="node">
<title>Node6</title>
<polygon fill="none" stroke="#bfbfbf" points="1031,-190.5 1031,-209.5 1134,-209.5 1134,-190.5 1031,-190.5"/>
<text text-anchor="middle" x="1082.5" y="-197.5" font-family="Helvetica,sans-Serif" font-size="10.00" fill="#000000">QOpenGLFunctions</text>
</g>
<!-- Node5&#45;&gt;Node6 -->
<g id="edge7" class="edge">
<title>Node5&#45;&gt;Node6</title>
<path fill="none" stroke="#191970" d="M862.0147,-247.1266C906.8316,-237.5474 978.415,-222.2472 1027.796,-211.6925"/>
<polygon fill="#191970" stroke="#191970" points="1028.6225,-215.095 1037.67,-209.582 1027.1593,-208.2496 1028.6225,-215.095"/>
</g>
<!-- Node7 -->
<g id="node8" class="node">
<title>Node7</title>
<polygon fill="none" stroke="#bfbfbf" points="1152,-190.5 1152,-209.5 1231,-209.5 1231,-190.5 1152,-190.5"/>
<text text-anchor="middle" x="1191.5" y="-197.5" font-family="Helvetica,sans-Serif" font-size="10.00" fill="#000000">QMouseEvent</text>
</g>
<!-- Node5&#45;&gt;Node7 -->
<g id="edge8" class="edge">
<title>Node5&#45;&gt;Node7</title>
<path fill="none" stroke="#191970" d="M862.2105,-247.6028C865.35,-247.0377 868.4727,-246.4966 871.5,-246 988.6617,-226.7792 1021.5635,-230.245 1142.0097,-210.1568"/>
<polygon fill="#191970" stroke="#191970" points="1142.7132,-213.5876 1151.9912,-208.472 1141.5481,-206.6853 1142.7132,-213.5876"/>
</g>
<!-- Node8 -->
<g id="node9" class="node">
<title>Node8</title>
<polygon fill="none" stroke="#bfbfbf" points="706.5,-190.5 706.5,-209.5 792.5,-209.5 792.5,-190.5 706.5,-190.5"/>
<text text-anchor="middle" x="749.5" y="-197.5" font-family="Helvetica,sans-Serif" font-size="10.00" fill="#000000">QOpenGLBuffer</text>
</g>
<!-- Node5&#45;&gt;Node8 -->
<g id="edge9" class="edge">
<title>Node5&#45;&gt;Node8</title>
<path fill="none" stroke="#191970" d="M808.1327,-246.2455C797.5446,-237.8943 782.0936,-225.7076 769.7107,-215.9408"/>
<polygon fill="#191970" stroke="#191970" points="771.7447,-213.0875 761.7255,-209.6427 767.4097,-218.5837 771.7447,-213.0875"/>
</g>
<!-- Node9 -->
<g id="node10" class="node">
<title>Node9</title>
<polygon fill="none" stroke="#bfbfbf" points="876.5,-62 876.5,-81 920.5,-81 920.5,-62 876.5,-62"/>
<text text-anchor="middle" x="898.5" y="-69" font-family="Helvetica,sans-Serif" font-size="10.00" fill="#000000">vector</text>
</g>
<!-- Node5&#45;&gt;Node9 -->
<g id="edge10" class="edge">
<title>Node5&#45;&gt;Node9</title>
<path fill="none" stroke="#191970" d="M862.3985,-246.9211C908.1779,-236.5805 976.0471,-219.8472 983.5,-210 1006.8349,-179.1683 1002.4784,-156.6887 983.5,-123 972.1777,-102.9017 949.4984,-89.7497 930.4125,-81.7703"/>
<polygon fill="#191970" stroke="#191970" points="931.4275,-78.4101 920.8385,-78.0598 928.8979,-84.9371 931.4275,-78.4101"/>
</g>
<!-- Node10 -->
<g id="node11" class="node">
<title>Node10</title>
<polygon fill="none" stroke="#bfbfbf" points="927,-129 927,-148 974,-148 974,-129 927,-129"/>
<text text-anchor="middle" x="950.5" y="-136" font-family="Helvetica,sans-Serif" font-size="10.00" fill="#000000">math.h</text>
</g>
<!-- Node5&#45;&gt;Node10 -->
<g id="edge11" class="edge">
<title>Node5&#45;&gt;Node10</title>
<path fill="none" stroke="#191970" d="M821.0117,-246.3111C822.2367,-232.3035 826.3938,-206.2932 840.5,-190 846.0266,-183.6166 887.6957,-165.0618 918.1191,-152.0643"/>
<polygon fill="#191970" stroke="#191970" points="919.7057,-155.193 927.5415,-148.0621 916.9691,-148.7501 919.7057,-155.193"/>
</g>
<!-- Node11 -->
<g id="node12" class="node">
<title>Node11</title>
<polygon fill="none" stroke="#bfbfbf" points="849,-190.5 849,-209.5 902,-209.5 902,-190.5 849,-190.5"/>
<text text-anchor="middle" x="875.5" y="-197.5" font-family="Helvetica,sans-Serif" font-size="10.00" fill="#000000">GL/glu.h</text>
</g>
<!-- Node5&#45;&gt;Node11 -->
<g id="edge12" class="edge">
<title>Node5&#45;&gt;Node11</title>
<path fill="none" stroke="#191970" d="M830.0803,-246.2455C838.0458,-238.1352 849.5641,-226.4075 859.0079,-216.7919"/>
<polygon fill="#191970" stroke="#191970" points="861.5195,-219.2297 866.0295,-209.6427 856.5253,-214.3247 861.5195,-219.2297"/>
</g>
<!-- Node5&#45;&gt;Node12 -->
<g id="edge13" class="edge">
<title>Node5&#45;&gt;Node12</title>
<path fill="none" stroke="#191970" d="M778.758,-248.1315C734.1729,-239.6443 661.1807,-225.5134 589.1733,-210.3158"/>
<polygon fill="#191970" stroke="#191970" points="589.5307,-206.8139 579.0224,-208.1648 588.0796,-213.6618 589.5307,-206.8139"/>
</g>
<!-- Node22 -->
<g id="node23" class="node">
<title>Node22</title>
<polygon fill="none" stroke="#bfbfbf" points="920.5,-190.5 920.5,-209.5 974.5,-209.5 974.5,-190.5 920.5,-190.5"/>
<text text-anchor="middle" x="947.5" y="-197.5" font-family="Helvetica,sans-Serif" font-size="10.00" fill="#000000">iostream</text>
</g>
<!-- Node5&#45;&gt;Node22 -->
<g id="edge29" class="edge">
<title>Node5&#45;&gt;Node22</title>
<path fill="none" stroke="#191970" d="M842.3321,-246.3733C862.8103,-237.3435 893.6399,-223.7494 916.6319,-213.6111"/>
<polygon fill="#191970" stroke="#191970" points="918.215,-216.7383 925.9528,-209.5011 915.3907,-210.3333 918.215,-216.7383"/>
</g>
<!-- Node12&#45;&gt;Node1 -->
<g id="edge23" class="edge">
<title>Node12&#45;&gt;Node1</title>
<path fill="none" stroke="#191970" d="M507.9586,-198.5766C406.0291,-194.2005 117.8678,-179.6637 84.5,-154 66.8783,-140.4469 59.2735,-115.7036 55.9916,-96.8377"/>
<polygon fill="#191970" stroke="#191970" points="59.4364,-96.2029 54.5462,-86.8042 52.5079,-97.2011 59.4364,-96.2029"/>
</g>
<!-- Node12&#45;&gt;Node9 -->
<g id="edge15" class="edge">
<title>Node12&#45;&gt;Node9</title>
<path fill="none" stroke="#191970" d="M579.4626,-191.5393C582.1765,-190.989 584.8781,-190.4685 587.5,-190 648.1715,-179.1587 813.2404,-191.0413 862.5,-154 882.5464,-138.9259 891.607,-110.325 895.5774,-91.0838"/>
<polygon fill="#191970" stroke="#191970" points="899.0639,-91.4683 897.3714,-81.0095 892.1723,-90.241 899.0639,-91.4683"/>
</g>
<!-- Node12&#45;&gt;Node10 -->
<g id="edge16" class="edge">
<title>Node12&#45;&gt;Node10</title>
<path fill="none" stroke="#191970" d="M579.4524,-191.4805C582.1686,-190.9438 584.8736,-190.4425 587.5,-190 730.8085,-165.8575 771.6472,-189.7866 912.5,-154 915.1284,-153.3322 917.8153,-152.5203 920.4851,-151.622"/>
<polygon fill="#191970" stroke="#191970" points="921.7988,-154.8676 929.9445,-148.0928 919.3519,-148.3092 921.7988,-154.8676"/>
</g>
<!-- Node13 -->
<g id="node14" class="node">
<title>Node13</title>
<polygon fill="none" stroke="#bfbfbf" points="209,-129 209,-148 238,-148 238,-129 209,-129"/>
<text text-anchor="middle" x="223.5" y="-136" font-family="Helvetica,sans-Serif" font-size="10.00" fill="#000000">list</text>
</g>
<!-- Node12&#45;&gt;Node13 -->
<g id="edge14" class="edge">
<title>Node12&#45;&gt;Node13</title>
<path fill="none" stroke="#191970" d="M507.8573,-196.343C439.9468,-189.0673 294.5831,-171.9271 247.5,-154 246.6482,-153.6757 245.7951,-153.3181 244.9452,-152.9336"/>
<polygon fill="#191970" stroke="#191970" points="246.6154,-149.8578 236.1707,-148.0809 243.2277,-155.9834 246.6154,-149.8578"/>
</g>
<!-- Node14 -->
<g id="node15" class="node">
<title>Node14</title>
<polygon fill="none" stroke="#bfbfbf" points="491,-62 491,-81 556,-81 556,-62 491,-62"/>
<text text-anchor="middle" x="523.5" y="-69" font-family="Helvetica,sans-Serif" font-size="10.00" fill="#000000">QVector3D</text>
</g>
<!-- Node12&#45;&gt;Node14 -->
<g id="edge17" class="edge">
<title>Node12&#45;&gt;Node14</title>
<path fill="none" stroke="#191970" d="M579.4683,-191.5707C582.1809,-191.0131 584.8806,-190.4824 587.5,-190 702.3191,-168.853 917.1688,-211.9092 841.5,-123 823.8369,-102.2462 648.7255,-83.2409 566.1615,-75.3525"/>
<polygon fill="#191970" stroke="#191970" points="566.3799,-71.8577 556.0951,-74.4021 565.7218,-78.8267 566.3799,-71.8577"/>
</g>
<!-- Node15 -->
<g id="node16" class="node">
<title>Node15</title>
<polygon fill="none" stroke="#bfbfbf" points="256.5,-129 256.5,-148 306.5,-148 306.5,-129 256.5,-129"/>
<text text-anchor="middle" x="281.5" y="-136" font-family="Helvetica,sans-Serif" font-size="10.00" fill="#000000">QString</text>
</g>
<!-- Node12&#45;&gt;Node15 -->
<g id="edge18" class="edge">
<title>Node12&#45;&gt;Node15</title>
<path fill="none" stroke="#191970" d="M507.7032,-195.3651C462.249,-188.8954 381.764,-175.4755 315.5,-154 313.6486,-153.4 311.7643,-152.7277 309.88,-152.0084"/>
<polygon fill="#191970" stroke="#191970" points="311.1901,-148.7626 300.6138,-148.1362 308.4911,-155.2214 311.1901,-148.7626"/>
</g>
<!-- Node16 -->
<g id="node17" class="node">
<title>Node16</title>
<polygon fill="none" stroke="#bfbfbf" points="324.5,-129 324.5,-148 370.5,-148 370.5,-129 324.5,-129"/>
<text text-anchor="middle" x="347.5" y="-136" font-family="Helvetica,sans-Serif" font-size="10.00" fill="#000000">cnpy.h</text>
</g>
<!-- Node12&#45;&gt;Node16 -->
<g id="edge19" class="edge">
<title>Node12&#45;&gt;Node16</title>
<path fill="none" stroke="#191970" d="M507.7235,-191.9102C474.1,-183.8538 422.6367,-170.3485 379.5,-154 378.093,-153.4668 376.6638,-152.8945 375.2295,-152.2956"/>
<polygon fill="#191970" stroke="#191970" points="376.4237,-148.995 365.868,-148.0852 373.5523,-155.3791 376.4237,-148.995"/>
</g>
<!-- Node17 -->
<g id="node18" class="node">
<title>Node17</title>
<polygon fill="none" stroke="#bfbfbf" points="389,-123.5 389,-153.5 530,-153.5 530,-123.5 389,-123.5"/>
<text text-anchor="start" x="397" y="-141.5" font-family="Helvetica,sans-Serif" font-size="10.00" fill="#000000">../external&#45;libraries</text>
<text text-anchor="middle" x="459.5" y="-130.5" font-family="Helvetica,sans-Serif" font-size="10.00" fill="#000000">/glm&#45;master/glm/mat3x3.hpp</text>
</g>
<!-- Node12&#45;&gt;Node17 -->
<g id="edge20" class="edge">
<title>Node12&#45;&gt;Node17</title>
<path fill="none" stroke="#191970" d="M530.375,-190.3906C519.1119,-182.1444 502.4791,-169.9669 488.1566,-159.4807"/>
<polygon fill="#191970" stroke="#191970" points="490.185,-156.628 480.0487,-153.5446 486.0498,-162.276 490.185,-156.628"/>
</g>
<!-- Node18 -->
<g id="node19" class="node">
<title>Node18</title>
<polygon fill="none" stroke="#bfbfbf" points="548.5,-123.5 548.5,-153.5 684.5,-153.5 684.5,-123.5 548.5,-123.5"/>
<text text-anchor="start" x="556.5" y="-141.5" font-family="Helvetica,sans-Serif" font-size="10.00" fill="#000000">../external&#45;libraries</text>
<text text-anchor="middle" x="616.5" y="-130.5" font-family="Helvetica,sans-Serif" font-size="10.00" fill="#000000">/glm&#45;master/glm/matrix.hpp</text>
</g>
<!-- Node12&#45;&gt;Node18 -->
<g id="edge21" class="edge">
<title>Node12&#45;&gt;Node18</title>
<path fill="none" stroke="#191970" d="M554.9063,-190.3906C564.5115,-182.2986 578.6104,-170.4207 590.896,-160.0705"/>
<polygon fill="#191970" stroke="#191970" points="593.2495,-162.6643 598.6422,-153.5446 588.7394,-157.3109 593.2495,-162.6643"/>
</g>
<!-- Node19 -->
<g id="node20" class="node">
<title>Node19</title>
<polygon fill="none" stroke="#bfbfbf" points="702.5,-123.5 702.5,-153.5 832.5,-153.5 832.5,-123.5 702.5,-123.5"/>
<text text-anchor="start" x="710.5" y="-141.5" font-family="Helvetica,sans-Serif" font-size="10.00" fill="#000000">../external&#45;libraries</text>
<text text-anchor="middle" x="767.5" y="-130.5" font-family="Helvetica,sans-Serif" font-size="10.00" fill="#000000">/glm&#45;master/glm/vec3.hpp</text>
</g>
<!-- Node12&#45;&gt;Node19 -->
<g id="edge22" class="edge">
<title>Node12&#45;&gt;Node19</title>
<path fill="none" stroke="#191970" d="M578.5,-190.3906C611.6929,-181.2774 662.3741,-167.3627 702.9013,-156.2358"/>
<polygon fill="#191970" stroke="#191970" points="703.987,-159.5673 712.7034,-153.5446 702.1336,-152.8171 703.987,-159.5673"/>
</g>
<!-- Node20 -->
<g id="node21" class="node">
<title>Node20</title>
<g id="a_node21"><a xlink:href="spheredepthdata_8h.html" target="_top" xlink:title="spheredepthdata.h">
<polygon fill="none" stroke="#000000" points="94,-129 94,-148 191,-148 191,-129 94,-129"/>
<text text-anchor="middle" x="142.5" y="-136" font-family="Helvetica,sans-Serif" font-size="10.00" fill="#000000">spheredepthdata.h</text>
</a>
</g>
</g>
<!-- Node12&#45;&gt;Node20 -->
<g id="edge24" class="edge">
<title>Node12&#45;&gt;Node20</title>
<path fill="none" stroke="#191970" d="M507.5846,-196.7805C444.7198,-190.7938 310.832,-176.4778 199.5,-154 194.5382,-152.9982 189.3708,-151.8065 184.2615,-150.5354"/>
<polygon fill="#191970" stroke="#191970" points="185.1355,-147.1463 174.577,-148.0221 183.3771,-153.9219 185.1355,-147.1463"/>
</g>
<!-- Node20&#45;&gt;Node1 -->
<g id="edge28" class="edge">
<title>Node20&#45;&gt;Node1</title>
<path fill="none" stroke="#191970" d="M129.7485,-128.9005C117.2238,-119.4718 97.6978,-104.7725 81.5411,-92.6096"/>
<polygon fill="#191970" stroke="#191970" points="83.5486,-89.7399 73.4543,-86.5218 79.3385,-95.3324 83.5486,-89.7399"/>
</g>
<!-- Node20&#45;&gt;Node9 -->
<g id="edge25" class="edge">
<title>Node20&#45;&gt;Node9</title>
<path fill="none" stroke="#191970" d="M173.3204,-128.9602C181.7377,-126.6735 190.9081,-124.4707 199.5,-123 330.3462,-100.6031 745.9151,-78.9736 865.8207,-73.0728"/>
<polygon fill="#191970" stroke="#191970" points="866.3514,-76.5511 876.1684,-72.5666 866.0093,-69.5595 866.3514,-76.5511"/>
</g>
<!-- Node20&#45;&gt;Node14 -->
<g id="edge27" class="edge">
<title>Node20&#45;&gt;Node14</title>
<path fill="none" stroke="#191970" d="M175.2062,-128.9571C183.1187,-126.8286 191.579,-124.7013 199.5,-123 299.2544,-101.5742 418.0498,-84.9168 480.3931,-76.8456"/>
<polygon fill="#191970" stroke="#191970" points="481.1585,-80.2761 490.6316,-75.5317 480.2675,-73.3331 481.1585,-80.2761"/>
</g>
<!-- Node21 -->
<g id="node22" class="node">
<title>Node21</title>
<polygon fill="none" stroke="#bfbfbf" points="125.5,-62 125.5,-81 181.5,-81 181.5,-62 125.5,-62"/>
<text text-anchor="middle" x="153.5" y="-69" font-family="Helvetica,sans-Serif" font-size="10.00" fill="#000000">algorithm</text>
</g>
<!-- Node20&#45;&gt;Node21 -->
<g id="edge26" class="edge">
<title>Node20&#45;&gt;Node21</title>
<path fill="none" stroke="#191970" d="M144.076,-128.9005C145.6934,-119.0495 148.2553,-103.4451 150.3,-90.9912"/>
<polygon fill="#191970" stroke="#191970" points="153.7605,-91.5166 151.9269,-81.0817 146.8529,-90.3825 153.7605,-91.5166"/>
</g>
</g>
</svg>
        <g id="navigator" transform="translate(0 0)" fill="#404254">
                <rect fill="#f2f5e9" fill-opacity="0.5" stroke="#606060" stroke-width=".5" x="0" y="0" width="60" height="60"/>
                <use id="zoomplus" xlink:href="#zoomPlus" x="17" y="9" onmousedown="handleZoom(evt,'in')"/>
                <use id="zoomminus" xlink:href="#zoomMin" x="42" y="9" onmousedown="handleZoom(evt,'out')"/>
                <use id="reset" xlink:href="#resetDef" x="30" y="36" onmousedown="handleReset()"/>
                <g id="arrowUp" xlink:href="#dirArrow" transform="translate(30 24)" onmousedown="handlePan(0,-1)">
                  <use xlink:href="#rim" fill="#404040">
                        <set attributeName="fill" to="#808080" begin="arrowUp.mouseover" end="arrowUp.mouseout"/>
                  </use>
                  <path fill="none" stroke="white" stroke-width="1.5" d="M0,-3.0v7 M-2.5,-0.5L0,-3.0L2.5,-0.5"/>
                </g>
                <g id="arrowRight" xlink:href="#dirArrow" transform="rotate(90) translate(36 -43)" onmousedown="handlePan(1,0)">
                  <use xlink:href="#rim" fill="#404040">
                        <set attributeName="fill" to="#808080" begin="arrowRight.mouseover" end="arrowRight.mouseout"/>
                  </use>
                  <path fill="none" stroke="white" stroke-width="1.5" d="M0,-3.0v7 M-2.5,-0.5L0,-3.0L2.5,-0.5"/>
                </g>
                <g id="arrowDown" xlink:href="#dirArrow" transform="rotate(180) translate(-30 -48)" onmousedown="handlePan(0,1)">
                  <use xlink:href="#rim" fill="#404040">
                        <set attributeName="fill" to="#808080" begin="arrowDown.mouseover" end="arrowDown.mouseout"/>
                  </use>
                  <path fill="none" stroke="white" stroke-width="1.5" d="M0,-3.0v7 M-2.5,-0.5L0,-3.0L2.5,-0.5"/>
                </g>
                <g id="arrowLeft" xlink:href="#dirArrow" transform="rotate(270) translate(-36 17)" onmousedown="handlePan(-1,0)">
                  <use xlink:href="#rim" fill="#404040">
                        <set attributeName="fill" to="#808080" begin="arrowLeft.mouseover" end="arrowLeft.mouseout"/>
                  </use>
                  <path fill="none" stroke="white" stroke-width="1.5" d="M0,-3.0v7 M-2.5,-0.5L0,-3.0L2.5,-0.5"/>
                </g>
        </g>
        <svg viewBox="0 0 15 15" width="100%" height="30px" preserveAspectRatio="xMaxYMin meet">
         <g id="arrow_out" transform="scale(0.3 0.3)">
          <a xlink:href="mainwindow_8h__incl_org.svg" target="_base">
           <rect id="button" ry="5" rx="5" y="6" x="6" height="38" width="38"
                fill="#f2f5e9" fill-opacity="0.5" stroke="#606060" stroke-width="1.0"/>
           <path id="arrow"
             d="M 11.500037,31.436501 C 11.940474,20.09759 22.043105,11.32322 32.158766,21.979434 L 37.068811,17.246167 C 37.068811,17.246167 37.088388,32 37.088388,32 L 22.160133,31.978069 C 22.160133,31.978069 26.997745,27.140456 26.997745,27.140456 C 18.528582,18.264221 13.291696,25.230495 11.500037,31.436501 z"
             style="fill:#404040;"/>
          </a>
         </g>
        </svg>
</svg>
