<?xml version="1.0" encoding="UTF-8" standalone="no"?>
<!DOCTYPE svg PUBLIC "-//W3C//DTD SVG 1.1//EN"
 "http://www.w3.org/Graphics/SVG/1.1/DTD/svg11.dtd">
<!-- Generated by graphviz version 2.40.1 (20161225.0304)
 -->
<!-- Title: renderdata.h Pages: 1 -->
<!--zoomable 218 -->
<svg id="main" version="1.1" xmlns="http://www.w3.org/2000/svg" xmlns:xlink="http://www.w3.org/1999/xlink" xml:space="preserve" onload="init(evt)">
<style type="text/css"><![CDATA[
.edge:hover path { stroke: red; }
.edge:hover polygon { stroke: red; fill: red; }
]]></style>
<script type="text/javascript"><![CDATA[
var edges = document.getElementsByTagName('g');
if (edges && edges.length) {
  for (var i=0;i<edges.length;i++) {
    if (edges[i].id.substr(0,4)=='edge') {
      edges[i].setAttribute('class','edge');
    }
  }
}
]]></script>
        <defs>
                <circle id="rim" cx="0" cy="0" r="7"/>
                <circle id="rim2" cx="0" cy="0" r="3.5"/>
                <g id="zoomPlus">
                        <use xlink:href="#rim" fill="#404040">
                                <set attributeName="fill" to="#808080" begin="zoomplus.mouseover" end="zoomplus.mouseout"/>
                        </use>
                        <path d="M-4,0h8M0,-4v8" fill="none" stroke="white" stroke-width="1.5" pointer-events="none"/>
                </g>
                <g id="zoomMin">
                        <use xlink:href="#rim" fill="#404040">
                                <set attributeName="fill" to="#808080" begin="zoomminus.mouseover" end="zoomminus.mouseout"/>
                        </use>
                        <path d="M-4,0h8" fill="none" stroke="white" stroke-width="1.5" pointer-events="none"/>
                </g>
                <g id="dirArrow">
                        <path fill="none" stroke="white" stroke-width="1.5" d="M0,-3.0v7 M-2.5,-0.5L0,-3.0L2.5,-0.5"/>
                </g>
               <g id="resetDef">
                       <use xlink:href="#rim2" fill="#404040">
                               <set attributeName="fill" to="#808080" begin="reset.mouseover" end="reset.mouseout"/>
                       </use>
               </g>
        </defs>

<script type="text/javascript">
var viewWidth = 928;
var viewHeight = 218;
var sectionId = 'dynsection-0';
</script>
<script xlink:href="svgpan.js"/>
<svg id="graph" class="graph">
<g id="viewport">
<title>renderdata.h</title>
<!-- Node0 -->
<g id="node1" class="node">
<title>Node0</title>
<polygon fill="#bfbfbf" stroke="#000000" points="266,-190.5 266,-209.5 337,-209.5 337,-190.5 266,-190.5"/>
<text text-anchor="middle" x="301.5" y="-197.5" font-family="Helvetica,sans-Serif" font-size="10.00" fill="#000000">renderdata.h</text>
</g>
<!-- Node1 -->
<g id="node2" class="node">
<title>Node1</title>
<polygon fill="none" stroke="#bfbfbf" points="0,-129 0,-148 29,-148 29,-129 0,-129"/>
<text text-anchor="middle" x="14.5" y="-136" font-family="Helvetica,sans-Serif" font-size="10.00" fill="#000000">list</text>
</g>
<!-- Node0&#45;&gt;Node1 -->
<g id="edge1" class="edge">
<title>Node0&#45;&gt;Node1</title>
<path fill="none" stroke="#191970" d="M265.9788,-197.2177C215.3952,-192.4678 120.2354,-180.5968 43.5,-154 41.8313,-153.4216 40.1423,-152.7566 38.4624,-152.0345"/>
<polygon fill="#191970" stroke="#191970" points="39.6647,-148.7264 29.1438,-147.4773 36.5895,-155.0147 39.6647,-148.7264"/>
</g>
<!-- Node2 -->
<g id="node3" class="node">
<title>Node2</title>
<polygon fill="none" stroke="#bfbfbf" points=".5,-62 .5,-81 44.5,-81 44.5,-62 .5,-62"/>
<text text-anchor="middle" x="22.5" y="-69" font-family="Helvetica,sans-Serif" font-size="10.00" fill="#000000">vector</text>
</g>
<!-- Node0&#45;&gt;Node2 -->
<g id="edge2" class="edge">
<title>Node0&#45;&gt;Node2</title>
<path fill="none" stroke="#191970" d="M265.748,-194.7422C214.7106,-186.7812 123.9834,-170.806 95.5,-154 68.5863,-138.1201 46.2901,-108.9027 33.681,-89.8425"/>
<polygon fill="#191970" stroke="#191970" points="36.4736,-87.7124 28.144,-81.1649 30.5726,-91.4777 36.4736,-87.7124"/>
</g>
<!-- Node3 -->
<g id="node4" class="node">
<title>Node3</title>
<polygon fill="none" stroke="#bfbfbf" points="278,-129 278,-148 325,-148 325,-129 278,-129"/>
<text text-anchor="middle" x="301.5" y="-136" font-family="Helvetica,sans-Serif" font-size="10.00" fill="#000000">math.h</text>
</g>
<!-- Node0&#45;&gt;Node3 -->
<g id="edge3" class="edge">
<title>Node0&#45;&gt;Node3</title>
<path fill="none" stroke="#191970" d="M301.5,-190.3906C301.5,-181.8657 301.5,-169.1392 301.5,-158.4235"/>
<polygon fill="#191970" stroke="#191970" points="305.0001,-158.2448 301.5,-148.2449 298.0001,-158.2449 305.0001,-158.2448"/>
</g>
<!-- Node4 -->
<g id="node5" class="node">
<title>Node4</title>
<polygon fill="none" stroke="#bfbfbf" points="63,-62 63,-81 128,-81 128,-62 63,-62"/>
<text text-anchor="middle" x="95.5" y="-69" font-family="Helvetica,sans-Serif" font-size="10.00" fill="#000000">QVector3D</text>
</g>
<!-- Node0&#45;&gt;Node4 -->
<g id="edge4" class="edge">
<title>Node0&#45;&gt;Node4</title>
<path fill="none" stroke="#191970" d="M265.8148,-195.6942C217.6328,-189.1554 135.3835,-175.1959 114.5,-154 98.1926,-137.4487 94.7802,-109.8789 94.5555,-91.2105"/>
<polygon fill="#191970" stroke="#191970" points="98.0559,-91.2156 94.7293,-81.1566 91.0569,-91.0946 98.0559,-91.2156"/>
</g>
<!-- Node5 -->
<g id="node6" class="node">
<title>Node5</title>
<polygon fill="none" stroke="#bfbfbf" points="343.5,-129 343.5,-148 393.5,-148 393.5,-129 343.5,-129"/>
<text text-anchor="middle" x="368.5" y="-136" font-family="Helvetica,sans-Serif" font-size="10.00" fill="#000000">QString</text>
</g>
<!-- Node0&#45;&gt;Node5 -->
<g id="edge5" class="edge">
<title>Node0&#45;&gt;Node5</title>
<path fill="none" stroke="#191970" d="M311.9688,-190.3906C322.2337,-180.9683 338.0903,-166.4134 350.4006,-155.1137"/>
<polygon fill="#191970" stroke="#191970" points="352.8834,-157.5856 357.8837,-148.2449 348.1499,-152.4287 352.8834,-157.5856"/>
</g>
<!-- Node6 -->
<g id="node7" class="node">
<title>Node6</title>
<polygon fill="none" stroke="#bfbfbf" points="411.5,-129 411.5,-148 457.5,-148 457.5,-129 411.5,-129"/>
<text text-anchor="middle" x="434.5" y="-136" font-family="Helvetica,sans-Serif" font-size="10.00" fill="#000000">cnpy.h</text>
</g>
<!-- Node0&#45;&gt;Node6 -->
<g id="edge6" class="edge">
<title>Node0&#45;&gt;Node6</title>
<path fill="none" stroke="#191970" d="M322.8478,-190.4539C343.3365,-181.2503 375.121,-166.8635 402.5,-154 403.5057,-153.5275 404.5281,-153.0448 405.56,-152.5557"/>
<polygon fill="#191970" stroke="#191970" points="407.3959,-155.5573 414.9043,-148.0824 404.3733,-149.2435 407.3959,-155.5573"/>
</g>
<!-- Node7 -->
<g id="node8" class="node">
<title>Node7</title>
<polygon fill="none" stroke="#bfbfbf" points="476,-123.5 476,-153.5 617,-153.5 617,-123.5 476,-123.5"/>
<text text-anchor="start" x="484" y="-141.5" font-family="Helvetica,sans-Serif" font-size="10.00" fill="#000000">../external&#45;libraries</text>
<text text-anchor="middle" x="546.5" y="-130.5" font-family="Helvetica,sans-Serif" font-size="10.00" fill="#000000">/glm&#45;master/glm/mat3x3.hpp</text>
</g>
<!-- Node0&#45;&gt;Node7 -->
<g id="edge7" class="edge">
<title>Node0&#45;&gt;Node7</title>
<path fill="none" stroke="#191970" d="M337.1251,-191.0574C373.5997,-181.9015 431.2452,-167.4313 476.8234,-155.9902"/>
<polygon fill="#191970" stroke="#191970" points="477.8014,-159.3534 486.6483,-153.524 476.097,-152.5641 477.8014,-159.3534"/>
</g>
<!-- Node8 -->
<g id="node9" class="node">
<title>Node8</title>
<polygon fill="none" stroke="#bfbfbf" points="635.5,-123.5 635.5,-153.5 771.5,-153.5 771.5,-123.5 635.5,-123.5"/>
<text text-anchor="start" x="643.5" y="-141.5" font-family="Helvetica,sans-Serif" font-size="10.00" fill="#000000">../external&#45;libraries</text>
<text text-anchor="middle" x="703.5" y="-130.5" font-family="Helvetica,sans-Serif" font-size="10.00" fill="#000000">/glm&#45;master/glm/matrix.hpp</text>
</g>
<!-- Node0&#45;&gt;Node8 -->
<g id="edge8" class="edge">
<title>Node0&#45;&gt;Node8</title>
<path fill="none" stroke="#191970" d="M337.1929,-195.6367C395.3771,-188.3745 514.5004,-172.8837 625.1145,-154.1839"/>
<polygon fill="#191970" stroke="#191970" points="625.8345,-157.6118 635.1047,-152.4821 624.659,-150.7112 625.8345,-157.6118"/>
</g>
<!-- Node9 -->
<g id="node10" class="node">
<title>Node9</title>
<polygon fill="none" stroke="#bfbfbf" points="789.5,-123.5 789.5,-153.5 919.5,-153.5 919.5,-123.5 789.5,-123.5"/>
<text text-anchor="start" x="797.5" y="-141.5" font-family="Helvetica,sans-Serif" font-size="10.00" fill="#000000">../external&#45;libraries</text>
<text text-anchor="middle" x="854.5" y="-130.5" font-family="Helvetica,sans-Serif" font-size="10.00" fill="#000000">/glm&#45;master/glm/vec3.hpp</text>
</g>
<!-- Node0&#45;&gt;Node9 -->
<g id="edge9" class="edge">
<title>Node0&#45;&gt;Node9</title>
<path fill="none" stroke="#191970" d="M337.1197,-197.9333C415.3533,-193.1041 608.2017,-179.6158 779.2646,-154.0871"/>
<polygon fill="#191970" stroke="#191970" points="779.836,-157.5405 789.2013,-152.5867 778.7908,-150.619 779.836,-157.5405"/>
</g>
<!-- Node10 -->
<g id="node11" class="node">
<title>Node10</title>
<g id="a_node11"><a xlink:href="colormaps__matplotlib_8h.html" target="_top" xlink:title="resources/colormaps\l_matplotlib.h">
<polygon fill="none" stroke="#000000" points="221,-56.5 221,-86.5 328,-86.5 328,-56.5 221,-56.5"/>
<text text-anchor="start" x="229" y="-74.5" font-family="Helvetica,sans-Serif" font-size="10.00" fill="#000000">resources/colormaps</text>
<text text-anchor="middle" x="274.5" y="-63.5" font-family="Helvetica,sans-Serif" font-size="10.00" fill="#000000">_matplotlib.h</text>
</a>
</g>
</g>
<!-- Node0&#45;&gt;Node10 -->
<g id="edge10" class="edge">
<title>Node0&#45;&gt;Node10</title>
<path fill="none" stroke="#191970" d="M291.8508,-190.4346C283.85,-181.7723 273.0738,-168.2221 268.5,-154 262.513,-135.3837 264.5929,-113.2297 267.8517,-96.5687"/>
<polygon fill="#191970" stroke="#191970" points="271.3352,-97.0272 270.0905,-86.5058 264.5023,-95.507 271.3352,-97.0272"/>
</g>
<!-- Node12 -->
<g id="node13" class="node">
<title>Node12</title>
<g id="a_node13"><a xlink:href="spheredepthdata_8h.html" target="_top" xlink:title="spheredepthdata.h">
<polygon fill="none" stroke="#000000" points="124,-129 124,-148 221,-148 221,-129 124,-129"/>
<text text-anchor="middle" x="172.5" y="-136" font-family="Helvetica,sans-Serif" font-size="10.00" fill="#000000">spheredepthdata.h</text>
</a>
</g>
</g>
<!-- Node0&#45;&gt;Node12 -->
<g id="edge12" class="edge">
<title>Node0&#45;&gt;Node12</title>
<path fill="none" stroke="#191970" d="M281.3438,-190.3906C259.949,-180.1908 225.938,-163.9763 201.6298,-152.3875"/>
<polygon fill="#191970" stroke="#191970" points="203.0476,-149.186 192.5147,-148.0419 200.0352,-155.5047 203.0476,-149.186"/>
</g>
<!-- Node11 -->
<g id="node12" class="node">
<title>Node11</title>
<polygon fill="none" stroke="#bfbfbf" points="233,-.5 233,-19.5 316,-19.5 316,-.5 233,-.5"/>
<text text-anchor="middle" x="274.5" y="-7.5" font-family="Helvetica,sans-Serif" font-size="10.00" fill="#000000">unordered_map</text>
</g>
<!-- Node10&#45;&gt;Node11 -->
<g id="edge11" class="edge">
<title>Node10&#45;&gt;Node11</title>
<path fill="none" stroke="#191970" d="M274.5,-56.2977C274.5,-48.3834 274.5,-38.6043 274.5,-30.0759"/>
<polygon fill="#191970" stroke="#191970" points="278.0001,-29.8469 274.5,-19.8469 271.0001,-29.847 278.0001,-29.8469"/>
</g>
<!-- Node12&#45;&gt;Node2 -->
<g id="edge13" class="edge">
<title>Node12&#45;&gt;Node2</title>
<path fill="none" stroke="#191970" d="M149.52,-128.9985C125.4294,-118.9346 86.5562,-102.4027 53.5,-87 52.491,-86.5298 51.4659,-86.0467 50.4324,-85.5549"/>
<polygon fill="#191970" stroke="#191970" points="51.6296,-82.2449 41.1068,-81.0117 48.5638,-88.5379 51.6296,-82.2449"/>
</g>
<!-- Node12&#45;&gt;Node4 -->
<g id="edge15" class="edge">
<title>Node12&#45;&gt;Node4</title>
<path fill="none" stroke="#191970" d="M161.4678,-128.9005C149.1172,-118.1539 128.8977,-100.5603 114.0943,-87.6794"/>
<polygon fill="#191970" stroke="#191970" points="116.3532,-85.0055 106.5118,-81.0817 111.7582,-90.2863 116.3532,-85.0055"/>
</g>
<!-- Node12&#45;&gt;Node10 -->
<g id="edge16" class="edge">
<title>Node12&#45;&gt;Node10</title>
<path fill="none" stroke="#191970" d="M187.1141,-128.9005C201.6658,-119.3421 224.4638,-104.3669 243.1252,-92.1089"/>
<polygon fill="#191970" stroke="#191970" points="245.1945,-94.9373 251.631,-86.5218 241.3513,-89.0866 245.1945,-94.9373"/>
</g>
<!-- Node13 -->
<g id="node14" class="node">
<title>Node13</title>
<polygon fill="none" stroke="#bfbfbf" points="146.5,-62 146.5,-81 202.5,-81 202.5,-62 146.5,-62"/>
<text text-anchor="middle" x="174.5" y="-69" font-family="Helvetica,sans-Serif" font-size="10.00" fill="#000000">algorithm</text>
</g>
<!-- Node12&#45;&gt;Node13 -->
<g id="edge14" class="edge">
<title>Node12&#45;&gt;Node13</title>
<path fill="none" stroke="#191970" d="M172.7866,-128.9005C173.0776,-119.149 173.537,-103.7597 173.9069,-91.3695"/>
<polygon fill="#191970" stroke="#191970" points="177.414,-91.1817 174.214,-81.0817 170.4171,-90.9727 177.414,-91.1817"/>
</g>
</g>
</svg>
        <g id="navigator" transform="translate(0 0)" fill="#404254">
                <rect fill="#f2f5e9" fill-opacity="0.5" stroke="#606060" stroke-width=".5" x="0" y="0" width="60" height="60"/>
                <use id="zoomplus" xlink:href="#zoomPlus" x="17" y="9" onmousedown="handleZoom(evt,'in')"/>
                <use id="zoomminus" xlink:href="#zoomMin" x="42" y="9" onmousedown="handleZoom(evt,'out')"/>
                <use id="reset" xlink:href="#resetDef" x="30" y="36" onmousedown="handleReset()"/>
                <g id="arrowUp" xlink:href="#dirArrow" transform="translate(30 24)" onmousedown="handlePan(0,-1)">
                  <use xlink:href="#rim" fill="#404040">
                        <set attributeName="fill" to="#808080" begin="arrowUp.mouseover" end="arrowUp.mouseout"/>
                  </use>
                  <path fill="none" stroke="white" stroke-width="1.5" d="M0,-3.0v7 M-2.5,-0.5L0,-3.0L2.5,-0.5"/>
                </g>
                <g id="arrowRight" xlink:href="#dirArrow" transform="rotate(90) translate(36 -43)" onmousedown="handlePan(1,0)">
                  <use xlink:href="#rim" fill="#404040">
                        <set attributeName="fill" to="#808080" begin="arrowRight.mouseover" end="arrowRight.mouseout"/>
                  </use>
                  <path fill="none" stroke="white" stroke-width="1.5" d="M0,-3.0v7 M-2.5,-0.5L0,-3.0L2.5,-0.5"/>
                </g>
                <g id="arrowDown" xlink:href="#dirArrow" transform="rotate(180) translate(-30 -48)" onmousedown="handlePan(0,1)">
                  <use xlink:href="#rim" fill="#404040">
                        <set attributeName="fill" to="#808080" begin="arrowDown.mouseover" end="arrowDown.mouseout"/>
                  </use>
                  <path fill="none" stroke="white" stroke-width="1.5" d="M0,-3.0v7 M-2.5,-0.5L0,-3.0L2.5,-0.5"/>
                </g>
                <g id="arrowLeft" xlink:href="#dirArrow" transform="rotate(270) translate(-36 17)" onmousedown="handlePan(-1,0)">
                  <use xlink:href="#rim" fill="#404040">
                        <set attributeName="fill" to="#808080" begin="arrowLeft.mouseover" end="arrowLeft.mouseout"/>
                  </use>
                  <path fill="none" stroke="white" stroke-width="1.5" d="M0,-3.0v7 M-2.5,-0.5L0,-3.0L2.5,-0.5"/>
                </g>
        </g>
        <svg viewBox="0 0 15 15" width="100%" height="30px" preserveAspectRatio="xMaxYMin meet">
         <g id="arrow_out" transform="scale(0.3 0.3)">
          <a xlink:href="renderdata_8h__incl_org.svg" target="_base">
           <rect id="button" ry="5" rx="5" y="6" x="6" height="38" width="38"
                fill="#f2f5e9" fill-opacity="0.5" stroke="#606060" stroke-width="1.0"/>
           <path id="arrow"
             d="M 11.500037,31.436501 C 11.940474,20.09759 22.043105,11.32322 32.158766,21.979434 L 37.068811,17.246167 C 37.068811,17.246167 37.088388,32 37.088388,32 L 22.160133,31.978069 C 22.160133,31.978069 26.997745,27.140456 26.997745,27.140456 C 18.528582,18.264221 13.291696,25.230495 11.500037,31.436501 z"
             style="fill:#404040;"/>
          </a>
         </g>
        </svg>
</svg>
