<?xml version="1.0" encoding="UTF-8" standalone="no"?>
<!DOCTYPE svg PUBLIC "-//W3C//DTD SVG 1.1//EN"
 "http://www.w3.org/Graphics/SVG/1.1/DTD/svg11.dtd">
<!-- Generated by graphviz version 2.40.1 (20161225.0304)
 -->
<!-- Title: spherewidget.cpp Pages: 1 -->
<svg width="1109pt" height="330pt"
 viewBox="0.00 0.00 1108.50 330.00" xmlns="http://www.w3.org/2000/svg" xmlns:xlink="http://www.w3.org/1999/xlink">
<g id="graph0" class="graph" transform="scale(1 1) rotate(0) translate(4 326)">
<title>spherewidget.cpp</title>
<!-- Node0 -->
<g id="node1" class="node">
<title>Node0</title>
<polygon fill="#bfbfbf" stroke="#000000" points="559,-302.5 559,-321.5 652,-321.5 652,-302.5 559,-302.5"/>
<text text-anchor="middle" x="605.5" y="-309.5" font-family="Helvetica,sans-Serif" font-size="10.00" fill="#000000">spherewidget.cpp</text>
</g>
<!-- Node1 -->
<g id="node2" class="node">
<title>Node1</title>
<g id="a_node2"><a xlink:href="spherewidget_8h.html" target="_top" xlink:title="spherewidget.h">
<polygon fill="none" stroke="#000000" points="564,-246.5 564,-265.5 647,-265.5 647,-246.5 564,-246.5"/>
<text text-anchor="middle" x="605.5" y="-253.5" font-family="Helvetica,sans-Serif" font-size="10.00" fill="#000000">spherewidget.h</text>
</a>
</g>
</g>
<!-- Node0&#45;&gt;Node1 -->
<g id="edge1" class="edge">
<title>Node0&#45;&gt;Node1</title>
<path fill="none" stroke="#191970" d="M605.5,-302.2455C605.5,-294.9382 605.5,-284.6944 605.5,-275.7046"/>
<polygon fill="#191970" stroke="#191970" points="609.0001,-275.6426 605.5,-265.6427 602.0001,-275.6427 609.0001,-275.6426"/>
</g>
<!-- Node2 -->
<g id="node3" class="node">
<title>Node2</title>
<polygon fill="none" stroke="#bfbfbf" points="164,-190.5 164,-209.5 255,-209.5 255,-190.5 164,-190.5"/>
<text text-anchor="middle" x="209.5" y="-197.5" font-family="Helvetica,sans-Serif" font-size="10.00" fill="#000000">QOpenGLWidget</text>
</g>
<!-- Node1&#45;&gt;Node2 -->
<g id="edge2" class="edge">
<title>Node1&#45;&gt;Node2</title>
<path fill="none" stroke="#191970" d="M563.8127,-251.0669C501.132,-243.5018 378.6564,-228.1485 265.0471,-210.1919"/>
<polygon fill="#191970" stroke="#191970" points="265.5635,-206.7301 255.1377,-208.6153 264.4635,-213.6431 265.5635,-206.7301"/>
</g>
<!-- Node3 -->
<g id="node4" class="node">
<title>Node3</title>
<polygon fill="none" stroke="#bfbfbf" points="273,-190.5 273,-209.5 376,-209.5 376,-190.5 273,-190.5"/>
<text text-anchor="middle" x="324.5" y="-197.5" font-family="Helvetica,sans-Serif" font-size="10.00" fill="#000000">QOpenGLFunctions</text>
</g>
<!-- Node1&#45;&gt;Node3 -->
<g id="edge3" class="edge">
<title>Node1&#45;&gt;Node3</title>
<path fill="none" stroke="#191970" d="M563.7349,-247.6767C515.7626,-238.1164 436.7376,-222.3676 382.7384,-211.6062"/>
<polygon fill="#191970" stroke="#191970" points="383.1159,-208.1127 372.6247,-209.5907 381.7477,-214.9777 383.1159,-208.1127"/>
</g>
<!-- Node4 -->
<g id="node5" class="node">
<title>Node4</title>
<polygon fill="none" stroke="#bfbfbf" points="394,-190.5 394,-209.5 473,-209.5 473,-190.5 394,-190.5"/>
<text text-anchor="middle" x="433.5" y="-197.5" font-family="Helvetica,sans-Serif" font-size="10.00" fill="#000000">QMouseEvent</text>
</g>
<!-- Node1&#45;&gt;Node4 -->
<g id="edge4" class="edge">
<title>Node1&#45;&gt;Node4</title>
<path fill="none" stroke="#191970" d="M575.9321,-246.3733C547.3312,-237.0613 503.8212,-222.8953 472.4181,-212.671"/>
<polygon fill="#191970" stroke="#191970" points="473.2743,-209.269 462.682,-209.5011 471.1072,-215.9251 473.2743,-209.269"/>
</g>
<!-- Node5 -->
<g id="node6" class="node">
<title>Node5</title>
<polygon fill="none" stroke="#bfbfbf" points="491.5,-190.5 491.5,-209.5 577.5,-209.5 577.5,-190.5 491.5,-190.5"/>
<text text-anchor="middle" x="534.5" y="-197.5" font-family="Helvetica,sans-Serif" font-size="10.00" fill="#000000">QOpenGLBuffer</text>
</g>
<!-- Node1&#45;&gt;Node5 -->
<g id="edge5" class="edge">
<title>Node1&#45;&gt;Node5</title>
<path fill="none" stroke="#191970" d="M593.1327,-246.2455C582.5446,-237.8943 567.0936,-225.7076 554.7107,-215.9408"/>
<polygon fill="#191970" stroke="#191970" points="556.7447,-213.0875 546.7255,-209.6427 552.4097,-218.5837 556.7447,-213.0875"/>
</g>
<!-- Node6 -->
<g id="node7" class="node">
<title>Node6</title>
<polygon fill="none" stroke="#bfbfbf" points="902.5,-62 902.5,-81 946.5,-81 946.5,-62 902.5,-62"/>
<text text-anchor="middle" x="924.5" y="-69" font-family="Helvetica,sans-Serif" font-size="10.00" fill="#000000">vector</text>
</g>
<!-- Node1&#45;&gt;Node6 -->
<g id="edge6" class="edge">
<title>Node1&#45;&gt;Node6</title>
<path fill="none" stroke="#191970" d="M647.1572,-247.8708C723.0027,-232.197 879.0053,-195.6441 913.5,-154 927.9268,-136.5831 928.8246,-109.6249 927.3437,-91.3028"/>
<polygon fill="#191970" stroke="#191970" points="930.8009,-90.7236 926.2139,-81.1732 923.844,-91.4996 930.8009,-90.7236"/>
</g>
<!-- Node7 -->
<g id="node8" class="node">
<title>Node7</title>
<polygon fill="none" stroke="#bfbfbf" points="0,-129 0,-148 47,-148 47,-129 0,-129"/>
<text text-anchor="middle" x="23.5" y="-136" font-family="Helvetica,sans-Serif" font-size="10.00" fill="#000000">math.h</text>
</g>
<!-- Node1&#45;&gt;Node7 -->
<g id="edge7" class="edge">
<title>Node1&#45;&gt;Node7</title>
<path fill="none" stroke="#191970" d="M605.8878,-246.0609C605.8652,-231.2391 603.3857,-203.6313 586.5,-190 540.5729,-152.9244 113.6387,-168.8011 56.5,-154 54.5239,-153.4881 52.522,-152.8592 50.5321,-152.1509"/>
<polygon fill="#191970" stroke="#191970" points="51.4353,-148.7357 40.8583,-148.1217 48.7439,-155.1976 51.4353,-148.7357"/>
</g>
<!-- Node8 -->
<g id="node9" class="node">
<title>Node8</title>
<polygon fill="none" stroke="#bfbfbf" points="975,-190.5 975,-209.5 1028,-209.5 1028,-190.5 975,-190.5"/>
<text text-anchor="middle" x="1001.5" y="-197.5" font-family="Helvetica,sans-Serif" font-size="10.00" fill="#000000">GL/glu.h</text>
</g>
<!-- Node1&#45;&gt;Node8 -->
<g id="edge8" class="edge">
<title>Node1&#45;&gt;Node8</title>
<path fill="none" stroke="#191970" d="M647.2699,-252.0968C713.8704,-245.5352 848.0804,-230.9272 960.5,-210 961.9406,-209.7318 963.4063,-209.4445 964.8845,-209.1427"/>
<polygon fill="#191970" stroke="#191970" points="965.6695,-212.5538 974.6855,-206.9894 964.1673,-205.7169 965.6695,-212.5538"/>
</g>
<!-- Node9 -->
<g id="node10" class="node">
<title>Node9</title>
<g id="a_node10"><a xlink:href="renderdata_8h.html" target="_top" xlink:title="renderdata.h">
<polygon fill="none" stroke="#000000" points="634,-190.5 634,-209.5 705,-209.5 705,-190.5 634,-190.5"/>
<text text-anchor="middle" x="669.5" y="-197.5" font-family="Helvetica,sans-Serif" font-size="10.00" fill="#000000">renderdata.h</text>
</a>
</g>
</g>
<!-- Node1&#45;&gt;Node9 -->
<g id="edge9" class="edge">
<title>Node1&#45;&gt;Node9</title>
<path fill="none" stroke="#191970" d="M616.6479,-246.2455C626.0087,-238.0549 639.5858,-226.1749 650.6349,-216.5069"/>
<polygon fill="#191970" stroke="#191970" points="653.2588,-218.8618 658.4798,-209.6427 648.6492,-213.5937 653.2588,-218.8618"/>
</g>
<!-- Node21 -->
<g id="node22" class="node">
<title>Node21</title>
<polygon fill="none" stroke="#bfbfbf" points="1046.5,-190.5 1046.5,-209.5 1100.5,-209.5 1100.5,-190.5 1046.5,-190.5"/>
<text text-anchor="middle" x="1073.5" y="-197.5" font-family="Helvetica,sans-Serif" font-size="10.00" fill="#000000">iostream</text>
</g>
<!-- Node1&#45;&gt;Node21 -->
<g id="edge26" class="edge">
<title>Node1&#45;&gt;Node21</title>
<path fill="none" stroke="#191970" d="M647.2356,-253.8483C722.9778,-249.4488 888.1687,-237.5814 1036.3035,-209.9484"/>
<polygon fill="#191970" stroke="#191970" points="1037.3129,-213.3195 1046.4862,-208.0186 1036.0094,-206.4419 1037.3129,-213.3195"/>
</g>
<!-- Node9&#45;&gt;Node6 -->
<g id="edge11" class="edge">
<title>Node9&#45;&gt;Node6</title>
<path fill="none" stroke="#191970" d="M705.3363,-196.5392C760.2462,-190.5837 861.764,-176.7912 889.5,-154 908.6929,-138.2289 917.5596,-110.0389 921.5149,-91.0558"/>
<polygon fill="#191970" stroke="#191970" points="924.9787,-91.5699 923.3172,-81.1062 918.0907,-90.3222 924.9787,-91.5699"/>
</g>
<!-- Node9&#45;&gt;Node7 -->
<g id="edge12" class="edge">
<title>Node9&#45;&gt;Node7</title>
<path fill="none" stroke="#191970" d="M633.8171,-192.2612C629.0206,-191.3978 624.1518,-190.6111 619.5,-190 370.9029,-157.3408 299.3462,-216.393 56.5,-154 54.5229,-153.492 52.5202,-152.8661 50.5298,-152.1599"/>
<polygon fill="#191970" stroke="#191970" points="51.4321,-148.7445 40.8547,-148.1355 48.7437,-155.2077 51.4321,-148.7445"/>
</g>
<!-- Node10 -->
<g id="node11" class="node">
<title>Node10</title>
<polygon fill="none" stroke="#bfbfbf" points="736,-129 736,-148 765,-148 765,-129 736,-129"/>
<text text-anchor="middle" x="750.5" y="-136" font-family="Helvetica,sans-Serif" font-size="10.00" fill="#000000">list</text>
</g>
<!-- Node9&#45;&gt;Node10 -->
<g id="edge10" class="edge">
<title>Node9&#45;&gt;Node10</title>
<path fill="none" stroke="#191970" d="M682.1563,-190.3906C694.8768,-180.7324 714.7004,-165.6812 729.7284,-154.271"/>
<polygon fill="#191970" stroke="#191970" points="732.0846,-156.8766 737.9326,-148.0419 727.8516,-151.3015 732.0846,-156.8766"/>
</g>
<!-- Node11 -->
<g id="node12" class="node">
<title>Node11</title>
<polygon fill="none" stroke="#bfbfbf" points="620,-62 620,-81 685,-81 685,-62 620,-62"/>
<text text-anchor="middle" x="652.5" y="-69" font-family="Helvetica,sans-Serif" font-size="10.00" fill="#000000">QVector3D</text>
</g>
<!-- Node9&#45;&gt;Node11 -->
<g id="edge13" class="edge">
<title>Node9&#45;&gt;Node11</title>
<path fill="none" stroke="#191970" d="M668.2222,-190.3416C665.4533,-169.4114 658.8507,-119.504 655.1428,-91.4762"/>
<polygon fill="#191970" stroke="#191970" points="658.574,-90.725 653.7926,-81.2705 651.6344,-91.6432 658.574,-90.725"/>
</g>
<!-- Node12 -->
<g id="node13" class="node">
<title>Node12</title>
<polygon fill="none" stroke="#bfbfbf" points="65.5,-129 65.5,-148 115.5,-148 115.5,-129 65.5,-129"/>
<text text-anchor="middle" x="90.5" y="-136" font-family="Helvetica,sans-Serif" font-size="10.00" fill="#000000">QString</text>
</g>
<!-- Node9&#45;&gt;Node12 -->
<g id="edge14" class="edge">
<title>Node9&#45;&gt;Node12</title>
<path fill="none" stroke="#191970" d="M633.812,-192.2996C629.0163,-191.4301 624.1491,-190.6315 619.5,-190 400.9259,-160.3125 338.2146,-208.6084 124.5,-154 122.3041,-153.4389 120.0743,-152.7423 117.8607,-151.9575"/>
<polygon fill="#191970" stroke="#191970" points="118.997,-148.641 108.416,-148.1004 116.3504,-155.1214 118.997,-148.641"/>
</g>
<!-- Node13 -->
<g id="node14" class="node">
<title>Node13</title>
<polygon fill="none" stroke="#bfbfbf" points="133.5,-129 133.5,-148 179.5,-148 179.5,-129 133.5,-129"/>
<text text-anchor="middle" x="156.5" y="-136" font-family="Helvetica,sans-Serif" font-size="10.00" fill="#000000">cnpy.h</text>
</g>
<!-- Node9&#45;&gt;Node13 -->
<g id="edge15" class="edge">
<title>Node9&#45;&gt;Node13</title>
<path fill="none" stroke="#191970" d="M633.8055,-192.3466C629.0108,-191.4696 624.1457,-190.6564 619.5,-190 429.1679,-163.1073 373.9013,-204.7532 188.5,-154 186.5799,-153.4744 184.6357,-152.8352 182.7039,-152.1194"/>
<polygon fill="#191970" stroke="#191970" points="183.8871,-148.8181 173.3185,-148.0732 181.1158,-155.2462 183.8871,-148.8181"/>
</g>
<!-- Node14 -->
<g id="node15" class="node">
<title>Node14</title>
<polygon fill="none" stroke="#bfbfbf" points="198,-123.5 198,-153.5 339,-153.5 339,-123.5 198,-123.5"/>
<text text-anchor="start" x="206" y="-141.5" font-family="Helvetica,sans-Serif" font-size="10.00" fill="#000000">../external&#45;libraries</text>
<text text-anchor="middle" x="268.5" y="-130.5" font-family="Helvetica,sans-Serif" font-size="10.00" fill="#000000">/glm&#45;master/glm/mat3x3.hpp</text>
</g>
<!-- Node9&#45;&gt;Node14 -->
<g id="edge16" class="edge">
<title>Node9&#45;&gt;Node14</title>
<path fill="none" stroke="#191970" d="M633.7727,-192.5598C628.9833,-191.6488 624.1283,-190.7694 619.5,-190 502.8026,-170.6004 470.1253,-173.3965 349.1553,-154.0421"/>
<polygon fill="#191970" stroke="#191970" points="349.5603,-150.5622 339.1296,-152.4201 348.4422,-157.4724 349.5603,-150.5622"/>
</g>
<!-- Node15 -->
<g id="node16" class="node">
<title>Node15</title>
<polygon fill="none" stroke="#bfbfbf" points="357.5,-123.5 357.5,-153.5 493.5,-153.5 493.5,-123.5 357.5,-123.5"/>
<text text-anchor="start" x="365.5" y="-141.5" font-family="Helvetica,sans-Serif" font-size="10.00" fill="#000000">../external&#45;libraries</text>
<text text-anchor="middle" x="425.5" y="-130.5" font-family="Helvetica,sans-Serif" font-size="10.00" fill="#000000">/glm&#45;master/glm/matrix.hpp</text>
</g>
<!-- Node9&#45;&gt;Node15 -->
<g id="edge17" class="edge">
<title>Node9&#45;&gt;Node15</title>
<path fill="none" stroke="#191970" d="M633.759,-190.9915C597.5026,-181.8531 540.4368,-167.4697 495.2024,-156.0684"/>
<polygon fill="#191970" stroke="#191970" points="496.0013,-152.6604 485.4491,-153.6101 494.2904,-159.4481 496.0013,-152.6604"/>
</g>
<!-- Node16 -->
<g id="node17" class="node">
<title>Node16</title>
<polygon fill="none" stroke="#bfbfbf" points="511.5,-123.5 511.5,-153.5 641.5,-153.5 641.5,-123.5 511.5,-123.5"/>
<text text-anchor="start" x="519.5" y="-141.5" font-family="Helvetica,sans-Serif" font-size="10.00" fill="#000000">../external&#45;libraries</text>
<text text-anchor="middle" x="576.5" y="-130.5" font-family="Helvetica,sans-Serif" font-size="10.00" fill="#000000">/glm&#45;master/glm/vec3.hpp</text>
</g>
<!-- Node9&#45;&gt;Node16 -->
<g id="edge18" class="edge">
<title>Node9&#45;&gt;Node16</title>
<path fill="none" stroke="#191970" d="M654.9688,-190.3906C642.3823,-182.0673 623.7393,-169.7389 607.783,-159.1872"/>
<polygon fill="#191970" stroke="#191970" points="609.5221,-156.1411 599.2504,-153.5446 605.6609,-161.98 609.5221,-156.1411"/>
</g>
<!-- Node17 -->
<g id="node18" class="node">
<title>Node17</title>
<g id="a_node18"><a xlink:href="colormaps__matplotlib_8h.html" target="_top" xlink:title="resources/colormaps\l_matplotlib.h">
<polygon fill="none" stroke="#000000" points="703,-56.5 703,-86.5 810,-86.5 810,-56.5 703,-56.5"/>
<text text-anchor="start" x="711" y="-74.5" font-family="Helvetica,sans-Serif" font-size="10.00" fill="#000000">resources/colormaps</text>
<text text-anchor="middle" x="756.5" y="-63.5" font-family="Helvetica,sans-Serif" font-size="10.00" fill="#000000">_matplotlib.h</text>
</a>
</g>
</g>
<!-- Node9&#45;&gt;Node17 -->
<g id="edge19" class="edge">
<title>Node9&#45;&gt;Node17</title>
<path fill="none" stroke="#191970" d="M676.0391,-190.3416C689.5892,-170.328 721.0775,-123.8194 740.4,-95.2799"/>
<polygon fill="#191970" stroke="#191970" points="743.4997,-96.9445 746.2079,-86.7016 737.7032,-93.02 743.4997,-96.9445"/>
</g>
<!-- Node19 -->
<g id="node20" class="node">
<title>Node19</title>
<g id="a_node20"><a xlink:href="spheredepthdata_8h.html" target="_top" xlink:title="spheredepthdata.h">
<polygon fill="none" stroke="#000000" points="783,-129 783,-148 880,-148 880,-129 783,-129"/>
<text text-anchor="middle" x="831.5" y="-136" font-family="Helvetica,sans-Serif" font-size="10.00" fill="#000000">spheredepthdata.h</text>
</a>
</g>
</g>
<!-- Node9&#45;&gt;Node19 -->
<g id="edge21" class="edge">
<title>Node9&#45;&gt;Node19</title>
<path fill="none" stroke="#191970" d="M694.8125,-190.3906C722.2747,-179.9652 766.2895,-163.2559 796.9263,-151.6252"/>
<polygon fill="#191970" stroke="#191970" points="798.2585,-154.8633 806.3652,-148.0419 795.774,-148.319 798.2585,-154.8633"/>
</g>
<!-- Node18 -->
<g id="node19" class="node">
<title>Node18</title>
<polygon fill="none" stroke="#bfbfbf" points="715,-.5 715,-19.5 798,-19.5 798,-.5 715,-.5"/>
<text text-anchor="middle" x="756.5" y="-7.5" font-family="Helvetica,sans-Serif" font-size="10.00" fill="#000000">unordered_map</text>
</g>
<!-- Node17&#45;&gt;Node18 -->
<g id="edge20" class="edge">
<title>Node17&#45;&gt;Node18</title>
<path fill="none" stroke="#191970" d="M756.5,-56.2977C756.5,-48.3834 756.5,-38.6043 756.5,-30.0759"/>
<polygon fill="#191970" stroke="#191970" points="760.0001,-29.8469 756.5,-19.8469 753.0001,-29.847 760.0001,-29.8469"/>
</g>
<!-- Node19&#45;&gt;Node6 -->
<g id="edge22" class="edge">
<title>Node19&#45;&gt;Node6</title>
<path fill="none" stroke="#191970" d="M844.8246,-128.9005C860.0178,-117.9549 885.0703,-99.9064 903.0284,-86.9688"/>
<polygon fill="#191970" stroke="#191970" points="905.1323,-89.7668 911.2001,-81.0817 901.0405,-84.0872 905.1323,-89.7668"/>
</g>
<!-- Node19&#45;&gt;Node11 -->
<g id="edge24" class="edge">
<title>Node19&#45;&gt;Node11</title>
<path fill="none" stroke="#191970" d="M805.8537,-128.9005C774.883,-117.3082 722.6268,-97.7486 687.8494,-84.7313"/>
<polygon fill="#191970" stroke="#191970" points="688.6912,-81.3093 678.0988,-81.0817 686.2373,-87.8651 688.6912,-81.3093"/>
</g>
<!-- Node19&#45;&gt;Node17 -->
<g id="edge25" class="edge">
<title>Node19&#45;&gt;Node17</title>
<path fill="none" stroke="#191970" d="M820.7543,-128.9005C810.3935,-119.6448 794.3471,-105.3101 780.8824,-93.2816"/>
<polygon fill="#191970" stroke="#191970" points="783.1048,-90.5738 773.3154,-86.5218 778.4413,-95.7941 783.1048,-90.5738"/>
</g>
<!-- Node20 -->
<g id="node21" class="node">
<title>Node20</title>
<polygon fill="none" stroke="#bfbfbf" points="828.5,-62 828.5,-81 884.5,-81 884.5,-62 828.5,-62"/>
<text text-anchor="middle" x="856.5" y="-69" font-family="Helvetica,sans-Serif" font-size="10.00" fill="#000000">algorithm</text>
</g>
<!-- Node19&#45;&gt;Node20 -->
<g id="edge23" class="edge">
<title>Node19&#45;&gt;Node20</title>
<path fill="none" stroke="#191970" d="M835.0819,-128.9005C838.7948,-118.95 844.698,-103.1292 849.3676,-90.6147"/>
<polygon fill="#191970" stroke="#191970" points="852.7079,-91.6743 852.9248,-81.0817 846.1496,-89.2271 852.7079,-91.6743"/>
</g>
</g>
</svg>
