<?xml version="1.0" encoding="UTF-8" standalone="no"?>
<!DOCTYPE svg PUBLIC "-//W3C//DTD SVG 1.1//EN"
 "http://www.w3.org/Graphics/SVG/1.1/DTD/svg11.dtd">
<!-- Generated by graphviz version 2.40.1 (20161225.0304)
 -->
<!-- Title: spheredepthdata.h Pages: 1 -->
<svg width="335pt" height="151pt"
 viewBox="0.00 0.00 334.50 151.00" xmlns="http://www.w3.org/2000/svg" xmlns:xlink="http://www.w3.org/1999/xlink">
<g id="graph0" class="graph" transform="scale(1 1) rotate(0) translate(4 147)">
<title>spheredepthdata.h</title>
<!-- Node0 -->
<g id="node1" class="node">
<title>Node0</title>
<polygon fill="#bfbfbf" stroke="#000000" points="80.5,-123.5 80.5,-142.5 177.5,-142.5 177.5,-123.5 80.5,-123.5"/>
<text text-anchor="middle" x="129" y="-130.5" font-family="Helvetica,sans-Serif" font-size="10.00" fill="#000000">spheredepthdata.h</text>
</g>
<!-- Node1 -->
<g id="node2" class="node">
<title>Node1</title>
<polygon fill="none" stroke="#bfbfbf" points="0,-62 0,-81 44,-81 44,-62 0,-62"/>
<text text-anchor="middle" x="22" y="-69" font-family="Helvetica,sans-Serif" font-size="10.00" fill="#000000">vector</text>
</g>
<!-- Node0&#45;&gt;Node1 -->
<g id="edge1" class="edge">
<title>Node0&#45;&gt;Node1</title>
<path fill="none" stroke="#191970" d="M112.2813,-123.3906C94.9278,-113.4165 67.5677,-97.6908 47.5118,-86.1633"/>
<polygon fill="#191970" stroke="#191970" points="49.0154,-82.9907 38.6013,-81.0419 45.5272,-89.0596 49.0154,-82.9907"/>
</g>
<!-- Node2 -->
<g id="node3" class="node">
<title>Node2</title>
<polygon fill="none" stroke="#bfbfbf" points="62,-62 62,-81 118,-81 118,-62 62,-62"/>
<text text-anchor="middle" x="90" y="-69" font-family="Helvetica,sans-Serif" font-size="10.00" fill="#000000">algorithm</text>
</g>
<!-- Node0&#45;&gt;Node2 -->
<g id="edge2" class="edge">
<title>Node0&#45;&gt;Node2</title>
<path fill="none" stroke="#191970" d="M122.9063,-123.3906C117.2157,-114.417 108.5728,-100.7879 101.5726,-89.7491"/>
<polygon fill="#191970" stroke="#191970" points="104.4909,-87.8155 96.1797,-81.2449 98.5793,-91.5644 104.4909,-87.8155"/>
</g>
<!-- Node3 -->
<g id="node4" class="node">
<title>Node3</title>
<polygon fill="none" stroke="#bfbfbf" points="136.5,-62 136.5,-81 201.5,-81 201.5,-62 136.5,-62"/>
<text text-anchor="middle" x="169" y="-69" font-family="Helvetica,sans-Serif" font-size="10.00" fill="#000000">QVector3D</text>
</g>
<!-- Node0&#45;&gt;Node3 -->
<g id="edge3" class="edge">
<title>Node0&#45;&gt;Node3</title>
<path fill="none" stroke="#191970" d="M135.25,-123.3906C141.0865,-114.417 149.9509,-100.7879 157.1306,-89.7491"/>
<polygon fill="#191970" stroke="#191970" points="160.1436,-91.5361 162.6619,-81.2449 154.2755,-87.7194 160.1436,-91.5361"/>
</g>
<!-- Node4 -->
<g id="node5" class="node">
<title>Node4</title>
<g id="a_node5"><a xlink:href="colormaps__matplotlib_8h.html" target="_top" xlink:title="resources/colormaps\l_matplotlib.h">
<polygon fill="none" stroke="#000000" points="219.5,-56.5 219.5,-86.5 326.5,-86.5 326.5,-56.5 219.5,-56.5"/>
<text text-anchor="start" x="227.5" y="-74.5" font-family="Helvetica,sans-Serif" font-size="10.00" fill="#000000">resources/colormaps</text>
<text text-anchor="middle" x="273" y="-63.5" font-family="Helvetica,sans-Serif" font-size="10.00" fill="#000000">_matplotlib.h</text>
</a>
</g>
</g>
<!-- Node0&#45;&gt;Node4 -->
<g id="edge4" class="edge">
<title>Node0&#45;&gt;Node4</title>
<path fill="none" stroke="#191970" d="M151.5,-123.3906C171.9811,-114.6435 202.8197,-101.4728 228.3022,-90.5897"/>
<polygon fill="#191970" stroke="#191970" points="229.9519,-93.691 237.7736,-86.5446 227.2025,-87.2535 229.9519,-93.691"/>
</g>
<!-- Node5 -->
<g id="node6" class="node">
<title>Node5</title>
<polygon fill="none" stroke="#bfbfbf" points="231.5,-.5 231.5,-19.5 314.5,-19.5 314.5,-.5 231.5,-.5"/>
<text text-anchor="middle" x="273" y="-7.5" font-family="Helvetica,sans-Serif" font-size="10.00" fill="#000000">unordered_map</text>
</g>
<!-- Node4&#45;&gt;Node5 -->
<g id="edge5" class="edge">
<title>Node4&#45;&gt;Node5</title>
<path fill="none" stroke="#191970" d="M273,-56.2977C273,-48.3834 273,-38.6043 273,-30.0759"/>
<polygon fill="#191970" stroke="#191970" points="276.5001,-29.8469 273,-19.8469 269.5001,-29.847 276.5001,-29.8469"/>
</g>
</g>
</svg>
