<?xml version="1.0" encoding="UTF-8" standalone="no"?>
<!DOCTYPE svg PUBLIC "-//W3C//DTD SVG 1.1//EN"
 "http://www.w3.org/Graphics/SVG/1.1/DTD/svg11.dtd">
<!-- Generated by graphviz version 2.40.1 (20161225.0304)
 -->
<!-- Title: spherewidget.h Pages: 1 -->
<svg width="232pt" height="140pt"
 viewBox="0.00 0.00 231.50 140.00" xmlns="http://www.w3.org/2000/svg" xmlns:xlink="http://www.w3.org/1999/xlink">
<g id="graph0" class="graph" transform="scale(1 1) rotate(0) translate(4 136)">
<title>spherewidget.h</title>
<!-- Node21 -->
<g id="node1" class="node">
<title>Node21</title>
<polygon fill="#bfbfbf" stroke="#000000" points="83.5,-112.5 83.5,-131.5 166.5,-131.5 166.5,-112.5 83.5,-112.5"/>
<text text-anchor="middle" x="125" y="-119.5" font-family="Helvetica,sans-Serif" font-size="10.00" fill="#000000">spherewidget.h</text>
</g>
<!-- Node22 -->
<g id="node2" class="node">
<title>Node22</title>
<g id="a_node2"><a xlink:href="mainwindow_8h.html" target="_top" xlink:title="mainwindow.h">
<polygon fill="none" stroke="#000000" points="33.5,-56.5 33.5,-75.5 112.5,-75.5 112.5,-56.5 33.5,-56.5"/>
<text text-anchor="middle" x="73" y="-63.5" font-family="Helvetica,sans-Serif" font-size="10.00" fill="#000000">mainwindow.h</text>
</a>
</g>
</g>
<!-- Node21&#45;&gt;Node22 -->
<g id="edge1" class="edge">
<title>Node21&#45;&gt;Node22</title>
<path fill="none" stroke="#191970" d="M109.0178,-104.7884C100.1222,-95.2085 89.3796,-83.6396 81.9539,-75.6427"/>
<polygon fill="#191970" stroke="#191970" points="106.573,-107.2992 115.9423,-112.2455 111.7025,-102.536 106.573,-107.2992"/>
</g>
<!-- Node25 -->
<g id="node5" class="node">
<title>Node25</title>
<g id="a_node5"><a xlink:href="spherewidget_8cpp.html" target="_top" xlink:title="spherewidget.cpp">
<polygon fill="none" stroke="#000000" points="130.5,-56.5 130.5,-75.5 223.5,-75.5 223.5,-56.5 130.5,-56.5"/>
<text text-anchor="middle" x="177" y="-63.5" font-family="Helvetica,sans-Serif" font-size="10.00" fill="#000000">spherewidget.cpp</text>
</a>
</g>
</g>
<!-- Node21&#45;&gt;Node25 -->
<g id="edge4" class="edge">
<title>Node21&#45;&gt;Node25</title>
<path fill="none" stroke="#191970" d="M140.9822,-104.7884C149.8778,-95.2085 160.6204,-83.6396 168.0461,-75.6427"/>
<polygon fill="#191970" stroke="#191970" points="138.2975,-102.536 134.0577,-112.2455 143.427,-107.2992 138.2975,-102.536"/>
</g>
<!-- Node23 -->
<g id="node3" class="node">
<title>Node23</title>
<g id="a_node3"><a xlink:href="main_8cpp.html" target="_top" xlink:title="main.cpp">
<polygon fill="none" stroke="#000000" points="0,-.5 0,-19.5 56,-19.5 56,-.5 0,-.5"/>
<text text-anchor="middle" x="28" y="-7.5" font-family="Helvetica,sans-Serif" font-size="10.00" fill="#000000">main.cpp</text>
</a>
</g>
</g>
<!-- Node22&#45;&gt;Node23 -->
<g id="edge2" class="edge">
<title>Node22&#45;&gt;Node23</title>
<path fill="none" stroke="#191970" d="M58.7054,-48.2112C51.1004,-38.7472 42.0462,-27.4797 35.7486,-19.6427"/>
<polygon fill="#191970" stroke="#191970" points="56.1694,-50.6428 65.1616,-56.2455 61.6259,-46.2581 56.1694,-50.6428"/>
</g>
<!-- Node24 -->
<g id="node4" class="node">
<title>Node24</title>
<g id="a_node4"><a xlink:href="mainwindow_8cpp.html" target="_top" xlink:title="mainwindow.cpp">
<polygon fill="none" stroke="#000000" points="74.5,-.5 74.5,-19.5 163.5,-19.5 163.5,-.5 74.5,-.5"/>
<text text-anchor="middle" x="119" y="-7.5" font-family="Helvetica,sans-Serif" font-size="10.00" fill="#000000">mainwindow.cpp</text>
</a>
</g>
</g>
<!-- Node22&#45;&gt;Node24 -->
<g id="edge3" class="edge">
<title>Node22&#45;&gt;Node24</title>
<path fill="none" stroke="#191970" d="M87.3747,-48.5004C95.1971,-38.9775 104.576,-27.5596 111.0792,-19.6427"/>
<polygon fill="#191970" stroke="#191970" points="84.6555,-46.2967 81.0126,-56.2455 90.0646,-50.7399 84.6555,-46.2967"/>
</g>
</g>
</svg>
