<?xml version="1.0" encoding="UTF-8" standalone="no"?>
<!DOCTYPE svg PUBLIC "-//W3C//DTD SVG 1.1//EN"
 "http://www.w3.org/Graphics/SVG/1.1/DTD/svg11.dtd">
<!-- Generated by graphviz version 2.40.1 (20161225.0304)
 -->
<!-- Title: renderdata.h Pages: 1 -->
<svg width="292pt" height="196pt"
 viewBox="0.00 0.00 291.50 196.00" xmlns="http://www.w3.org/2000/svg" xmlns:xlink="http://www.w3.org/1999/xlink">
<g id="graph0" class="graph" transform="scale(1 1) rotate(0) translate(4 192)">
<title>renderdata.h</title>
<!-- Node13 -->
<g id="node1" class="node">
<title>Node13</title>
<polygon fill="#bfbfbf" stroke="#000000" points="107.5,-168.5 107.5,-187.5 178.5,-187.5 178.5,-168.5 107.5,-168.5"/>
<text text-anchor="middle" x="143" y="-175.5" font-family="Helvetica,sans-Serif" font-size="10.00" fill="#000000">renderdata.h</text>
</g>
<!-- Node14 -->
<g id="node2" class="node">
<title>Node14</title>
<g id="a_node2"><a xlink:href="../../d8/db9/spherewidget_8h.html" target="_top" xlink:title="spherewidget.h">
<polygon fill="none" stroke="#000000" points="101.5,-112.5 101.5,-131.5 184.5,-131.5 184.5,-112.5 101.5,-112.5"/>
<text text-anchor="middle" x="143" y="-119.5" font-family="Helvetica,sans-Serif" font-size="10.00" fill="#000000">spherewidget.h</text>
</a>
</g>
</g>
<!-- Node13&#45;&gt;Node14 -->
<g id="edge1" class="edge">
<title>Node13&#45;&gt;Node14</title>
<path fill="none" stroke="#191970" d="M143,-158.1575C143,-149.155 143,-138.9199 143,-131.6427"/>
<polygon fill="#191970" stroke="#191970" points="139.5001,-158.2455 143,-168.2455 146.5001,-158.2456 139.5001,-158.2455"/>
</g>
<!-- Node15 -->
<g id="node3" class="node">
<title>Node15</title>
<g id="a_node3"><a xlink:href="../../d9/d53/mainwindow_8h.html" target="_top" xlink:title="mainwindow.h">
<polygon fill="none" stroke="#000000" points="33.5,-56.5 33.5,-75.5 112.5,-75.5 112.5,-56.5 33.5,-56.5"/>
<text text-anchor="middle" x="73" y="-63.5" font-family="Helvetica,sans-Serif" font-size="10.00" fill="#000000">mainwindow.h</text>
</a>
</g>
</g>
<!-- Node13&#45;&gt;Node15 -->
<g id="edge6" class="edge">
<title>Node13&#45;&gt;Node15</title>
<path fill="none" stroke="#191970" d="M120.4046,-162.2207C110.4172,-154.2053 99.307,-143.6911 92,-132 80.7512,-114.002 75.9595,-89.1241 74.0839,-75.635"/>
<polygon fill="#191970" stroke="#191970" points="118.3483,-165.0542 128.4218,-168.3369 122.5941,-159.4888 118.3483,-165.0542"/>
</g>
<!-- Node19 -->
<g id="node7" class="node">
<title>Node19</title>
<g id="a_node7"><a xlink:href="../../da/d47/renderdata_8cpp.html" target="_top" xlink:title="renderdata.cpp">
<polygon fill="none" stroke="#000000" points="202.5,-112.5 202.5,-131.5 283.5,-131.5 283.5,-112.5 202.5,-112.5"/>
<text text-anchor="middle" x="243" y="-119.5" font-family="Helvetica,sans-Serif" font-size="10.00" fill="#000000">renderdata.cpp</text>
</a>
</g>
</g>
<!-- Node13&#45;&gt;Node19 -->
<g id="edge7" class="edge">
<title>Node13&#45;&gt;Node19</title>
<path fill="none" stroke="#191970" d="M169.2098,-163.3225C187.0717,-153.3198 210.2155,-140.3593 225.7809,-131.6427"/>
<polygon fill="#191970" stroke="#191970" points="167.4336,-160.3057 160.4187,-168.2455 170.8539,-166.4132 167.4336,-160.3057"/>
</g>
<!-- Node14&#45;&gt;Node15 -->
<g id="edge2" class="edge">
<title>Node14&#45;&gt;Node15</title>
<path fill="none" stroke="#191970" d="M122.91,-105.928C110.6747,-96.1397 95.4493,-83.9595 85.0533,-75.6427"/>
<polygon fill="#191970" stroke="#191970" points="120.8118,-108.7316 130.8069,-112.2455 125.1847,-103.2655 120.8118,-108.7316"/>
</g>
<!-- Node18 -->
<g id="node6" class="node">
<title>Node18</title>
<g id="a_node6"><a xlink:href="../../d9/d4d/spherewidget_8cpp.html" target="_top" xlink:title="spherewidget.cpp">
<polygon fill="none" stroke="#000000" points="130.5,-56.5 130.5,-75.5 223.5,-75.5 223.5,-56.5 130.5,-56.5"/>
<text text-anchor="middle" x="177" y="-63.5" font-family="Helvetica,sans-Serif" font-size="10.00" fill="#000000">spherewidget.cpp</text>
</a>
</g>
</g>
<!-- Node14&#45;&gt;Node18 -->
<g id="edge5" class="edge">
<title>Node14&#45;&gt;Node18</title>
<path fill="none" stroke="#191970" d="M154.1535,-103.6296C159.8247,-94.2887 166.4845,-83.3197 171.1455,-75.6427"/>
<polygon fill="#191970" stroke="#191970" points="151.1204,-101.8812 148.9223,-112.2455 157.1039,-105.5141 151.1204,-101.8812"/>
</g>
<!-- Node16 -->
<g id="node4" class="node">
<title>Node16</title>
<g id="a_node4"><a xlink:href="../../df/d0a/main_8cpp.html" target="_top" xlink:title="main.cpp">
<polygon fill="none" stroke="#000000" points="0,-.5 0,-19.5 56,-19.5 56,-.5 0,-.5"/>
<text text-anchor="middle" x="28" y="-7.5" font-family="Helvetica,sans-Serif" font-size="10.00" fill="#000000">main.cpp</text>
</a>
</g>
</g>
<!-- Node15&#45;&gt;Node16 -->
<g id="edge3" class="edge">
<title>Node15&#45;&gt;Node16</title>
<path fill="none" stroke="#191970" d="M58.7054,-48.2112C51.1004,-38.7472 42.0462,-27.4797 35.7486,-19.6427"/>
<polygon fill="#191970" stroke="#191970" points="56.1694,-50.6428 65.1616,-56.2455 61.6259,-46.2581 56.1694,-50.6428"/>
</g>
<!-- Node17 -->
<g id="node5" class="node">
<title>Node17</title>
<g id="a_node5"><a xlink:href="../../d8/dd9/mainwindow_8cpp.html" target="_top" xlink:title="mainwindow.cpp">
<polygon fill="none" stroke="#000000" points="74.5,-.5 74.5,-19.5 163.5,-19.5 163.5,-.5 74.5,-.5"/>
<text text-anchor="middle" x="119" y="-7.5" font-family="Helvetica,sans-Serif" font-size="10.00" fill="#000000">mainwindow.cpp</text>
</a>
</g>
</g>
<!-- Node15&#45;&gt;Node17 -->
<g id="edge4" class="edge">
<title>Node15&#45;&gt;Node17</title>
<path fill="none" stroke="#191970" d="M87.3747,-48.5004C95.1971,-38.9775 104.576,-27.5596 111.0792,-19.6427"/>
<polygon fill="#191970" stroke="#191970" points="84.6555,-46.2967 81.0126,-56.2455 90.0646,-50.7399 84.6555,-46.2967"/>
</g>
</g>
</svg>
