<?xml version="1.0" encoding="UTF-8" standalone="no"?>
<!DOCTYPE svg PUBLIC "-//W3C//DTD SVG 1.1//EN"
 "http://www.w3.org/Graphics/SVG/1.1/DTD/svg11.dtd">
<!-- Generated by graphviz version 2.40.1 (20161225.0304)
 -->
<!-- Title: spheredepthdata.h Pages: 1 -->
<svg width="335pt" height="95pt"
 viewBox="0.00 0.00 334.50 95.00" xmlns="http://www.w3.org/2000/svg" xmlns:xlink="http://www.w3.org/1999/xlink">
<g id="graph0" class="graph" transform="scale(1 1) rotate(0) translate(4 91)">
<title>spheredepthdata.h</title>
<!-- Node0 -->
<g id="node1" class="node">
<title>Node0</title>
<polygon fill="#bfbfbf" stroke="#000000" points="80.5,-67.5 80.5,-86.5 177.5,-86.5 177.5,-67.5 80.5,-67.5"/>
<text text-anchor="middle" x="129" y="-74.5" font-family="Helvetica,sans-Serif" font-size="10.00" fill="#000000">spheredepthdata.h</text>
</g>
<!-- Node1 -->
<g id="node2" class="node">
<title>Node1</title>
<polygon fill="none" stroke="#bfbfbf" points="0,-6 0,-25 44,-25 44,-6 0,-6"/>
<text text-anchor="middle" x="22" y="-13" font-family="Helvetica,sans-Serif" font-size="10.00" fill="#000000">vector</text>
</g>
<!-- Node0&#45;&gt;Node1 -->
<g id="edge1" class="edge">
<title>Node0&#45;&gt;Node1</title>
<path fill="none" stroke="#191970" d="M112.2813,-67.3906C94.9278,-57.4165 67.5677,-41.6908 47.5118,-30.1633"/>
<polygon fill="#191970" stroke="#191970" points="49.0154,-26.9907 38.6013,-25.0419 45.5272,-33.0596 49.0154,-26.9907"/>
</g>
<!-- Node2 -->
<g id="node3" class="node">
<title>Node2</title>
<polygon fill="none" stroke="#bfbfbf" points="62,-6 62,-25 118,-25 118,-6 62,-6"/>
<text text-anchor="middle" x="90" y="-13" font-family="Helvetica,sans-Serif" font-size="10.00" fill="#000000">algorithm</text>
</g>
<!-- Node0&#45;&gt;Node2 -->
<g id="edge2" class="edge">
<title>Node0&#45;&gt;Node2</title>
<path fill="none" stroke="#191970" d="M122.9063,-67.3906C117.2157,-58.417 108.5728,-44.7879 101.5726,-33.7491"/>
<polygon fill="#191970" stroke="#191970" points="104.4909,-31.8155 96.1797,-25.2449 98.5793,-35.5644 104.4909,-31.8155"/>
</g>
<!-- Node3 -->
<g id="node4" class="node">
<title>Node3</title>
<polygon fill="none" stroke="#bfbfbf" points="136.5,-6 136.5,-25 201.5,-25 201.5,-6 136.5,-6"/>
<text text-anchor="middle" x="169" y="-13" font-family="Helvetica,sans-Serif" font-size="10.00" fill="#000000">QVector3D</text>
</g>
<!-- Node0&#45;&gt;Node3 -->
<g id="edge3" class="edge">
<title>Node0&#45;&gt;Node3</title>
<path fill="none" stroke="#191970" d="M135.25,-67.3906C141.0865,-58.417 149.9509,-44.7879 157.1306,-33.7491"/>
<polygon fill="#191970" stroke="#191970" points="160.1436,-35.5361 162.6619,-25.2449 154.2755,-31.7194 160.1436,-35.5361"/>
</g>
<!-- Node4 -->
<g id="node5" class="node">
<title>Node4</title>
<polygon fill="none" stroke="#bfbfbf" points="219.5,-.5 219.5,-30.5 326.5,-30.5 326.5,-.5 219.5,-.5"/>
<text text-anchor="start" x="227.5" y="-18.5" font-family="Helvetica,sans-Serif" font-size="10.00" fill="#000000">resources/colormaps</text>
<text text-anchor="middle" x="273" y="-7.5" font-family="Helvetica,sans-Serif" font-size="10.00" fill="#000000">_matplotlib.h</text>
</g>
<!-- Node0&#45;&gt;Node4 -->
<g id="edge4" class="edge">
<title>Node0&#45;&gt;Node4</title>
<path fill="none" stroke="#191970" d="M151.5,-67.3906C171.9811,-58.6435 202.8197,-45.4728 228.3022,-34.5897"/>
<polygon fill="#191970" stroke="#191970" points="229.9519,-37.691 237.7736,-30.5446 227.2025,-31.2535 229.9519,-37.691"/>
</g>
</g>
</svg>
