<?xml version="1.0" encoding="UTF-8" standalone="no"?>
<!DOCTYPE svg PUBLIC "-//W3C//DTD SVG 1.1//EN"
 "http://www.w3.org/Graphics/SVG/1.1/DTD/svg11.dtd">
<!-- Generated by graphviz version 2.40.1 (20161225.0304)
 -->
<!-- Title: SphereWidget Pages: 1 -->
<svg width="220pt" height="358pt"
 viewBox="0.00 0.00 220.00 358.00" xmlns="http://www.w3.org/2000/svg" xmlns:xlink="http://www.w3.org/1999/xlink">
<g id="graph0" class="graph" transform="scale(1 1) rotate(0) translate(4 354)">
<title>SphereWidget</title>
<!-- Node0 -->
<g id="node1" class="node">
<title>Node0</title>
<polygon fill="#bfbfbf" stroke="#000000" points="32.5,-.5 32.5,-255.5 172.5,-255.5 172.5,-.5 32.5,-.5"/>
<text text-anchor="middle" x="102.5" y="-243.5" font-family="Helvetica,sans-Serif" font-size="10.00" fill="#000000">SphereWidget</text>
<polyline fill="none" stroke="#000000" points="32.5,-236.5 172.5,-236.5 "/>
<text text-anchor="start" x="40.5" y="-224.5" font-family="Helvetica,sans-Serif" font-size="10.00" fill="#000000">&#45; renderData</text>
<text text-anchor="start" x="40.5" y="-213.5" font-family="Helvetica,sans-Serif" font-size="10.00" fill="#000000">&#45; m_lastPosition</text>
<text text-anchor="start" x="40.5" y="-202.5" font-family="Helvetica,sans-Serif" font-size="10.00" fill="#000000">&#45; m_position</text>
<text text-anchor="start" x="40.5" y="-191.5" font-family="Helvetica,sans-Serif" font-size="10.00" fill="#000000">&#45; m_rotation</text>
<text text-anchor="start" x="40.5" y="-180.5" font-family="Helvetica,sans-Serif" font-size="10.00" fill="#000000">&#45; m_fovy</text>
<text text-anchor="start" x="40.5" y="-169.5" font-family="Helvetica,sans-Serif" font-size="10.00" fill="#000000">&#45; aspectRatioWidthToHeight</text>
<text text-anchor="start" x="40.5" y="-158.5" font-family="Helvetica,sans-Serif" font-size="10.00" fill="#000000">&#45; vbo_points</text>
<text text-anchor="start" x="40.5" y="-147.5" font-family="Helvetica,sans-Serif" font-size="10.00" fill="#000000">&#45; vbo_sphereVertices</text>
<text text-anchor="start" x="40.5" y="-136.5" font-family="Helvetica,sans-Serif" font-size="10.00" fill="#000000">&#45; vbo_vertexColors</text>
<polyline fill="none" stroke="#000000" points="32.5,-129.5 172.5,-129.5 "/>
<text text-anchor="start" x="40.5" y="-117.5" font-family="Helvetica,sans-Serif" font-size="10.00" fill="#000000">+ SphereWidget()</text>
<text text-anchor="start" x="40.5" y="-106.5" font-family="Helvetica,sans-Serif" font-size="10.00" fill="#000000">+ ~SphereWidget()</text>
<text text-anchor="start" x="40.5" y="-95.5" font-family="Helvetica,sans-Serif" font-size="10.00" fill="#000000">+ updatePoints()</text>
<text text-anchor="start" x="40.5" y="-84.5" font-family="Helvetica,sans-Serif" font-size="10.00" fill="#000000">+ updateSphereVertices()</text>
<text text-anchor="start" x="40.5" y="-73.5" font-family="Helvetica,sans-Serif" font-size="10.00" fill="#000000">+ updateTriangleColor()</text>
<text text-anchor="start" x="40.5" y="-62.5" font-family="Helvetica,sans-Serif" font-size="10.00" fill="#000000"># initializeGL()</text>
<text text-anchor="start" x="40.5" y="-51.5" font-family="Helvetica,sans-Serif" font-size="10.00" fill="#000000"># resizeGL()</text>
<text text-anchor="start" x="40.5" y="-40.5" font-family="Helvetica,sans-Serif" font-size="10.00" fill="#000000"># paintGL()</text>
<text text-anchor="start" x="40.5" y="-29.5" font-family="Helvetica,sans-Serif" font-size="10.00" fill="#000000"># mousePressEvent()</text>
<text text-anchor="start" x="40.5" y="-18.5" font-family="Helvetica,sans-Serif" font-size="10.00" fill="#000000"># mouseMoveEvent()</text>
<text text-anchor="start" x="40.5" y="-7.5" font-family="Helvetica,sans-Serif" font-size="10.00" fill="#000000"># wheelEvent()</text>
</g>
<!-- Node1 -->
<g id="node2" class="node">
<title>Node1</title>
<polygon fill="none" stroke="#bfbfbf" points="0,-292.5 0,-349.5 91,-349.5 91,-292.5 0,-292.5"/>
<text text-anchor="middle" x="45.5" y="-337.5" font-family="Helvetica,sans-Serif" font-size="10.00" fill="#000000">QOpenGLWidget</text>
<polyline fill="none" stroke="#bfbfbf" points="0,-330.5 91,-330.5 "/>
<text text-anchor="middle" x="45.5" y="-318.5" font-family="Helvetica,sans-Serif" font-size="10.00" fill="#000000"> </text>
<polyline fill="none" stroke="#bfbfbf" points="0,-311.5 91,-311.5 "/>
<text text-anchor="middle" x="45.5" y="-299.5" font-family="Helvetica,sans-Serif" font-size="10.00" fill="#000000"> </text>
</g>
<!-- Node1&#45;&gt;Node0 -->
<g id="edge1" class="edge">
<title>Node1&#45;&gt;Node0</title>
<path fill="none" stroke="#191970" d="M56.9272,-282.3078C59.3271,-274.1818 61.9828,-265.1897 64.7706,-255.7505"/>
<polygon fill="none" stroke="#191970" points="53.5093,-281.5241 54.0335,-292.1059 60.2226,-283.5068 53.5093,-281.5241"/>
</g>
<!-- Node2 -->
<g id="node3" class="node">
<title>Node2</title>
<polygon fill="none" stroke="#bfbfbf" points="109,-292.5 109,-349.5 212,-349.5 212,-292.5 109,-292.5"/>
<text text-anchor="middle" x="160.5" y="-337.5" font-family="Helvetica,sans-Serif" font-size="10.00" fill="#000000">QOpenGLFunctions</text>
<polyline fill="none" stroke="#bfbfbf" points="109,-330.5 212,-330.5 "/>
<text text-anchor="middle" x="160.5" y="-318.5" font-family="Helvetica,sans-Serif" font-size="10.00" fill="#000000"> </text>
<polyline fill="none" stroke="#bfbfbf" points="109,-311.5 212,-311.5 "/>
<text text-anchor="middle" x="160.5" y="-299.5" font-family="Helvetica,sans-Serif" font-size="10.00" fill="#000000"> </text>
</g>
<!-- Node2&#45;&gt;Node0 -->
<g id="edge2" class="edge">
<title>Node2&#45;&gt;Node0</title>
<path fill="none" stroke="#006400" d="M148.8723,-282.3078C146.4303,-274.1818 143.728,-265.1897 140.8913,-255.7505"/>
<polygon fill="none" stroke="#006400" points="145.5868,-283.5364 151.8168,-292.1059 152.2906,-281.5217 145.5868,-283.5364"/>
</g>
</g>
</svg>
