<?xml version="1.0" encoding="UTF-8" standalone="no"?>
<!DOCTYPE svg PUBLIC "-//W3C//DTD SVG 1.1//EN"
 "http://www.w3.org/Graphics/SVG/1.1/DTD/svg11.dtd">
<!-- Generated by graphviz version 2.40.1 (20161225.0304)
 -->
<!-- Title: SphereDepthData::updateMaxPointsPerTriangle Pages: 1 -->
<!--zoomable 166 -->
<svg id="main" version="1.1" xmlns="http://www.w3.org/2000/svg" xmlns:xlink="http://www.w3.org/1999/xlink" xml:space="preserve" onload="init(evt)">
<style type="text/css"><![CDATA[
.edge:hover path { stroke: red; }
.edge:hover polygon { stroke: red; fill: red; }
]]></style>
<script type="text/javascript"><![CDATA[
var edges = document.getElementsByTagName('g');
if (edges && edges.length) {
  for (var i=0;i<edges.length;i++) {
    if (edges[i].id.substr(0,4)=='edge') {
      edges[i].setAttribute('class','edge');
    }
  }
}
]]></script>
        <defs>
                <circle id="rim" cx="0" cy="0" r="7"/>
                <circle id="rim2" cx="0" cy="0" r="3.5"/>
                <g id="zoomPlus">
                        <use xlink:href="#rim" fill="#404040">
                                <set attributeName="fill" to="#808080" begin="zoomplus.mouseover" end="zoomplus.mouseout"/>
                        </use>
                        <path d="M-4,0h8M0,-4v8" fill="none" stroke="white" stroke-width="1.5" pointer-events="none"/>
                </g>
                <g id="zoomMin">
                        <use xlink:href="#rim" fill="#404040">
                                <set attributeName="fill" to="#808080" begin="zoomminus.mouseover" end="zoomminus.mouseout"/>
                        </use>
                        <path d="M-4,0h8" fill="none" stroke="white" stroke-width="1.5" pointer-events="none"/>
                </g>
                <g id="dirArrow">
                        <path fill="none" stroke="white" stroke-width="1.5" d="M0,-3.0v7 M-2.5,-0.5L0,-3.0L2.5,-0.5"/>
                </g>
               <g id="resetDef">
                       <use xlink:href="#rim2" fill="#404040">
                               <set attributeName="fill" to="#808080" begin="reset.mouseover" end="reset.mouseout"/>
                       </use>
               </g>
        </defs>

<script type="text/javascript">
var viewWidth = 1265;
var viewHeight = 166;
var sectionId = 'dynsection-4';
</script>
<script xlink:href="../../svgpan.js"/>
<svg id="graph" class="graph">
<g id="viewport">
<title>SphereDepthData::updateMaxPointsPerTriangle</title>
<!-- Node16 -->
<g id="node1" class="node">
<title>Node16</title>
<polygon fill="#bfbfbf" stroke="#000000" points="0,-66.5 0,-96.5 149,-96.5 149,-66.5 0,-66.5"/>
<text text-anchor="start" x="8" y="-84.5" font-family="Helvetica,sans-Serif" font-size="10.00" fill="#000000">SphereDepthData::updateMax</text>
<text text-anchor="middle" x="74.5" y="-73.5" font-family="Helvetica,sans-Serif" font-size="10.00" fill="#000000">PointsPerTriangle</text>
</g>
<!-- Node17 -->
<g id="node2" class="node">
<title>Node17</title>
<g id="a_node2"><a xlink:href="../../dc/d7c/struct_sphere_depth_data.html#a746de4be5c4ff2bdcbdc1517aa88a4d9" target="_top" xlink:title="SphereDepthData::SphereDepthData">
<polygon fill="none" stroke="#000000" points="185,-138 185,-157 364,-157 364,-138 185,-138"/>
<text text-anchor="middle" x="274.5" y="-145" font-family="Helvetica,sans-Serif" font-size="10.00" fill="#000000">SphereDepthData::SphereDepthData</text>
</a>
</g>
</g>
<!-- Node16&#45;&gt;Node17 -->
<g id="edge1" class="edge">
<title>Node16&#45;&gt;Node17</title>
<path fill="none" stroke="#191970" d="M114.4457,-100.7003C135.1405,-110.0769 161.0358,-120.9378 185,-128.5 196.5126,-132.1329 209.0776,-135.2834 221.0556,-137.9176"/>
<polygon fill="#191970" stroke="#191970" points="115.8771,-97.5062 105.3288,-96.5137 112.9559,-103.8676 115.8771,-97.5062"/>
</g>
<!-- Node18 -->
<g id="node3" class="node">
<title>Node18</title>
<g id="a_node3"><a xlink:href="../../dc/d7c/struct_sphere_depth_data.html#ad151dd50ed037d91aecec6b285a3e342" target="_top" xlink:title="SphereDepthData::getMaxPoints\lPerTriangle">
<polygon fill="none" stroke="#000000" points="194,-88.5 194,-118.5 355,-118.5 355,-88.5 194,-88.5"/>
<text text-anchor="start" x="202" y="-106.5" font-family="Helvetica,sans-Serif" font-size="10.00" fill="#000000">SphereDepthData::getMaxPoints</text>
<text text-anchor="middle" x="274.5" y="-95.5" font-family="Helvetica,sans-Serif" font-size="10.00" fill="#000000">PerTriangle</text>
</a>
</g>
</g>
<!-- Node16&#45;&gt;Node18 -->
<g id="edge2" class="edge">
<title>Node16&#45;&gt;Node18</title>
<path fill="none" stroke="#191970" d="M159.2377,-90.8211C170.6929,-92.0812 182.4217,-93.3714 193.8037,-94.6234"/>
<polygon fill="#191970" stroke="#191970" points="159.5798,-87.3378 149.257,-89.7233 158.8144,-94.2958 159.5798,-87.3378"/>
</g>
<!-- Node24 -->
<g id="node9" class="node">
<title>Node24</title>
<g id="a_node9"><a xlink:href="../../dc/d7c/struct_sphere_depth_data.html#a95e070bea3d8ec4a0449044e4616208f" target="_top" xlink:title="SphereDepthData::setVertices">
<polygon fill="none" stroke="#000000" points="199.5,-50 199.5,-69 349.5,-69 349.5,-50 199.5,-50"/>
<text text-anchor="middle" x="274.5" y="-57" font-family="Helvetica,sans-Serif" font-size="10.00" fill="#000000">SphereDepthData::setVertices</text>
</a>
</g>
</g>
<!-- Node16&#45;&gt;Node24 -->
<g id="edge11" class="edge">
<title>Node16&#45;&gt;Node24</title>
<path fill="none" stroke="#191970" d="M159.2986,-72.1722C172.5436,-70.7152 186.1528,-69.2182 199.1674,-67.7866"/>
<polygon fill="#191970" stroke="#191970" points="158.8144,-68.7042 149.257,-73.2767 159.5798,-75.6622 158.8144,-68.7042"/>
</g>
<!-- Node26 -->
<g id="node11" class="node">
<title>Node26</title>
<g id="a_node11"><a xlink:href="../../dc/d7c/struct_sphere_depth_data.html#ac0d61e109f98ac7c5b7f4ea7381bc963" target="_top" xlink:title="SphereDepthData::setPoints\lPerTriangle">
<polygon fill="none" stroke="#000000" points="203.5,-.5 203.5,-30.5 345.5,-30.5 345.5,-.5 203.5,-.5"/>
<text text-anchor="start" x="211.5" y="-18.5" font-family="Helvetica,sans-Serif" font-size="10.00" fill="#000000">SphereDepthData::setPoints</text>
<text text-anchor="middle" x="274.5" y="-7.5" font-family="Helvetica,sans-Serif" font-size="10.00" fill="#000000">PerTriangle</text>
</a>
</g>
</g>
<!-- Node16&#45;&gt;Node26 -->
<g id="edge13" class="edge">
<title>Node16&#45;&gt;Node26</title>
<path fill="none" stroke="#191970" d="M122.0968,-62.8558C141.4826,-55.5204 164.188,-47.2549 185,-40.5 195.588,-37.0635 206.9704,-33.6633 217.9496,-30.5295"/>
<polygon fill="#191970" stroke="#191970" points="120.6786,-59.6507 112.5806,-66.4824 123.1714,-66.1918 120.6786,-59.6507"/>
</g>
<!-- Node19 -->
<g id="node4" class="node">
<title>Node19</title>
<g id="a_node4"><a xlink:href="../../da/dce/class_render_data.html#a58fe3351334cd518b930dfe0a0aa8732" target="_top" xlink:title="RenderData::getColorsFor\lTriangles">
<polygon fill="none" stroke="#000000" points="403,-88.5 403,-118.5 534,-118.5 534,-88.5 403,-88.5"/>
<text text-anchor="start" x="411" y="-106.5" font-family="Helvetica,sans-Serif" font-size="10.00" fill="#000000">RenderData::getColorsFor</text>
<text text-anchor="middle" x="468.5" y="-95.5" font-family="Helvetica,sans-Serif" font-size="10.00" fill="#000000">Triangles</text>
</a>
</g>
</g>
<!-- Node18&#45;&gt;Node19 -->
<g id="edge3" class="edge">
<title>Node18&#45;&gt;Node19</title>
<path fill="none" stroke="#191970" d="M365.2319,-103.5C377.9397,-103.5 390.7916,-103.5 402.9103,-103.5"/>
<polygon fill="#191970" stroke="#191970" points="365.0881,-100.0001 355.0881,-103.5 365.088,-107.0001 365.0881,-100.0001"/>
</g>
<!-- Node20 -->
<g id="node5" class="node">
<title>Node20</title>
<g id="a_node5"><a xlink:href="../../df/dda/class_sphere_widget.html#a871c5252a7a218c5d405be5dfc3dbfa1" target="_top" xlink:title="SphereWidget::updateTriangle\lColor">
<polygon fill="none" stroke="#000000" points="573,-88.5 573,-118.5 721,-118.5 721,-88.5 573,-88.5"/>
<text text-anchor="start" x="581" y="-106.5" font-family="Helvetica,sans-Serif" font-size="10.00" fill="#000000">SphereWidget::updateTriangle</text>
<text text-anchor="middle" x="647" y="-95.5" font-family="Helvetica,sans-Serif" font-size="10.00" fill="#000000">Color</text>
</a>
</g>
</g>
<!-- Node19&#45;&gt;Node20 -->
<g id="edge4" class="edge">
<title>Node19&#45;&gt;Node20</title>
<path fill="none" stroke="#191970" d="M544.389,-103.5C553.8667,-103.5 563.55,-103.5 572.9983,-103.5"/>
<polygon fill="#191970" stroke="#191970" points="544.2064,-100.0001 534.2064,-103.5 544.2063,-107.0001 544.2064,-100.0001"/>
</g>
<!-- Node21 -->
<g id="node6" class="node">
<title>Node21</title>
<g id="a_node6"><a xlink:href="../../df/dda/class_sphere_widget.html#a323d335cf261b7156da1a59aaf28c40c" target="_top" xlink:title="SphereWidget::initializeGL">
<polygon fill="none" stroke="#000000" points="937,-93 937,-112 1069,-112 1069,-93 937,-93"/>
<text text-anchor="middle" x="1003" y="-100" font-family="Helvetica,sans-Serif" font-size="10.00" fill="#000000">SphereWidget::initializeGL</text>
</a>
</g>
</g>
<!-- Node20&#45;&gt;Node21 -->
<g id="edge5" class="edge">
<title>Node20&#45;&gt;Node21</title>
<path fill="none" stroke="#191970" d="M731.4893,-103.2627C794.3831,-103.086 879.0286,-102.8482 936.9917,-102.6854"/>
<polygon fill="#191970" stroke="#191970" points="731.186,-99.7634 721.1959,-103.2916 731.2058,-106.7634 731.186,-99.7634"/>
</g>
<!-- Node22 -->
<g id="node7" class="node">
<title>Node22</title>
<g id="a_node7"><a xlink:href="../../df/dda/class_sphere_widget.html#a1766e5d68f4c57f52d6b1ee40cc0326c" target="_top" xlink:title="SphereWidget::~SphereWidget">
<polygon fill="none" stroke="#000000" points="1105,-93 1105,-112 1257,-112 1257,-93 1105,-93"/>
<text text-anchor="middle" x="1181" y="-100" font-family="Helvetica,sans-Serif" font-size="10.00" fill="#000000">SphereWidget::~SphereWidget</text>
</a>
</g>
</g>
<!-- Node20&#45;&gt;Node22 -->
<g id="edge10" class="edge">
<title>Node20&#45;&gt;Node22</title>
<path fill="none" stroke="#191970" d="M731.3147,-114.2464C739.9795,-115.1164 748.66,-115.8926 757,-116.5 895.3181,-126.574 930.8048,-133.1388 1069,-121.5 1091.011,-119.6462 1115.1999,-115.7778 1135.4479,-112.0123"/>
<polygon fill="#191970" stroke="#191970" points="731.4814,-110.7448 721.1717,-113.1864 730.7537,-117.7069 731.4814,-110.7448"/>
</g>
<!-- Node23 -->
<g id="node8" class="node">
<title>Node23</title>
<g id="a_node8"><a xlink:href="../../df/dda/class_sphere_widget.html#a7d132800fb4d6b7b925c253679bb6445" target="_top" xlink:title="SphereWidget::updateSphere\lVertices">
<polygon fill="none" stroke="#000000" points="757,-44.5 757,-74.5 901,-74.5 901,-44.5 757,-44.5"/>
<text text-anchor="start" x="765" y="-62.5" font-family="Helvetica,sans-Serif" font-size="10.00" fill="#000000">SphereWidget::updateSphere</text>
<text text-anchor="middle" x="829" y="-51.5" font-family="Helvetica,sans-Serif" font-size="10.00" fill="#000000">Vertices</text>
</a>
</g>
</g>
<!-- Node20&#45;&gt;Node23 -->
<g id="edge7" class="edge">
<title>Node20&#45;&gt;Node23</title>
<path fill="none" stroke="#191970" d="M718.8771,-86.1231C734.7374,-82.2888 751.4094,-78.2582 766.8462,-74.5262"/>
<polygon fill="#191970" stroke="#191970" points="718.0225,-82.7288 709.125,-88.4808 719.6675,-89.5328 718.0225,-82.7288"/>
</g>
<!-- Node21&#45;&gt;Node22 -->
<g id="edge6" class="edge">
<title>Node21&#45;&gt;Node22</title>
<path fill="none" stroke="#191970" d="M1079.2726,-102.5C1087.753,-102.5 1096.3909,-102.5 1104.8696,-102.5"/>
<polygon fill="#191970" stroke="#191970" points="1079.0277,-99.0001 1069.0277,-102.5 1079.0276,-106.0001 1079.0277,-99.0001"/>
</g>
<!-- Node23&#45;&gt;Node21 -->
<g id="edge8" class="edge">
<title>Node23&#45;&gt;Node21</title>
<path fill="none" stroke="#191970" d="M899.5813,-76.9425C921.7485,-82.4206 945.3914,-88.2634 964.4681,-92.9777"/>
<polygon fill="#191970" stroke="#191970" points="900.4044,-73.5407 889.8568,-74.5393 898.725,-80.3363 900.4044,-73.5407"/>
</g>
<!-- Node23&#45;&gt;Node22 -->
<g id="edge9" class="edge">
<title>Node23&#45;&gt;Node22</title>
<path fill="none" stroke="#191970" d="M911.0978,-66.3101C957.5313,-70.5123 1016.6116,-76.4453 1069,-83.5 1088.7413,-86.1584 1110.3388,-89.6766 1129.2551,-92.9624"/>
<polygon fill="#191970" stroke="#191970" points="911.3609,-62.8198 901.0884,-65.4133 910.7362,-69.7918 911.3609,-62.8198"/>
</g>
<!-- Node25 -->
<g id="node10" class="node">
<title>Node25</title>
<g id="a_node10"><a xlink:href="../../dc/d7c/struct_sphere_depth_data.html#acdda270334d050e23b82ad0f700c5c1c" target="_top" xlink:title="SphereDepthData::isEmpty">
<polygon fill="none" stroke="#000000" points="400,-28 400,-47 537,-47 537,-28 400,-28"/>
<text text-anchor="middle" x="468.5" y="-35" font-family="Helvetica,sans-Serif" font-size="10.00" fill="#000000">SphereDepthData::isEmpty</text>
</a>
</g>
</g>
<!-- Node24&#45;&gt;Node25 -->
<g id="edge12" class="edge">
<title>Node24&#45;&gt;Node25</title>
<path fill="none" stroke="#191970" d="M359.6705,-49.8415C373.0636,-48.3227 386.7622,-46.7692 399.7242,-45.2993"/>
<polygon fill="#191970" stroke="#191970" points="359.0474,-46.3896 349.5055,-50.9942 359.8362,-53.3451 359.0474,-46.3896"/>
</g>
<!-- Node26&#45;&gt;Node25 -->
<g id="edge14" class="edge">
<title>Node26&#45;&gt;Node25</title>
<path fill="none" stroke="#191970" d="M355.7267,-24.7113C370.4407,-26.3799 385.6523,-28.1049 399.9578,-29.7272"/>
<polygon fill="#191970" stroke="#191970" points="355.9676,-21.2162 345.6369,-23.5671 355.1788,-28.1717 355.9676,-21.2162"/>
</g>
</g>
</svg>
        <g id="navigator" transform="translate(0 0)" fill="#404254">
                <rect fill="#f2f5e9" fill-opacity="0.5" stroke="#606060" stroke-width=".5" x="0" y="0" width="60" height="60"/>
                <use id="zoomplus" xlink:href="#zoomPlus" x="17" y="9" onmousedown="handleZoom(evt,'in')"/>
                <use id="zoomminus" xlink:href="#zoomMin" x="42" y="9" onmousedown="handleZoom(evt,'out')"/>
                <use id="reset" xlink:href="#resetDef" x="30" y="36" onmousedown="handleReset()"/>
                <g id="arrowUp" xlink:href="#dirArrow" transform="translate(30 24)" onmousedown="handlePan(0,-1)">
                  <use xlink:href="#rim" fill="#404040">
                        <set attributeName="fill" to="#808080" begin="arrowUp.mouseover" end="arrowUp.mouseout"/>
                  </use>
                  <path fill="none" stroke="white" stroke-width="1.5" d="M0,-3.0v7 M-2.5,-0.5L0,-3.0L2.5,-0.5"/>
                </g>
                <g id="arrowRight" xlink:href="#dirArrow" transform="rotate(90) translate(36 -43)" onmousedown="handlePan(1,0)">
                  <use xlink:href="#rim" fill="#404040">
                        <set attributeName="fill" to="#808080" begin="arrowRight.mouseover" end="arrowRight.mouseout"/>
                  </use>
                  <path fill="none" stroke="white" stroke-width="1.5" d="M0,-3.0v7 M-2.5,-0.5L0,-3.0L2.5,-0.5"/>
                </g>
                <g id="arrowDown" xlink:href="#dirArrow" transform="rotate(180) translate(-30 -48)" onmousedown="handlePan(0,1)">
                  <use xlink:href="#rim" fill="#404040">
                        <set attributeName="fill" to="#808080" begin="arrowDown.mouseover" end="arrowDown.mouseout"/>
                  </use>
                  <path fill="none" stroke="white" stroke-width="1.5" d="M0,-3.0v7 M-2.5,-0.5L0,-3.0L2.5,-0.5"/>
                </g>
                <g id="arrowLeft" xlink:href="#dirArrow" transform="rotate(270) translate(-36 17)" onmousedown="handlePan(-1,0)">
                  <use xlink:href="#rim" fill="#404040">
                        <set attributeName="fill" to="#808080" begin="arrowLeft.mouseover" end="arrowLeft.mouseout"/>
                  </use>
                  <path fill="none" stroke="white" stroke-width="1.5" d="M0,-3.0v7 M-2.5,-0.5L0,-3.0L2.5,-0.5"/>
                </g>
        </g>
        <svg viewBox="0 0 15 15" width="100%" height="30px" preserveAspectRatio="xMaxYMin meet">
         <g id="arrow_out" transform="scale(0.3 0.3)">
          <a xlink:href="struct_sphere_depth_data_a4cf92f63341fd72e6659dcd1501eb2ac_icgraph_org.svg" target="_base">
           <rect id="button" ry="5" rx="5" y="6" x="6" height="38" width="38"
                fill="#f2f5e9" fill-opacity="0.5" stroke="#606060" stroke-width="1.0"/>
           <path id="arrow"
             d="M 11.500037,31.436501 C 11.940474,20.09759 22.043105,11.32322 32.158766,21.979434 L 37.068811,17.246167 C 37.068811,17.246167 37.088388,32 37.088388,32 L 22.160133,31.978069 C 22.160133,31.978069 26.997745,27.140456 26.997745,27.140456 C 18.528582,18.264221 13.291696,25.230495 11.500037,31.436501 z"
             style="fill:#404040;"/>
          </a>
         </g>
        </svg>
</svg>
