<?xml version="1.0" encoding="UTF-8" standalone="no"?>
<!DOCTYPE svg PUBLIC "-//W3C//DTD SVG 1.1//EN"
 "http://www.w3.org/Graphics/SVG/1.1/DTD/svg11.dtd">
<!-- Generated by graphviz version 2.40.1 (20161225.0304)
 -->
<!-- Title: SphereDepthData::isEmpty Pages: 1 -->
<svg width="516pt" height="78pt"
 viewBox="0.00 0.00 516.00 77.50" xmlns="http://www.w3.org/2000/svg" xmlns:xlink="http://www.w3.org/1999/xlink">
<g id="graph0" class="graph" transform="scale(1 1) rotate(0) translate(4 73.5)">
<title>SphereDepthData::isEmpty</title>
<!-- Node8 -->
<g id="node1" class="node">
<title>Node8</title>
<polygon fill="#bfbfbf" stroke="#000000" points="0,-28 0,-47 137,-47 137,-28 0,-28"/>
<text text-anchor="middle" x="68.5" y="-35" font-family="Helvetica,sans-Serif" font-size="10.00" fill="#000000">SphereDepthData::isEmpty</text>
</g>
<!-- Node9 -->
<g id="node2" class="node">
<title>Node9</title>
<g id="a_node2"><a xlink:href="../../dc/d7c/struct_sphere_depth_data.html#a95e070bea3d8ec4a0449044e4616208f" target="_top" xlink:title="SphereDepthData::setVertices">
<polygon fill="none" stroke="#000000" points="173,-50 173,-69 323,-69 323,-50 173,-50"/>
<text text-anchor="middle" x="248" y="-57" font-family="Helvetica,sans-Serif" font-size="10.00" fill="#000000">SphereDepthData::setVertices</text>
</a>
</g>
</g>
<!-- Node8&#45;&gt;Node9 -->
<g id="edge1" class="edge">
<title>Node8&#45;&gt;Node9</title>
<path fill="none" stroke="#191970" d="M137.1296,-45.9114C145.5236,-46.9402 154.179,-48.001 162.7788,-49.0551"/>
<polygon fill="#191970" stroke="#191970" points="162.4781,-52.5443 172.8296,-50.2869 163.3297,-45.5963 162.4781,-52.5443"/>
</g>
<!-- Node11 -->
<g id="node4" class="node">
<title>Node11</title>
<g id="a_node4"><a xlink:href="../../dc/d7c/struct_sphere_depth_data.html#ac0d61e109f98ac7c5b7f4ea7381bc963" target="_top" xlink:title="SphereDepthData::setPoints\lPerTriangle">
<polygon fill="none" stroke="#000000" points="177,-.5 177,-30.5 319,-30.5 319,-.5 177,-.5"/>
<text text-anchor="start" x="185" y="-18.5" font-family="Helvetica,sans-Serif" font-size="10.00" fill="#000000">SphereDepthData::setPoints</text>
<text text-anchor="middle" x="248" y="-7.5" font-family="Helvetica,sans-Serif" font-size="10.00" fill="#000000">PerTriangle</text>
</a>
</g>
</g>
<!-- Node8&#45;&gt;Node11 -->
<g id="edge3" class="edge">
<title>Node8&#45;&gt;Node11</title>
<path fill="none" stroke="#191970" d="M137.1296,-29.0886C146.7523,-27.9092 156.7184,-26.6877 166.5505,-25.4827"/>
<polygon fill="#191970" stroke="#191970" points="167.2281,-28.9259 176.728,-24.2353 166.3765,-21.9779 167.2281,-28.9259"/>
</g>
<!-- Node10 -->
<g id="node3" class="node">
<title>Node10</title>
<g id="a_node3"><a xlink:href="../../dc/d7c/struct_sphere_depth_data.html#a4cf92f63341fd72e6659dcd1501eb2ac" target="_top" xlink:title="SphereDepthData::updateMax\lPointsPerTriangle">
<polygon fill="none" stroke="#000000" points="359,-22.5 359,-52.5 508,-52.5 508,-22.5 359,-22.5"/>
<text text-anchor="start" x="367" y="-40.5" font-family="Helvetica,sans-Serif" font-size="10.00" fill="#000000">SphereDepthData::updateMax</text>
<text text-anchor="middle" x="433.5" y="-29.5" font-family="Helvetica,sans-Serif" font-size="10.00" fill="#000000">PointsPerTriangle</text>
</a>
</g>
</g>
<!-- Node9&#45;&gt;Node10 -->
<g id="edge2" class="edge">
<title>Node9&#45;&gt;Node10</title>
<path fill="none" stroke="#191970" d="M323.1825,-50.5835C331.6281,-49.5818 340.2753,-48.5563 348.8302,-47.5417"/>
<polygon fill="#191970" stroke="#191970" points="349.2946,-51.0112 358.8128,-46.3578 348.4701,-44.06 349.2946,-51.0112"/>
</g>
<!-- Node11&#45;&gt;Node10 -->
<g id="edge4" class="edge">
<title>Node11&#45;&gt;Node10</title>
<path fill="none" stroke="#191970" d="M319.1886,-23.9429C328.8191,-25.085 338.7779,-26.2661 348.6178,-27.4331"/>
<polygon fill="#191970" stroke="#191970" points="348.4675,-30.9397 358.8102,-28.6419 349.292,-23.9884 348.4675,-30.9397"/>
</g>
</g>
</svg>
