<?xml version="1.0" encoding="UTF-8" standalone="no"?>
<!DOCTYPE svg PUBLIC "-//W3C//DTD SVG 1.1//EN"
 "http://www.w3.org/Graphics/SVG/1.1/DTD/svg11.dtd">
<!-- Generated by graphviz version 2.40.1 (20161225.0304)
 -->
<!-- Title: MainWindow::changeColorMap Pages: 1 -->
<svg width="1406pt" height="170pt"
 viewBox="0.00 0.00 1406.00 169.50" xmlns="http://www.w3.org/2000/svg" xmlns:xlink="http://www.w3.org/1999/xlink">
<g id="graph0" class="graph" transform="scale(1 1) rotate(0) translate(4 165.5)">
<title>MainWindow::changeColorMap</title>
<!-- Node17 -->
<g id="node1" class="node">
<title>Node17</title>
<polygon fill="#bfbfbf" stroke="#000000" points="0,-19.5 0,-38.5 152,-38.5 152,-19.5 0,-19.5"/>
<text text-anchor="middle" x="76" y="-26.5" font-family="Helvetica,sans-Serif" font-size="10.00" fill="#000000">MainWindow::changeColorMap</text>
</g>
<!-- Node18 -->
<g id="node2" class="node">
<title>Node18</title>
<g id="a_node2"><a xlink:href="../../da/dce/class_render_data.html#a1fffc72f3dd17ab052d4fb2f025ef5a0" target="_top" xlink:title="RenderData::getInstance">
<polygon fill="none" stroke="#000000" points="190.5,-38.5 190.5,-57.5 316.5,-57.5 316.5,-38.5 190.5,-38.5"/>
<text text-anchor="middle" x="253.5" y="-45.5" font-family="Helvetica,sans-Serif" font-size="10.00" fill="#000000">RenderData::getInstance</text>
</a>
</g>
</g>
<!-- Node17&#45;&gt;Node18 -->
<g id="edge1" class="edge">
<title>Node17&#45;&gt;Node18</title>
<path fill="none" stroke="#191970" d="M152.0484,-37.1404C161.4461,-38.1463 171.0378,-39.1731 180.3903,-40.1742"/>
<polygon fill="#191970" stroke="#191970" points="180.1085,-43.6639 190.4243,-41.2482 180.8536,-36.7037 180.1085,-43.6639"/>
</g>
<!-- Node28 -->
<g id="node12" class="node">
<title>Node28</title>
<g id="a_node12"><a xlink:href="../../da/dce/class_render_data.html#adb1961bf93370d67c9efb416fde8fefb" target="_top" xlink:title="RenderData::setColorMap">
<polygon fill="none" stroke="#000000" points="188,-.5 188,-19.5 319,-19.5 319,-.5 188,-.5"/>
<text text-anchor="middle" x="253.5" y="-7.5" font-family="Helvetica,sans-Serif" font-size="10.00" fill="#000000">RenderData::setColorMap</text>
</a>
</g>
</g>
<!-- Node17&#45;&gt;Node28 -->
<g id="edge15" class="edge">
<title>Node17&#45;&gt;Node28</title>
<path fill="none" stroke="#191970" d="M152.0484,-20.8596C160.6375,-19.9402 169.3886,-19.0035 177.9711,-18.0848"/>
<polygon fill="#191970" stroke="#191970" points="178.3781,-21.5613 187.9487,-17.0168 177.633,-14.6011 178.3781,-21.5613"/>
</g>
<!-- Node19 -->
<g id="node3" class="node">
<title>Node19</title>
<g id="a_node3"><a xlink:href="../../da/dce/class_render_data.html#a16b04b2437ea3fa034381a138cbf2f83" target="_top" xlink:title="Sets initial sphere depth to 3. ">
<polygon fill="none" stroke="#000000" points="355,-38.5 355,-57.5 483,-57.5 483,-38.5 355,-38.5"/>
<text text-anchor="middle" x="419" y="-45.5" font-family="Helvetica,sans-Serif" font-size="10.00" fill="#000000">RenderData::RenderData</text>
</a>
</g>
</g>
<!-- Node18&#45;&gt;Node19 -->
<g id="edge2" class="edge">
<title>Node18&#45;&gt;Node19</title>
<path fill="none" stroke="#191970" d="M316.5406,-48C325.731,-48 335.2659,-48 344.655,-48"/>
<polygon fill="#191970" stroke="#191970" points="344.7627,-51.5001 354.7626,-48 344.7626,-44.5001 344.7627,-51.5001"/>
</g>
<!-- Node20 -->
<g id="node4" class="node">
<title>Node20</title>
<g id="a_node4"><a xlink:href="../../da/dce/class_render_data.html#a8d5f7285d29dc9ca0f93fcf2b5826283" target="_top" xlink:title="RenderData::setSphereDepth">
<polygon fill="none" stroke="#000000" points="519,-38.5 519,-57.5 665,-57.5 665,-38.5 519,-38.5"/>
<text text-anchor="middle" x="592" y="-45.5" font-family="Helvetica,sans-Serif" font-size="10.00" fill="#000000">RenderData::setSphereDepth</text>
</a>
</g>
</g>
<!-- Node19&#45;&gt;Node20 -->
<g id="edge3" class="edge">
<title>Node19&#45;&gt;Node20</title>
<path fill="none" stroke="#191970" d="M483.4188,-48C491.6145,-48 500.0937,-48 508.5343,-48"/>
<polygon fill="#191970" stroke="#191970" points="508.7892,-51.5001 518.7892,-48 508.7891,-44.5001 508.7892,-51.5001"/>
</g>
<!-- Node21 -->
<g id="node5" class="node">
<title>Node21</title>
<g id="a_node5"><a xlink:href="../../da/dce/class_render_data.html#adee024bdbedaae2cfd38bb2038b4aa48" target="_top" xlink:title="RenderData::generateIcosahedron\lAtDepthZero">
<polygon fill="none" stroke="#000000" points="872,-11 872,-41 1038,-41 1038,-11 872,-11"/>
<text text-anchor="start" x="880" y="-29" font-family="Helvetica,sans-Serif" font-size="10.00" fill="#000000">RenderData::generateIcosahedron</text>
<text text-anchor="middle" x="955" y="-18" font-family="Helvetica,sans-Serif" font-size="10.00" fill="#000000">AtDepthZero</text>
</a>
</g>
</g>
<!-- Node20&#45;&gt;Node21 -->
<g id="edge4" class="edge">
<title>Node20&#45;&gt;Node21</title>
<path fill="none" stroke="#191970" d="M665.0218,-43.5744C721.6997,-40.1394 800.6696,-35.3534 861.8894,-31.6431"/>
<polygon fill="#191970" stroke="#191970" points="862.1719,-35.1325 871.9418,-31.0338 861.7484,-28.1453 862.1719,-35.1325"/>
</g>
<!-- Node26 -->
<g id="node10" class="node">
<title>Node26</title>
<g id="a_node10"><a xlink:href="../../da/dce/class_render_data.html#ac1bbf9770f040e452f676358ee699767" target="_top" xlink:title="RenderData::calculateNext\lSubdivision">
<polygon fill="none" stroke="#000000" points="701,-55 701,-85 836,-85 836,-55 701,-55"/>
<text text-anchor="start" x="709" y="-73" font-family="Helvetica,sans-Serif" font-size="10.00" fill="#000000">RenderData::calculateNext</text>
<text text-anchor="middle" x="768.5" y="-62" font-family="Helvetica,sans-Serif" font-size="10.00" fill="#000000">Subdivision</text>
</a>
</g>
</g>
<!-- Node20&#45;&gt;Node26 -->
<g id="edge9" class="edge">
<title>Node20&#45;&gt;Node26</title>
<path fill="none" stroke="#191970" d="M665.0634,-57.107C673.5838,-58.1691 682.299,-59.2554 690.8782,-60.3248"/>
<polygon fill="#191970" stroke="#191970" points="690.5111,-63.806 700.8672,-61.5699 691.377,-56.8598 690.5111,-63.806"/>
</g>
<!-- Node22 -->
<g id="node6" class="node">
<title>Node22</title>
<g id="a_node6"><a xlink:href="../../da/dce/class_render_data.html#af74f8858b9e0dedb914f24390e140a04" target="_top" xlink:title="RenderData::filterPoints\lForTriangle">
<polygon fill="none" stroke="#000000" points="1080,-84 1080,-114 1202,-114 1202,-84 1080,-84"/>
<text text-anchor="start" x="1088" y="-102" font-family="Helvetica,sans-Serif" font-size="10.00" fill="#000000">RenderData::filterPoints</text>
<text text-anchor="middle" x="1141" y="-91" font-family="Helvetica,sans-Serif" font-size="10.00" fill="#000000">ForTriangle</text>
</a>
</g>
</g>
<!-- Node21&#45;&gt;Node22 -->
<g id="edge5" class="edge">
<title>Node21&#45;&gt;Node22</title>
<path fill="none" stroke="#191970" d="M993.5393,-41.1256C1022.3441,-52.4308 1061.9111,-67.9598 1092.8079,-80.0859"/>
<polygon fill="#191970" stroke="#191970" points="1091.9226,-83.4983 1102.5101,-83.8937 1094.48,-76.9822 1091.9226,-83.4983"/>
</g>
<!-- Node25 -->
<g id="node9" class="node">
<title>Node25</title>
<g id="a_node9"><a xlink:href="../../da/dce/class_render_data.html#a4fca77ce81a628de0ddaeb7d75a4c371" target="_top" xlink:title="RenderData::insertTriangle\lIntoVerticesVector">
<polygon fill="none" stroke="#000000" points="1074,-24 1074,-54 1208,-54 1208,-24 1074,-24"/>
<text text-anchor="start" x="1082" y="-42" font-family="Helvetica,sans-Serif" font-size="10.00" fill="#000000">RenderData::insertTriangle</text>
<text text-anchor="middle" x="1141" y="-31" font-family="Helvetica,sans-Serif" font-size="10.00" fill="#000000">IntoVerticesVector</text>
</a>
</g>
</g>
<!-- Node21&#45;&gt;Node25 -->
<g id="edge8" class="edge">
<title>Node21&#45;&gt;Node25</title>
<path fill="none" stroke="#191970" d="M1038.2076,-31.8156C1046.6658,-32.4067 1055.2332,-33.0055 1063.6259,-33.5921"/>
<polygon fill="#191970" stroke="#191970" points="1063.5376,-37.0944 1073.7573,-34.3002 1064.0257,-30.1114 1063.5376,-37.0944"/>
</g>
<!-- Node23 -->
<g id="node7" class="node">
<title>Node23</title>
<g id="a_node7"><a xlink:href="../../da/dce/class_render_data.html#afbc604f853739d0198c9da5097987fa7" target="_top" xlink:title="RenderData::getTransformation\lMatrix">
<polygon fill="none" stroke="#000000" points="1244,-82 1244,-112 1398,-112 1398,-82 1244,-82"/>
<text text-anchor="start" x="1252" y="-100" font-family="Helvetica,sans-Serif" font-size="10.00" fill="#000000">RenderData::getTransformation</text>
<text text-anchor="middle" x="1321" y="-89" font-family="Helvetica,sans-Serif" font-size="10.00" fill="#000000">Matrix</text>
</a>
</g>
</g>
<!-- Node22&#45;&gt;Node23 -->
<g id="edge6" class="edge">
<title>Node22&#45;&gt;Node23</title>
<path fill="none" stroke="#191970" d="M1202.191,-98.3201C1212.3088,-98.2077 1222.9696,-98.0892 1233.5825,-97.9713"/>
<polygon fill="#191970" stroke="#191970" points="1233.7633,-101.4696 1243.7238,-97.8586 1233.6855,-94.47 1233.7633,-101.4696"/>
</g>
<!-- Node24 -->
<g id="node8" class="node">
<title>Node24</title>
<g id="a_node8"><a xlink:href="../../da/dce/class_render_data.html#a7b32e615d46ac5ffbd3d14de0da2c406" target="_top" xlink:title="RenderData::pointInFirst\lQuadrantAfterTransformation">
<polygon fill="none" stroke="#000000" points="1249.5,-131 1249.5,-161 1392.5,-161 1392.5,-131 1249.5,-131"/>
<text text-anchor="start" x="1257.5" y="-149" font-family="Helvetica,sans-Serif" font-size="10.00" fill="#000000">RenderData::pointInFirst</text>
<text text-anchor="middle" x="1321" y="-138" font-family="Helvetica,sans-Serif" font-size="10.00" fill="#000000">QuadrantAfterTransformation</text>
</a>
</g>
</g>
<!-- Node22&#45;&gt;Node24 -->
<g id="edge7" class="edge">
<title>Node22&#45;&gt;Node24</title>
<path fill="none" stroke="#191970" d="M1198.448,-114.0003C1215.9839,-118.5791 1235.4252,-123.6555 1253.5602,-128.3907"/>
<polygon fill="#191970" stroke="#191970" points="1252.9205,-131.841 1263.4804,-130.981 1254.689,-125.068 1252.9205,-131.841"/>
</g>
<!-- Node26&#45;&gt;Node21 -->
<g id="edge10" class="edge">
<title>Node26&#45;&gt;Node21</title>
<path fill="none" stroke="#191970" d="M832.1611,-54.9808C847.978,-51.2492 865.0619,-47.2186 881.3154,-43.384"/>
<polygon fill="#191970" stroke="#191970" points="882.3803,-46.729 891.3094,-41.0262 880.7729,-39.916 882.3803,-46.729"/>
</g>
<!-- Node26&#45;&gt;Node22 -->
<g id="edge14" class="edge">
<title>Node26&#45;&gt;Node22</title>
<path fill="none" stroke="#191970" d="M836.0555,-79.9178C848.0114,-81.4502 860.3574,-82.8897 872,-84 938.8181,-90.3721 1015.2511,-94.3137 1069.5241,-96.5474"/>
<polygon fill="#191970" stroke="#191970" points="1069.6003,-100.0532 1079.733,-96.9582 1069.8818,-93.0589 1069.6003,-100.0532"/>
</g>
<!-- Node26&#45;&gt;Node25 -->
<g id="edge13" class="edge">
<title>Node26&#45;&gt;Node25</title>
<path fill="none" stroke="#191970" d="M836.1106,-65.5903C890.6471,-61.8868 969.3128,-56.2148 1038,-50 1046.3675,-49.2429 1055.1114,-48.3958 1063.8155,-47.5167"/>
<polygon fill="#191970" stroke="#191970" points="1064.3993,-50.9753 1073.9902,-46.4736 1063.6853,-44.0118 1064.3993,-50.9753"/>
</g>
<!-- Node27 -->
<g id="node11" class="node">
<title>Node27</title>
<g id="a_node11"><a xlink:href="../../da/dce/class_render_data.html#ad8c590fd11eda06875112a74d318267f" target="_top" xlink:title="RenderData::normalize">
<polygon fill="none" stroke="#000000" points="896.5,-136.5 896.5,-155.5 1013.5,-155.5 1013.5,-136.5 896.5,-136.5"/>
<text text-anchor="middle" x="955" y="-143.5" font-family="Helvetica,sans-Serif" font-size="10.00" fill="#000000">RenderData::normalize</text>
</a>
</g>
</g>
<!-- Node26&#45;&gt;Node27 -->
<g id="edge11" class="edge">
<title>Node26&#45;&gt;Node27</title>
<path fill="none" stroke="#191970" d="M795.1162,-85.0829C815.6616,-96.3011 845.0396,-111.4335 872,-122 883.0176,-126.3181 895.127,-130.254 906.6088,-133.6333"/>
<polygon fill="#191970" stroke="#191970" points="905.9176,-137.0757 916.4942,-136.4552 907.8391,-130.3446 905.9176,-137.0757"/>
</g>
<!-- Node27&#45;&gt;Node24 -->
<g id="edge12" class="edge">
<title>Node27&#45;&gt;Node24</title>
<path fill="none" stroke="#191970" d="M1013.8042,-146C1074.8287,-146 1170.7402,-146 1239.1524,-146"/>
<polygon fill="#191970" stroke="#191970" points="1239.4623,-149.5001 1249.4623,-146 1239.4623,-142.5001 1239.4623,-149.5001"/>
</g>
</g>
</svg>
