<?xml version="1.0" encoding="UTF-8" standalone="no"?>
<!DOCTYPE svg PUBLIC "-//W3C//DTD SVG 1.1//EN"
 "http://www.w3.org/Graphics/SVG/1.1/DTD/svg11.dtd">
<!-- Generated by graphviz version 2.40.1 (20161225.0304)
 -->
<!-- Title: MainWindow::MainWindow Pages: 1 -->
<!--zoomable 230 -->
<svg id="main" version="1.1" xmlns="http://www.w3.org/2000/svg" xmlns:xlink="http://www.w3.org/1999/xlink" xml:space="preserve" onload="init(evt)">
<style type="text/css"><![CDATA[
.edge:hover path { stroke: red; }
.edge:hover polygon { stroke: red; fill: red; }
]]></style>
<script type="text/javascript"><![CDATA[
var edges = document.getElementsByTagName('g');
if (edges && edges.length) {
  for (var i=0;i<edges.length;i++) {
    if (edges[i].id.substr(0,4)=='edge') {
      edges[i].setAttribute('class','edge');
    }
  }
}
]]></script>
        <defs>
                <circle id="rim" cx="0" cy="0" r="7"/>
                <circle id="rim2" cx="0" cy="0" r="3.5"/>
                <g id="zoomPlus">
                        <use xlink:href="#rim" fill="#404040">
                                <set attributeName="fill" to="#808080" begin="zoomplus.mouseover" end="zoomplus.mouseout"/>
                        </use>
                        <path d="M-4,0h8M0,-4v8" fill="none" stroke="white" stroke-width="1.5" pointer-events="none"/>
                </g>
                <g id="zoomMin">
                        <use xlink:href="#rim" fill="#404040">
                                <set attributeName="fill" to="#808080" begin="zoomminus.mouseover" end="zoomminus.mouseout"/>
                        </use>
                        <path d="M-4,0h8" fill="none" stroke="white" stroke-width="1.5" pointer-events="none"/>
                </g>
                <g id="dirArrow">
                        <path fill="none" stroke="white" stroke-width="1.5" d="M0,-3.0v7 M-2.5,-0.5L0,-3.0L2.5,-0.5"/>
                </g>
               <g id="resetDef">
                       <use xlink:href="#rim2" fill="#404040">
                               <set attributeName="fill" to="#808080" begin="reset.mouseover" end="reset.mouseout"/>
                       </use>
               </g>
        </defs>

<script type="text/javascript">
var viewWidth = 1608;
var viewHeight = 230;
var sectionId = 'dynsection-2';
</script>
<script xlink:href="../../svgpan.js"/>
<svg id="graph" class="graph">
<g id="viewport">
<title>MainWindow::MainWindow</title>
<!-- Node0 -->
<g id="node1" class="node">
<title>Node0</title>
<polygon fill="#bfbfbf" stroke="#000000" points="0,-60.6683 0,-79.6683 135,-79.6683 135,-60.6683 0,-60.6683"/>
<text text-anchor="middle" x="67.5" y="-67.6683" font-family="Helvetica,sans-Serif" font-size="10.00" fill="#000000">MainWindow::MainWindow</text>
</g>
<!-- Node1 -->
<g id="node2" class="node">
<title>Node1</title>
<g id="a_node2"><a xlink:href="../../d9/dc6/class_main_window.html#a7bdf36376a7474c5218923ed66baa937" target="_top" xlink:title="MainWindow::changeTriangle\lDepth">
<polygon fill="none" stroke="#000000" points="174.5,-137.1683 174.5,-167.1683 319.5,-167.1683 319.5,-137.1683 174.5,-137.1683"/>
<text text-anchor="start" x="182.5" y="-155.1683" font-family="Helvetica,sans-Serif" font-size="10.00" fill="#000000">MainWindow::changeTriangle</text>
<text text-anchor="middle" x="247" y="-144.1683" font-family="Helvetica,sans-Serif" font-size="10.00" fill="#000000">Depth</text>
</a>
</g>
</g>
<!-- Node0&#45;&gt;Node1 -->
<g id="edge1" class="edge">
<title>Node0&#45;&gt;Node1</title>
<path fill="none" stroke="#191970" d="M85.2159,-79.6794C105.6419,-90.5019 140.347,-108.4512 171,-122.1683 179.4627,-125.9553 188.5581,-129.7641 197.4115,-133.3367"/>
<polygon fill="#191970" stroke="#191970" points="196.2966,-136.66 206.882,-137.1084 198.8866,-130.1567 196.2966,-136.66"/>
</g>
<!-- Node2 -->
<g id="node3" class="node">
<title>Node2</title>
<g id="a_node3"><a xlink:href="../../da/dce/class_render_data.html#a1fffc72f3dd17ab052d4fb2f025ef5a0" target="_top" xlink:title="RenderData::getInstance">
<polygon fill="none" stroke="#000000" points="361.5,-98.6683 361.5,-117.6683 487.5,-117.6683 487.5,-98.6683 361.5,-98.6683"/>
<text text-anchor="middle" x="424.5" y="-105.6683" font-family="Helvetica,sans-Serif" font-size="10.00" fill="#000000">RenderData::getInstance</text>
</a>
</g>
</g>
<!-- Node0&#45;&gt;Node2 -->
<g id="edge24" class="edge">
<title>Node0&#45;&gt;Node2</title>
<path fill="none" stroke="#191970" d="M113.4474,-79.691C131.3431,-83.1138 152.0655,-86.7278 171,-89.1683 231.4021,-96.9534 300.3432,-101.8663 351.0673,-104.7413"/>
<polygon fill="#191970" stroke="#191970" points="351.1047,-108.2486 361.2829,-105.3068 351.4917,-101.2593 351.1047,-108.2486"/>
</g>
<!-- Node12 -->
<g id="node13" class="node">
<title>Node12</title>
<g id="a_node13"><a xlink:href="../../d9/dc6/class_main_window.html#a288b768c3c21a9171bdc56fe845ece8b" target="_top" xlink:title="MainWindow::openFile">
<polygon fill="none" stroke="#000000" points="189,-60.6683 189,-79.6683 305,-79.6683 305,-60.6683 189,-60.6683"/>
<text text-anchor="middle" x="247" y="-67.6683" font-family="Helvetica,sans-Serif" font-size="10.00" fill="#000000">MainWindow::openFile</text>
</a>
</g>
</g>
<!-- Node0&#45;&gt;Node12 -->
<g id="edge17" class="edge">
<title>Node0&#45;&gt;Node12</title>
<path fill="none" stroke="#191970" d="M135.1055,-70.1683C149.3402,-70.1683 164.3676,-70.1683 178.6302,-70.1683"/>
<polygon fill="#191970" stroke="#191970" points="178.8581,-73.6684 188.8581,-70.1683 178.858,-66.6684 178.8581,-73.6684"/>
</g>
<!-- Node14 -->
<g id="node15" class="node">
<title>Node14</title>
<g id="a_node15"><a xlink:href="../../d9/dc6/class_main_window.html#a1cfcf14a3dbba8db45a2444a0fbe5a9f" target="_top" xlink:title="MainWindow::changeColorMap">
<polygon fill="none" stroke="#000000" points="171,-22.6683 171,-41.6683 323,-41.6683 323,-22.6683 171,-22.6683"/>
<text text-anchor="middle" x="247" y="-29.6683" font-family="Helvetica,sans-Serif" font-size="10.00" fill="#000000">MainWindow::changeColorMap</text>
</a>
</g>
</g>
<!-- Node0&#45;&gt;Node14 -->
<g id="edge21" class="edge">
<title>Node0&#45;&gt;Node14</title>
<path fill="none" stroke="#191970" d="M112.7954,-60.5793C136.9092,-55.4744 166.7508,-49.157 192.1666,-43.7765"/>
<polygon fill="#191970" stroke="#191970" points="192.972,-47.1836 202.0303,-41.6883 191.5222,-40.3354 192.972,-47.1836"/>
</g>
<!-- Node15 -->
<g id="node16" class="node">
<title>Node15</title>
<g id="a_node16"><a xlink:href="../../da/dce/class_render_data.html#adb1961bf93370d67c9efb416fde8fefb" target="_top" xlink:title="RenderData::setColorMap">
<polygon fill="none" stroke="#000000" points="359,-3.6683 359,-22.6683 490,-22.6683 490,-3.6683 359,-3.6683"/>
<text text-anchor="middle" x="424.5" y="-10.6683" font-family="Helvetica,sans-Serif" font-size="10.00" fill="#000000">RenderData::setColorMap</text>
</a>
</g>
</g>
<!-- Node0&#45;&gt;Node15 -->
<g id="edge25" class="edge">
<title>Node0&#45;&gt;Node15</title>
<path fill="none" stroke="#191970" d="M79.9944,-60.5115C98.5982,-46.8083 135.2392,-22.3643 171,-13.1683 229.3411,1.8343 297.764,.7941 348.8099,-3.4226"/>
<polygon fill="#191970" stroke="#191970" points="348.5097,-6.9096 358.7792,-4.3044 349.1266,.0632 348.5097,-6.9096"/>
</g>
<!-- Node1&#45;&gt;Node2 -->
<g id="edge2" class="edge">
<title>Node1&#45;&gt;Node2</title>
<path fill="none" stroke="#191970" d="M307.589,-137.149C330.0442,-131.5827 355.1827,-125.3512 376.3786,-120.097"/>
<polygon fill="#191970" stroke="#191970" points="377.262,-123.484 386.126,-117.6807 375.5777,-116.6896 377.262,-123.484"/>
</g>
<!-- Node4 -->
<g id="node5" class="node">
<title>Node4</title>
<g id="a_node5"><a xlink:href="../../da/dce/class_render_data.html#a8d5f7285d29dc9ca0f93fcf2b5826283" target="_top" xlink:title="RenderData::setSphereDepth">
<polygon fill="none" stroke="#000000" points="721,-98.6683 721,-117.6683 867,-117.6683 867,-98.6683 721,-98.6683"/>
<text text-anchor="middle" x="794" y="-105.6683" font-family="Helvetica,sans-Serif" font-size="10.00" fill="#000000">RenderData::setSphereDepth</text>
</a>
</g>
</g>
<!-- Node1&#45;&gt;Node4 -->
<g id="edge16" class="edge">
<title>Node1&#45;&gt;Node4</title>
<path fill="none" stroke="#191970" d="M319.6843,-150.5884C406.76,-148.1031 556.9385,-141.9343 685,-127.1683 701.7509,-125.2368 719.8301,-122.396 736.3571,-119.4965"/>
<polygon fill="#191970" stroke="#191970" points="737.1963,-122.9019 746.4212,-117.6912 735.9603,-116.0119 737.1963,-122.9019"/>
</g>
<!-- Node3 -->
<g id="node4" class="node">
<title>Node3</title>
<g id="a_node4"><a xlink:href="../../da/dce/class_render_data.html#a16b04b2437ea3fa034381a138cbf2f83" target="_top" xlink:title="Sets initial sphere depth to 3. ">
<polygon fill="none" stroke="#000000" points="541.5,-98.6683 541.5,-117.6683 669.5,-117.6683 669.5,-98.6683 541.5,-98.6683"/>
<text text-anchor="middle" x="605.5" y="-105.6683" font-family="Helvetica,sans-Serif" font-size="10.00" fill="#000000">RenderData::RenderData</text>
</a>
</g>
</g>
<!-- Node2&#45;&gt;Node3 -->
<g id="edge3" class="edge">
<title>Node2&#45;&gt;Node3</title>
<path fill="none" stroke="#191970" d="M487.5509,-108.1683C501.5896,-108.1683 516.6017,-108.1683 531.0499,-108.1683"/>
<polygon fill="#191970" stroke="#191970" points="531.4489,-111.6684 541.4489,-108.1683 531.4488,-104.6684 531.4489,-111.6684"/>
</g>
<!-- Node3&#45;&gt;Node4 -->
<g id="edge4" class="edge">
<title>Node3&#45;&gt;Node4</title>
<path fill="none" stroke="#191970" d="M669.5805,-108.1683C682.6785,-108.1683 696.6454,-108.1683 710.3123,-108.1683"/>
<polygon fill="#191970" stroke="#191970" points="710.6857,-111.6684 720.6856,-108.1683 710.6856,-104.6684 710.6857,-111.6684"/>
</g>
<!-- Node5 -->
<g id="node6" class="node">
<title>Node5</title>
<g id="a_node6"><a xlink:href="../../da/dce/class_render_data.html#adee024bdbedaae2cfd38bb2038b4aa48" target="_top" xlink:title="RenderData::generateIcosahedron\lAtDepthZero">
<polygon fill="none" stroke="#000000" points="1074,-71.1683 1074,-101.1683 1240,-101.1683 1240,-71.1683 1074,-71.1683"/>
<text text-anchor="start" x="1082" y="-89.1683" font-family="Helvetica,sans-Serif" font-size="10.00" fill="#000000">RenderData::generateIcosahedron</text>
<text text-anchor="middle" x="1157" y="-78.1683" font-family="Helvetica,sans-Serif" font-size="10.00" fill="#000000">AtDepthZero</text>
</a>
</g>
</g>
<!-- Node4&#45;&gt;Node5 -->
<g id="edge5" class="edge">
<title>Node4&#45;&gt;Node5</title>
<path fill="none" stroke="#191970" d="M867.0218,-103.7427C923.6997,-100.3077 1002.6696,-95.5216 1063.8894,-91.8113"/>
<polygon fill="#191970" stroke="#191970" points="1064.1719,-95.3007 1073.9418,-91.2021 1063.7484,-88.3136 1064.1719,-95.3007"/>
</g>
<!-- Node10 -->
<g id="node11" class="node">
<title>Node10</title>
<g id="a_node11"><a xlink:href="../../da/dce/class_render_data.html#ac1bbf9770f040e452f676358ee699767" target="_top" xlink:title="RenderData::calculateNext\lSubdivision">
<polygon fill="none" stroke="#000000" points="903,-115.1683 903,-145.1683 1038,-145.1683 1038,-115.1683 903,-115.1683"/>
<text text-anchor="start" x="911" y="-133.1683" font-family="Helvetica,sans-Serif" font-size="10.00" fill="#000000">RenderData::calculateNext</text>
<text text-anchor="middle" x="970.5" y="-122.1683" font-family="Helvetica,sans-Serif" font-size="10.00" fill="#000000">Subdivision</text>
</a>
</g>
</g>
<!-- Node4&#45;&gt;Node10 -->
<g id="edge10" class="edge">
<title>Node4&#45;&gt;Node10</title>
<path fill="none" stroke="#191970" d="M867.0634,-117.2753C875.5838,-118.3374 884.299,-119.4237 892.8782,-120.493"/>
<polygon fill="#191970" stroke="#191970" points="892.5111,-123.9743 902.8672,-121.7381 893.377,-117.028 892.5111,-123.9743"/>
</g>
<!-- Node6 -->
<g id="node7" class="node">
<title>Node6</title>
<g id="a_node7"><a xlink:href="../../da/dce/class_render_data.html#af74f8858b9e0dedb914f24390e140a04" target="_top" xlink:title="RenderData::filterPoints\lForTriangle">
<polygon fill="none" stroke="#000000" points="1282,-145.1683 1282,-175.1683 1404,-175.1683 1404,-145.1683 1282,-145.1683"/>
<text text-anchor="start" x="1290" y="-163.1683" font-family="Helvetica,sans-Serif" font-size="10.00" fill="#000000">RenderData::filterPoints</text>
<text text-anchor="middle" x="1343" y="-152.1683" font-family="Helvetica,sans-Serif" font-size="10.00" fill="#000000">ForTriangle</text>
</a>
</g>
</g>
<!-- Node5&#45;&gt;Node6 -->
<g id="edge6" class="edge">
<title>Node5&#45;&gt;Node6</title>
<path fill="none" stroke="#191970" d="M1195.0887,-101.3219C1224.2733,-112.9329 1264.698,-129.0159 1295.9118,-141.4343"/>
<polygon fill="#191970" stroke="#191970" points="1294.695,-144.7169 1305.2805,-145.1616 1297.2827,-138.2128 1294.695,-144.7169"/>
</g>
<!-- Node9 -->
<g id="node10" class="node">
<title>Node9</title>
<g id="a_node10"><a xlink:href="../../da/dce/class_render_data.html#a4fca77ce81a628de0ddaeb7d75a4c371" target="_top" xlink:title="RenderData::insertTriangle\lIntoVerticesVector">
<polygon fill="none" stroke="#000000" points="1276,-83.1683 1276,-113.1683 1410,-113.1683 1410,-83.1683 1276,-83.1683"/>
<text text-anchor="start" x="1284" y="-101.1683" font-family="Helvetica,sans-Serif" font-size="10.00" fill="#000000">RenderData::insertTriangle</text>
<text text-anchor="middle" x="1343" y="-90.1683" font-family="Helvetica,sans-Serif" font-size="10.00" fill="#000000">IntoVerticesVector</text>
</a>
</g>
</g>
<!-- Node5&#45;&gt;Node9 -->
<g id="edge9" class="edge">
<title>Node5&#45;&gt;Node9</title>
<path fill="none" stroke="#191970" d="M1240.2076,-91.5365C1248.6658,-92.0822 1257.2332,-92.6349 1265.6259,-93.1764"/>
<polygon fill="#191970" stroke="#191970" points="1265.5527,-96.6789 1275.7573,-93.83 1266.0034,-89.6934 1265.5527,-96.6789"/>
</g>
<!-- Node7 -->
<g id="node8" class="node">
<title>Node7</title>
<g id="a_node8"><a xlink:href="../../da/dce/class_render_data.html#afbc604f853739d0198c9da5097987fa7" target="_top" xlink:title="RenderData::getTransformation\lMatrix">
<polygon fill="none" stroke="#000000" points="1446,-142.1683 1446,-172.1683 1600,-172.1683 1600,-142.1683 1446,-142.1683"/>
<text text-anchor="start" x="1454" y="-160.1683" font-family="Helvetica,sans-Serif" font-size="10.00" fill="#000000">RenderData::getTransformation</text>
<text text-anchor="middle" x="1523" y="-149.1683" font-family="Helvetica,sans-Serif" font-size="10.00" fill="#000000">Matrix</text>
</a>
</g>
</g>
<!-- Node6&#45;&gt;Node7 -->
<g id="edge7" class="edge">
<title>Node6&#45;&gt;Node7</title>
<path fill="none" stroke="#191970" d="M1404.191,-159.1484C1414.3088,-158.9798 1424.9696,-158.8021 1435.5825,-158.6252"/>
<polygon fill="#191970" stroke="#191970" points="1435.7836,-162.1225 1445.7238,-158.4562 1435.6668,-155.1234 1435.7836,-162.1225"/>
</g>
<!-- Node8 -->
<g id="node9" class="node">
<title>Node8</title>
<g id="a_node9"><a xlink:href="../../da/dce/class_render_data.html#a7b32e615d46ac5ffbd3d14de0da2c406" target="_top" xlink:title="RenderData::pointInFirst\lQuadrantAfterTransformation">
<polygon fill="none" stroke="#000000" points="1451.5,-191.1683 1451.5,-221.1683 1594.5,-221.1683 1594.5,-191.1683 1451.5,-191.1683"/>
<text text-anchor="start" x="1459.5" y="-209.1683" font-family="Helvetica,sans-Serif" font-size="10.00" fill="#000000">RenderData::pointInFirst</text>
<text text-anchor="middle" x="1523" y="-198.1683" font-family="Helvetica,sans-Serif" font-size="10.00" fill="#000000">QuadrantAfterTransformation</text>
</a>
</g>
</g>
<!-- Node6&#45;&gt;Node8 -->
<g id="edge8" class="edge">
<title>Node6&#45;&gt;Node8</title>
<path fill="none" stroke="#191970" d="M1401.9387,-175.2304C1418.652,-179.5016 1436.9942,-184.189 1454.2339,-188.5947"/>
<polygon fill="#191970" stroke="#191970" points="1453.6812,-192.0659 1464.2364,-191.1509 1455.4144,-185.2838 1453.6812,-192.0659"/>
</g>
<!-- Node10&#45;&gt;Node5 -->
<g id="edge11" class="edge">
<title>Node10&#45;&gt;Node5</title>
<path fill="none" stroke="#191970" d="M1034.1611,-115.149C1049.978,-111.4174 1067.0619,-107.3869 1083.3154,-103.5523"/>
<polygon fill="#191970" stroke="#191970" points="1084.3803,-106.8973 1093.3094,-101.1945 1082.7729,-100.0843 1084.3803,-106.8973"/>
</g>
<!-- Node10&#45;&gt;Node6 -->
<g id="edge15" class="edge">
<title>Node10&#45;&gt;Node6</title>
<path fill="none" stroke="#191970" d="M1038.059,-140.0499C1050.0145,-141.5862 1062.3595,-143.0364 1074,-144.1683 1140.8205,-150.6655 1217.2531,-154.9062 1271.5254,-157.3786"/>
<polygon fill="#191970" stroke="#191970" points="1271.5879,-160.8848 1281.7342,-157.8347 1271.9004,-153.8917 1271.5879,-160.8848"/>
</g>
<!-- Node10&#45;&gt;Node9 -->
<g id="edge14" class="edge">
<title>Node10&#45;&gt;Node9</title>
<path fill="none" stroke="#191970" d="M1038.1478,-126.4358C1092.7054,-123.176 1171.3812,-117.9123 1240,-111.1683 1248.3157,-110.351 1256.9973,-109.4034 1265.6397,-108.3995"/>
<polygon fill="#191970" stroke="#191970" points="1266.2254,-111.8546 1275.7428,-107.1995 1265.3998,-104.9035 1266.2254,-111.8546"/>
</g>
<!-- Node11 -->
<g id="node12" class="node">
<title>Node11</title>
<g id="a_node12"><a xlink:href="../../da/dce/class_render_data.html#ad8c590fd11eda06875112a74d318267f" target="_top" xlink:title="RenderData::normalize">
<polygon fill="none" stroke="#000000" points="1098.5,-196.6683 1098.5,-215.6683 1215.5,-215.6683 1215.5,-196.6683 1098.5,-196.6683"/>
<text text-anchor="middle" x="1157" y="-203.6683" font-family="Helvetica,sans-Serif" font-size="10.00" fill="#000000">RenderData::normalize</text>
</a>
</g>
</g>
<!-- Node10&#45;&gt;Node11 -->
<g id="edge12" class="edge">
<title>Node10&#45;&gt;Node11</title>
<path fill="none" stroke="#191970" d="M997.1162,-145.2512C1017.6616,-156.4694 1047.0396,-171.6017 1074,-182.1683 1085.0176,-186.4864 1097.127,-190.4223 1108.6088,-193.8015"/>
<polygon fill="#191970" stroke="#191970" points="1107.9176,-197.244 1118.4942,-196.6234 1109.8391,-190.5128 1107.9176,-197.244"/>
</g>
<!-- Node11&#45;&gt;Node8 -->
<g id="edge13" class="edge">
<title>Node11&#45;&gt;Node8</title>
<path fill="none" stroke="#191970" d="M1215.8042,-206.1683C1276.8287,-206.1683 1372.7402,-206.1683 1441.1524,-206.1683"/>
<polygon fill="#191970" stroke="#191970" points="1441.4623,-209.6684 1451.4623,-206.1683 1441.4623,-202.6684 1441.4623,-209.6684"/>
</g>
<!-- Node12&#45;&gt;Node2 -->
<g id="edge18" class="edge">
<title>Node12&#45;&gt;Node2</title>
<path fill="none" stroke="#191970" d="M291.7907,-79.7573C315.5303,-84.8396 344.8839,-91.1237 369.9437,-96.4886"/>
<polygon fill="#191970" stroke="#191970" points="369.5202,-99.9772 380.0313,-98.6482 370.9856,-93.1323 369.5202,-99.9772"/>
</g>
<!-- Node13 -->
<g id="node14" class="node">
<title>Node13</title>
<g id="a_node14"><a xlink:href="../../da/dce/class_render_data.html#ac161f29f7d6ae6fd3912e8af7bdccdfd" target="_top" xlink:title="RenderData::loadPointsFromFile">
<polygon fill="none" stroke="#000000" points="526,-60.6683 526,-79.6683 685,-79.6683 685,-60.6683 526,-60.6683"/>
<text text-anchor="middle" x="605.5" y="-67.6683" font-family="Helvetica,sans-Serif" font-size="10.00" fill="#000000">RenderData::loadPointsFromFile</text>
</a>
</g>
</g>
<!-- Node12&#45;&gt;Node13 -->
<g id="edge19" class="edge">
<title>Node12&#45;&gt;Node13</title>
<path fill="none" stroke="#191970" d="M305.3971,-70.1683C362.2737,-70.1683 449.5365,-70.1683 515.33,-70.1683"/>
<polygon fill="#191970" stroke="#191970" points="515.6973,-73.6684 525.6972,-70.1683 515.6972,-66.6684 515.6973,-73.6684"/>
</g>
<!-- Node13&#45;&gt;Node4 -->
<g id="edge20" class="edge">
<title>Node13&#45;&gt;Node4</title>
<path fill="none" stroke="#191970" d="M653.0665,-79.7573C678.5014,-84.8847 710.0046,-91.2355 736.7714,-96.6315"/>
<polygon fill="#191970" stroke="#191970" points="736.2811,-100.103 746.7755,-98.6482 737.6644,-93.241 736.2811,-100.103"/>
</g>
<!-- Node14&#45;&gt;Node2 -->
<g id="edge22" class="edge">
<title>Node14&#45;&gt;Node2</title>
<path fill="none" stroke="#191970" d="M293.4389,-41.6865C303.3514,-44.2949 313.6474,-47.4508 323,-51.1683 351.5014,-62.497 381.8801,-80.4251 401.8945,-93.1471"/>
<polygon fill="#191970" stroke="#191970" points="400.0171,-96.1011 410.317,-98.5836 403.8133,-90.2198 400.0171,-96.1011"/>
</g>
<!-- Node14&#45;&gt;Node15 -->
<g id="edge23" class="edge">
<title>Node14&#45;&gt;Node15</title>
<path fill="none" stroke="#191970" d="M323.0484,-24.0279C331.6375,-23.1085 340.3886,-22.1718 348.9711,-21.2531"/>
<polygon fill="#191970" stroke="#191970" points="349.3781,-24.7296 358.9487,-20.185 348.633,-17.7693 349.3781,-24.7296"/>
</g>
</g>
</svg>
        <g id="navigator" transform="translate(0 0)" fill="#404254">
                <rect fill="#f2f5e9" fill-opacity="0.5" stroke="#606060" stroke-width=".5" x="0" y="0" width="60" height="60"/>
                <use id="zoomplus" xlink:href="#zoomPlus" x="17" y="9" onmousedown="handleZoom(evt,'in')"/>
                <use id="zoomminus" xlink:href="#zoomMin" x="42" y="9" onmousedown="handleZoom(evt,'out')"/>
                <use id="reset" xlink:href="#resetDef" x="30" y="36" onmousedown="handleReset()"/>
                <g id="arrowUp" xlink:href="#dirArrow" transform="translate(30 24)" onmousedown="handlePan(0,-1)">
                  <use xlink:href="#rim" fill="#404040">
                        <set attributeName="fill" to="#808080" begin="arrowUp.mouseover" end="arrowUp.mouseout"/>
                  </use>
                  <path fill="none" stroke="white" stroke-width="1.5" d="M0,-3.0v7 M-2.5,-0.5L0,-3.0L2.5,-0.5"/>
                </g>
                <g id="arrowRight" xlink:href="#dirArrow" transform="rotate(90) translate(36 -43)" onmousedown="handlePan(1,0)">
                  <use xlink:href="#rim" fill="#404040">
                        <set attributeName="fill" to="#808080" begin="arrowRight.mouseover" end="arrowRight.mouseout"/>
                  </use>
                  <path fill="none" stroke="white" stroke-width="1.5" d="M0,-3.0v7 M-2.5,-0.5L0,-3.0L2.5,-0.5"/>
                </g>
                <g id="arrowDown" xlink:href="#dirArrow" transform="rotate(180) translate(-30 -48)" onmousedown="handlePan(0,1)">
                  <use xlink:href="#rim" fill="#404040">
                        <set attributeName="fill" to="#808080" begin="arrowDown.mouseover" end="arrowDown.mouseout"/>
                  </use>
                  <path fill="none" stroke="white" stroke-width="1.5" d="M0,-3.0v7 M-2.5,-0.5L0,-3.0L2.5,-0.5"/>
                </g>
                <g id="arrowLeft" xlink:href="#dirArrow" transform="rotate(270) translate(-36 17)" onmousedown="handlePan(-1,0)">
                  <use xlink:href="#rim" fill="#404040">
                        <set attributeName="fill" to="#808080" begin="arrowLeft.mouseover" end="arrowLeft.mouseout"/>
                  </use>
                  <path fill="none" stroke="white" stroke-width="1.5" d="M0,-3.0v7 M-2.5,-0.5L0,-3.0L2.5,-0.5"/>
                </g>
        </g>
        <svg viewBox="0 0 15 15" width="100%" height="30px" preserveAspectRatio="xMaxYMin meet">
         <g id="arrow_out" transform="scale(0.3 0.3)">
          <a xlink:href="class_main_window_a8b244be8b7b7db1b08de2a2acb9409db_cgraph_org.svg" target="_base">
           <rect id="button" ry="5" rx="5" y="6" x="6" height="38" width="38"
                fill="#f2f5e9" fill-opacity="0.5" stroke="#606060" stroke-width="1.0"/>
           <path id="arrow"
             d="M 11.500037,31.436501 C 11.940474,20.09759 22.043105,11.32322 32.158766,21.979434 L 37.068811,17.246167 C 37.068811,17.246167 37.088388,32 37.088388,32 L 22.160133,31.978069 C 22.160133,31.978069 26.997745,27.140456 26.997745,27.140456 C 18.528582,18.264221 13.291696,25.230495 11.500037,31.436501 z"
             style="fill:#404040;"/>
          </a>
         </g>
        </svg>
</svg>
