<?xml version="1.0" encoding="UTF-8" standalone="no"?>
<!DOCTYPE svg PUBLIC "-//W3C//DTD SVG 1.1//EN"
 "http://www.w3.org/Graphics/SVG/1.1/DTD/svg11.dtd">
<!-- Generated by graphviz version 2.40.1 (20161225.0304)
 -->
<!-- Title: MainWindow::openFile Pages: 1 -->
<svg width="1396pt" height="159pt"
 viewBox="0.00 0.00 1396.00 159.00" xmlns="http://www.w3.org/2000/svg" xmlns:xlink="http://www.w3.org/1999/xlink">
<g id="graph0" class="graph" transform="scale(1 1) rotate(0) translate(4 155)">
<title>MainWindow::openFile</title>
<!-- Node40 -->
<g id="node1" class="node">
<title>Node40</title>
<polygon fill="#bfbfbf" stroke="#000000" points="0,-28 0,-47 116,-47 116,-28 0,-28"/>
<text text-anchor="middle" x="58" y="-35" font-family="Helvetica,sans-Serif" font-size="10.00" fill="#000000">MainWindow::openFile</text>
</g>
<!-- Node41 -->
<g id="node2" class="node">
<title>Node41</title>
<g id="a_node2"><a xlink:href="../../da/dce/class_render_data.html#a1fffc72f3dd17ab052d4fb2f025ef5a0" target="_top" xlink:title="RenderData::getInstance">
<polygon fill="none" stroke="#000000" points="152,-47 152,-66 278,-66 278,-47 152,-47"/>
<text text-anchor="middle" x="215" y="-54" font-family="Helvetica,sans-Serif" font-size="10.00" fill="#000000">RenderData::getInstance</text>
</a>
</g>
</g>
<!-- Node40&#45;&gt;Node41 -->
<g id="edge1" class="edge">
<title>Node40&#45;&gt;Node41</title>
<path fill="none" stroke="#191970" d="M116.0149,-44.5209C124.4279,-45.539 133.1783,-46.598 141.8416,-47.6464"/>
<polygon fill="#191970" stroke="#191970" points="141.598,-51.1424 151.9461,-48.8693 142.4391,-44.1931 141.598,-51.1424"/>
</g>
<!-- Node51 -->
<g id="node12" class="node">
<title>Node51</title>
<g id="a_node12"><a xlink:href="../../da/dce/class_render_data.html#ac161f29f7d6ae6fd3912e8af7bdccdfd" target="_top" xlink:title="RenderData::loadPointsFromFile">
<polygon fill="none" stroke="#000000" points="314,-9 314,-28 473,-28 473,-9 314,-9"/>
<text text-anchor="middle" x="393.5" y="-16" font-family="Helvetica,sans-Serif" font-size="10.00" fill="#000000">RenderData::loadPointsFromFile</text>
</a>
</g>
</g>
<!-- Node40&#45;&gt;Node51 -->
<g id="edge15" class="edge">
<title>Node40&#45;&gt;Node51</title>
<path fill="none" stroke="#191970" d="M116.0566,-34.2121C167.737,-31.2854 244.1528,-26.9578 303.709,-23.585"/>
<polygon fill="#191970" stroke="#191970" points="304.0818,-27.0696 313.8678,-23.0097 303.6859,-20.0808 304.0818,-27.0696"/>
</g>
<!-- Node42 -->
<g id="node3" class="node">
<title>Node42</title>
<g id="a_node3"><a xlink:href="../../da/dce/class_render_data.html#a16b04b2437ea3fa034381a138cbf2f83" target="_top" xlink:title="Sets initial sphere depth to 3. ">
<polygon fill="none" stroke="#000000" points="329.5,-47 329.5,-66 457.5,-66 457.5,-47 329.5,-47"/>
<text text-anchor="middle" x="393.5" y="-54" font-family="Helvetica,sans-Serif" font-size="10.00" fill="#000000">RenderData::RenderData</text>
</a>
</g>
</g>
<!-- Node41&#45;&gt;Node42 -->
<g id="edge2" class="edge">
<title>Node41&#45;&gt;Node42</title>
<path fill="none" stroke="#191970" d="M278.1836,-56.5C291.4502,-56.5 305.5591,-56.5 319.1895,-56.5"/>
<polygon fill="#191970" stroke="#191970" points="319.4977,-60.0001 329.4976,-56.5 319.4976,-53.0001 319.4977,-60.0001"/>
</g>
<!-- Node43 -->
<g id="node4" class="node">
<title>Node43</title>
<g id="a_node4"><a xlink:href="../../da/dce/class_render_data.html#a8d5f7285d29dc9ca0f93fcf2b5826283" target="_top" xlink:title="RenderData::setSphereDepth">
<polygon fill="none" stroke="#000000" points="509,-28 509,-47 655,-47 655,-28 509,-28"/>
<text text-anchor="middle" x="582" y="-35" font-family="Helvetica,sans-Serif" font-size="10.00" fill="#000000">RenderData::setSphereDepth</text>
</a>
</g>
</g>
<!-- Node42&#45;&gt;Node43 -->
<g id="edge3" class="edge">
<title>Node42&#45;&gt;Node43</title>
<path fill="none" stroke="#191970" d="M457.5805,-50.041C470.8069,-48.7078 484.9194,-47.2853 498.7142,-45.8949"/>
<polygon fill="#191970" stroke="#191970" points="499.0871,-49.3751 508.6856,-44.8898 498.385,-42.4104 499.0871,-49.3751"/>
</g>
<!-- Node44 -->
<g id="node5" class="node">
<title>Node44</title>
<g id="a_node5"><a xlink:href="../../da/dce/class_render_data.html#adee024bdbedaae2cfd38bb2038b4aa48" target="_top" xlink:title="RenderData::generateIcosahedron\lAtDepthZero">
<polygon fill="none" stroke="#000000" points="862,-.5 862,-30.5 1028,-30.5 1028,-.5 862,-.5"/>
<text text-anchor="start" x="870" y="-18.5" font-family="Helvetica,sans-Serif" font-size="10.00" fill="#000000">RenderData::generateIcosahedron</text>
<text text-anchor="middle" x="945" y="-7.5" font-family="Helvetica,sans-Serif" font-size="10.00" fill="#000000">AtDepthZero</text>
</a>
</g>
</g>
<!-- Node43&#45;&gt;Node44 -->
<g id="edge4" class="edge">
<title>Node43&#45;&gt;Node44</title>
<path fill="none" stroke="#191970" d="M655.0218,-33.0744C711.6997,-29.6394 790.6696,-24.8534 851.8894,-21.1431"/>
<polygon fill="#191970" stroke="#191970" points="852.1719,-24.6325 861.9418,-20.5338 851.7484,-17.6453 852.1719,-24.6325"/>
</g>
<!-- Node49 -->
<g id="node10" class="node">
<title>Node49</title>
<g id="a_node10"><a xlink:href="../../da/dce/class_render_data.html#ac1bbf9770f040e452f676358ee699767" target="_top" xlink:title="RenderData::calculateNext\lSubdivision">
<polygon fill="none" stroke="#000000" points="691,-44.5 691,-74.5 826,-74.5 826,-44.5 691,-44.5"/>
<text text-anchor="start" x="699" y="-62.5" font-family="Helvetica,sans-Serif" font-size="10.00" fill="#000000">RenderData::calculateNext</text>
<text text-anchor="middle" x="758.5" y="-51.5" font-family="Helvetica,sans-Serif" font-size="10.00" fill="#000000">Subdivision</text>
</a>
</g>
</g>
<!-- Node43&#45;&gt;Node49 -->
<g id="edge9" class="edge">
<title>Node43&#45;&gt;Node49</title>
<path fill="none" stroke="#191970" d="M655.0634,-46.607C663.5838,-47.6691 672.299,-48.7554 680.8782,-49.8248"/>
<polygon fill="#191970" stroke="#191970" points="680.5111,-53.306 690.8672,-51.0699 681.377,-46.3598 680.5111,-53.306"/>
</g>
<!-- Node45 -->
<g id="node6" class="node">
<title>Node45</title>
<g id="a_node6"><a xlink:href="../../da/dce/class_render_data.html#af74f8858b9e0dedb914f24390e140a04" target="_top" xlink:title="RenderData::filterPoints\lForTriangle">
<polygon fill="none" stroke="#000000" points="1070,-73.5 1070,-103.5 1192,-103.5 1192,-73.5 1070,-73.5"/>
<text text-anchor="start" x="1078" y="-91.5" font-family="Helvetica,sans-Serif" font-size="10.00" fill="#000000">RenderData::filterPoints</text>
<text text-anchor="middle" x="1131" y="-80.5" font-family="Helvetica,sans-Serif" font-size="10.00" fill="#000000">ForTriangle</text>
</a>
</g>
</g>
<!-- Node44&#45;&gt;Node45 -->
<g id="edge5" class="edge">
<title>Node44&#45;&gt;Node45</title>
<path fill="none" stroke="#191970" d="M983.5393,-30.6256C1012.3441,-41.9308 1051.9111,-57.4598 1082.8079,-69.5859"/>
<polygon fill="#191970" stroke="#191970" points="1081.9226,-72.9983 1092.5101,-73.3937 1084.48,-66.4822 1081.9226,-72.9983"/>
</g>
<!-- Node48 -->
<g id="node9" class="node">
<title>Node48</title>
<g id="a_node9"><a xlink:href="../../da/dce/class_render_data.html#a4fca77ce81a628de0ddaeb7d75a4c371" target="_top" xlink:title="RenderData::insertTriangle\lIntoVerticesVector">
<polygon fill="none" stroke="#000000" points="1064,-13.5 1064,-43.5 1198,-43.5 1198,-13.5 1064,-13.5"/>
<text text-anchor="start" x="1072" y="-31.5" font-family="Helvetica,sans-Serif" font-size="10.00" fill="#000000">RenderData::insertTriangle</text>
<text text-anchor="middle" x="1131" y="-20.5" font-family="Helvetica,sans-Serif" font-size="10.00" fill="#000000">IntoVerticesVector</text>
</a>
</g>
</g>
<!-- Node44&#45;&gt;Node48 -->
<g id="edge8" class="edge">
<title>Node44&#45;&gt;Node48</title>
<path fill="none" stroke="#191970" d="M1028.2076,-21.3156C1036.6658,-21.9067 1045.2332,-22.5055 1053.6259,-23.0921"/>
<polygon fill="#191970" stroke="#191970" points="1053.5376,-26.5944 1063.7573,-23.8002 1054.0257,-19.6114 1053.5376,-26.5944"/>
</g>
<!-- Node46 -->
<g id="node7" class="node">
<title>Node46</title>
<g id="a_node7"><a xlink:href="../../da/dce/class_render_data.html#afbc604f853739d0198c9da5097987fa7" target="_top" xlink:title="RenderData::getTransformation\lMatrix">
<polygon fill="none" stroke="#000000" points="1234,-71.5 1234,-101.5 1388,-101.5 1388,-71.5 1234,-71.5"/>
<text text-anchor="start" x="1242" y="-89.5" font-family="Helvetica,sans-Serif" font-size="10.00" fill="#000000">RenderData::getTransformation</text>
<text text-anchor="middle" x="1311" y="-78.5" font-family="Helvetica,sans-Serif" font-size="10.00" fill="#000000">Matrix</text>
</a>
</g>
</g>
<!-- Node45&#45;&gt;Node46 -->
<g id="edge6" class="edge">
<title>Node45&#45;&gt;Node46</title>
<path fill="none" stroke="#191970" d="M1192.191,-87.8201C1202.3088,-87.7077 1212.9696,-87.5892 1223.5825,-87.4713"/>
<polygon fill="#191970" stroke="#191970" points="1223.7633,-90.9696 1233.7238,-87.3586 1223.6855,-83.97 1223.7633,-90.9696"/>
</g>
<!-- Node47 -->
<g id="node8" class="node">
<title>Node47</title>
<g id="a_node8"><a xlink:href="../../da/dce/class_render_data.html#a7b32e615d46ac5ffbd3d14de0da2c406" target="_top" xlink:title="RenderData::pointInFirst\lQuadrantAfterTransformation">
<polygon fill="none" stroke="#000000" points="1239.5,-120.5 1239.5,-150.5 1382.5,-150.5 1382.5,-120.5 1239.5,-120.5"/>
<text text-anchor="start" x="1247.5" y="-138.5" font-family="Helvetica,sans-Serif" font-size="10.00" fill="#000000">RenderData::pointInFirst</text>
<text text-anchor="middle" x="1311" y="-127.5" font-family="Helvetica,sans-Serif" font-size="10.00" fill="#000000">QuadrantAfterTransformation</text>
</a>
</g>
</g>
<!-- Node45&#45;&gt;Node47 -->
<g id="edge7" class="edge">
<title>Node45&#45;&gt;Node47</title>
<path fill="none" stroke="#191970" d="M1188.448,-103.5003C1205.9839,-108.0791 1225.4252,-113.1555 1243.5602,-117.8907"/>
<polygon fill="#191970" stroke="#191970" points="1242.9205,-121.341 1253.4804,-120.481 1244.689,-114.568 1242.9205,-121.341"/>
</g>
<!-- Node49&#45;&gt;Node44 -->
<g id="edge10" class="edge">
<title>Node49&#45;&gt;Node44</title>
<path fill="none" stroke="#191970" d="M822.1611,-44.4808C837.978,-40.7492 855.0619,-36.7186 871.3154,-32.884"/>
<polygon fill="#191970" stroke="#191970" points="872.3803,-36.229 881.3094,-30.5262 870.7729,-29.416 872.3803,-36.229"/>
</g>
<!-- Node49&#45;&gt;Node45 -->
<g id="edge14" class="edge">
<title>Node49&#45;&gt;Node45</title>
<path fill="none" stroke="#191970" d="M826.0555,-69.4178C838.0114,-70.9502 850.3574,-72.3897 862,-73.5 928.8181,-79.8721 1005.2511,-83.8137 1059.5241,-86.0474"/>
<polygon fill="#191970" stroke="#191970" points="1059.6003,-89.5532 1069.733,-86.4582 1059.8818,-82.5589 1059.6003,-89.5532"/>
</g>
<!-- Node49&#45;&gt;Node48 -->
<g id="edge13" class="edge">
<title>Node49&#45;&gt;Node48</title>
<path fill="none" stroke="#191970" d="M826.1106,-55.0903C880.6471,-51.3868 959.3128,-45.7148 1028,-39.5 1036.3675,-38.7429 1045.1114,-37.8958 1053.8155,-37.0167"/>
<polygon fill="#191970" stroke="#191970" points="1054.3993,-40.4753 1063.9902,-35.9736 1053.6853,-33.5118 1054.3993,-40.4753"/>
</g>
<!-- Node50 -->
<g id="node11" class="node">
<title>Node50</title>
<g id="a_node11"><a xlink:href="../../da/dce/class_render_data.html#ad8c590fd11eda06875112a74d318267f" target="_top" xlink:title="RenderData::normalize">
<polygon fill="none" stroke="#000000" points="886.5,-126 886.5,-145 1003.5,-145 1003.5,-126 886.5,-126"/>
<text text-anchor="middle" x="945" y="-133" font-family="Helvetica,sans-Serif" font-size="10.00" fill="#000000">RenderData::normalize</text>
</a>
</g>
</g>
<!-- Node49&#45;&gt;Node50 -->
<g id="edge11" class="edge">
<title>Node49&#45;&gt;Node50</title>
<path fill="none" stroke="#191970" d="M785.1162,-74.5829C805.6616,-85.8011 835.0396,-100.9335 862,-111.5 873.0176,-115.8181 885.127,-119.754 896.6088,-123.1333"/>
<polygon fill="#191970" stroke="#191970" points="895.9176,-126.5757 906.4942,-125.9552 897.8391,-119.8446 895.9176,-126.5757"/>
</g>
<!-- Node50&#45;&gt;Node47 -->
<g id="edge12" class="edge">
<title>Node50&#45;&gt;Node47</title>
<path fill="none" stroke="#191970" d="M1003.8042,-135.5C1064.8287,-135.5 1160.7402,-135.5 1229.1524,-135.5"/>
<polygon fill="#191970" stroke="#191970" points="1229.4623,-139.0001 1239.4623,-135.5 1229.4623,-132.0001 1229.4623,-139.0001"/>
</g>
<!-- Node51&#45;&gt;Node43 -->
<g id="edge16" class="edge">
<title>Node51&#45;&gt;Node43</title>
<path fill="none" stroke="#191970" d="M473.1678,-26.5302C481.6897,-27.3892 490.3747,-28.2646 498.9349,-29.1274"/>
<polygon fill="#191970" stroke="#191970" points="498.6085,-32.6121 508.9092,-30.1328 499.3106,-25.6474 498.6085,-32.6121"/>
</g>
</g>
</svg>
